<?xml version="1.0" encoding="iso-8859-1"?>
<!-- Generator: Adobe Illustrator 19.0.0, SVG Export Plug-In . SVG Version: 6.00 Build 0)  -->
<svg version="1.1" id="Capa_1" xmlns="http://www.w3.org/2000/svg" xmlns:xlink="http://www.w3.org/1999/xlink" x="0px" y="0px"
	 viewBox="0 0 73.411 73.411" style="enable-background:new 0 0 73.411 73.411;" xml:space="preserve">
<g>
	<path d="M70.247,18.012c-0.301-4.533-2.33-8.892-5.714-12.274C57.439-1.356,46.497-1.954,40.14,4.401L7.107,37.434l4.242,4.242
		L44.382,8.644c4.019-4.018,11.154-3.417,15.908,1.337c2.355,2.354,3.765,5.347,3.97,8.428c0.194,2.931-0.741,5.588-2.633,7.48
		L21.7,65.814c-2.506,2.486-6.989,2.055-10.006-0.961c-1.516-1.516-2.422-3.434-2.552-5.402c-0.121-1.818,0.45-3.457,1.608-4.613
		l-0.002-0.002l39.058-39.058c0.537-0.536,1.268-0.569,1.652-0.547c0.806,0.054,1.634,0.451,2.273,1.091
		c0.641,0.64,1.038,1.469,1.092,2.274c0.025,0.386-0.012,1.113-0.549,1.65l-32.11,32.113l4.242,4.242L58.515,24.49
		c1.617-1.615,2.453-3.908,2.294-6.292c-0.15-2.268-1.158-4.441-2.835-6.118c-1.676-1.677-3.849-2.685-6.117-2.836
		c-2.377-0.16-4.678,0.675-6.294,2.292L6.121,50.978l0.022,0.023c-2.145,2.357-3.212,5.469-2.988,8.846
		c0.227,3.42,1.752,6.705,4.297,9.25c2.862,2.859,6.561,4.314,10.124,4.314c2.982,0,5.861-1.031,8.084-3.098l0.013,0.012
		l0.247-0.246c0.013-0.014,0.026-0.023,0.039-0.035l-0.002-0.002L65.87,30.131C69.004,26.999,70.558,22.694,70.247,18.012z"/>
</g>
<g>
</g>
<g>
</g>
<g>
</g>
<g>
</g>
<g>
</g>
<g>
</g>
<g>
</g>
<g>
</g>
<g>
</g>
<g>
</g>
<g>
</g>
<g>
</g>
<g>
</g>
<g>
</g>
<g>
</g>
</svg>
