<?xml version="1.0" encoding="iso-8859-1"?>
<!-- Generator: Adobe Illustrator 19.0.0, SVG Export Plug-In . SVG Version: 6.00 Build 0)  -->
<svg version="1.1" id="Capa_1" xmlns="http://www.w3.org/2000/svg" xmlns:xlink="http://www.w3.org/1999/xlink" x="0px" y="0px"
	 viewBox="0 0 67.95 67.95" style="enable-background:new 0 0 67.95 67.95;" xml:space="preserve">
<g>
	<path d="M62.491,11.239c-7.39-7.388-19.412-7.388-26.8,0l-1.594,1.594c-0.061,0.02-0.124,0.036-0.184,0.059l-1.654-1.652
		c-7.388-7.389-19.411-7.389-26.799,0c-7.238,7.238-7.285,18.711-0.109,26.688c6.545,7.273,25.848,22.986,26.667,23.651
		c0.556,0.452,1.225,0.672,1.89,0.672c0.022,0,0.044,0,0.065-0.001c0.688,0.032,1.381-0.204,1.955-0.671
		c0.819-0.665,20.124-16.378,26.671-23.652C69.775,29.95,69.728,18.477,62.491,11.239z M9.812,33.914
		C4.806,28.35,4.759,20.426,9.703,15.482c2.525-2.524,5.841-3.787,9.157-3.787s6.632,1.262,9.157,3.787l2.743,2.743l-6.412,16.072
		c0,0,0,0.001-0.001,0.001l-0.022,0.056c-0.027,0.068-0.037,0.138-0.059,0.206c-0.036,0.112-0.075,0.222-0.097,0.339
		c-0.023,0.121-0.028,0.242-0.037,0.363c-0.005,0.068-0.021,0.134-0.021,0.203c0,0.009,0.002,0.017,0.002,0.025
		c0.001,0.134,0.021,0.265,0.04,0.396c0.009,0.066,0.01,0.135,0.024,0.199c0.021,0.1,0.059,0.193,0.089,0.289
		c0.029,0.09,0.05,0.184,0.086,0.27c0.028,0.065,0.069,0.124,0.102,0.188c0.055,0.107,0.106,0.217,0.173,0.316
		c0.057,0.083,0.128,0.156,0.193,0.233c0.058,0.069,0.109,0.145,0.173,0.208c0.062,0.063,0.137,0.112,0.205,0.169
		c0.082,0.068,0.159,0.142,0.248,0.201c0.054,0.035,0.115,0.061,0.171,0.093c0.117,0.067,0.233,0.136,0.359,0.188
		c0.008,0.003,0.014,0.008,0.021,0.011c0.084,0.033,0.17,0.049,0.255,0.074c0.092,0.028,0.18,0.063,0.276,0.081
		c0.193,0.039,0.387,0.06,0.58,0.06c0.004,0,0.009-0.001,0.013-0.001h9.837l-6.411,14.119C24.25,47.322,14.012,38.582,9.812,33.914z
		 M58.14,33.913c-4.296,4.773-14.901,13.801-21.157,19.016l7.366-16.225c0.005-0.01,0.006-0.021,0.011-0.031
		c0.049-0.11,0.081-0.228,0.116-0.344c0.023-0.077,0.055-0.153,0.071-0.23c0.018-0.08,0.021-0.164,0.031-0.246
		c0.016-0.119,0.034-0.236,0.035-0.354c0.001-0.012,0.004-0.022,0.004-0.034c0-0.067-0.016-0.131-0.02-0.197
		c-0.008-0.119-0.014-0.238-0.036-0.354c-0.018-0.094-0.048-0.182-0.073-0.272c-0.027-0.095-0.052-0.19-0.088-0.283
		c-0.036-0.091-0.084-0.176-0.128-0.262c-0.045-0.086-0.086-0.172-0.138-0.253c-0.052-0.079-0.111-0.15-0.17-0.224
		c-0.062-0.079-0.12-0.158-0.19-0.23c-0.067-0.07-0.143-0.13-0.217-0.193c-0.073-0.063-0.142-0.127-0.221-0.183
		c-0.098-0.068-0.204-0.123-0.31-0.18c-0.059-0.031-0.109-0.071-0.17-0.099c-0.011-0.005-0.021-0.006-0.031-0.011
		c-0.114-0.05-0.236-0.084-0.357-0.12c-0.071-0.021-0.142-0.051-0.214-0.066c-0.091-0.02-0.187-0.024-0.281-0.035
		c-0.105-0.013-0.211-0.031-0.316-0.032c-0.014,0-0.026-0.004-0.04-0.004H31.538l5.701-14.291l2.693-2.692
		c5.051-5.049,13.267-5.048,18.315,0C63.191,20.426,63.144,28.35,58.14,33.913z"/>
</g>
<g>
</g>
<g>
</g>
<g>
</g>
<g>
</g>
<g>
</g>
<g>
</g>
<g>
</g>
<g>
</g>
<g>
</g>
<g>
</g>
<g>
</g>
<g>
</g>
<g>
</g>
<g>
</g>
<g>
</g>
</svg>
