<?xml version="1.0" encoding="iso-8859-1"?>
<!-- Generator: Adobe Illustrator 19.0.0, SVG Export Plug-In . SVG Version: 6.00 Build 0)  -->
<svg version="1.1" id="Capa_1" xmlns="http://www.w3.org/2000/svg" xmlns:xlink="http://www.w3.org/1999/xlink" x="0px" y="0px"
	 viewBox="0 0 77.871 77.871" style="enable-background:new 0 0 77.871 77.871;" xml:space="preserve">
<g>
	<path d="M67.872,2H10C4.486,2,0,6.486,0,12v53.871c0,5.514,4.486,10,10,10h57.871c5.514,0,10-4.486,10-10V12
		C77.872,6.486,73.385,2,67.872,2z M10,8h57.871c2.206,0,4,1.794,4,4v8.426H6V12C6,9.795,7.795,8,10,8z M67.872,69.872H10
		c-2.206,0-4-1.794-4-4V26.426h65.871v39.445C71.872,68.078,70.078,69.872,67.872,69.872z"/>
	<rect x="12.661" y="11.76" width="5.564" height="6"/>
	<rect x="21.661" y="11.76" width="5.564" height="6"/>
	<rect x="30.661" y="11.76" width="5.564" height="6"/>
</g>
<g>
</g>
<g>
</g>
<g>
</g>
<g>
</g>
<g>
</g>
<g>
</g>
<g>
</g>
<g>
</g>
<g>
</g>
<g>
</g>
<g>
</g>
<g>
</g>
<g>
</g>
<g>
</g>
<g>
</g>
</svg>
