<?xml version="1.0" encoding="iso-8859-1"?>
<!-- Generator: Adobe Illustrator 19.0.0, SVG Export Plug-In . SVG Version: 6.00 Build 0)  -->
<svg version="1.1" id="Capa_1" xmlns="http://www.w3.org/2000/svg" xmlns:xlink="http://www.w3.org/1999/xlink" x="0px" y="0px"
	 viewBox="0 0 87.656 87.656" style="enable-background:new 0 0 87.656 87.656;" xml:space="preserve">
<g>
	<path d="M77.135,34.858c-1.95-12.146-12.353-21.111-24.842-21.111c-9.582,0-18.289,5.481-22.511,13.906
		c-1.164-0.287-2.357-0.432-3.57-0.432c-6.967,0-12.938,4.763-14.61,11.357C4.685,41.3,0,48.051,0,55.608
		c0,10.091,8.209,18.301,18.301,18.301H32.74h24.046h6.374c0.562,0,1.142-0.028,1.727-0.083c0.633,0.055,1.258,0.083,1.864,0.083
		c11.527,0,20.905-9.379,20.905-20.906C87.656,45.506,83.577,38.558,77.135,34.858z M38.74,67.909V54.95l-10.705,0.001
		c0,0-0.044-0.019-0.076-0.101c-0.048-0.124-0.013-0.262,0.048-0.324l17.072-17.183l16.84,16.992l0.198,0.183
		c0.019,0.017,0.081,0.079,0.081,0.212c0,0.15-0.081,0.216-0.109,0.221H50.786v12.958H38.74z M66.751,67.909
		c-0.505,0-1.034-0.027-1.573-0.082l-0.317-0.032l-0.316,0.035c-0.475,0.053-0.94,0.079-1.384,0.079h-6.374V60.95h5.32
		c3.359,0,6.092-2.791,6.092-6.221c0-1.812-0.763-3.515-2.097-4.697L49.343,33.121c-1.147-1.159-2.669-1.798-4.284-1.798
		c-1.614,0-3.135,0.638-4.283,1.796L23.745,50.304c-1.742,1.759-2.282,4.397-1.378,6.721c0.926,2.385,3.148,3.926,5.662,3.926h4.712
		v6.959h-14.44C11.518,67.91,6,62.391,6,55.609c0-5.514,3.709-10.389,9.021-11.854l1.942-0.536l0.239-2
		c0.543-4.559,4.417-7.996,9.01-7.996c1.354,0,2.671,0.303,3.915,0.901l2.998,1.442l1.125-3.131
		c2.727-7.588,9.978-12.687,18.043-12.687c9.938,0,18.14,7.45,19.079,17.329l0.162,1.703l1.548,0.728
		c5.208,2.45,8.574,7.747,8.574,13.496C81.656,61.223,74.97,67.909,66.751,67.909z"/>
</g>
<g>
</g>
<g>
</g>
<g>
</g>
<g>
</g>
<g>
</g>
<g>
</g>
<g>
</g>
<g>
</g>
<g>
</g>
<g>
</g>
<g>
</g>
<g>
</g>
<g>
</g>
<g>
</g>
<g>
</g>
</svg>
