<?xml version="1.0" encoding="iso-8859-1"?>
<!-- Generator: Adobe Illustrator 19.0.0, SVG Export Plug-In . SVG Version: 6.00 Build 0)  -->
<svg version="1.1" id="Capa_1" xmlns="http://www.w3.org/2000/svg" xmlns:xlink="http://www.w3.org/1999/xlink" x="0px" y="0px"
	 viewBox="0 0 66.787 66.787" style="enable-background:new 0 0 66.787 66.787;" xml:space="preserve">
<g>
	<path d="M66.786,42.271l0.001-17.754l-9.026-0.583c-0.141-0.364-0.29-0.725-0.446-1.082l5.97-6.792L50.73,3.504l-6.795,5.97
		c-0.356-0.157-0.718-0.306-1.083-0.447l-0.583-9.026H24.517l-0.583,9.026c-0.365,0.141-0.727,0.29-1.083,0.447l-6.792-5.97
		L3.504,16.06l5.969,6.792c-0.157,0.356-0.306,0.717-0.447,1.082L0,24.517v17.754l9.025,0.582c0.141,0.365,0.29,0.726,0.447,1.083
		l-5.969,6.791l12.553,12.56l6.795-5.973c0.356,0.156,0.716,0.305,1.081,0.446l0.583,9.026h17.754l0.583-9.026
		c0.364-0.141,0.726-0.29,1.082-0.446l6.793,5.972l12.556-12.554l-5.97-6.795c0.157-0.357,0.307-0.719,0.447-1.084L66.786,42.271z
		 M55.063,50.466l-4.6,4.599l-5.64-4.958l-1.839,0.997c-1.211,0.656-2.506,1.191-3.85,1.59l-2.006,0.594l-0.485,7.499h-6.504
		l-0.484-7.498l-2.005-0.595c-1.343-0.398-2.638-0.934-3.849-1.59l-1.839-0.996l-5.639,4.956l-4.599-4.601l4.957-5.64l-0.999-1.839
		c-0.656-1.208-1.191-2.504-1.591-3.852l-0.596-2.005L6,36.645v-6.504l7.495-0.484l0.595-2.004c0.4-1.344,0.935-2.64,1.592-3.85
		l0.998-1.839l-4.956-5.64l4.599-4.6l5.64,4.956l1.839-0.998c1.206-0.655,2.501-1.189,3.85-1.59l2.005-0.595L30.141,6h6.502
		l0.485,7.497l2.004,0.595c1.349,0.4,2.645,0.935,3.851,1.59l1.839,0.998l5.642-4.956l4.599,4.6l-4.955,5.639l0.996,1.839
		c0.657,1.213,1.193,2.508,1.592,3.851l0.596,2.004l7.495,0.484l-0.001,6.504l-7.496,0.482l-0.595,2.006
		c-0.399,1.345-0.935,2.641-1.591,3.851l-0.998,1.839L55.063,50.466z"/>
	<path d="M33.393,21.023c-6.822,0-12.372,5.55-12.372,12.371c0,6.822,5.55,12.373,12.372,12.373s12.373-5.551,12.373-12.373
		C45.766,26.573,40.215,21.023,33.393,21.023z M33.393,39.767c-3.514,0-6.372-2.858-6.372-6.373c0-3.513,2.858-6.371,6.372-6.371
		s6.373,2.858,6.373,6.371C39.766,36.909,36.907,39.767,33.393,39.767z"/>
</g>
<g>
</g>
<g>
</g>
<g>
</g>
<g>
</g>
<g>
</g>
<g>
</g>
<g>
</g>
<g>
</g>
<g>
</g>
<g>
</g>
<g>
</g>
<g>
</g>
<g>
</g>
<g>
</g>
<g>
</g>
</svg>
