<?xml version="1.0" encoding="iso-8859-1"?>
<!-- Generator: Adobe Illustrator 19.0.0, SVG Export Plug-In . SVG Version: 6.00 Build 0)  -->
<svg version="1.1" id="Capa_1" xmlns="http://www.w3.org/2000/svg" xmlns:xlink="http://www.w3.org/1999/xlink" x="0px" y="0px"
	 viewBox="0 0 84.596 84.596" style="enable-background:new 0 0 84.596 84.596;" xml:space="preserve">
<g>
	<rect x="14.523" y="47.611" width="42.947" height="6"/>
	<rect x="14.523" y="34.575" width="42.947" height="6"/>
	<path d="M76.514,63.795H69.91V23.392L48.983,0H13.466C7.189,0,2.082,5.107,2.082,11.384v61.828c0,6.277,5.107,11.384,11.384,11.384
		h45.062c2.684,0,5.139-0.947,7.083-2.509h10.903h6v-6v-6.292v-6H76.514z M50.641,10.853l9.561,10.686h-9.561V10.853z M8.083,73.212
		V11.384C8.083,8.415,10.498,6,13.467,6h31.175v21.538h19.27v36.257h-6.44v-3.146H14.523v6h36.783v3.146v6.292v2.509h-37.84
		C10.498,78.596,8.083,76.181,8.083,73.212z M76.514,76.087H57.306v-6.292h19.208V76.087z"/>
</g>
<g>
</g>
<g>
</g>
<g>
</g>
<g>
</g>
<g>
</g>
<g>
</g>
<g>
</g>
<g>
</g>
<g>
</g>
<g>
</g>
<g>
</g>
<g>
</g>
<g>
</g>
<g>
</g>
<g>
</g>
</svg>
