<?xml version="1.0" encoding="iso-8859-1"?>
<!-- Generator: Adobe Illustrator 19.0.0, SVG Export Plug-In . SVG Version: 6.00 Build 0)  -->
<svg version="1.1" id="Capa_1" xmlns="http://www.w3.org/2000/svg" xmlns:xlink="http://www.w3.org/1999/xlink" x="0px" y="0px"
	 viewBox="0 0 71.858 71.858" style="enable-background:new 0 0 71.858 71.858;" xml:space="preserve">
<g>
	<path d="M68.332,30.35L38.022,0.85c-1.166-1.134-3.021-1.134-4.185,0L3.527,30.349c-1.188,1.156-1.213,3.055-0.058,4.242
		c1.155,1.187,3.054,1.213,4.242,0.058l0.459-0.447v30.407c0,3.997,3.252,7.249,7.249,7.249H56.44c3.997,0,7.249-3.252,7.249-7.249
		V34.204l0.457,0.445c0.584,0.567,1.338,0.85,2.093,0.85c0.781,0,1.562-0.303,2.15-0.908C69.545,33.403,69.519,31.505,68.332,30.35z
		 M57.69,32.748v31.86c0,0.688-0.561,1.249-1.249,1.249H15.42c-0.688,0-1.249-0.561-1.249-1.249v-31.86
		c0-1.199-0.708-2.226-1.726-2.707L35.928,7.186l23.484,22.856C58.398,30.522,57.69,31.549,57.69,32.748z"/>
</g>
<g>
</g>
<g>
</g>
<g>
</g>
<g>
</g>
<g>
</g>
<g>
</g>
<g>
</g>
<g>
</g>
<g>
</g>
<g>
</g>
<g>
</g>
<g>
</g>
<g>
</g>
<g>
</g>
<g>
</g>
</svg>
