<?xml version="1.0" encoding="iso-8859-1"?>
<!-- Generator: Adobe Illustrator 19.0.0, SVG Export Plug-In . SVG Version: 6.00 Build 0)  -->
<svg version="1.1" id="Capa_1" xmlns="http://www.w3.org/2000/svg" xmlns:xlink="http://www.w3.org/1999/xlink" x="0px" y="0px"
	 viewBox="0 0 71.883 71.883" style="enable-background:new 0 0 71.883 71.883;" xml:space="preserve">
<g>
	<path d="M3.264,21.225L34.61,36.759c0.419,0.208,0.876,0.312,1.332,0.312s0.912-0.104,1.332-0.312l31.345-15.535
		c1.021-0.506,1.668-1.548,1.668-2.688s-0.646-2.182-1.668-2.688L37.274,0.312c-0.84-0.416-1.825-0.416-2.664,0L3.264,15.849
		c-1.022,0.506-1.668,1.548-1.668,2.688S2.243,20.718,3.264,21.225z M35.942,6.349l24.589,12.188L35.942,30.723l-24.59-12.186
		L35.942,6.349z"/>
	<path d="M65.955,27.827L35.942,42.702L5.928,27.827c-1.483-0.736-3.285-0.128-4.02,1.356c-0.736,1.484-0.129,3.284,1.356,4.02
		L34.61,48.739c0.419,0.208,0.876,0.312,1.332,0.312s0.912-0.104,1.332-0.313l31.345-15.535c1.484-0.736,2.092-2.536,1.355-4.02
		C69.238,27.698,67.437,27.093,65.955,27.827z"/>
	<path d="M65.955,39.244L35.942,54.118L5.928,39.243c-1.483-0.734-3.285-0.128-4.02,1.356c-0.736,1.484-0.129,3.284,1.356,4.021
		L34.61,60.155c0.419,0.208,0.876,0.312,1.332,0.312s0.912-0.104,1.332-0.313l31.345-15.535c1.484-0.735,2.092-2.535,1.355-4.02
		S67.437,38.505,65.955,39.244z"/>
	<path d="M65.955,50.66L35.942,65.534L5.928,50.659c-1.483-0.733-3.285-0.128-4.02,1.356c-0.736,1.484-0.129,3.284,1.356,4.021
		L34.61,71.571c0.419,0.208,0.876,0.312,1.332,0.312s0.912-0.104,1.332-0.313l31.345-15.535c1.484-0.735,2.092-2.535,1.355-4.02
		C69.238,50.53,67.437,49.921,65.955,50.66z"/>
</g>
<g>
</g>
<g>
</g>
<g>
</g>
<g>
</g>
<g>
</g>
<g>
</g>
<g>
</g>
<g>
</g>
<g>
</g>
<g>
</g>
<g>
</g>
<g>
</g>
<g>
</g>
<g>
</g>
<g>
</g>
</svg>
