<?xml version="1.0" encoding="iso-8859-1"?>
<!-- Generator: Adobe Illustrator 19.0.0, SVG Export Plug-In . SVG Version: 6.00 Build 0)  -->
<svg version="1.1" id="Capa_1" xmlns="http://www.w3.org/2000/svg" xmlns:xlink="http://www.w3.org/1999/xlink" x="0px" y="0px"
	 viewBox="0 0 91.44 91.44" style="enable-background:new 0 0 91.44 91.44;" xml:space="preserve">
<g>
	<path d="M82.799,18.303H8.638C3.875,18.303,0,22.178,0,26.941v37.557c0,4.764,3.875,8.639,8.638,8.639h74.163
		c4.764,0,8.639-3.875,8.639-8.639V26.942C91.438,22.178,87.563,18.303,82.799,18.303z M85.438,64.498
		c0,1.453-1.184,2.639-2.639,2.639H8.638C7.183,67.137,6,65.951,6,64.498V26.942c0-1.455,1.183-2.638,2.638-2.638h74.163
		c1.453,0,2.639,1.183,2.639,2.638L85.438,64.498L85.438,64.498z"/>
	
		<rect x="15.845" y="32.34" style="fill:none;stroke:#000000;stroke-width:6;stroke-miterlimit:10;" width="59.75" height="26.761"/>
	<g>
		<path d="M45.72,40.637c2.808,0,5.083,2.276,5.083,5.083c0,2.808-2.275,5.083-5.083,5.083c-2.807,0-5.083-2.275-5.083-5.083
			C40.637,42.913,42.913,40.637,45.72,40.637 M45.72,34.637c-6.111,0-11.083,4.972-11.083,11.083s4.972,11.083,11.083,11.083
			s11.083-4.972,11.083-11.083S51.831,34.637,45.72,34.637L45.72,34.637z"/>
	</g>
</g>
<g>
</g>
<g>
</g>
<g>
</g>
<g>
</g>
<g>
</g>
<g>
</g>
<g>
</g>
<g>
</g>
<g>
</g>
<g>
</g>
<g>
</g>
<g>
</g>
<g>
</g>
<g>
</g>
<g>
</g>
</svg>
