<?xml version="1.0" encoding="iso-8859-1"?>
<!-- Generator: Adobe Illustrator 19.0.0, SVG Export Plug-In . SVG Version: 6.00 Build 0)  -->
<svg version="1.1" id="Capa_1" xmlns="http://www.w3.org/2000/svg" xmlns:xlink="http://www.w3.org/1999/xlink" x="0px" y="0px"
	 viewBox="0 0 91.601 91.601" style="enable-background:new 0 0 91.601 91.601;" xml:space="preserve">
<g>
	<path d="M79.002,16.72H12.6c-0.662,0-1.199,0.537-1.199,1.199v44.4c0,0.662,0.537,1.2,1.199,1.2h66.401c0.662,0,1.2-0.538,1.2-1.2
		v-44.4C80.202,17.257,79.664,16.72,79.002,16.72z M74.202,57.52H17.401v-34.8h56.801C74.202,22.72,74.202,57.52,74.202,57.52z"/>
	<path d="M79.002,5.32H12.6C5.653,5.32,0,10.972,0,17.92v44.4c0,6.947,5.652,12.6,12.6,12.6h18.813v5.361h-8.012
		c-1.657,0-3,1.343-3,3s1.343,3,3,3h8.012h28.775h8.013c1.657,0,3-1.343,3-3s-1.343-3-3-3h-8.013V74.92h18.813
		c6.947,0,12.6-5.652,12.6-12.6v-44.4C91.601,10.972,85.949,5.32,79.002,5.32z M85.601,62.32c0,3.639-2.961,6.6-6.6,6.6H54.189
		v11.361H37.414V68.919H12.6c-3.639,0-6.6-2.961-6.6-6.6v-44.4c0-3.639,2.96-6.6,6.6-6.6h66.401c3.639,0,6.6,2.96,6.6,6.6V62.32z"/>
</g>
<g>
</g>
<g>
</g>
<g>
</g>
<g>
</g>
<g>
</g>
<g>
</g>
<g>
</g>
<g>
</g>
<g>
</g>
<g>
</g>
<g>
</g>
<g>
</g>
<g>
</g>
<g>
</g>
<g>
</g>
</svg>
