<?xml version="1.0" encoding="iso-8859-1"?>
<!-- Generator: Adobe Illustrator 19.0.0, SVG Export Plug-In . SVG Version: 6.00 Build 0)  -->
<svg version="1.1" id="Capa_1" xmlns="http://www.w3.org/2000/svg" xmlns:xlink="http://www.w3.org/1999/xlink" x="0px" y="0px"
	 viewBox="0 0 83.828 83.828" style="enable-background:new 0 0 83.828 83.828;" xml:space="preserve">
<g>
	<path d="M77.585,5.825H6.243C2.801,5.825,0,8.625,0,12.067v59.695c0,3.442,2.801,6.242,6.243,6.242h71.342
		c3.442,0,6.243-2.8,6.243-6.242V12.067C83.828,8.625,81.028,5.825,77.585,5.825z M77.828,71.762c0,0.134-0.109,0.242-0.243,0.242
		H6.243C6.109,72.005,6,71.896,6,71.762V12.067c0-0.133,0.109-0.242,0.243-0.242h71.342c0.134,0,0.243,0.109,0.243,0.242V71.762z"/>
	<path d="M10.552,64.548h62.65V16.333h-62.65V64.548z M16.552,22.333h50.65v36.214h-10.12c-0.719-6.008-3.729-9.353-6.276-11.644
		c1.6-1.971,2.563-4.478,2.563-7.207c0-6.316-5.139-11.455-11.455-11.455c-6.317,0-11.456,5.139-11.456,11.455
		c0,2.729,0.963,5.236,2.563,7.207c-2.547,2.291-5.558,5.636-6.277,11.644H16.552V22.333z M41.913,45.153
		c-3.008,0-5.456-2.447-5.456-5.456c0-3.008,2.448-5.455,5.456-5.455s5.455,2.447,5.455,5.455
		C47.368,42.706,44.921,45.153,41.913,45.153z M37.629,50.839c1.371,0.471,2.825,0.72,4.308,0.731
		c1.451-0.012,2.895-0.261,4.262-0.731c2.063,1.791,4.084,3.749,4.789,7.462h-18.15C33.543,54.587,35.564,52.629,37.629,50.839z"/>
</g>
<g>
</g>
<g>
</g>
<g>
</g>
<g>
</g>
<g>
</g>
<g>
</g>
<g>
</g>
<g>
</g>
<g>
</g>
<g>
</g>
<g>
</g>
<g>
</g>
<g>
</g>
<g>
</g>
<g>
</g>
</svg>
