<?xml version="1.0" encoding="iso-8859-1"?>
<!-- Generator: Adobe Illustrator 19.0.0, SVG Export Plug-In . SVG Version: 6.00 Build 0)  -->
<svg version="1.1" id="Capa_1" xmlns="http://www.w3.org/2000/svg" xmlns:xlink="http://www.w3.org/1999/xlink" x="0px" y="0px"
	 viewBox="0 0 98.596 98.596" style="enable-background:new 0 0 98.596 98.596;" xml:space="preserve">
<g>
	<g>
		<path d="M79.325,19.77H11.209v45.524h68.115L79.325,19.77L79.325,19.77z M23.697,58.654l8.762-13.664l8.763,13.664H23.697z
			 M43.608,58.654l4.671-7.283l4.671,7.283H43.608z M73.325,59.294H60.489l-12.21-19.038l-5.863,9.144L32.46,33.876l-15.25,23.78
			V25.77h56.115V59.294z"/>
		<path d="M92.596,71.699h-1.981V15.13c0-3.598-2.928-6.524-6.525-6.524H6.526C2.927,8.606,0,11.533,0,15.13v68.164
			c0,3.598,2.928,6.524,6.526,6.524h60.862v0.173h6h19.208h6v-6v-6.292v-6H92.596z M5.999,83.294V15.13
			c0-0.289,0.236-0.524,0.526-0.524h77.563c0.29,0,0.525,0.235,0.525,0.524v56.569H73.388h-6v6v6.119H6.526
			C6.236,83.818,5.999,83.583,5.999,83.294z M92.596,83.991H73.388v-6.292h19.208V83.991z"/>
		<path d="M62.035,47.397c5.158,0,9.355-4.197,9.355-9.355s-4.197-9.354-9.355-9.354s-9.354,4.196-9.354,9.354
			C52.68,43.201,56.876,47.397,62.035,47.397z M62.035,34.688c1.851,0,3.355,1.505,3.355,3.354c0,1.85-1.505,3.355-3.355,3.355
			c-1.85,0-3.354-1.505-3.354-3.355C58.68,36.192,60.185,34.688,62.035,34.688z"/>
	</g>
</g>
<g>
</g>
<g>
</g>
<g>
</g>
<g>
</g>
<g>
</g>
<g>
</g>
<g>
</g>
<g>
</g>
<g>
</g>
<g>
</g>
<g>
</g>
<g>
</g>
<g>
</g>
<g>
</g>
<g>
</g>
</svg>
