<?xml version="1.0" encoding="iso-8859-1"?>
<!-- Generator: Adobe Illustrator 19.0.0, SVG Export Plug-In . SVG Version: 6.00 Build 0)  -->
<svg version="1.1" id="Capa_1" xmlns="http://www.w3.org/2000/svg" xmlns:xlink="http://www.w3.org/1999/xlink" x="0px" y="0px"
	 viewBox="0 0 73.41 73.41" style="enable-background:new 0 0 73.41 73.41;" xml:space="preserve">
<g>
	<path style="fill:#070707;" d="M49.328,47.933c5.519-6.423,10.918-14.995,10.918-23.97c0-12.92-10.442-23.611-23.329-23.949
		C36.819,0.005,36.721,0,36.621,0c-0.026,0-0.147,0.002-0.174,0.002C36.421,0.002,36.311,0,36.285,0
		c-0.099,0-0.198,0.005-0.294,0.014C23.104,0.351,12.66,11.043,12.66,23.963c0,9.01,5.443,17.614,10.983,24.045
		C13.119,49.826,4.848,53.926,4.848,60.171c0,8.691,16.026,13.239,31.856,13.239c15.831,0,31.857-4.548,31.857-13.239
		C68.562,53.841,60.061,49.712,49.328,47.933z M36.332,6.009c0.041,0,0.081-0.002,0.121-0.004c0.04,0.002,0.08,0.004,0.121,0.004
		c9.744,0.154,17.672,8.208,17.672,17.955c0,11.917-12.733,23.984-17.793,28.308c-5.06-4.323-17.793-16.391-17.793-28.308
		C18.66,14.217,26.588,6.163,36.332,6.009z M36.704,67.41c-17.06,0-25.856-5.074-25.856-7.239c0-1.794,6.079-5.57,17.863-6.814
		c2.638,2.541,4.853,4.346,5.891,5.16c0.543,0.427,1.197,0.64,1.851,0.64s1.308-0.213,1.852-0.64
		c1.046-0.82,3.283-2.644,5.944-5.212c12.083,1.194,18.313,5.049,18.313,6.866C62.562,62.336,53.764,67.41,36.704,67.41z"/>
	<path style="fill:#070707;" d="M48.934,22.162c0-6.789-5.523-12.313-12.313-12.313c-6.788,0-12.31,5.523-12.31,12.313
		c0,6.788,5.522,12.311,12.31,12.311C43.41,34.472,48.934,28.95,48.934,22.162z M30.311,22.162c0-3.481,2.831-6.313,6.31-6.313
		c3.48,0,6.313,2.832,6.313,6.313c0,3.479-2.832,6.311-6.313,6.311C33.143,28.472,30.311,25.641,30.311,22.162z"/>
</g>
<g>
</g>
<g>
</g>
<g>
</g>
<g>
</g>
<g>
</g>
<g>
</g>
<g>
</g>
<g>
</g>
<g>
</g>
<g>
</g>
<g>
</g>
<g>
</g>
<g>
</g>
<g>
</g>
<g>
</g>
</svg>
