<?xml version="1.0" encoding="iso-8859-1"?>
<!-- Generator: Adobe Illustrator 19.0.0, SVG Export Plug-In . SVG Version: 6.00 Build 0)  -->
<svg version="1.1" id="Capa_1" xmlns="http://www.w3.org/2000/svg" xmlns:xlink="http://www.w3.org/1999/xlink" x="0px" y="0px"
	 viewBox="0 0 60.378 60.378" style="enable-background:new 0 0 60.378 60.378;" xml:space="preserve">
<g>
	<g>
		<path d="M37.189,6.996v6.295C45.417,16.19,51.34,24.02,51.34,33.228c0,11.663-9.488,21.151-21.151,21.151
			S9.038,44.891,9.038,33.228c0-9.207,5.924-17.037,14.151-19.937V6.996C11.6,10.092,3.038,20.676,3.038,33.227
			c0,14.972,12.18,27.151,27.151,27.151S57.34,48.198,57.34,33.227C57.34,20.676,48.778,10.092,37.189,6.996z"/>
		<path d="M30.189,19.629c1.657,0,3-1.343,3-3v-4.314V6.247V3c0-1.657-1.343-3-3-3s-3,1.343-3,3v3.246v6.068v4.314
			C27.189,18.286,28.532,19.629,30.189,19.629z"/>
	</g>
</g>
<g>
</g>
<g>
</g>
<g>
</g>
<g>
</g>
<g>
</g>
<g>
</g>
<g>
</g>
<g>
</g>
<g>
</g>
<g>
</g>
<g>
</g>
<g>
</g>
<g>
</g>
<g>
</g>
<g>
</g>
</svg>
