<?xml version="1.0" encoding="iso-8859-1"?>
<!-- Generator: Adobe Illustrator 19.0.0, SVG Export Plug-In . SVG Version: 6.00 Build 0)  -->
<svg version="1.1" id="Capa_1" xmlns="http://www.w3.org/2000/svg" xmlns:xlink="http://www.w3.org/1999/xlink" x="0px" y="0px"
	 viewBox="0 0 83.806 83.806" style="enable-background:new 0 0 83.806 83.806;" xml:space="preserve">
<g>
	<path d="M73.908,13.162h-5.381V8.784c0-3.936-3.202-7.139-7.138-7.139H22.416c-3.937,0-7.139,3.203-7.139,7.139v4.378H9.898
		C4.44,13.162,0,17.601,0,23.058v32.271c0,5.458,4.44,9.898,9.898,9.898h5.379v9.795c0,3.937,3.202,7.139,7.139,7.139h38.973
		c3.936,0,7.138-3.202,7.138-7.139v-9.795h5.381c5.458,0,9.898-4.44,9.898-9.898v-32.27C83.806,17.602,79.366,13.162,73.908,13.162z
		 M21.278,8.784c0-0.628,0.511-1.139,1.139-1.139H61.39c0.627,0,1.138,0.511,1.138,1.139v19.451c0,0.627-0.511,1.138-1.138,1.138
		H22.416c-0.628,0-1.139-0.51-1.139-1.138V8.784H21.278z M62.527,75.023c0,0.628-0.511,1.139-1.138,1.139H22.416
		c-0.628,0-1.139-0.511-1.139-1.139V56.882c0-0.628,0.511-1.139,1.139-1.139h38.973c0.627,0,1.138,0.511,1.138,1.139V75.023z
		 M77.806,55.329c0,2.149-1.749,3.898-3.898,3.898h-5.381v-2.345c0-3.937-3.202-7.139-7.138-7.139H22.416
		c-3.937,0-7.139,3.202-7.139,7.139v2.346H9.898C7.749,59.228,6,57.479,6,55.33V23.059c0-2.148,1.749-3.896,3.898-3.896h5.379v9.073
		c0,3.936,3.202,7.138,7.139,7.138h38.973c3.936,0,7.138-3.202,7.138-7.138v-9.074h5.381c2.149,0,3.898,1.748,3.898,3.896V55.329z"
		/>
	<rect x="26.5" y="58.852" width="30.882" height="6"/>
	<rect x="26.5" y="67.763" width="30.882" height="6"/>
</g>
<g>
</g>
<g>
</g>
<g>
</g>
<g>
</g>
<g>
</g>
<g>
</g>
<g>
</g>
<g>
</g>
<g>
</g>
<g>
</g>
<g>
</g>
<g>
</g>
<g>
</g>
<g>
</g>
<g>
</g>
</svg>
