<?xml version="1.0" encoding="UTF-8" standalone="no"?>
<!-- Generator: Adobe Illustrator 19.0.0, SVG Export Plug-In . SVG Version: 6.00 Build 0)  -->

<svg
   version="1.1"
   id="Capa_1"
   x="0px"
   y="0px"
   viewBox="0 0 60.338 60.338"
   style="enable-background:new 0 0 60.338 60.338;"
   xml:space="preserve"
   sodipodi:docname="right-1.svg"
   inkscape:export-filename="../png/right-64.png"
   inkscape:export-xdpi="101.83"
   inkscape:export-ydpi="101.83"
   inkscape:version="1.2.2 (b0a8486541, 2022-12-01)"
   xmlns:inkscape="http://www.inkscape.org/namespaces/inkscape"
   xmlns:sodipodi="http://sodipodi.sourceforge.net/DTD/sodipodi-0.dtd"
   xmlns="http://www.w3.org/2000/svg"
   xmlns:svg="http://www.w3.org/2000/svg"><defs
   id="defs39" /><sodipodi:namedview
   id="namedview37"
   pagecolor="#ffffff"
   bordercolor="#666666"
   borderopacity="1.0"
   inkscape:showpageshadow="2"
   inkscape:pageopacity="0.0"
   inkscape:pagecheckerboard="0"
   inkscape:deskcolor="#d1d1d1"
   showgrid="false"
   inkscape:zoom="12.247671"
   inkscape:cx="20.452868"
   inkscape:cy="29.352519"
   inkscape:window-width="1920"
   inkscape:window-height="1042"
   inkscape:window-x="0"
   inkscape:window-y="38"
   inkscape:window-maximized="1"
   inkscape:current-layer="Capa_1" />
<g
   id="g4"
   transform="matrix(-0.69463621,-0.69463621,0.69463621,-0.69463621,40.028688,72.077337)">
	<path
   d="M 58.869,1.463 C 57.439,0.031 55.211,-0.399 53.334,0.415 L 3.001,22.366 c -1.923,0.838 -3.125,2.808 -2.991,4.901 0.133,2.092 1.575,3.893 3.587,4.481 l 19.334,5.65 5.65,19.335 c 0.588,2.012 2.389,3.454 4.467,3.587 0.112,0.008 0.221,0.011 0.333,0.011 1.988,0 3.787,-1.178 4.582,-3.001 L 59.914,6.997 C 60.744,5.098 60.333,2.925 58.869,1.463 Z M 33.568,52.403 27.77,32.561 7.928,26.763 53.398,6.933 Z"
   id="path2" />
</g>
<g
   id="g6">
</g>
<g
   id="g8">
</g>
<g
   id="g10">
</g>
<g
   id="g12">
</g>
<g
   id="g14">
</g>
<g
   id="g16">
</g>
<g
   id="g18">
</g>
<g
   id="g20">
</g>
<g
   id="g22">
</g>
<g
   id="g24">
</g>
<g
   id="g26">
</g>
<g
   id="g28">
</g>
<g
   id="g30">
</g>
<g
   id="g32">
</g>
<g
   id="g34">
</g>
</svg>
