<?xml version="1.0" encoding="iso-8859-1"?>
<!-- Generator: Adobe Illustrator 19.0.0, SVG Export Plug-In . SVG Version: 6.00 Build 0)  -->
<svg version="1.1" id="Capa_1" xmlns="http://www.w3.org/2000/svg" xmlns:xlink="http://www.w3.org/1999/xlink" x="0px" y="0px"
	 viewBox="0 0 70.18 70.18" style="enable-background:new 0 0 70.18 70.18;" xml:space="preserve">
<g>
	<path d="M35.089,0L0.126,14.88l0.087,2.074C0.305,19.127,2.825,70.18,35.09,70.18c32.264,0,34.785-51.052,34.876-53.226
		l0.088-2.074L35.089,0z M35.09,64.179L35.09,64.179c-23.325,0-27.945-36.32-28.735-45.43L35.09,6.52l28.736,12.23
		C63.043,27.86,58.451,64.179,35.09,64.179z"/>
	<polygon points="26.451,23.366 21.338,28.478 29.977,37.116 21.338,45.755 26.451,50.867 35.089,42.229 43.728,50.867 
		48.84,45.755 40.201,37.116 48.84,28.478 43.728,23.366 35.089,32.004 	"/>
</g>
<g>
</g>
<g>
</g>
<g>
</g>
<g>
</g>
<g>
</g>
<g>
</g>
<g>
</g>
<g>
</g>
<g>
</g>
<g>
</g>
<g>
</g>
<g>
</g>
<g>
</g>
<g>
</g>
<g>
</g>
</svg>
