<?xml version="1.0" encoding="iso-8859-1"?>
<!-- Generator: Adobe Illustrator 19.0.0, SVG Export Plug-In . SVG Version: 6.00 Build 0)  -->
<svg version="1.1" id="Capa_1" xmlns="http://www.w3.org/2000/svg" xmlns:xlink="http://www.w3.org/1999/xlink" x="0px" y="0px"
	 viewBox="0 0 70.18 70.18" style="enable-background:new 0 0 70.18 70.18;" xml:space="preserve">
<g>
	<path d="M35.089,0L0.126,14.88l0.087,2.074C0.305,19.127,2.825,70.18,35.09,70.18c32.264,0,34.785-51.052,34.876-53.226
		l0.088-2.074L35.089,0z M61.764,32.221H38.09v-0.003V7.797L63.826,18.75C63.596,21.427,63.031,26.458,61.764,32.221z M32.09,7.797
		v24.421H8.426c-1.271-5.762-1.839-10.792-2.071-13.469L32.09,7.797z M9.964,38.218H32.09v0.003v25.723
		C19.886,62.191,13.391,49.858,9.964,38.218z M38.09,63.945V38.221h22.14C56.807,49.861,50.313,62.194,38.09,63.945z"/>
</g>
<g>
</g>
<g>
</g>
<g>
</g>
<g>
</g>
<g>
</g>
<g>
</g>
<g>
</g>
<g>
</g>
<g>
</g>
<g>
</g>
<g>
</g>
<g>
</g>
<g>
</g>
<g>
</g>
<g>
</g>
</svg>
