<?xml version="1.0" encoding="iso-8859-1"?>
<!-- Generator: Adobe Illustrator 19.0.0, SVG Export Plug-In . SVG Version: 6.00 Build 0)  -->
<svg version="1.1" id="Capa_1" xmlns="http://www.w3.org/2000/svg" xmlns:xlink="http://www.w3.org/1999/xlink" x="0px" y="0px"
	 viewBox="0 0 88.611 88.611" style="enable-background:new 0 0 88.611 88.611;" xml:space="preserve">
<g>
	<path d="M43.483,12.826c-2.315-1.128-5.248-0.818-7.276,0.771L24.81,22.529c-0.461-0.062-0.925-0.093-1.387-0.093H10.609
		C4.759,22.436,0,27.195,0,33.045v22.193c0,5.85,4.759,10.608,10.609,10.608h12.814c0.344,0,0.693-0.019,1.043-0.055l11.743,9.199
		c1.209,0.946,2.72,1.468,4.253,1.468c1.041,0,2.085-0.241,3.02-0.696c2.355-1.147,3.878-3.581,3.878-6.201V19.026
		C47.36,16.406,45.837,13.972,43.483,12.826z M41.36,69.562c0,0.341-0.198,0.657-0.506,0.808c-0.251,0.121-0.549,0.209-0.946-0.102
		L25.971,59.349l-1.419,0.352c-0.398,0.099-0.767,0.146-1.128,0.146H10.609C8.067,59.847,6,57.78,6,55.239V33.045
		c0-2.542,2.068-4.609,4.609-4.609h12.814c0.43,0,0.868,0.064,1.302,0.191l1.479,0.433l13.704-10.74
		c0.265-0.206,0.643-0.248,0.947-0.1c0.307,0.149,0.505,0.466,0.505,0.807C41.36,19.027,41.36,69.562,41.36,69.562z"/>
	<path d="M66.587,25.251l-4.241,4.24c3.675,3.93,5.931,9.199,5.931,14.99c0,5.604-2.112,10.722-5.579,14.607l4.248,4.247
		c4.55-4.976,7.331-11.597,7.331-18.854C74.277,37.036,71.347,30.268,66.587,25.251z"/>
	<path d="M52.568,39.271c1.179,1.414,1.891,3.23,1.891,5.211c0,1.793-0.589,3.446-1.574,4.793l4.273,4.273
		c2.058-2.457,3.301-5.618,3.301-9.066c0-3.635-1.39-6.943-3.65-9.451L52.568,39.271z"/>
	<path d="M76.781,15.185l-4.241,4.241c6.231,6.521,10.071,15.345,10.071,25.056c0,9.524-3.691,18.198-9.713,24.68l4.24,4.241
		c7.106-7.57,11.473-17.742,11.473-28.921C88.611,33.116,84.098,22.793,76.781,15.185z"/>
</g>
<g>
</g>
<g>
</g>
<g>
</g>
<g>
</g>
<g>
</g>
<g>
</g>
<g>
</g>
<g>
</g>
<g>
</g>
<g>
</g>
<g>
</g>
<g>
</g>
<g>
</g>
<g>
</g>
<g>
</g>
</svg>
