<?xml version="1.0" encoding="iso-8859-1"?>
<!-- Generator: Adobe Illustrator 19.0.0, SVG Export Plug-In . SVG Version: 6.00 Build 0)  -->
<svg version="1.1" id="Capa_1" xmlns="http://www.w3.org/2000/svg" xmlns:xlink="http://www.w3.org/1999/xlink" x="0px" y="0px"
	 viewBox="0 0 83.001 83.001" style="enable-background:new 0 0 83.001 83.001;" xml:space="preserve">
<g>
	<path d="M41.5,0C18.617,0,0,18.617,0,41.5C0,64.384,18.616,83.001,41.5,83.001c22.884,0,41.501-18.617,41.501-41.501
		C83.001,18.617,64.383,0,41.5,0z M41.5,77.001C21.926,77.001,6,61.075,6,41.5S21.925,6,41.5,6c19.575,0,35.501,15.925,35.501,35.5
		S61.075,77.001,41.5,77.001z"/>
	<path d="M41.5,19c-1.657,0-3,1.343-3,3v21.357l-5.978-3.38c-1.441-0.815-3.273-0.308-4.088,1.135
		c-0.815,1.442-0.308,3.272,1.135,4.088l10.453,5.911c0.036,0.021,0.075,0.026,0.111,0.045c0.155,0.08,0.316,0.145,0.486,0.197
		c0.065,0.02,0.128,0.045,0.194,0.061c0.204,0.048,0.415,0.076,0.633,0.08c0.017,0.001,0.034,0.007,0.05,0.007
		c0.007,0,0.013-0.003,0.02-0.003c0.238-0.001,0.466-0.036,0.688-0.09c0.063-0.015,0.121-0.037,0.183-0.057
		c0.172-0.053,0.337-0.12,0.494-0.202c0.06-0.031,0.117-0.061,0.175-0.095c0.199-0.121,0.387-0.258,0.552-0.421
		c0.004-0.003,0.008-0.006,0.011-0.009c0.175-0.174,0.318-0.374,0.445-0.586c0.015-0.023,0.034-0.039,0.048-0.063
		c0.024-0.043,0.036-0.088,0.058-0.132c0.053-0.104,0.1-0.208,0.141-0.318c0.03-0.084,0.056-0.168,0.078-0.253
		c0.026-0.1,0.05-0.2,0.066-0.305c0.016-0.1,0.024-0.199,0.03-0.3c0.003-0.057,0.017-0.111,0.017-0.169V22
		C44.5,20.343,43.158,19,41.5,19z"/>
</g>
<g>
</g>
<g>
</g>
<g>
</g>
<g>
</g>
<g>
</g>
<g>
</g>
<g>
</g>
<g>
</g>
<g>
</g>
<g>
</g>
<g>
</g>
<g>
</g>
<g>
</g>
<g>
</g>
<g>
</g>
</svg>
