<?xml version="1.0" encoding="iso-8859-1"?>
<!-- Generator: Adobe Illustrator 19.0.0, SVG Export Plug-In . SVG Version: 6.00 Build 0)  -->
<svg version="1.1" id="Capa_1" xmlns="http://www.w3.org/2000/svg" xmlns:xlink="http://www.w3.org/1999/xlink" x="0px" y="0px"
	 viewBox="0 0 67.964 67.964" style="enable-background:new 0 0 67.964 67.964;" xml:space="preserve">
<g>
	<path d="M46.287,42.958c-1.472-0.69-2.984-1.4-3.856-2.056l-0.127-0.679c0.259-0.197,0.515-0.403,0.766-0.62
		c6.317-0.889,13.187-2.169,13.258-2.182c1.279-0.239,2.259-1.276,2.425-2.567s-0.52-2.541-1.697-3.096
		c-5.168-2.435-5.807-6.753-6.243-13.575c-0.475-7.402-1.123-17.537-16.59-18.17c-0.022-0.002-0.045-0.003-0.068-0.004
		c-0.041-0.003-0.09-0.006-0.121-0.007c-0.163-0.006-0.325,0-0.485,0.02C18.271,0.733,17.625,10.813,17.153,18.184
		c-0.437,6.822-1.075,11.14-6.244,13.575c-1.177,0.555-1.863,1.805-1.697,3.096s1.145,2.328,2.424,2.567
		c0.072,0.014,6.942,1.293,13.26,2.182c0.291,0.252,0.588,0.489,0.89,0.715l-0.085,0.454c-0.825,0.684-2.447,1.444-4.025,2.185
		c-6.202,2.91-15.574,7.309-15.574,22.006c0,1.657,1.343,3,3,3h49.761c1.657,0,3-1.343,3-3
		C61.863,50.264,52.49,45.868,46.287,42.958z M12.283,61.962c1.083-8.478,6.82-11.171,11.941-13.574
		c2.787-1.307,5.193-2.437,6.671-4.419c0.273-0.367,0.458-0.791,0.543-1.24l0.618-3.298c0.243-1.296-0.389-2.599-1.557-3.211
		c-0.748-0.392-1.479-0.933-2.172-1.608c-0.461-0.449-1.054-0.739-1.692-0.825c-2.466-0.334-5.083-0.745-7.373-1.124
		c3.245-4.199,3.587-9.54,3.878-14.096c0.485-7.571,0.779-12.146,10.841-12.559c10.063,0.413,10.356,4.988,10.841,12.559
		c0.292,4.556,0.634,9.897,3.879,14.096c-2.289,0.379-4.904,0.789-7.371,1.124c-0.639,0.086-1.231,0.376-1.692,0.825
		c-0.658,0.642-1.357,1.165-2.08,1.556c-1.146,0.62-1.761,1.909-1.521,3.19l0.675,3.605c0.098,0.52,0.33,1.003,0.674,1.403
		c1.5,1.746,3.749,2.801,6.354,4.022c5.122,2.403,10.86,5.096,11.942,13.573L12.283,61.962L12.283,61.962z"/>
</g>
<g>
</g>
<g>
</g>
<g>
</g>
<g>
</g>
<g>
</g>
<g>
</g>
<g>
</g>
<g>
</g>
<g>
</g>
<g>
</g>
<g>
</g>
<g>
</g>
<g>
</g>
<g>
</g>
<g>
</g>
</svg>
