<?xml version="1.0" encoding="iso-8859-1"?>
<!-- Generator: Adobe Illustrator 19.0.0, SVG Export Plug-In . SVG Version: 6.00 Build 0)  -->
<svg version="1.1" id="Capa_1" xmlns="http://www.w3.org/2000/svg" xmlns:xlink="http://www.w3.org/1999/xlink" x="0px" y="0px"
	 viewBox="0 0 74.128 74.128" style="enable-background:new 0 0 74.128 74.128;" xml:space="preserve">
<g>
	<path d="M72.411,15.608l-1.559-4.549L55.948,25.963l-8.615-8.615L62.166,2.515L57.424,1.04C55.209,0.352,52.899,0.001,50.555,0
		C37.813,0,27.446,10.367,27.446,23.109c0,2.383,0.358,4.714,1.066,6.953L2.345,56.228c-2.505,2.507-2.505,6.585,0.001,9.09
		l6.926,6.926c1.214,1.215,2.829,1.884,4.546,1.884s3.331-0.669,4.547-1.884l26.689-26.688c1.798,0.44,3.641,0.663,5.5,0.663
		c12.742,0,23.108-10.366,23.108-23.108C73.662,20.556,73.242,18.032,72.411,15.608z M50.554,40.219
		c-1.846,0-3.67-0.297-5.422-0.881l-1.759-0.587L14.123,68c-0.21,0.208-0.399,0.211-0.609,0.001l-6.926-6.926
		c-0.167-0.167-0.167-0.439,0-0.606l28.938-28.937l-0.773-1.855c-0.868-2.081-1.308-4.291-1.308-6.568
		c0-9.313,7.479-16.912,16.746-17.105L38.846,17.348l17.102,17.1l11.711-11.711c0.003,0.125,0.004,0.249,0.004,0.374
		C67.662,32.544,59.988,40.219,50.554,40.219z"/>
</g>
<g>
</g>
<g>
</g>
<g>
</g>
<g>
</g>
<g>
</g>
<g>
</g>
<g>
</g>
<g>
</g>
<g>
</g>
<g>
</g>
<g>
</g>
<g>
</g>
<g>
</g>
<g>
</g>
<g>
</g>
</svg>
