<?xml version="1.0" encoding="iso-8859-1"?>
<!-- Generator: Adobe Illustrator 19.0.0, SVG Export Plug-In . SVG Version: 6.00 Build 0)  -->
<svg version="1.1" id="Capa_1" xmlns="http://www.w3.org/2000/svg" xmlns:xlink="http://www.w3.org/1999/xlink" x="0px" y="0px"
	 viewBox="0 0 75.808 75.808" style="enable-background:new 0 0 75.808 75.808;" xml:space="preserve">
<g>
	<path d="M39.541,30.034h-4.758v-4.757c0-1.657-1.343-3-3-3s-3,1.343-3,3v4.757h-4.759c-1.657,0-3,1.343-3,3c0,1.657,1.343,3,3,3
		h4.759v4.758c0,1.657,1.343,3,3,3c1.657,0,3-1.343,3-3v-4.758h4.758c1.657,0,3-1.343,3-3
		C42.541,31.377,41.198,30.034,39.541,30.034z"/>
	<path d="M72.538,56.331L60.981,44.773c1.701-3.95,2.587-8.217,2.587-12.56c0-17.525-14.259-31.782-31.784-31.782S0,14.688,0,32.213
		c0,17.526,14.258,31.785,31.783,31.785c4.807,0,9.479-1.069,13.744-3.122L56.76,72.109c2.11,2.108,4.911,3.268,7.891,3.268
		c2.984,0,5.787-1.162,7.893-3.271c2.103-2.102,3.264-4.904,3.264-7.885S74.647,58.439,72.538,56.331z M68.297,67.868
		c-1.006,1.008-2.326,1.51-3.646,1.51c-1.32,0-2.639-0.502-3.647-1.51L46.511,53.372c-4.177,2.912-9.251,4.625-14.728,4.625
		C17.543,57.997,6,46.452,6,32.212C6,17.973,17.543,6.43,31.783,6.43c14.239,0,25.784,11.543,25.784,25.782
		c0,5.032-1.448,9.723-3.939,13.693l14.669,14.67C70.312,62.589,70.312,65.854,68.297,67.868z"/>
	<path d="M31.783,11.683c-11.32,0-20.529,9.209-20.529,20.529c0,11.321,9.209,20.531,20.529,20.531s20.529-9.21,20.529-20.531
		C52.313,20.893,43.104,11.683,31.783,11.683z M31.783,46.743c-8.012,0-14.529-6.519-14.529-14.531s6.518-14.529,14.529-14.529
		s14.529,6.518,14.529,14.529C46.313,40.225,39.795,46.743,31.783,46.743z"/>
</g>
<g>
</g>
<g>
</g>
<g>
</g>
<g>
</g>
<g>
</g>
<g>
</g>
<g>
</g>
<g>
</g>
<g>
</g>
<g>
</g>
<g>
</g>
<g>
</g>
<g>
</g>
<g>
</g>
<g>
</g>
</svg>
