<?xml version="1.0" encoding="iso-8859-1"?>
<!-- Generator: Adobe Illustrator 19.0.0, SVG Export Plug-In . SVG Version: 6.00 Build 0)  -->
<svg version="1.1" id="Capa_1" xmlns="http://www.w3.org/2000/svg" xmlns:xlink="http://www.w3.org/1999/xlink" x="0px" y="0px"
	 viewBox="0 0 75.809 75.809" style="enable-background:new 0 0 75.809 75.809;" xml:space="preserve">
<g>
	<path d="M39.541,30.034H24.025c-1.657,0-3,1.343-3,3c0,1.657,1.343,3,3,3h15.517c1.656,0,3-1.343,3-3
		C42.542,31.377,41.198,30.034,39.541,30.034z"/>
	<path d="M72.538,56.333l-11.557-11.56c1.7-3.95,2.586-8.217,2.586-12.56c0-17.525-14.259-31.782-31.784-31.782S0,14.688,0,32.213
		c0,17.526,14.258,31.786,31.783,31.786c4.807,0,9.479-1.069,13.744-3.123L56.76,72.11c2.11,2.107,4.911,3.268,7.892,3.268
		c2.983,0,5.787-1.162,7.893-3.271c2.104-2.103,3.264-4.903,3.264-7.885S74.648,58.439,72.538,56.333z M68.297,67.868
		c-1.006,1.008-2.326,1.51-3.646,1.51c-1.32,0-2.64-0.502-3.647-1.51L46.511,53.374c-4.177,2.912-9.251,4.625-14.728,4.625
		C17.543,57.999,6,46.454,6,32.213C6,17.974,17.543,6.431,31.783,6.431s25.785,11.543,25.785,25.782
		c0,5.032-1.449,9.723-3.939,13.693l14.668,14.671C70.312,62.588,70.312,65.854,68.297,67.868z"/>
	<path d="M31.783,11.684c-11.32,0-20.529,9.209-20.529,20.529c0,11.321,9.209,20.532,20.529,20.532s20.529-9.211,20.529-20.532
		C52.314,20.893,43.105,11.684,31.783,11.684z M31.783,46.745c-8.012,0-14.529-6.52-14.529-14.532s6.518-14.529,14.529-14.529
		s14.529,6.518,14.529,14.529C46.314,40.225,39.795,46.745,31.783,46.745z"/>
</g>
<g>
</g>
<g>
</g>
<g>
</g>
<g>
</g>
<g>
</g>
<g>
</g>
<g>
</g>
<g>
</g>
<g>
</g>
<g>
</g>
<g>
</g>
<g>
</g>
<g>
</g>
<g>
</g>
<g>
</g>
</svg>
