{
    "asset" : {
        "generator" : "Khronos glTF Blender I/O v1.2.75",
        "version" : "2.0"
    },
    "scene" : 0,
    "scenes" : [
        {
            "name" : "Scene",
            "nodes" : [
                0
            ]
        }
    ],
    "nodes" : [
        {
            "mesh" : 0,
            "name" : "Cube.001",
            "translation" : [
                -0.15183188021183014,
                10.175107955932617,
                -0.005958407185971737
            ]
        }
    ],
    "materials" : [
        {
            "doubleSided" : true,
            "name" : "Color Cara",
            "pbrMetallicRoughness" : {}
        },
        {
            "doubleSided" : true,
            "name" : "Ojo",
            "pbrMetallicRoughness" : {}
        },
        {
            "doubleSided" : true,
            "name" : "Material.001",
            "pbrMetallicRoughness" : {}
        },
        {
            "doubleSided" : true,
            "name" : "Material.003",
            "pbrMetallicRoughness" : {}
        }
    ],
    "meshes" : [
        {
            "name" : "Cube.001",
            "primitives" : [
                {
                    "attributes" : {
                        "POSITION" : 0,
                        "NORMAL" : 1
                    },
                    "indices" : 2,
                    "material" : 0
                },
                {
                    "attributes" : {
                        "POSITION" : 3,
                        "NORMAL" : 4
                    },
                    "indices" : 5,
                    "material" : 1
                },
                {
                    "attributes" : {
                        "POSITION" : 6,
                        "NORMAL" : 7
                    },
                    "indices" : 8,
                    "material" : 2
                },
                {
                    "attributes" : {
                        "POSITION" : 9,
                        "NORMAL" : 10
                    },
                    "indices" : 11,
                    "material" : 3
                }
            ]
        }
    ],
    "accessors" : [
        {
            "bufferView" : 0,
            "componentType" : 5126,
            "count" : 5185,
            "max" : [
                1.593465805053711,
                1.0382497310638428,
                5.46649169921875
            ],
            "min" : [
                -1.3721051216125488,
                -10.33565616607666,
                -5.46649169921875
            ],
            "type" : "VEC3"
        },
        {
            "bufferView" : 1,
            "componentType" : 5126,
            "count" : 5185,
            "type" : "VEC3"
        },
        {
            "bufferView" : 2,
            "componentType" : 5123,
            "count" : 7980,
            "type" : "SCALAR"
        },
        {
            "bufferView" : 3,
            "componentType" : 5126,
            "count" : 136,
            "max" : [
                1.3653912544250488,
                0.33950918912887573,
                0.9871230125427246
            ],
            "min" : [
                1.0319679975509644,
                -0.010378211736679077,
                -0.9871230125427246
            ],
            "type" : "VEC3"
        },
        {
            "bufferView" : 4,
            "componentType" : 5126,
            "count" : 136,
            "type" : "VEC3"
        },
        {
            "bufferView" : 5,
            "componentType" : 5123,
            "count" : 204,
            "type" : "SCALAR"
        },
        {
            "bufferView" : 6,
            "componentType" : 5126,
            "count" : 112,
            "max" : [
                1.3338689804077148,
                0.28378039598464966,
                0.9296462535858154
            ],
            "min" : [
                1.059563398361206,
                0.0417991578578949,
                -0.9296462535858154
            ],
            "type" : "VEC3"
        },
        {
            "bufferView" : 7,
            "componentType" : 5126,
            "count" : 112,
            "type" : "VEC3"
        },
        {
            "bufferView" : 8,
            "componentType" : 5123,
            "count" : 168,
            "type" : "SCALAR"
        },
        {
            "bufferView" : 9,
            "componentType" : 5126,
            "count" : 1144,
            "max" : [
                1.103358268737793,
                2.296635150909424,
                1.5120658874511719
            ],
            "min" : [
                -1.5066604614257812,
                -1.0167717933654785,
                -1.5120658874511719
            ],
            "type" : "VEC3"
        },
        {
            "bufferView" : 10,
            "componentType" : 5126,
            "count" : 1144,
            "type" : "VEC3"
        },
        {
            "bufferView" : 11,
            "componentType" : 5123,
            "count" : 1716,
            "type" : "SCALAR"
        }
    ],
    "bufferViews" : [
        {
            "buffer" : 0,
            "byteLength" : 62220,
            "byteOffset" : 0
        },
        {
            "buffer" : 0,
            "byteLength" : 62220,
            "byteOffset" : 62220
        },
        {
            "buffer" : 0,
            "byteLength" : 15960,
            "byteOffset" : 124440
        },
        {
            "buffer" : 0,
            "byteLength" : 1632,
            "byteOffset" : 140400
        },
        {
            "buffer" : 0,
            "byteLength" : 1632,
            "byteOffset" : 142032
        },
        {
            "buffer" : 0,
            "byteLength" : 408,
            "byteOffset" : 143664
        },
        {
            "buffer" : 0,
            "byteLength" : 1344,
            "byteOffset" : 144072
        },
        {
            "buffer" : 0,
            "byteLength" : 1344,
            "byteOffset" : 145416
        },
        {
            "buffer" : 0,
            "byteLength" : 336,
            "byteOffset" : 146760
        },
        {
            "buffer" : 0,
            "byteLength" : 13728,
            "byteOffset" : 147096
        },
        {
            "buffer" : 0,
            "byteLength" : 13728,
            "byteOffset" : 160824
        },
        {
            "buffer" : 0,
            "byteLength" : 3432,
            "byteOffset" : 174552
        }
    ],
    "buffers" : [
        {
            "byteLength" : 177984,
            "uri" : "human2.bin"
        }
    ]
}
