<?xml version="1.0" encoding="iso-8859-1"?>
<!-- Generator: Adobe Illustrator 16.0.0, SVG Export Plug-In . SVG Version: 6.00 Build 0)  -->
<!DOCTYPE svg PUBLIC "-//W3C//DTD SVG 1.1//EN" "http://www.w3.org/Graphics/SVG/1.1/DTD/svg11.dtd">
<svg version="1.1" id="Capa_1" xmlns="http://www.w3.org/2000/svg" xmlns:xlink="http://www.w3.org/1999/xlink" x="0px" y="0px"
	 width="108.336px" height="108.336px" viewBox="0 0 108.336 108.336" style="enable-background:new 0 0 108.336 108.336;"
	 xml:space="preserve">
<g>
	<path d="M54.168,0C24.3,0,0,24.3,0,54.168c0,29.869,24.3,54.168,54.168,54.168s54.168-24.299,54.168-54.168
		C108.336,24.3,84.036,0,54.168,0z M91.518,91.611c-10.416,10.373-22.906,15.559-37.474,15.559c13.299,0,24.714-5.188,34.25-15.559
		c9.533-10.373,14.301-22.885,14.301-37.532c0-14.608-4.768-27.107-14.301-37.503C78.758,6.184,67.343,0.987,54.044,0.987
		c14.565,0,27.058,5.197,37.474,15.588c10.41,10.396,15.617,22.895,15.617,37.503C107.135,68.727,101.928,81.238,91.518,91.611z"/>
</g>
<g>
</g>
<g>
</g>
<g>
</g>
<g>
</g>
<g>
</g>
<g>
</g>
<g>
</g>
<g>
</g>
<g>
</g>
<g>
</g>
<g>
</g>
<g>
</g>
<g>
</g>
<g>
</g>
<g>
</g>
</svg>
