<?xml version="1.0" encoding="iso-8859-1"?>
<!-- Generator: Adobe Illustrator 16.0.0, SVG Export Plug-In . SVG Version: 6.00 Build 0)  -->
<!DOCTYPE svg PUBLIC "-//W3C//DTD SVG 1.1//EN" "http://www.w3.org/Graphics/SVG/1.1/DTD/svg11.dtd">
<svg version="1.1" id="Capa_1" xmlns="http://www.w3.org/2000/svg" xmlns:xlink="http://www.w3.org/1999/xlink" x="0px" y="0px"
	 width="108.336px" height="108.336px" viewBox="0 0 108.336 108.336" style="enable-background:new 0 0 108.336 108.336;"
	 xml:space="preserve">
<g>
	<path d="M54.168,0C24.3,0,0,24.3,0,54.168c0,29.869,24.3,54.168,54.168,54.168s54.168-24.299,54.168-54.168
		C108.336,24.3,84.036,0,54.168,0z M91.518,91.701c-10.416,10.372-22.865,15.558-37.35,15.558c3.111,0,5.779-5.187,8.01-15.558
		c2.23-10.374,3.346-22.885,3.346-37.533c0-14.608-1.115-27.107-3.347-37.503C59.947,6.273,57.279,1.077,54.168,1.077
		c14.484,0,26.934,5.197,37.35,15.588c10.412,10.396,15.619,22.895,15.619,37.503C107.137,68.816,101.93,81.327,91.518,91.701z"/>
</g>
<g>
</g>
<g>
</g>
<g>
</g>
<g>
</g>
<g>
</g>
<g>
</g>
<g>
</g>
<g>
</g>
<g>
</g>
<g>
</g>
<g>
</g>
<g>
</g>
<g>
</g>
<g>
</g>
<g>
</g>
</svg>
