<?xml version="1.0" encoding="iso-8859-1"?>
<!-- Generator: Adobe Illustrator 16.0.0, SVG Export Plug-In . SVG Version: 6.00 Build 0)  -->
<!DOCTYPE svg PUBLIC "-//W3C//DTD SVG 1.1//EN" "http://www.w3.org/Graphics/SVG/1.1/DTD/svg11.dtd">
<svg version="1.1" id="Capa_1" xmlns="http://www.w3.org/2000/svg" xmlns:xlink="http://www.w3.org/1999/xlink" x="0px" y="0px"
	 width="108.336px" height="108.336px" viewBox="0 0 108.336 108.336" style="enable-background:new 0 0 108.336 108.336;"
	 xml:space="preserve">
<g>
	<path d="M54.168,0C24.3,0,0,24.3,0,54.168c0,29.869,24.3,54.168,54.168,54.168s54.168-24.299,54.168-54.168
		C108.336,24.3,84.036,0,54.168,0z M91.867,91.826c-10.415,10.374-22.926,15.559-37.532,15.559c-3.193,0-5.894-5.186-8.103-15.559
		c-2.21-10.373-3.315-22.883-3.315-37.533c0-14.607,1.105-27.108,3.315-37.5c2.209-10.394,4.909-15.592,8.103-15.592
		c14.606,0,27.117,5.198,37.532,15.592c10.41,10.392,15.617,22.893,15.617,37.5C107.484,68.943,102.277,81.453,91.867,91.826z"/>
</g>
<g>
</g>
<g>
</g>
<g>
</g>
<g>
</g>
<g>
</g>
<g>
</g>
<g>
</g>
<g>
</g>
<g>
</g>
<g>
</g>
<g>
</g>
<g>
</g>
<g>
</g>
<g>
</g>
<g>
</g>
</svg>
