<?xml version="1.0" encoding="UTF-8" standalone="no"?>
<!-- Generator: Adobe Illustrator 19.0.0, SVG Export Plug-In . SVG Version: 6.00 Build 0)  -->

<svg
   xmlns:dc="http://purl.org/dc/elements/1.1/"
   xmlns:cc="http://creativecommons.org/ns#"
   xmlns:rdf="http://www.w3.org/1999/02/22-rdf-syntax-ns#"
   xmlns:svg="http://www.w3.org/2000/svg"
   xmlns="http://www.w3.org/2000/svg"
   xmlns:xlink="http://www.w3.org/1999/xlink"
   xmlns:sodipodi="http://sodipodi.sourceforge.net/DTD/sodipodi-0.dtd"
   xmlns:inkscape="http://www.inkscape.org/namespaces/inkscape"
   version="1.1"
   id="Capa_1"
   x="0px"
   y="0px"
   viewBox="0 0 128 128"
   xml:space="preserve"
   sodipodi:docname="064-right-arrow-9-a.svg"
   inkscape:version="0.92.3 (2405546, 2018-03-11)"
   inkscape:export-filename="/home/devent/Projects/dwarf-hustle/docu/724907-arrows/svg/064-right-arrow-9-a.png"
   inkscape:export-xdpi="96"
   inkscape:export-ydpi="96"
   width="128"
   height="128"><metadata
   id="metadata43"><rdf:RDF><cc:Work
       rdf:about=""><dc:format>image/svg+xml</dc:format><dc:type
         rdf:resource="http://purl.org/dc/dcmitype/StillImage" /><dc:title></dc:title></cc:Work></rdf:RDF></metadata><defs
   id="defs41"><linearGradient
     inkscape:collect="always"
     id="linearGradient836"><stop
       style="stop-color:#ffffff;stop-opacity:1;"
       offset="0"
       id="stop832" /><stop
       style="stop-color:#ffffff;stop-opacity:0;"
       offset="1"
       id="stop834" /></linearGradient><linearGradient
     inkscape:collect="always"
     xlink:href="#linearGradient836"
     id="linearGradient838"
     x1="0.00027696093"
     y1="224.00571"
     x2="448.01099"
     y2="224.00571"
     gradientUnits="userSpaceOnUse" /><linearGradient
     inkscape:collect="always"
     xlink:href="#linearGradient836"
     id="linearGradient848"
     gradientUnits="userSpaceOnUse"
     x1="0.00027696093"
     y1="224.00571"
     x2="448.01099"
     y2="224.00571" /><linearGradient
     inkscape:collect="always"
     xlink:href="#linearGradient836"
     id="linearGradient850"
     gradientUnits="userSpaceOnUse"
     x1="0.00027696093"
     y1="224.00571"
     x2="448.01099"
     y2="224.00571" /><linearGradient
     inkscape:collect="always"
     xlink:href="#linearGradient836"
     id="linearGradient864"
     x1="0.00027696093"
     y1="224.00571"
     x2="448.01099"
     y2="224.00571"
     gradientUnits="userSpaceOnUse" /></defs><sodipodi:namedview
   pagecolor="#7c7c7c"
   bordercolor="#666666"
   borderopacity="1"
   objecttolerance="10"
   gridtolerance="10"
   guidetolerance="10"
   inkscape:pageopacity="0"
   inkscape:pageshadow="2"
   inkscape:window-width="1920"
   inkscape:window-height="1044"
   id="namedview39"
   showgrid="false"
   inkscape:zoom="2.1070912"
   inkscape:cx="201.53817"
   inkscape:cy="72.710737"
   inkscape:window-x="0"
   inkscape:window-y="36"
   inkscape:window-maximized="1"
   inkscape:current-layer="Capa_1" />

<g
   id="g8"
   transform="translate(0,-320.01099)">
</g>
<g
   id="g10"
   transform="translate(0,-320.01099)">
</g>
<g
   id="g12"
   transform="translate(0,-320.01099)">
</g>
<g
   id="g14"
   transform="translate(0,-320.01099)">
</g>
<g
   id="g16"
   transform="translate(0,-320.01099)">
</g>
<g
   id="g18"
   transform="translate(0,-320.01099)">
</g>
<g
   id="g20"
   transform="translate(0,-320.01099)">
</g>
<g
   id="g22"
   transform="translate(0,-320.01099)">
</g>
<g
   id="g24"
   transform="translate(0,-320.01099)">
</g>
<g
   id="g26"
   transform="translate(0,-320.01099)">
</g>
<g
   id="g28"
   transform="translate(0,-320.01099)">
</g>
<g
   id="g30"
   transform="translate(0,-320.01099)">
</g>
<g
   id="g32"
   transform="translate(0,-320.01099)">
</g>
<g
   id="g34"
   transform="translate(0,-320.01099)">
</g>
<g
   id="g36"
   transform="translate(0,-320.01099)">
</g>
<g
   id="g6"
   style="fill:url(#linearGradient864);fill-opacity:1.0"
   transform="matrix(0,0.11864355,-0.17853982,0,103.99394,37.423176)">
	<g
   id="g4"
   style="fill:url(#linearGradient864);fill-opacity:1.0">
		<path
   inkscape:connector-curvature="0"
   d="m 438.731,209.463 -416,-192 c -6.624,-3.008 -14.528,-1.216 -19.136,4.48 -4.64,5.696 -4.8,13.792 -0.384,19.648 l 136.8,182.4 -136.8,182.4 c -4.416,5.856 -4.256,13.984 0.352,19.648 3.104,3.872 7.744,5.952 12.448,5.952 2.272,0 4.544,-0.48 6.688,-1.472 l 416,-192 c 5.696,-2.624 9.312,-8.288 9.312,-14.528 0,-6.24 -3.616,-11.904 -9.28,-14.528 z"
   id="path2"
   style="fill:url(#linearGradient864);fill-opacity:1.0" />
	</g>
</g><g
   id="g854"
   transform="matrix(0,0.06481102,-0.09753036,0,85.847396,49.481949)"
   style="fill:url(#linearGradient838);fill-opacity:1">
	<g
   id="g852"
   style="fill:url(#linearGradient850);fill-opacity:1">
		<path
   id="path850"
   d="m 438.731,209.463 -416,-192 c -6.624,-3.008 -14.528,-1.216 -19.136,4.48 -4.64,5.696 -4.8,13.792 -0.384,19.648 l 136.8,182.4 -136.8,182.4 c -4.416,5.856 -4.256,13.984 0.352,19.648 3.104,3.872 7.744,5.952 12.448,5.952 2.272,0 4.544,-0.48 6.688,-1.472 l 416,-192 c 5.696,-2.624 9.312,-8.288 9.312,-14.528 0,-6.24 -3.616,-11.904 -9.28,-14.528 z"
   inkscape:connector-curvature="0"
   style="fill:url(#linearGradient848);fill-opacity:1" />
	</g>
</g></svg>