<?xml version="1.0" encoding="UTF-8" standalone="no"?>
<!-- Generator: Adobe Illustrator 19.0.0, SVG Export Plug-In . SVG Version: 6.00 Build 0)  -->

<svg
   xmlns:dc="http://purl.org/dc/elements/1.1/"
   xmlns:cc="http://creativecommons.org/ns#"
   xmlns:rdf="http://www.w3.org/1999/02/22-rdf-syntax-ns#"
   xmlns:svg="http://www.w3.org/2000/svg"
   xmlns="http://www.w3.org/2000/svg"
   xmlns:sodipodi="http://sodipodi.sourceforge.net/DTD/sodipodi-0.dtd"
   xmlns:inkscape="http://www.inkscape.org/namespaces/inkscape"
   version="1.1"
   id="Capa_1"
   x="0px"
   y="0px"
   viewBox="0 0 480.026 480.026"
   style="enable-background:new 0 0 480.026 480.026;"
   xml:space="preserve"
   sodipodi:docname="091-fast-fast-forward-1.svg"
   inkscape:version="0.92.3 (2405546, 2018-03-11)"
   inkscape:export-filename="/home/devent/Projects/dwarf-hustle/docu/724907-arrows/png/091-fast-fast-forward-1.png"
   inkscape:export-xdpi="102.39445"
   inkscape:export-ydpi="102.39445"><metadata
   id="metadata49"><rdf:RDF><cc:Work
       rdf:about=""><dc:format>image/svg+xml</dc:format><dc:type
         rdf:resource="http://purl.org/dc/dcmitype/StillImage" /><dc:title></dc:title></cc:Work></rdf:RDF></metadata><defs
   id="defs47" /><sodipodi:namedview
   pagecolor="#ffffff"
   bordercolor="#666666"
   borderopacity="1"
   objecttolerance="10"
   gridtolerance="10"
   guidetolerance="10"
   inkscape:pageopacity="0"
   inkscape:pageshadow="2"
   inkscape:window-width="1920"
   inkscape:window-height="1044"
   id="namedview45"
   showgrid="false"
   inkscape:zoom="1.390568"
   inkscape:cx="225.19893"
   inkscape:cy="194.85834"
   inkscape:window-x="0"
   inkscape:window-y="36"
   inkscape:window-maximized="1"
   inkscape:current-layer="Capa_1" />
<g
   id="g6"
   transform="matrix(0.69616518,0,0,1,2.2173296e-6,0)">
	<g
   id="g4">
		<path
   d="m 475.922,229.325 -144,-160 c -3.072,-3.392 -7.36,-5.312 -11.904,-5.312 h -96 c -6.304,0 -12.032,3.712 -14.624,9.472 -2.56,5.792 -1.504,12.544 2.72,17.216 l 134.368,149.312 -134.368,149.28 c -4.224,4.704 -5.312,11.456 -2.72,17.216 2.592,5.792 8.32,9.504 14.624,9.504 h 96 c 4.544,0 8.832,-1.952 11.904,-5.28 l 144,-160 c 5.472,-6.08 5.472,-15.36 0,-21.408 z"
   id="path2"
   inkscape:connector-curvature="0" />
	</g>
</g>
<g
   id="g12"
   transform="matrix(0.69616518,0,0,1,2.2173296e-6,0)">
	<g
   id="g10">
		<path
   d="m 267.922,229.325 -144,-160 c -3.072,-3.392 -7.36,-5.312 -11.904,-5.312 h -96 c -6.304,0 -12.032,3.712 -14.624,9.472 -2.56,5.792 -1.504,12.544 2.72,17.216 L 138.482,240.013 4.114,389.293 c -4.224,4.704 -5.312,11.456 -2.72,17.216 2.592,5.792 8.32,9.504 14.624,9.504 h 96 c 4.544,0 8.832,-1.952 11.904,-5.28 l 144,-160 c 5.472,-6.08 5.472,-15.36 0,-21.408 z"
   id="path8"
   inkscape:connector-curvature="0" />
	</g>
</g>
<g
   id="g14">
</g>
<g
   id="g16">
</g>
<g
   id="g18">
</g>
<g
   id="g20">
</g>
<g
   id="g22">
</g>
<g
   id="g24">
</g>
<g
   id="g26">
</g>
<g
   id="g28">
</g>
<g
   id="g30">
</g>
<g
   id="g32">
</g>
<g
   id="g34">
</g>
<g
   id="g36">
</g>
<g
   id="g38">
</g>
<g
   id="g40">
</g>
<g
   id="g42">
</g>
<g
   id="g860"
   transform="matrix(0.69616518,0,0,1,145.8486,0)">
	<g
   id="g858">
		<path
   id="path856"
   d="m 475.922,229.325 -144,-160 c -3.072,-3.392 -7.36,-5.312 -11.904,-5.312 h -96 c -6.304,0 -12.032,3.712 -14.624,9.472 -2.56,5.792 -1.504,12.544 2.72,17.216 l 134.368,149.312 -134.368,149.28 c -4.224,4.704 -5.312,11.456 -2.72,17.216 2.592,5.792 8.32,9.504 14.624,9.504 h 96 c 4.544,0 8.832,-1.952 11.904,-5.28 l 144,-160 c 5.472,-6.08 5.472,-15.36 0,-21.408 z"
   inkscape:connector-curvature="0" />
	</g>
</g></svg>