<?xml version="1.0" encoding="iso-8859-1"?>
<!-- Generator: Adobe Illustrator 19.0.0, SVG Export Plug-In . SVG Version: 6.00 Build 0)  -->
<svg version="1.1" id="Capa_1" xmlns="http://www.w3.org/2000/svg" xmlns:xlink="http://www.w3.org/1999/xlink" x="0px" y="0px"
	 viewBox="0 0 512 512" style="enable-background:new 0 0 512 512;" xml:space="preserve">
<g>
	<g>
		<path d="M271.985,349.222h-31.971c-5.522,0-10,4.478-10,10v31.971c0,5.522,4.478,10,10,10h31.971c5.523,0,10-4.477,10-10v-31.971
			C281.985,353.7,277.507,349.222,271.985,349.222z M261.986,381.193h-11.971v-11.971h11.971V381.193z"/>
	</g>
</g>
<g>
	<g>
		<path d="M487.961,389.549c-2.365-1.897-5.464-2.618-8.423-1.965l-39.186,8.682L264.563,5.894C262.947,2.307,259.379,0,255.444,0
			c-3.935,0-7.503,2.307-9.118,5.894L70.638,396.042l-38.176-8.458c-2.959-0.652-6.058,0.068-8.423,1.965
			c-2.364,1.898-3.74,4.767-3.74,7.799v59.74c0,13.833,9.432,25.584,22.938,28.577l27.197,6.025
			C131.263,505.167,193.696,512,256,512s124.737-6.833,185.566-20.31l27.197-6.025c0,0,0-0.001,0.001-0.001
			c13.505-2.992,22.937-14.743,22.937-28.576v-59.74C491.701,394.315,490.325,391.447,487.961,389.549z M420.33,400.515
			c-32.419,6.469-65.292,10.993-98.345,13.574v-48.053c26.218-2.026,52.531-5.281,78.449-9.705L420.33,400.515z M255.444,34.354
			l136.498,303.12c-23.145,3.802-46.586,6.65-69.957,8.5v-26.751c0-5.522-4.478-10-10-10h-111.97c-5.522,0-10,4.478-10,10v26.751
			c-23.724-1.877-47.513-4.782-70.992-8.669L255.444,34.354z M301.986,329.223v86.189c-30.621,1.662-61.35,1.662-91.971,0v-86.189
			H301.986z M110.534,356.154c26.248,4.514,52.91,7.828,79.48,9.881v48.054c-33.4-2.608-66.615-7.201-99.364-13.778L110.534,356.154
			z M471.701,457.088L471.701,457.088c0,4.381-2.987,8.103-7.265,9.051l0.001-0.001l-27.197,6.025
			c-118.566,26.27-243.91,26.271-362.48,0l-27.196-6.024c-4.277-0.948-7.265-4.67-7.265-9.051v-47.282l30.135,6.677
			c1.22,0.27,2.44,0.537,3.661,0.802c0.13,0.031,0.259,0.059,0.389,0.084c59.548,12.889,120.594,19.424,181.516,19.424
			c60.572,0,121.266-6.459,180.487-19.202c0.123-0.024,0.245-0.05,0.367-0.079c1.572-0.339,3.143-0.682,4.712-1.03l30.135-6.677
			V457.088z"/>
	</g>
</g>
<g>
	<g>
		<path d="M428.386,447.687c-1.098-5.412-6.374-8.913-11.788-7.813C363.827,450.573,309.794,455.998,256,455.998
			c-58.674,0-117.469-6.436-174.751-19.127l-18.787-4.162c-5.393-1.194-10.733,2.208-11.927,7.601
			c-1.194,5.393,2.209,10.732,7.601,11.927l18.787,4.162c58.701,13.005,118.951,19.6,179.077,19.6
			c55.126,0,110.496-5.559,164.573-16.524C425.985,458.377,429.484,453.1,428.386,447.687z"/>
	</g>
</g>
<g>
	<g>
		<path d="M461.501,440.52c-0.12-0.64-0.32-1.269-0.57-1.87c-0.25-0.599-0.559-1.189-0.91-1.729c-0.37-0.55-0.79-1.061-1.25-1.521
			c-0.46-0.46-0.97-0.88-1.52-1.239c-0.54-0.36-1.12-0.67-1.72-0.92c-0.61-0.25-1.24-0.44-1.881-0.57
			c-3.25-0.651-6.7,0.41-9.02,2.729c-0.46,0.46-0.88,0.971-1.24,1.521c-0.359,0.54-0.67,1.129-0.92,1.729
			c-0.25,0.6-0.45,1.23-0.57,1.87c-0.13,0.64-0.199,1.3-0.199,1.95c0,0.66,0.069,1.311,0.199,1.96c0.12,0.63,0.32,1.26,0.57,1.87
			c0.25,0.6,0.561,1.18,0.92,1.72c0.36,0.55,0.78,1.061,1.24,1.521c0.46,0.47,0.97,0.88,1.52,1.25c0.54,0.359,1.12,0.67,1.73,0.92
			c0.599,0.25,1.229,0.439,1.87,0.57c0.639,0.129,1.3,0.189,1.95,0.189c0.65,0,1.31-0.06,1.95-0.189
			c0.641-0.131,1.271-0.32,1.881-0.57c0.6-0.25,1.18-0.561,1.72-0.92c0.55-0.37,1.06-0.78,1.52-1.25
			c0.46-0.46,0.88-0.971,1.25-1.521c0.35-0.54,0.66-1.12,0.91-1.72c0.25-0.61,0.45-1.24,0.57-1.87c0.13-0.649,0.2-1.3,0.2-1.96
			C461.701,441.82,461.631,441.161,461.501,440.52z"/>
	</g>
</g>
<g>
</g>
<g>
</g>
<g>
</g>
<g>
</g>
<g>
</g>
<g>
</g>
<g>
</g>
<g>
</g>
<g>
</g>
<g>
</g>
<g>
</g>
<g>
</g>
<g>
</g>
<g>
</g>
<g>
</g>
</svg>
