<?xml version="1.0" encoding="iso-8859-1"?>
<!-- Generator: Adobe Illustrator 19.0.0, SVG Export Plug-In . SVG Version: 6.00 Build 0)  -->
<svg version="1.1" id="Capa_1" xmlns="http://www.w3.org/2000/svg" xmlns:xlink="http://www.w3.org/1999/xlink" x="0px" y="0px"
	 viewBox="0 0 512 512" style="enable-background:new 0 0 512 512;" xml:space="preserve">
<g>
	<g>
		<path d="M269.757,275.921c-5.523,0-10,4.477-10,10v105.672l-66.924,31.275l-66.924-31.275V285.921c0-5.523-4.477-10-10-10
			s-10,4.477-10,10v112.037c0,3.884,2.248,7.416,5.766,9.06l76.924,35.949c1.342,0.627,2.788,0.94,4.234,0.94
			s2.892-0.313,4.234-0.94l76.924-35.949c3.518-1.644,5.766-5.177,5.766-9.06V285.921
			C279.757,280.398,275.28,275.921,269.757,275.921z"/>
	</g>
</g>
<g>
	<g>
		<path d="M461.47,173.631c-0.13-0.64-0.32-1.26-0.57-1.87c-0.25-0.6-0.56-1.18-0.92-1.72c-0.36-0.55-0.78-1.06-1.24-1.52
			c-0.46-0.47-0.97-0.88-1.52-1.25c-0.54-0.36-1.13-0.67-1.73-0.92c-0.6-0.25-1.23-0.44-1.87-0.57c-1.29-0.26-2.62-0.26-3.91,0
			c-0.63,0.13-1.26,0.32-1.87,0.57c-0.6,0.25-1.18,0.56-1.72,0.92c-0.55,0.37-1.06,0.78-1.53,1.25c-0.46,0.46-0.87,0.97-1.24,1.52
			c-0.36,0.54-0.67,1.12-0.92,1.72c-0.25,0.61-0.44,1.23-0.57,1.87c-0.13,0.65-0.19,1.3-0.19,1.96c0,0.65,0.06,1.31,0.19,1.95
			c0.13,0.64,0.32,1.27,0.57,1.87c0.25,0.6,0.56,1.19,0.92,1.73c0.37,0.54,0.78,1.06,1.24,1.52c0.47,0.46,0.98,0.88,1.53,1.24
			c0.54,0.36,1.12,0.67,1.72,0.92c0.61,0.25,1.24,0.44,1.87,0.57c0.65,0.13,1.31,0.2,1.96,0.2c0.65,0,1.31-0.07,1.95-0.2
			c0.64-0.13,1.27-0.32,1.87-0.57c0.6-0.25,1.19-0.56,1.73-0.92c0.55-0.36,1.06-0.78,1.52-1.24c0.46-0.46,0.88-0.98,1.24-1.52
			s0.67-1.13,0.92-1.73c0.25-0.6,0.44-1.23,0.57-1.87c0.13-0.64,0.2-1.3,0.2-1.95C461.67,174.931,461.6,174.281,461.47,173.631z"/>
	</g>
</g>
<g>
	<g>
		<path d="M477.417,58.461c-17.46-23.009-35.23-32.219-35.979-32.6c-4.765-2.426-10.598-0.673-13.235,3.979l-3.062,5.397
			c-5.937,10.511-34.816,59.312-71.109,81.984c-1.613-3.358-5.045-5.676-9.019-5.676H309.03c-5.523,0-10,4.477-10,10v7.554H86.634
			v-7.554c0-5.523-4.477-10-10-10H40.652c-5.523,0-10,4.477-10,10v7.554H10c-5.523,0-10,4.477-10,10v73.037c0,5.523,4.477,10,10,10
			h20.652v7.493c0,5.523,4.477,10,10,10h25.982v183.298c0,3.883,2.248,7.416,5.766,9.06l116.198,54.302
			c1.342,0.627,2.788,0.94,4.234,0.94c1.446,0,2.892-0.313,4.234-0.94l116.198-54.302c3.518-1.644,5.766-5.176,5.766-9.06V239.629
			h25.983c3.915,0,7.304-2.25,8.945-5.527c36.278,22.723,65.242,71.456,71.227,82.002l3.053,5.293
			c1.843,3.196,5.2,5.006,8.669,5.006c1.49,0,3.002-0.334,4.423-1.036c0.75-0.371,18.576-9.342,36.071-32.277
			C493.185,272.397,512,235.612,512,177.875v-4.666C512,116.037,493.193,79.253,477.417,58.461z M30.652,202.136H20v-16.549h10.652
			V202.136z M30.652,165.587H20v-16.488h10.652V165.587z M66.634,219.629H50.652v-88.084h15.982V219.629z M86.634,185.587H299.03
			v15.544h-28.774c-4.147,0-7.864,2.56-9.343,6.435l-7.364,19.297H132.115l-7.364-19.298c-1.479-3.875-5.195-6.435-9.343-6.435
			H86.634V185.587z M299.031,416.562L192.833,466.19L86.634,416.562V221.131h21.887l7.364,19.298
			c1.479,3.875,5.195,6.435,9.343,6.435h135.209c4.147,0,7.864-2.56,9.343-6.435l7.364-19.297h21.887V416.562z M299.031,165.587
			H86.634v-16.488h212.397V165.587z M335.014,219.629h-15.983v-88.084h15.983V219.629z M492,177.875
			c0,40.771-10.304,76.095-29.797,102.155c-8.058,10.771-16.188,17.955-21.905,22.255c-11.983-20.368-44.278-69.938-85.284-90.521
			v-26.177h58.984c5.523,0,10-4.477,10-10c0-5.523-4.477-10-10-10h-58.984v-26.005c41.086-20.511,73.333-70.183,85.289-90.593
			C456.537,61.406,492,97.235,492,173.209V177.875z"/>
	</g>
</g>
<g>
	<g>
		<path d="M240.8,303.831c-2.879-2.207-6.726-2.682-10.056-1.241l-13.266,5.741c-1.771-1.776-3.857-3.858-5.958-5.93
			c-11.809-11.646-13.904-13.579-18.686-13.579c-4.781,0-6.877,1.933-18.686,13.579c-2.101,2.072-4.187,4.154-5.958,5.93
			l-13.266-5.741c-3.33-1.441-7.178-0.966-10.056,1.241c-2.879,2.207-4.337,5.8-3.81,9.389l8.294,56.488
			c0.721,4.909,4.932,8.547,9.894,8.547h67.172c4.962,0,9.173-3.639,9.897-8.547l8.295-56.488
			C245.136,309.631,243.678,306.038,240.8,303.831z M217.78,358.255h-49.895l-4.432-30.181l3.059,1.323
			c3.793,1.642,8.204,0.78,11.102-2.166c5.128-5.214,11.002-11.058,15.219-15.12c4.217,4.061,10.091,9.906,15.219,15.12
			c2.898,2.947,7.31,3.808,11.102,2.166l3.058-1.323L217.78,358.255z"/>
	</g>
</g>
<g>
</g>
<g>
</g>
<g>
</g>
<g>
</g>
<g>
</g>
<g>
</g>
<g>
</g>
<g>
</g>
<g>
</g>
<g>
</g>
<g>
</g>
<g>
</g>
<g>
</g>
<g>
</g>
<g>
</g>
</svg>
