<?xml version="1.0" encoding="iso-8859-1"?>
<!-- Generator: Adobe Illustrator 19.0.0, SVG Export Plug-In . SVG Version: 6.00 Build 0)  -->
<svg version="1.1" id="Capa_1" xmlns="http://www.w3.org/2000/svg" xmlns:xlink="http://www.w3.org/1999/xlink" x="0px" y="0px"
	 viewBox="0 0 512 512" style="enable-background:new 0 0 512 512;" xml:space="preserve">
<g>
	<g>
		<path d="M256,292.3c-21.637,0-39.241,17.599-39.241,39.233c0,12.209,5.677,24.057,14.835,31.643v20.353c0,5.522,4.477,10,10,10
			h28.811c5.523,0,10-4.477,10-10v-20.353c9.157-7.586,14.835-19.434,14.835-31.643C295.24,309.9,277.637,292.3,256,292.3z
			 M265.343,349.395c-3.059,1.796-4.937,5.076-4.937,8.623v15.511h-8.81v-15.511c0-3.547-1.879-6.828-4.937-8.623
			c-4.768-2.799-9.899-9.583-9.899-17.861c0-10.605,8.632-19.233,19.241-19.233c10.609,0,19.24,8.628,19.24,19.233
			C275.241,339.812,270.111,346.595,265.343,349.395z"/>
	</g>
</g>
<g>
	<g>
		<path d="M351.827,161.284c-13.307-13.303-34.959-13.303-48.266,0c-6.446,6.445-9.997,15.016-9.997,24.13
			c0,9.115,3.551,17.686,9.997,24.131c1.952,1.952,4.511,2.928,7.07,2.928c2.559,0,5.119-0.977,7.073-2.93
			c3.904-3.906,3.903-10.238-0.002-14.143c-2.668-2.667-4.138-6.214-4.138-9.986c0-3.771,1.47-7.318,4.138-9.985
			c5.509-5.508,14.474-5.508,19.984,0c3.908,3.905,10.238,3.903,14.143-0.002C355.733,171.52,355.732,165.188,351.827,161.284z"/>
	</g>
</g>
<g>
	<g>
		<path d="M218.142,147.758c-18.818,0-34.129,15.308-34.129,34.124c0,5.522,4.477,10,10,10s10-4.478,10-10
			c0-7.788,6.338-14.124,14.129-14.124c7.791,0,14.13,6.336,14.13,14.124c0,5.522,4.477,10,10,10c5.523,0,10-4.478,10-10
			C252.272,163.066,236.961,147.758,218.142,147.758z"/>
	</g>
</g>
<g>
	<g>
		<path d="M372.249,419.161c-0.13-0.641-0.32-1.271-0.57-1.881c-0.25-0.6-0.56-1.18-0.92-1.72c-0.36-0.55-0.78-1.06-1.24-1.52
			c-0.469-0.46-0.979-0.88-1.529-1.25c-0.54-0.35-1.12-0.66-1.721-0.91c-0.599-0.25-1.229-0.45-1.87-0.57
			c-1.29-0.27-2.619-0.27-3.909,0c-0.641,0.12-1.27,0.32-1.87,0.57c-0.6,0.25-1.18,0.559-1.73,0.91c-0.541,0.37-1.06,0.79-1.52,1.25
			c-0.46,0.46-0.88,0.97-1.24,1.52c-0.36,0.54-0.67,1.12-0.92,1.72c-0.25,0.61-0.44,1.24-0.57,1.881c-0.13,0.639-0.2,1.3-0.2,1.949
			c0,0.65,0.07,1.31,0.2,1.95c0.13,0.641,0.32,1.27,0.57,1.87c0.25,0.61,0.56,1.19,0.92,1.73c0.36,0.55,0.78,1.06,1.24,1.52
			c0.46,0.46,0.98,0.88,1.52,1.24c0.549,0.37,1.129,0.67,1.73,0.92c0.599,0.25,1.229,0.45,1.87,0.57
			c0.639,0.13,1.3,0.199,1.949,0.199c0.661,0,1.311-0.069,1.96-0.199c0.641-0.12,1.27-0.32,1.87-0.57
			c0.601-0.25,1.181-0.55,1.721-0.92c0.55-0.36,1.059-0.78,1.529-1.24c0.46-0.46,0.87-0.97,1.24-1.52c0.36-0.54,0.67-1.12,0.92-1.73
			c0.25-0.599,0.44-1.229,0.57-1.87c0.129-0.639,0.189-1.3,0.189-1.95C372.438,420.461,372.379,419.801,372.249,419.161z"/>
	</g>
</g>
<g>
	<g>
		<path d="M469.311,0H42.689c-5.523,0-10,4.478-10,10v462.318C32.689,494.199,50.49,512,72.371,512h367.258
			c21.881,0,39.682-17.801,39.682-39.682V10C479.311,4.478,474.833,0,469.311,0z M459.311,472.318
			c0,10.853-8.829,19.682-19.682,19.682H72.371c-10.852,0-19.681-8.829-19.681-19.682V240.11h406.621V472.318z M419.094,177.208
			c-6.591-3.823-14.673-7.199-24.562-9.867c-0.105-0.028-0.21-0.055-0.316-0.079c-0.797-0.188-2.614-2.01-3.109-4.113
			c-0.028-0.122-0.06-0.244-0.093-0.365c-8.283-30.088-25.223-62.667-83.167-47.425c-0.045,0.012-0.089,0.023-0.133,0.036
			c-1.778,0.492-3.36,0.113-4.452-1.068c-0.091-0.099-0.184-0.194-0.278-0.289c-11.615-11.611-27.51-24.939-47.487-24.939
			c-15.379,0-30.469,7.925-47.488,24.939c-0.094,0.095-0.187,0.191-0.278,0.29c-1.016,1.101-2.79,1.556-4.307,1.108
			c-0.083-0.024-0.167-0.048-0.251-0.07c-14.433-3.839-33.095-7.286-49.417,0.197c-15.431,7.075-26.156,22.542-32.789,47.286
			c-0.026,0.1-0.052,0.199-0.075,0.299c-0.495,2.104-2.313,3.927-3.109,4.114c-0.106,0.024-0.212,0.051-0.317,0.079
			c-9.888,2.668-17.969,6.044-24.56,9.867V60.206h326.188V177.208z M122.551,186.685c8.301-2.043,15.568-9.724,17.768-18.785
			c10.291-38.258,27.483-41.23,57.604-33.234c8.696,2.498,18.208-0.084,24.344-6.603c12.792-12.761,23.664-18.965,33.229-18.965
			c9.83,0,20.082,5.85,33.228,18.963c6.138,6.523,15.408,9.059,24.271,6.624c38.771-10.184,50.563,3.824,58.692,33.25
			c2.21,9.047,9.47,16.711,17.762,18.75c16.89,4.578,35.936,14.03,37.53,33.426H85.021
			C86.614,200.715,105.661,191.263,122.551,186.685z M459.311,220.11h-12.33c-0.381-7.346-2.334-16.105-7.887-24.601V50.206
			c0-5.522-4.478-10-10-10H82.905c-5.523,0-10,4.478-10,10V195.51c-5.552,8.496-7.505,17.255-7.886,24.601h-12.33V20h406.622V220.11
			z"/>
	</g>
</g>
<g>
	<g>
		<path d="M429.094,300.522c-16.661,0-30.216-13.551-30.216-30.206c0-5.522-4.478-10-10-10H123.122c-5.523,0-10,4.478-10,10
			c0,16.655-13.555,30.206-30.216,30.206c-5.523,0-10,4.478-10,10v111.064c0,5.522,4.477,10,10,10
			c16.661,0,30.216,13.551,30.216,30.207c0,5.522,4.477,10,10,10h265.756c5.522,0,10-4.478,10-10
			c0-16.656,13.555-30.207,30.216-30.207c5.522,0,10-4.478,10-10V310.522C439.094,305,434.616,300.522,429.094,300.522z
			 M419.094,412.587c-19.681,3.993-35.222,19.53-39.216,39.207H132.121c-1.557-7.67-4.868-14.711-9.495-20.685h199.603
			c5.522,0,10-4.478,10-10c0-5.522-4.478-10-10-10H92.906v-91.587c19.68-3.992,35.222-19.529,39.215-39.206h247.758
			c3.993,19.677,19.534,35.214,39.215,39.206V412.587z"/>
	</g>
</g>
<g>
</g>
<g>
</g>
<g>
</g>
<g>
</g>
<g>
</g>
<g>
</g>
<g>
</g>
<g>
</g>
<g>
</g>
<g>
</g>
<g>
</g>
<g>
</g>
<g>
</g>
<g>
</g>
<g>
</g>
</svg>
