<?xml version="1.0" encoding="iso-8859-1"?>
<!-- Generator: Adobe Illustrator 19.0.0, SVG Export Plug-In . SVG Version: 6.00 Build 0)  -->
<svg version="1.1" id="Capa_1" xmlns="http://www.w3.org/2000/svg" xmlns:xlink="http://www.w3.org/1999/xlink" x="0px" y="0px"
	 viewBox="0 0 512 512" style="enable-background:new 0 0 512 512;" xml:space="preserve">
<g>
	<g>
		<path d="M313.211,104.39c-0.46-0.46-0.97-0.88-1.521-1.24c-0.54-0.36-1.12-0.67-1.72-0.92c-0.61-0.25-1.24-0.44-1.87-0.57
			c-1.29-0.26-2.62-0.26-3.91,0c-0.64,0.13-1.269,0.32-1.87,0.57c-0.609,0.25-1.189,0.56-1.729,0.92
			c-0.55,0.36-1.06,0.78-1.521,1.24c-1.86,1.86-2.93,4.44-2.93,7.07c0,0.66,0.07,1.31,0.2,1.96c0.13,0.64,0.32,1.27,0.57,1.87
			c0.25,0.6,0.56,1.18,0.92,1.73c0.359,0.54,0.779,1.05,1.239,1.52c0.461,0.46,0.971,0.87,1.521,1.24
			c0.54,0.36,1.12,0.67,1.729,0.92c0.6,0.25,1.23,0.44,1.87,0.57s1.301,0.19,1.95,0.19c0.651,0,1.311-0.06,1.962-0.19
			c0.63-0.13,1.26-0.32,1.87-0.57c0.6-0.25,1.18-0.56,1.72-0.92c0.551-0.37,1.061-0.78,1.521-1.24c0.46-0.47,0.88-0.98,1.25-1.52
			c0.359-0.55,0.67-1.13,0.92-1.73c0.25-0.6,0.439-1.23,0.57-1.87c0.129-0.65,0.189-1.3,0.189-1.96
			C316.141,108.83,315.07,106.249,313.211,104.39z"/>
	</g>
</g>
<g>
	<g>
		<path d="M394.741,360.779h-0.502v-73.049h0.502c5.522,0,10-4.477,10-10s-4.478-10-10-10h-18.376v-112.68h14.685
			c4.045,0,7.691-2.437,9.239-6.173c1.547-3.736,0.691-8.038-2.168-10.898L263.071,2.929c-3.906-3.906-10.236-3.906-14.143,0
			l-135.05,135.049c-2.859,2.86-3.715,7.162-2.168,10.898c1.548,3.737,5.194,6.173,9.239,6.173h14.685v112.68h-18.376
			c-5.522,0-10,4.477-10,10s4.478,10,10,10h0.502v73.049h-0.502c-5.522,0-10,4.477-10,10s4.478,10,10,10h18.376V502
			c0,5.523,4.478,10,10,10h220.73c5.522,0,10-4.477,10-10V380.779h18.376c5.522,0,10-4.477,10-10S400.263,360.779,394.741,360.779z
			 M158.678,121.463h107.464c5.522,0,10-4.477,10-10s-4.478-10-10-10h-87.464L256,24.143l110.907,110.907H145.093L158.678,121.463z
			 M304.427,194.512c-20.806,0-37.733,16.927-37.733,37.734v35.483h-21.387v-35.483c0-20.807-16.927-37.734-37.733-37.734
			c-20.806,0-37.733,16.927-37.733,37.734v35.483h-14.205v-112.68h200.729v112.68H342.16v-35.483
			C342.16,211.439,325.233,194.512,304.427,194.512z M215.143,287.729h81.713v73.049h-81.713V287.729z M189.84,267.729v-35.483
			c0-9.778,7.955-17.734,17.733-17.734s17.733,7.956,17.733,17.734v35.483H189.84z M286.693,267.729v-35.483
			c0-9.778,7.955-17.734,17.733-17.734s17.733,7.956,17.733,17.734v35.483H286.693z M137.76,360.779v-73.049h57.383v73.049H137.76z
			 M211.286,492h-55.651v-25.668h55.651V492z M280.714,492h-49.428v-47.736c0-13.627,11.087-24.713,24.714-24.713
			s24.714,11.086,24.714,24.713V492z M356.365,492h-55.651v-25.667h55.651V492z M356.365,446.331h-55.651v-2.068
			c0-24.655-20.059-44.713-44.714-44.713s-44.714,20.058-44.714,44.713v2.068h-55.651v-65.553h200.73V446.331z M374.239,360.779
			h-57.383v-73.049h57.383V360.779z"/>
	</g>
</g>
<g>
</g>
<g>
</g>
<g>
</g>
<g>
</g>
<g>
</g>
<g>
</g>
<g>
</g>
<g>
</g>
<g>
</g>
<g>
</g>
<g>
</g>
<g>
</g>
<g>
</g>
<g>
</g>
<g>
</g>
</svg>
