<?xml version="1.0" encoding="iso-8859-1"?>
<!-- Generator: Adobe Illustrator 19.0.0, SVG Export Plug-In . SVG Version: 6.00 Build 0)  -->
<svg version="1.1" id="Capa_1" xmlns="http://www.w3.org/2000/svg" xmlns:xlink="http://www.w3.org/1999/xlink" x="0px" y="0px"
	 viewBox="0 0 511.999 511.999" style="enable-background:new 0 0 511.999 511.999;" xml:space="preserve">
<g>
	<g>
		<path d="M263.067,352.2c-0.46-0.46-0.97-0.88-1.52-1.24c-0.54-0.36-1.12-0.67-1.73-0.92c-0.599-0.25-1.229-0.44-1.869-0.57
			c-1.28-0.26-2.61-0.26-3.9,0c-0.64,0.13-1.27,0.32-1.87,0.57c-0.61,0.25-1.19,0.56-1.73,0.92c-0.55,0.36-1.06,0.78-1.52,1.24
			c-1.86,1.86-2.93,4.44-2.93,7.07c0,2.64,1.07,5.21,2.93,7.07c0.46,0.46,0.97,0.88,1.52,1.25c0.54,0.36,1.12,0.67,1.73,0.92
			c0.6,0.25,1.23,0.44,1.87,0.57c0.64,0.13,1.3,0.19,1.95,0.19c0.65,0,1.309-0.06,1.95-0.19c0.64-0.13,1.269-0.32,1.869-0.57
			c0.61-0.25,1.19-0.56,1.73-0.92c0.55-0.37,1.06-0.79,1.52-1.25c1.861-1.86,2.931-4.43,2.931-7.07
			C265.998,356.64,264.927,354.06,263.067,352.2z"/>
	</g>
</g>
<g>
	<g>
		<path d="M360.621,222.452h-32.879c1.336-1.26,2.644-2.599,3.922-4.022l4.886-5.443c18.647-20.768,28.003-48.631,25.668-76.443
			c-0.002-0.027-0.005-0.054-0.007-0.081l-7.75-84.133c-0.365-3.968-3.052-7.34-6.838-8.583
			c-12.462-4.086-23.168,8.525-31.107,19.974c-0.718,1.035-1.418,2.073-2.096,3.103c-3.276-6.698-7.379-14.648-11.996-22.652
			C285.038,14.036,270.286,0,255.998,0c-14.288,0-29.04,14.036-46.425,44.17c-4.618,8.003-8.72,15.954-11.996,22.652
			c-0.678-1.03-1.378-2.068-2.096-3.103c-7.938-11.448-18.648-24.065-31.107-19.974c-3.786,1.243-6.472,4.616-6.838,8.583
			l-7.757,84.214c-2.335,27.813,7.02,55.675,25.667,76.443l4.887,5.444c1.277,1.423,2.585,2.761,3.921,4.021h-32.878
			c-5.523,0-10,4.477-10,10v42.217c0,5.523,4.477,10,10,10h21.91l12.644,39.787c1.319,4.152,5.174,6.972,9.53,6.972h9.295
			l9.478,171.126c0.294,5.3,4.677,9.447,9.985,9.447h63.563c5.308,0,9.691-4.147,9.984-9.447l9.478-171.126h9.295
			c4.356,0,8.211-2.82,9.53-6.971l12.644-39.787h21.911c5.522,0,10-4.477,10-10v-42.217
			C370.621,226.929,366.143,222.452,360.621,222.452z M169.701,138.297l6.215-67.468c4.457,5.804,9.674,13.989,13.872,22.098
			c1.781,3.445,5.385,5.539,9.271,5.4c3.876-0.15,7.316-2.529,8.825-6.102c0.081-0.191,8.221-19.38,19.098-38.207
			C242.526,27.11,252.759,20,255.998,20s13.472,7.11,29.017,34.018c10.878,18.827,19.018,38.016,19.098,38.207
			c1.51,3.572,4.948,5.949,8.823,6.101c3.879,0.145,7.488-1.953,9.271-5.396c4.199-8.11,9.417-16.296,13.873-22.101l6.211,67.426
			c1.864,22.33-5.651,44.695-20.623,61.371l-4.886,5.442c-2.999,3.34-6.308,6.042-9.892,8.227
			c5.164-8.766,8.128-18.975,8.128-29.864c0-30.39-46.688-77.147-52.012-82.378c-3.89-3.823-10.127-3.824-14.018,0
			c-5.323,5.231-52.011,51.989-52.011,82.378c0,10.889,2.964,21.098,8.128,29.864c-3.583-2.186-6.893-4.887-9.891-8.227
			l-4.887-5.443C175.347,182.941,167.832,160.559,169.701,138.297z M295.018,183.431c0,21.516-17.505,39.021-39.021,39.021
			c-21.515,0-39.02-17.505-39.02-39.021c0-14.58,21.685-42.474,39.023-60.93C273.339,140.944,295.018,168.824,295.018,183.431z
			 M278.317,492h-12.319v-92.727c0-5.523-4.478-10-10-10c-5.523,0-10,4.477-10,10V492h-12.32l-8.893-160.573h62.426L278.317,492z
			 M309.221,311.427H202.774l-8.503-26.758h123.454L309.221,311.427z M350.621,264.668H161.375v-22.217h189.246V264.668z"/>
	</g>
</g>
<g>
</g>
<g>
</g>
<g>
</g>
<g>
</g>
<g>
</g>
<g>
</g>
<g>
</g>
<g>
</g>
<g>
</g>
<g>
</g>
<g>
</g>
<g>
</g>
<g>
</g>
<g>
</g>
<g>
</g>
</svg>
