<?xml version="1.0" encoding="iso-8859-1"?>
<!-- Generator: Adobe Illustrator 19.0.0, SVG Export Plug-In . SVG Version: 6.00 Build 0)  -->
<svg version="1.1" id="Capa_1" xmlns="http://www.w3.org/2000/svg" xmlns:xlink="http://www.w3.org/1999/xlink" x="0px" y="0px"
	 viewBox="0 0 512 512" style="enable-background:new 0 0 512 512;" xml:space="preserve">
<g>
	<g>
		<path d="M265.8,72.49c-0.12-0.64-0.32-1.27-0.57-1.88c-0.25-0.6-0.56-1.18-0.92-1.72c-0.36-0.55-0.78-1.06-1.24-1.52
			c-0.46-0.46-0.97-0.88-1.52-1.24c-0.54-0.36-1.12-0.67-1.73-0.92c-0.6-0.25-1.23-0.45-1.87-0.57c-3.24-0.66-6.7,0.41-9.02,2.73
			c-0.46,0.46-0.88,0.97-1.24,1.52c-0.36,0.54-0.67,1.12-0.92,1.72c-0.25,0.61-0.45,1.24-0.57,1.88c-0.13,0.64-0.2,1.3-0.2,1.95
			c0,0.65,0.07,1.31,0.2,1.95c0.12,0.64,0.32,1.27,0.57,1.87c0.25,0.61,0.56,1.19,0.92,1.73c0.36,0.55,0.78,1.06,1.24,1.52
			c1.86,1.86,4.44,2.93,7.07,2.93c0.65,0,1.31-0.07,1.95-0.2c0.64-0.12,1.27-0.32,1.87-0.57c0.61-0.25,1.19-0.56,1.73-0.92
			c0.55-0.36,1.06-0.78,1.52-1.24c0.46-0.46,0.88-0.97,1.24-1.52c0.36-0.54,0.67-1.12,0.92-1.73c0.25-0.6,0.45-1.23,0.57-1.87
			c0.13-0.64,0.2-1.3,0.2-1.95C266,73.79,265.93,73.13,265.8,72.49z"/>
	</g>
</g>
<g>
	<g>
		<path d="M380.382,182.892l24.051-26.739c2.641-2.936,3.306-7.15,1.699-10.757c-1.607-3.606-5.186-5.93-9.134-5.93h-83.497V64.868
			c0-2.404-0.866-4.728-2.439-6.545L263.561,3.455C261.661,1.261,258.902,0,256,0c-2.902,0-5.661,1.261-7.561,3.455l-47.501,54.868
			c-1.573,1.818-2.439,4.141-2.439,6.545v141.451h-83.497c-3.949,0-7.527,2.323-9.134,5.93s-0.941,7.821,1.699,10.757l24.051,26.739
			l-24.051,26.739c-2.641,2.936-3.306,7.15-1.699,10.757c1.607,3.606,5.186,5.93,9.134,5.93h83.497v50.189
			c-7.766,2.919-15.311,6.433-22.556,10.523c-2.389,1.349-4.12,3.62-4.786,6.281c-0.666,2.662-0.209,5.48,1.264,7.795l24.848,39.059
			c2.809,4.414,8.544,5.919,13.156,3.449c2.444-1.308,4.944-2.507,7.491-3.597v41.332c-3.309,6.112-5.189,13.105-5.189,20.53
			C212.728,492.59,232.14,512,256,512s43.272-19.41,43.272-43.268c0-7.424-1.88-14.418-5.189-20.53V406.87
			c2.547,1.089,5.048,2.289,7.492,3.597c1.499,0.802,3.115,1.185,4.711,1.185c3.318,0,6.549-1.654,8.445-4.634l24.847-39.059
			c1.473-2.314,1.929-5.133,1.264-7.794c-0.666-2.662-2.396-4.933-4.786-6.281c-7.245-4.089-14.79-7.604-22.556-10.523V226.319
			h83.497c3.949,0,7.527-2.323,9.134-5.93s0.941-7.821-1.699-10.757L380.382,182.892z M218.499,68.595L256,25.278l37.501,43.316
			v70.871H266v-24.948c0-5.523-4.477-10-10-10s-10,4.477-10,10v24.948h-27.501V68.595z M137.447,273.172l15.056-16.739
			c3.42-3.802,3.42-9.573,0-13.375l-15.056-16.739h156.054v46.853H137.447z M293.501,293.172v44.103
			c-9.012-2.123-18.215-3.483-27.501-4.053v-40.05H293.501z M246,293.172v40.05c-9.286,0.57-18.489,1.931-27.501,4.054v-44.104H246z
			 M256,492c-12.833,0-23.272-10.438-23.272-23.268s10.44-23.268,23.272-23.268c12.832,0,23.272,10.438,23.272,23.268
			S268.833,492,256,492z M237.917,429.427v-28.65c5.946-1.131,12.006-1.709,18.083-1.709c6.078,0,12.137,0.578,18.083,1.709v28.65
			c-5.505-2.542-11.632-3.962-18.083-3.962C249.549,425.465,243.422,426.885,237.917,429.427z M316.832,366.454l-14.2,22.323
			c-14.642-6.373-30.587-9.709-46.632-9.709c-16.044,0-31.99,3.336-46.631,9.709l-14.201-22.323
			c18.925-8.883,39.751-13.54,60.832-13.54S297.907,357.571,316.832,366.454z M218.499,206.319v-46.853h156.054l-15.056,16.739
			c-3.42,3.802-3.42,9.572,0,13.375l15.056,16.739H218.499z"/>
	</g>
</g>
<g>
</g>
<g>
</g>
<g>
</g>
<g>
</g>
<g>
</g>
<g>
</g>
<g>
</g>
<g>
</g>
<g>
</g>
<g>
</g>
<g>
</g>
<g>
</g>
<g>
</g>
<g>
</g>
<g>
</g>
</svg>
