<?xml version="1.0" encoding="iso-8859-1"?>
<!-- Generator: Adobe Illustrator 19.0.0, SVG Export Plug-In . SVG Version: 6.00 Build 0)  -->
<svg version="1.1" id="Capa_1" xmlns="http://www.w3.org/2000/svg" xmlns:xlink="http://www.w3.org/1999/xlink" x="0px" y="0px"
	 viewBox="0 0 511.999 511.999" style="enable-background:new 0 0 511.999 511.999;" xml:space="preserve">
<g>
	<g>
		<path d="M448.25,82.641c-100.627,0-154.717-53.767-172.49-71.435c-4.169-4.144-6.465-6.427-9.432-8.265
			c-3.103-1.922-6.672-2.939-10.321-2.941h-0.012c-3.653,0-7.226,1.018-10.327,2.94c-2.31,1.431-3.927,3.01-6.868,5.884
			c-6.618,6.463-22.116,21.598-45.99,36.524C153.215,70.094,109.791,82.64,63.747,82.64c-10.814,0-19.612,8.797-19.612,19.609
			v126.065c0,62.687,19.783,122.403,57.211,172.694c40.459,54.35,93.382,93.473,149.021,110.165
			c1.831,0.548,3.726,0.826,5.633,0.826c1.907,0,3.802-0.278,5.636-0.828c55.636-16.69,108.559-55.813,149.02-110.165
			c37.427-50.289,57.209-110.005,57.209-172.692V102.25C467.862,91.438,459.064,82.641,448.25,82.641z M245.997,488.701
			c-47.848-17.007-93.188-52.051-128.609-99.633c-34.84-46.813-53.255-102.4-53.255-160.752V102.64
			c49.709-0.069,96.563-13.638,139.277-40.333c19.502-12.193,33.75-24.454,42.587-32.685v24.581
			c-10.345,8.61-21.364,16.584-32.806,23.737c-37.672,23.544-78.576,37.606-121.578,41.794c-5.123,0.5-9.03,4.806-9.03,9.953v98.627
			c0,54.36,17.153,106.141,49.607,149.746c31.531,42.357,71.718,74.423,113.807,90.96V488.701z M255.997,451.438
			c-39.605-14.832-77.756-45.009-107.762-85.318c-29.865-40.127-45.651-87.779-45.651-137.804v-89.693
			c42.801-5.488,83.533-20.176,121.209-43.723c11.024-6.892,21.681-14.499,31.773-22.675
			c43.822,37.367,95.496,59.741,153.846,66.608v89.483c0,50.025-15.786,97.678-45.652,137.807
			C333.755,406.428,295.604,436.604,255.997,451.438z M447.862,228.315c0,58.353-18.415,113.939-53.253,160.75
			c-35.425,47.587-80.763,82.631-128.611,99.637V469.02c42.09-16.539,82.276-48.603,113.806-90.956
			c32.454-43.607,49.608-95.389,49.608-149.749v-98.502c0-5.179-3.954-9.501-9.112-9.96
			c-59.008-5.259-110.895-27.137-154.302-65.045V29.671c22.822,22.244,80.434,72.843,181.864,72.969V228.315z"/>
	</g>
</g>
<g>
	<g>
		<path d="M345.435,340.037c-4.432-3.299-10.695-2.38-13.993,2.05c-21.781,29.259-47.787,51.819-75.446,65.501
			c-27.656-13.681-53.662-36.243-75.445-65.507c-7.507-10.088-14.022-20.887-19.361-32.098c-2.375-4.987-8.343-7.103-13.328-4.729
			c-4.987,2.374-7.104,8.342-4.729,13.328c5.898,12.385,13.089,24.309,21.374,35.44c24.873,33.413,55.065,58.909,87.313,73.73
			c1.325,0.609,2.75,0.914,4.176,0.914c1.425,0,2.851-0.305,4.176-0.912c32.251-14.823,62.444-40.316,87.313-73.724
			C350.783,349.6,349.865,343.335,345.435,340.037z"/>
	</g>
</g>
<g>
	<g>
		<path d="M381.081,154.873c-43.949-8.735-84.341-26.4-120.051-52.504c-3.455-2.526-8.136-2.572-11.64-0.117
			c-4.852,3.399-9.846,6.707-14.843,9.831c-32.517,20.323-67.428,34.549-103.762,42.284c-4.617,0.983-7.918,5.06-7.918,9.781v64.167
			c0,5.925,0.247,11.903,0.734,17.767c0.434,5.222,4.807,9.172,9.954,9.172c0.278,0,0.558-0.011,0.842-0.035
			c5.504-0.458,9.595-5.29,9.138-10.794c-0.442-5.316-0.666-10.736-0.666-16.11v-56.173c35.772-8.535,70.144-23.015,102.28-43.099
			c3.301-2.064,6.601-4.204,9.864-6.395c34.415,24.023,72.734,40.859,114.119,50.139v55.527c0,5.523,4.478,10,10,10
			c5.522,0,10-4.477,10-10v-63.633C389.132,159.91,385.76,155.803,381.081,154.873z"/>
	</g>
</g>
<g>
	<g>
		<path d="M149.656,280.22c-0.13-0.64-0.32-1.27-0.57-1.87c-0.25-0.6-0.56-1.19-0.92-1.73c-0.36-0.55-0.78-1.06-1.24-1.52
			c-0.47-0.46-0.98-0.88-1.52-1.24c-0.55-0.36-1.129-0.67-1.73-0.92c-0.599-0.25-1.229-0.44-1.87-0.57c-1.29-0.26-2.62-0.26-3.91,0
			c-0.64,0.13-1.269,0.32-1.869,0.57c-0.6,0.25-1.18,0.56-1.73,0.92c-0.541,0.36-1.06,0.78-1.52,1.24
			c-0.461,0.46-0.881,0.97-1.24,1.52c-0.36,0.54-0.67,1.13-0.92,1.73c-0.25,0.6-0.44,1.23-0.57,1.87s-0.2,1.3-0.2,1.95
			c0,0.66,0.07,1.31,0.2,1.96c0.13,0.64,0.32,1.26,0.57,1.87c0.25,0.6,0.56,1.18,0.92,1.72c0.359,0.55,0.779,1.06,1.24,1.52
			c0.46,0.47,0.98,0.88,1.52,1.25c0.549,0.36,1.129,0.67,1.73,0.92c0.599,0.25,1.229,0.44,1.869,0.57
			c0.65,0.13,1.301,0.19,1.96,0.19c0.651,0,1.301-0.06,1.95-0.19c0.641-0.13,1.27-0.32,1.87-0.57c0.6-0.25,1.179-0.56,1.73-0.92
			c0.541-0.37,1.05-0.78,1.52-1.25c0.46-0.46,0.88-0.97,1.24-1.52c0.36-0.54,0.67-1.12,0.92-1.72c0.25-0.61,0.44-1.23,0.57-1.87
			c0.129-0.65,0.189-1.3,0.189-1.96C149.846,281.52,149.786,280.86,149.656,280.22z"/>
	</g>
</g>
<g>
	<g>
		<path d="M349.304,260.708l-14.03-31.553c-1.249-2.809-3.721-4.887-6.703-5.636c-2.978-0.747-6.141-0.085-8.569,1.802
			c-0.166,0.129-14.819,11.305-38.61,14.073c2.792-23.56,13.959-38.464,14.064-38.602c1.887-2.428,2.553-5.589,1.804-8.572
			c-0.749-2.983-2.828-5.455-5.639-6.704l-31.563-14.026c-2.584-1.149-5.537-1.149-8.121,0l-31.563,14.026
			c-2.811,1.249-4.89,3.721-5.639,6.704c-0.749,2.983-0.083,6.144,1.804,8.572c0.129,0.165,11.306,14.812,14.076,38.59
			c-23.573-2.791-38.484-13.958-38.622-14.062c-2.427-1.885-5.59-2.549-8.569-1.802c-2.982,0.748-5.454,2.827-6.703,5.636
			l-14.03,31.553c-1.149,2.586-1.149,5.54,0,8.126l14.03,31.553c1.249,2.809,3.721,4.887,6.703,5.636
			c2.98,0.748,6.14,0.084,8.569-1.802c0.166-0.129,14.819-11.305,38.61-14.073c-2.792,23.561-13.96,38.465-14.064,38.603
			c-1.887,2.428-2.553,5.59-1.804,8.572c0.749,2.983,2.828,5.455,5.639,6.704l31.563,14.026c1.292,0.575,2.677,0.862,4.061,0.862
			c1.384,0,2.769-0.287,4.061-0.862l31.563-14.026c2.796-1.242,4.854-3.714,5.613-6.678c0.758-2.963,0.104-6.13-1.751-8.562
			c-0.129-0.169-11.296-15.07-14.09-38.625c23.563,2.793,38.47,13.956,38.608,14.06c2.427,1.886,5.59,2.549,8.569,1.802
			c2.982-0.748,5.454-2.827,6.703-5.636l14.03-31.553C350.453,266.248,350.453,263.294,349.304,260.708z M321.619,281.875
			c-10.493-5.462-28.204-12.341-50.854-12.341c-5.522,0-10,4.477-10,10c0,22.639,6.879,40.343,12.343,50.834l-17.11,7.603
			l-17.11-7.603c5.464-10.491,12.342-28.195,12.343-50.833c0-5.523-4.478-10-10-10c-22.651,0-40.362,6.879-50.854,12.341
			l-7.604-17.104l7.604-17.104c10.493,5.462,28.204,12.341,50.854,12.341c5.522,0,10-4.477,10-10
			c0-22.64-6.879-40.344-12.342-50.834l17.109-7.603l17.109,7.602c-5.463,10.49-12.342,28.194-12.342,50.834c0,5.523,4.478,10,10,10
			c22.651,0,40.362-6.879,50.854-12.341l7.604,17.104L321.619,281.875z"/>
	</g>
</g>
<g>
</g>
<g>
</g>
<g>
</g>
<g>
</g>
<g>
</g>
<g>
</g>
<g>
</g>
<g>
</g>
<g>
</g>
<g>
</g>
<g>
</g>
<g>
</g>
<g>
</g>
<g>
</g>
<g>
</g>
</svg>
