<?xml version="1.0" encoding="iso-8859-1"?>
<!-- Generator: Adobe Illustrator 19.0.0, SVG Export Plug-In . SVG Version: 6.00 Build 0)  -->
<svg version="1.1" id="Capa_1" xmlns="http://www.w3.org/2000/svg" xmlns:xlink="http://www.w3.org/1999/xlink" x="0px" y="0px"
	 viewBox="0 0 512 512" style="enable-background:new 0 0 512 512;" xml:space="preserve">
<g>
	<g>
		<path d="M437.016,75.156C388.664,26.855,324.378,0.254,256,0.254s-132.664,26.6-181.016,74.902C26.63,123.461,0,187.686,0,256
			s26.63,132.539,74.984,180.844c48.352,48.301,112.638,74.902,181.016,74.902s132.664-26.6,181.016-74.902
			C485.37,388.539,512,324.314,512,256S485.37,123.461,437.016,75.156z M256,491.746C125.869,491.746,20,385.991,20,256
			S125.869,20.254,256,20.254S492,126.009,492,256S386.131,491.746,256,491.746z"/>
	</g>
</g>
<g>
	<g>
		<path d="M217.678,394.969c-48.739-13.424-87.365-52.008-100.803-100.694c-1.469-5.325-6.981-8.442-12.3-6.979
			c-5.324,1.47-8.448,6.977-6.979,12.301c15.302,55.436,59.279,99.369,114.771,114.653c0.889,0.245,1.782,0.362,2.661,0.362
			c4.388,0,8.414-2.912,9.635-7.347C226.13,401.941,223.002,396.435,217.678,394.969z"/>
	</g>
</g>
<g>
	<g>
		<path d="M414.404,212.402c-11.24-40.72-37.482-75.209-73.892-97.111c-4.733-2.845-10.878-1.319-13.724,3.415
			c-2.846,4.733-1.317,10.877,3.415,13.724c31.996,19.247,55.052,49.538,64.922,85.295c1.224,4.434,5.248,7.342,9.634,7.342
			c0.881,0,1.776-0.118,2.666-0.364C412.749,223.233,415.873,217.726,414.404,212.402z"/>
	</g>
</g>
<g>
	<g>
		<path d="M306.78,105.439c-0.13-0.64-0.32-1.269-0.57-1.87c-0.25-0.609-0.56-1.189-0.92-1.729c-0.36-0.55-0.78-1.061-1.24-1.521
			c-0.46-0.46-0.97-0.88-1.52-1.239c-0.54-0.36-1.12-0.67-1.73-0.92c-0.6-0.25-1.23-0.45-1.87-0.57c-3.25-0.661-6.7,0.41-9.02,2.729
			c-0.46,0.46-0.88,0.971-1.25,1.521c-0.36,0.54-0.67,1.12-0.92,1.729c-0.25,0.6-0.44,1.23-0.57,1.87
			c-0.13,0.64-0.19,1.301-0.19,1.95c0,0.65,0.06,1.31,0.19,1.95s0.32,1.27,0.57,1.88c0.25,0.6,0.56,1.18,0.92,1.72
			c0.37,0.551,0.79,1.061,1.25,1.521c1.86,1.86,4.43,2.93,7.07,2.93c2.63,0,5.21-1.071,7.07-2.93c0.46-0.46,0.88-0.97,1.24-1.521
			c0.36-0.54,0.67-1.12,0.92-1.72c0.25-0.61,0.44-1.241,0.57-1.88s0.2-1.3,0.2-1.95C306.98,106.74,306.91,106.08,306.78,105.439z"/>
	</g>
</g>
<g>
	<g>
		<path d="M256,50.937C142.816,50.937,50.734,142.928,50.734,256S142.816,461.063,256,461.063S461.266,369.072,461.266,256
			S369.184,50.937,256,50.937z M266,71.203C360.208,76.232,435.955,151.897,440.999,246H342.26
			c-4.6-39.865-36.357-71.59-76.26-76.182V71.203z M246,71.203v98.615c-39.903,4.592-71.66,36.317-76.26,76.182H71.001
			C76.045,151.897,151.792,76.232,246,71.203z M246,440.796C151.792,435.767,76.045,360.102,71.001,266h98.739
			c4.6,39.865,36.357,71.59,76.26,76.182V440.796z M189.167,256c0-36.809,29.981-66.754,66.833-66.754s66.833,29.945,66.833,66.754
			c0,36.809-29.981,66.754-66.833,66.754S189.167,292.809,189.167,256z M266,440.796v-98.614
			c39.903-4.592,71.66-36.317,76.26-76.182h98.739C435.955,360.102,360.208,435.767,266,440.796z"/>
	</g>
</g>
<g>
</g>
<g>
</g>
<g>
</g>
<g>
</g>
<g>
</g>
<g>
</g>
<g>
</g>
<g>
</g>
<g>
</g>
<g>
</g>
<g>
</g>
<g>
</g>
<g>
</g>
<g>
</g>
<g>
</g>
</svg>
