<?xml version="1.0" encoding="iso-8859-1"?>
<!-- Generator: Adobe Illustrator 19.0.0, SVG Export Plug-In . SVG Version: 6.00 Build 0)  -->
<svg version="1.1" id="Capa_1" xmlns="http://www.w3.org/2000/svg" xmlns:xlink="http://www.w3.org/1999/xlink" x="0px" y="0px"
	 viewBox="0 0 512 512" style="enable-background:new 0 0 512 512;" xml:space="preserve">
<g>
	<g>
		<path d="M265.8,248.15c-0.12-0.64-0.32-1.27-0.57-1.87c-0.25-0.6-0.56-1.18-0.92-1.73c-0.36-0.54-0.78-1.05-1.24-1.52
			c-0.46-0.46-0.97-0.88-1.52-1.24c-0.54-0.36-1.12-0.67-1.73-0.92c-0.6-0.25-1.23-0.44-1.87-0.57c-3.24-0.66-6.7,0.41-9.02,2.73
			c-0.46,0.47-0.88,0.98-1.24,1.52c-0.36,0.55-0.67,1.13-0.92,1.73c-0.25,0.6-0.45,1.23-0.57,1.87c-0.13,0.64-0.2,1.3-0.2,1.95
			c0,0.66,0.07,1.31,0.2,1.96c0.12,0.64,0.32,1.27,0.57,1.87c0.25,0.6,0.56,1.18,0.92,1.73c0.36,0.54,0.78,1.05,1.24,1.52
			c1.86,1.86,4.44,2.92,7.07,2.92c0.65,0,1.31-0.06,1.95-0.19c0.64-0.13,1.27-0.32,1.87-0.57c0.61-0.25,1.19-0.56,1.73-0.92
			c0.55-0.37,1.06-0.78,1.52-1.24c0.46-0.47,0.88-0.98,1.24-1.52c0.36-0.55,0.67-1.13,0.92-1.73c0.25-0.6,0.45-1.23,0.57-1.87
			c0.13-0.65,0.2-1.3,0.2-1.96C266,249.45,265.93,248.79,265.8,248.15z"/>
	</g>
</g>
<g>
	<g>
		<path d="M311.853,76.168c-7.091,0-13.949,1.223-20.467,3.643c-2.781-2.09-5.752-3.941-8.883-5.521l15.918-18.06
			c3.331-3.779,3.331-9.445,0-13.225L263.503,3.388C261.604,1.234,258.872,0,256,0c-2.871,0-5.604,1.234-7.502,3.388L213.58,43.006
			c-3.331,3.779-3.331,9.445,0,13.225l15.918,18.06c-3.13,1.58-6.101,3.431-8.883,5.521c-6.518-2.42-13.377-3.643-20.467-3.643
			c-32.542,0-59.016,26.474-59.016,59.015c0,22.106,12.217,41.411,30.254,51.52v26.938c0,5.523,4.477,10,10,10h29.309V419.39
			c-7.577,9.728-12.096,21.951-12.096,35.209C198.599,486.25,224.349,512,256,512s57.401-25.75,57.401-57.401
			c0-13.258-4.518-25.481-12.096-35.209V223.641h29.309c5.523,0,10-4.477,10-10v-26.938c18.037-10.108,30.254-29.414,30.254-51.52
			C370.869,102.642,344.395,76.168,311.853,76.168z M256,25.124l21.589,24.494l-16.4,18.607c-1.71-0.15-3.441-0.226-5.189-0.226
			s-3.479,0.077-5.189,0.226l-16.4-18.607L256,25.124z M256,87.998c21.513,0,39.015,17.502,39.015,39.015
			S277.513,166.028,256,166.028s-39.015-17.502-39.015-39.015S234.487,87.998,256,87.998z M161.132,135.183
			c0-21.513,17.503-39.015,39.016-39.015c1.804,0,3.585,0.12,5.338,0.358c-5.394,8.903-8.501,19.339-8.501,30.487
			c0,17.292,7.476,32.871,19.365,43.674c-5.031,2.298-10.537,3.511-16.202,3.511C178.635,174.198,161.132,156.696,161.132,135.183z
			 M256,492c-20.623,0-37.401-16.778-37.401-37.401s16.778-37.401,37.401-37.401s37.401,16.778,37.401,37.401S276.623,492,256,492z
			 M281.305,403.081c-4.768-2.352-9.907-4.061-15.305-5.013V290.104c0-5.523-4.477-10-10-10s-10,4.477-10,10v107.965
			c-5.398,0.952-10.537,2.661-15.306,5.013V223.641h50.611V403.081z M320.615,203.641H191.386v-10.092
			c2.859,0.427,5.785,0.649,8.762,0.649c12.9,0,25.253-4.155,35.43-11.813c6.367,2.356,13.247,3.643,20.422,3.643
			s14.056-1.287,20.422-3.643c10.177,7.658,22.53,11.813,35.43,11.813c2.977,0,5.902-0.222,8.762-0.649V203.641z M311.854,174.198
			c-5.666,0-11.172-1.212-16.202-3.511c11.889-10.804,19.365-26.382,19.365-43.674c0-11.148-3.107-21.584-8.501-30.487
			c1.753-0.238,3.534-0.358,5.338-0.358c21.513,0,39.016,17.502,39.016,39.015S333.367,174.198,311.854,174.198z"/>
	</g>
</g>
<g>
</g>
<g>
</g>
<g>
</g>
<g>
</g>
<g>
</g>
<g>
</g>
<g>
</g>
<g>
</g>
<g>
</g>
<g>
</g>
<g>
</g>
<g>
</g>
<g>
</g>
<g>
</g>
<g>
</g>
</svg>
