<?xml version="1.0" encoding="iso-8859-1"?>
<!-- Generator: Adobe Illustrator 19.0.0, SVG Export Plug-In . SVG Version: 6.00 Build 0)  -->
<svg version="1.1" id="Capa_1" xmlns="http://www.w3.org/2000/svg" xmlns:xlink="http://www.w3.org/1999/xlink" x="0px" y="0px"
	 viewBox="0 0 512 512" style="enable-background:new 0 0 512 512;" xml:space="preserve">
<g>
	<g>
		<path d="M287.635,81.787l-24.133-27.38c-1.898-2.154-4.631-3.388-7.502-3.388c-2.871,0-5.604,1.234-7.502,3.388l-24.133,27.38
			c-3.331,3.779-3.331,9.446,0,13.225l24.133,27.38c1.898,2.154,4.631,3.388,7.502,3.388c2.871,0,5.604-1.234,7.502-3.388
			l24.133-27.38C290.966,91.233,290.966,85.566,287.635,81.787z M256,100.657L245.197,88.4L256,76.143L266.803,88.4L256,100.657z"/>
	</g>
</g>
<g>
	<g>
		<path d="M303.569,225.72h-9.382c-5.523,0-10,4.477-10,10c0,5.523,4.477,10,10,10h9.382c5.523,0,10-4.477,10-10
			C313.569,230.197,309.092,225.72,303.569,225.72z"/>
	</g>
</g>
<g>
	<g>
		<path d="M217.814,225.72h-9.382c-5.523,0-10,4.477-10,10c0,5.523,4.477,10,10,10h9.382c5.523,0,10-4.477,10-10
			C227.814,230.197,223.337,225.72,217.814,225.72z"/>
	</g>
</g>
<g>
	<g>
		<path d="M271.862,279.676c-3.906-3.905-10.238-3.905-14.143,0c-0.948,0.948-2.489,0.948-3.436,0
			c-3.906-3.905-10.238-3.905-14.143,0c-3.905,3.906-3.905,10.238,0,14.143c4.373,4.373,10.116,6.559,15.86,6.559
			s11.488-2.186,15.862-6.559C275.767,289.913,275.767,283.581,271.862,279.676z"/>
	</g>
</g>
<g>
	<g>
		<path d="M501.21,500.05c-0.13-0.64-0.32-1.27-0.57-1.87c-0.25-0.61-0.56-1.19-0.92-1.73c-0.37-0.55-0.78-1.06-1.25-1.52
			c-0.46-0.46-0.97-0.88-1.52-1.24c-0.54-0.36-1.12-0.67-1.72-0.92c-0.61-0.25-1.24-0.45-1.87-0.57c-1.29-0.26-2.62-0.26-3.91,0
			c-0.64,0.12-1.27,0.32-1.87,0.57c-0.61,0.25-1.19,0.56-1.73,0.92c-0.55,0.36-1.06,0.78-1.52,1.24c-0.46,0.46-0.88,0.97-1.24,1.52
			c-0.36,0.54-0.67,1.12-0.92,1.73c-0.25,0.6-0.44,1.23-0.57,1.87s-0.2,1.3-0.2,1.95s0.07,1.31,0.2,1.95s0.32,1.27,0.57,1.87
			c0.25,0.61,0.56,1.19,0.92,1.73c0.36,0.55,0.78,1.06,1.24,1.52c0.46,0.46,0.97,0.88,1.52,1.24c0.54,0.36,1.12,0.67,1.73,0.92
			c0.6,0.25,1.23,0.45,1.87,0.57c0.64,0.13,1.3,0.2,1.95,0.2c0.65,0,1.31-0.07,1.96-0.2c0.63-0.12,1.26-0.32,1.87-0.57
			c0.6-0.25,1.18-0.56,1.72-0.92c0.55-0.36,1.06-0.78,1.52-1.24c0.47-0.46,0.88-0.97,1.25-1.52c0.36-0.54,0.67-1.12,0.92-1.73
			c0.25-0.6,0.44-1.23,0.57-1.87s0.19-1.3,0.19-1.95S501.34,500.69,501.21,500.05z"/>
	</g>
</g>
<g>
	<g>
		<path d="M30.4,500.05c-0.13-0.64-0.32-1.27-0.57-1.87c-0.25-0.61-0.56-1.19-0.92-1.73c-0.36-0.55-0.78-1.06-1.24-1.52
			c-0.46-0.46-0.97-0.88-1.52-1.24c-0.54-0.36-1.12-0.67-1.73-0.92c-0.6-0.25-1.23-0.45-1.87-0.57c-1.29-0.26-2.62-0.26-3.91,0
			c-0.63,0.12-1.26,0.32-1.87,0.57c-0.6,0.25-1.18,0.56-1.72,0.92c-0.55,0.36-1.06,0.78-1.52,1.24c-0.46,0.46-0.88,0.97-1.25,1.52
			c-0.36,0.54-0.67,1.12-0.92,1.73c-0.25,0.6-0.44,1.23-0.57,1.87s-0.19,1.3-0.19,1.95s0.06,1.31,0.19,1.95s0.32,1.27,0.57,1.88
			c0.25,0.6,0.56,1.18,0.92,1.72c0.37,0.55,0.79,1.06,1.25,1.52c0.46,0.46,0.97,0.88,1.52,1.24c0.54,0.36,1.12,0.67,1.72,0.92
			c0.61,0.25,1.24,0.45,1.87,0.58c0.65,0.13,1.31,0.19,1.96,0.19c2.63,0,5.21-1.07,7.07-2.93c0.46-0.46,0.88-0.97,1.24-1.52
			c0.36-0.54,0.67-1.12,0.92-1.72c0.25-0.61,0.44-1.24,0.57-1.88s0.2-1.3,0.2-1.95S30.53,500.69,30.4,500.05z"/>
	</g>
</g>
<g>
	<g>
		<g>
			<path d="M331.478,133.955h0.002C331.5,133.898,331.489,133.927,331.478,133.955z"/>
			<path d="M451.403,492h-28.062v-76.201c6.64-7.876,10.001-17.477,10.001-28.605c0-29.871-24.302-54.173-54.173-54.173
				c-12.418,0-24.307,4.204-33.9,11.915h-47.86l-0.179-1.103c29.167-0.125,56.436-11.421,76.834-31.842
				c21.291-21.314,32.998-50.139,32.964-81.169v-0.852c0-55.407-14.214-101.013-41.178-132.397l12.773-35.441
				c1.167-3.238,0.586-6.85-1.537-9.559c-2.123-2.709-5.493-4.138-8.914-3.777l-51.411,5.393
				c-4.885-4.943-14.374-14.509-23.978-23.988c-8.104-7.999-14.717-14.385-19.655-18.983C263.519,2.271,260.581,0,256.001,0
				c-4.58,0-7.518,2.271-17.128,11.218c-4.938,4.598-11.551,10.985-19.655,18.983c-9.604,9.479-19.094,19.045-23.979,23.988
				l-51.411-5.394c-3.424-0.356-6.791,1.068-8.915,3.777c-2.123,2.709-2.704,6.321-1.537,9.559l12.774,35.442
				c-26.964,31.384-41.178,76.99-41.178,132.397v0.857c-0.034,31.025,11.673,59.849,32.964,81.164
				c20.398,20.421,47.668,31.717,76.835,31.842l-0.179,1.103h-47.861c-9.594-7.711-21.482-11.915-33.9-11.915
				c-29.871,0-54.173,24.302-54.173,54.173c0,11.128,3.361,20.729,10.001,28.605V492H60.597c-5.523,0-10,4.477-10,10s4.477,10,10,10
				h390.806c5.523,0,10-4.477,10-10S456.926,492,451.403,492z M387.029,229.971v0.879c0.028,25.679-9.601,49.476-27.114,67.008
				c-13.557,13.572-30.857,22.203-49.701,24.991c11.51-6.986,21.73-16.167,29.865-26.983c13.797-18.345,21.09-40.132,21.09-63.007
				v-37.655c0-17.436-4.328-34.474-12.579-49.738l9.245-25.65C376.988,147.085,387.029,184.757,387.029,229.971z M341.169,208.526
				c-34.831-5.6-87.147-21.601-105.854-53.707c-0.168-0.288-0.336-0.577-0.503-0.865h95.622c7.038,12.606,10.735,26.76,10.735,41.25
				V208.526z M197.937,74.582c3.034,0.316,6.041-0.763,8.176-2.936c18.968-19.302,40.271-40.342,49.889-49.024
				c9.617,8.682,30.919,29.722,49.886,49.024c2.135,2.173,5.143,3.252,8.176,2.937l40.339-4.231l-22.923,63.603
				c-0.021,0.056-0.012,0.028-0.002,0H180.521c-0.035-0.103-22.884-63.502-22.923-63.604L197.937,74.582z M205.587,153.954
				c-9.424,17.58-23.012,35.629-34.756,46.65v-5.4c0-14.49,3.697-28.643,10.735-41.25H205.587z M152.085,297.856
				c-17.512-17.53-27.141-41.328-27.114-67.001v-0.885c0-45.213,10.04-82.886,29.194-110.156l9.245,25.651
				c-8.251,15.264-12.579,32.303-12.579,49.738v37.655c0,22.875,7.293,44.662,21.091,63.007
				c8.135,10.816,18.355,19.996,29.865,26.983C182.942,320.06,165.642,311.429,152.085,297.856z M170.83,232.86v-7.071h0.001
				c17.709-10.524,36.917-35.403,49.477-57.235c12.515,19.016,34.228,34.423,64.618,45.838c22.208,8.342,43.726,12.47,56.243,14.352
				v4.115c0,37.003-24.779,70.488-60.259,81.428c-4.769,1.471-7.723,6.231-6.924,11.157l1.603,9.885
				c0.011,0.074,0.023,0.147,0.036,0.22l3.404,20.989c0.046,0.284,0.104,0.564,0.173,0.839v8.871
				c0,12.794-10.409,23.203-23.203,23.203s-23.203-10.409-23.203-23.203v-8.867c0.069-0.276,0.128-0.557,0.174-0.843l3.394-20.922
				c0.018-0.102,0.035-0.205,0.05-0.309l1.6-9.862c0.799-4.926-2.156-9.687-6.924-11.157
				C195.61,303.348,170.83,269.864,170.83,232.86z M125.865,492h-17.206v-61.714c5.07,2.29,10.792,4.214,17.206,5.787V492z
				 M246.001,492H145.865v-64.01c0-4.822-3.44-8.957-8.182-9.833c-39.025-7.216-39.025-24.467-39.025-30.962
				c0-18.843,15.33-34.173,34.173-34.173c8.704,0,16.994,3.273,23.344,9.216c1.853,1.734,4.296,2.699,6.833,2.699h8.612
				l15.944,50.501c8.453,26.774,31.266,45.708,58.437,49.473V492z M206.636,409.416l-14.043-44.479h20.204v1.311
				c0,23.822,19.381,43.203,43.203,43.203s43.203-19.381,43.203-43.203v-1.311h20.204l-14.043,44.479
				c-6.832,21.642-26.67,36.182-49.364,36.182C233.306,445.598,213.468,431.058,206.636,409.416z M403.342,492h-17.206v-55.926
				c6.413-1.573,12.135-3.497,17.206-5.787V492z M374.318,418.157c-4.741,0.877-8.182,5.012-8.182,9.833V492H266v-27.089
				c27.171-3.765,49.984-22.699,58.437-49.473l15.944-50.501h8.612c2.538,0,4.98-0.965,6.833-2.699
				c6.35-5.943,14.64-9.216,23.344-9.216c18.843,0,34.173,15.33,34.173,34.173C413.343,393.69,413.343,410.941,374.318,418.157z"/>
		</g>
	</g>
</g>
<g>
</g>
<g>
</g>
<g>
</g>
<g>
</g>
<g>
</g>
<g>
</g>
<g>
</g>
<g>
</g>
<g>
</g>
<g>
</g>
<g>
</g>
<g>
</g>
<g>
</g>
<g>
</g>
<g>
</g>
</svg>
