<?xml version="1.0" encoding="iso-8859-1"?>
<!-- Generator: Adobe Illustrator 19.0.0, SVG Export Plug-In . SVG Version: 6.00 Build 0)  -->
<svg version="1.1" id="Capa_1" xmlns="http://www.w3.org/2000/svg" xmlns:xlink="http://www.w3.org/1999/xlink" x="0px" y="0px"
	 viewBox="0 0 512 512" style="enable-background:new 0 0 512 512;" xml:space="preserve">
<g>
	<g>
		<path d="M304.601,211.007h-9.585c-5.523,0-10,4.477-10,10c0,5.523,4.477,10,10,10h9.585c5.523,0,10-4.477,10-10
			C314.601,215.484,310.124,211.007,304.601,211.007z"/>
	</g>
</g>
<g>
	<g>
		<path d="M216.984,211.007h-9.585c-5.523,0-10,4.477-10,10c0,5.523,4.477,10,10,10h9.585c5.523,0,10-4.477,10-10
			C226.984,215.484,222.507,211.007,216.984,211.007z"/>
	</g>
</g>
<g>
	<g>
		<path d="M272.055,269.09c-3.903-3.907-10.234-3.91-14.142-0.007c-1.054,1.054-2.77,1.054-3.825,0
			c-3.907-3.904-10.238-3.901-14.142,0.007c-3.904,3.907-3.9,10.239,0.007,14.142c4.424,4.42,10.235,6.63,16.047,6.63
			s11.623-2.21,16.048-6.63C275.955,279.329,275.958,272.997,272.055,269.09z"/>
	</g>
</g>
<g>
	<g>
		<path d="M485.88,500.05c-0.13-0.64-0.32-1.27-0.57-1.87c-0.25-0.61-0.56-1.19-0.92-1.73c-0.36-0.55-0.78-1.06-1.24-1.52
			c-0.46-0.46-0.97-0.88-1.52-1.24c-0.54-0.36-1.12-0.67-1.73-0.92c-0.6-0.25-1.23-0.45-1.87-0.57c-1.29-0.26-2.62-0.26-3.91,0
			c-0.63,0.12-1.26,0.32-1.87,0.57c-0.6,0.25-1.18,0.56-1.72,0.92c-0.55,0.36-1.06,0.78-1.52,1.24c-0.46,0.46-0.88,0.97-1.25,1.52
			c-0.36,0.54-0.67,1.12-0.92,1.73c-0.25,0.6-0.44,1.23-0.57,1.87s-0.19,1.3-0.19,1.95s0.06,1.31,0.19,1.95s0.32,1.27,0.57,1.87
			c0.25,0.61,0.56,1.19,0.92,1.73c0.37,0.55,0.79,1.06,1.25,1.52c0.46,0.46,0.97,0.88,1.52,1.24c0.54,0.36,1.12,0.67,1.72,0.92
			c0.61,0.25,1.24,0.45,1.87,0.57c0.65,0.13,1.31,0.2,1.96,0.2s1.31-0.07,1.95-0.2c0.64-0.12,1.27-0.32,1.87-0.57
			c0.61-0.25,1.19-0.56,1.73-0.92c0.55-0.36,1.06-0.78,1.52-1.24c0.46-0.46,0.88-0.97,1.24-1.52c0.36-0.54,0.67-1.12,0.92-1.73
			c0.25-0.6,0.44-1.23,0.57-1.87s0.2-1.3,0.2-1.95S486.01,500.69,485.88,500.05z"/>
	</g>
</g>
<g>
	<g>
		<path d="M45.73,500.05c-0.13-0.64-0.32-1.27-0.57-1.88c-0.25-0.6-0.56-1.18-0.92-1.72c-0.37-0.55-0.79-1.06-1.25-1.52
			c-0.46-0.46-0.97-0.88-1.52-1.24c-0.54-0.36-1.12-0.67-1.72-0.92c-0.61-0.25-1.24-0.44-1.87-0.57c-1.29-0.26-2.62-0.26-3.91,0
			c-0.64,0.13-1.27,0.32-1.87,0.57c-0.61,0.25-1.19,0.56-1.73,0.92c-0.55,0.36-1.06,0.78-1.52,1.24c-0.46,0.46-0.88,0.97-1.24,1.52
			c-0.36,0.54-0.67,1.12-0.92,1.72c-0.25,0.61-0.44,1.24-0.57,1.88s-0.2,1.3-0.2,1.95s0.07,1.31,0.2,1.95s0.32,1.27,0.57,1.87
			c0.25,0.61,0.56,1.19,0.92,1.73c0.36,0.55,0.78,1.06,1.24,1.52c0.46,0.46,0.97,0.88,1.52,1.24c0.54,0.36,1.12,0.67,1.73,0.92
			c0.6,0.25,1.23,0.45,1.87,0.57c0.64,0.13,1.3,0.2,1.95,0.2c0.65,0,1.31-0.07,1.96-0.2c0.63-0.12,1.26-0.32,1.87-0.57
			c0.6-0.25,1.18-0.56,1.72-0.92c0.55-0.36,1.06-0.78,1.52-1.24c0.46-0.46,0.88-0.97,1.25-1.52c0.36-0.54,0.67-1.12,0.92-1.73
			c0.25-0.6,0.44-1.23,0.57-1.87s0.19-1.3,0.19-1.95S45.86,500.69,45.73,500.05z"/>
	</g>
</g>
<g>
	<g>
		<path d="M256,55.46c-5.523,0-10,4.477-10,10v12.286c0,5.523,4.477,10,10,10s10-4.477,10-10V65.46
			C266,59.937,261.523,55.46,256,55.46z"/>
	</g>
</g>
<g>
	<g>
		<path d="M435.209,492H409.18v-81.286c22.9-11.264,37.851-34.843,37.851-60.724c0-25.211-13.813-47.938-35.71-59.633V190.013
			c0-50.086-24.13-96.699-64.877-125.979l5.321-30.824c0.586-3.394-0.615-6.85-3.18-9.148c-2.565-2.299-6.134-3.116-9.441-2.162
			l-43.057,12.397C262.244,0.001,260.7,0,256.001,0c-4.699,0-6.243,0.001-40.088,34.296l-43.057-12.398
			c-3.311-0.954-6.876-0.136-9.441,2.162c-2.565,2.298-3.766,5.755-3.18,9.148l5.321,30.825
			c-40.747,29.28-64.877,75.893-64.877,125.979v100.345c-21.897,11.695-35.71,34.422-35.71,59.633
			c0,25.881,14.951,49.459,37.851,60.724V492H76.791c-5.523,0-10,4.477-10,10s4.477,10,10,10H435.21c5.523,0,10-4.477,10-10
			S440.732,492,435.209,492z M216.095,55.161c3.527,1.017,7.324,0.018,9.896-2.597C236.892,41.482,249.125,29.37,256,22.95
			c6.875,6.42,19.107,18.532,30.008,29.614c2.572,2.615,6.37,3.612,9.896,2.597l33.437-9.627c-0.026,0.135-9.615,55.68-9.635,55.815
			H192.293c-0.02-0.134-9.609-55.682-9.635-55.816L216.095,55.161z M273.595,317.775l5.099,35.53c0.707,4.924,4.924,8.58,9.898,8.58
			h29.595l-1.089,2.076l-20.892,39.84h-80.413l-20.893-39.84l-1.089-2.076h29.596c4.974,0,9.192-3.656,9.898-8.58l5.099-35.529
			c0.705-4.911-2.298-9.597-7.055-11.008c-36.849-10.929-62.585-45.297-62.585-83.577v-17.194h6.665
			c35.07,0,65.551-20.013,80.603-49.208c15.052,29.196,45.533,49.208,80.603,49.208h6.599v17.194
			c0,38.28-25.735,72.647-62.584,83.576C275.893,308.178,272.89,312.864,273.595,317.775z M168.797,185.998v-11.362h0.001
			c0.023-19.397,6.488-38.093,18.318-53.286h58.673c-3,36.149-33.411,64.648-70.36,64.648H168.797z M343.202,185.998h-6.566
			c-36.949,0-67.36-28.499-70.36-64.648h58.661c11.818,15.192,18.265,33.883,18.265,53.274V185.998z M104.406,388.365
			c-11.979-8.841-19.438-23.034-19.438-38.375c0-19.376,11.587-36.671,29.52-44.059c3.746-1.543,6.19-5.195,6.19-9.246V190.013
			c0-40.306,17.965-78.042,48.727-103.681l3.555,20.596c-15.638,19.12-24.195,42.942-24.195,67.618v48.646
			c0,44.163,27.834,84.084,68.667,99.938l-2.691,18.755h-59.764c-0.593,0-1.184,0.053-1.768,0.158
			C128.701,346.444,109.835,364.991,104.406,388.365z M122.819,492v-89.75c0-19.668,13.868-36.511,33.097-40.365h15.313L239.464,492
			H122.819z M226.282,423.801h59.436L256,480.468L226.282,423.801z M389.181,492H272.536l68.235-130.115h15.313
			c19.229,3.854,33.097,20.696,33.097,40.365V492z M358.79,342.042c-0.583-0.104-1.175-0.157-1.768-0.157h-59.763l-2.691-18.756
			c40.832-15.854,68.666-55.775,68.666-99.938v-48.646c0-24.676-8.558-48.498-24.195-67.618l3.555-20.596
			c30.762,25.64,48.727,63.376,48.727,103.682v106.672c0,4.051,2.444,7.703,6.19,9.246c17.933,7.388,29.52,24.683,29.52,44.059
			c0,15.341-7.459,29.534-19.438,38.375C402.164,364.991,383.298,346.444,358.79,342.042z"/>
	</g>
</g>
<g>
</g>
<g>
</g>
<g>
</g>
<g>
</g>
<g>
</g>
<g>
</g>
<g>
</g>
<g>
</g>
<g>
</g>
<g>
</g>
<g>
</g>
<g>
</g>
<g>
</g>
<g>
</g>
<g>
</g>
</svg>
