<?xml version="1.0" encoding="iso-8859-1"?>
<!-- Generator: Adobe Illustrator 19.0.0, SVG Export Plug-In . SVG Version: 6.00 Build 0)  -->
<svg version="1.1" id="Capa_1" xmlns="http://www.w3.org/2000/svg" xmlns:xlink="http://www.w3.org/1999/xlink" x="0px" y="0px"
	 viewBox="0 0 512.001 512.001" style="enable-background:new 0 0 512.001 512.001;" xml:space="preserve">
<g>
	<g>
		<path d="M285.1,195.381h-48.181c-60.797,0-110.259,49.458-110.259,110.25v104.574c0,5.523,4.477,10,10,10s10-4.477,10-10V305.631
			c0-49.764,40.49-90.25,90.259-90.25H285.1c5.522,0,10-4.477,10-10C295.1,199.858,290.622,195.381,285.1,195.381z"/>
	</g>
</g>
<g>
	<g>
		<path d="M383.02,456.12c-0.12-0.64-0.319-1.27-0.569-1.87c-0.25-0.61-0.561-1.19-0.92-1.73c-0.36-0.55-0.78-1.06-1.24-1.52
			c-0.46-0.46-0.971-0.88-1.521-1.24c-0.54-0.36-1.12-0.67-1.729-0.92c-0.6-0.25-1.23-0.45-1.87-0.57c-1.29-0.26-2.62-0.26-3.91,0
			c-0.63,0.12-1.26,0.32-1.87,0.57c-0.6,0.25-1.18,0.56-1.72,0.92c-0.55,0.36-1.061,0.78-1.521,1.24c-0.46,0.46-0.88,0.97-1.25,1.52
			c-0.359,0.54-0.67,1.12-0.92,1.73c-0.25,0.6-0.439,1.23-0.569,1.87c-0.129,0.64-0.19,1.3-0.19,1.95s0.06,1.31,0.19,1.95
			s0.319,1.27,0.569,1.87c0.25,0.61,0.561,1.19,0.92,1.73c0.37,0.55,0.79,1.06,1.25,1.52c0.46,0.46,0.971,0.88,1.521,1.24
			c0.54,0.36,1.12,0.67,1.72,0.92c0.61,0.25,1.24,0.45,1.87,0.57c0.65,0.13,1.31,0.2,1.96,0.2c0.65,0,1.31-0.07,1.95-0.2
			c0.64-0.12,1.269-0.32,1.87-0.57c0.609-0.25,1.189-0.56,1.729-0.92c0.55-0.36,1.061-0.78,1.521-1.24
			c0.46-0.46,0.88-0.97,1.24-1.52c0.359-0.54,0.67-1.12,0.92-1.73c0.25-0.6,0.449-1.23,0.569-1.87c0.13-0.64,0.2-1.3,0.2-1.95
			S383.15,456.76,383.02,456.12z"/>
	</g>
</g>
<g>
	<g>
		<path d="M333.151,448.07H138.783c-5.523,0-10,4.477-10,10s4.477,10,10,10H333.15c5.523,0,10.001-4.477,10.001-10
			S338.673,448.07,333.151,448.07z"/>
	</g>
</g>
<g>
	<g>
		<path d="M239.808,332.962c-5.523,0-10,4.477-10,10v17.521c0,5.523,4.477,10,10,10s10-4.477,10-10v-17.521
			C249.808,337.439,245.331,332.962,239.808,332.962z"/>
	</g>
</g>
<g>
	<g>
		<path d="M425.41,406.709V305.631c0-62.505-38.351-116.222-92.761-138.859c8.444-6.923,13.841-17.431,13.841-29.177
			c0-19.628-15.071-35.802-34.249-37.561c11.307-11.516,17.762-27.247,17.762-43.412V10c0-3.463-1.792-6.679-4.735-8.502
			c-2.947-1.824-6.623-1.992-9.722-0.45l-59.545,29.65l-59.544-29.65c-3.101-1.544-6.777-1.373-9.722,0.45
			c-2.944,1.823-4.736,5.039-4.736,8.502v46.623c0,16.165,6.455,31.896,17.762,43.412c-19.178,1.759-34.249,17.933-34.249,37.561
			c0,11.745,5.397,22.254,13.841,29.177c-54.409,22.637-92.761,76.354-92.761,138.859v101.077
			c-20.746,7.914-35.096,28.153-35.096,50.876c0,30.005,24.413,54.416,54.419,54.416h300.17c30.007,0,54.42-24.411,54.42-54.416
			C460.506,434.861,446.155,414.623,425.41,406.709z M256.001,79.765c5.522,0,10-4.477,10-10V48.061l44.002-21.91v30.472
			c0,11.297-4.657,22.282-12.776,30.138l-13.556,13.115h-55.34l-13.555-13.115C206.656,78.906,202,67.921,202,56.623V26.152
			l44.001,21.911v21.703C246.001,75.288,250.478,79.765,256.001,79.765z M203.234,119.875h105.533
			c9.772,0,17.723,7.949,17.723,17.72s-7.95,17.72-17.723,17.72H203.234c-9.772,0-17.722-7.949-17.722-17.72
			S193.462,119.875,203.234,119.875z M406.086,492h-300.17c-18.979,0-34.419-15.439-34.419-34.416
			c0-16.137,11.433-30.291,27.185-33.655c4.614-0.985,7.911-5.062,7.911-9.779V305.631c0-71.856,58.464-130.316,130.327-130.316
			h38.163c71.863,0,130.328,58.459,130.328,130.316v108.518c0,4.718,3.298,8.794,7.911,9.779
			c15.752,3.365,27.185,17.519,27.185,33.656C440.506,476.562,425.065,492,406.086,492z"/>
	</g>
</g>
<g>
	<g>
		<path d="M272.194,254.928c-25.403,0-48.48,15.113-58.785,38.043c-22.393,10.1-38.017,32.635-38.017,58.751
			c0,35.517,28.897,64.412,64.416,64.412c26.117,0,48.654-15.623,58.755-38.014c22.933-10.305,38.047-33.38,38.047-58.781
			C336.61,283.823,307.714,254.928,272.194,254.928z M239.808,396.134c-24.491,0-44.416-19.923-44.416-44.412
			c0-24.488,19.925-44.411,44.416-44.411c24.491,0,44.416,19.923,44.416,44.411C284.223,376.211,264.299,396.134,239.808,396.134z
			 M304.203,350.101c-0.85-34.231-28.539-61.919-62.773-62.769c8.118-7.772,19.084-12.404,30.764-12.404
			c24.491,0,44.416,19.923,44.416,44.411C316.61,331.018,311.977,341.983,304.203,350.101z"/>
	</g>
</g>
<g>
</g>
<g>
</g>
<g>
</g>
<g>
</g>
<g>
</g>
<g>
</g>
<g>
</g>
<g>
</g>
<g>
</g>
<g>
</g>
<g>
</g>
<g>
</g>
<g>
</g>
<g>
</g>
<g>
</g>
</svg>
