<?xml version="1.0" encoding="iso-8859-1"?>
<!-- Generator: Adobe Illustrator 19.0.0, SVG Export Plug-In . SVG Version: 6.00 Build 0)  -->
<svg version="1.1" id="Capa_1" xmlns="http://www.w3.org/2000/svg" xmlns:xlink="http://www.w3.org/1999/xlink" x="0px" y="0px"
	 viewBox="0 0 512 512" style="enable-background:new 0 0 512 512;" xml:space="preserve">
<g>
	<g>
		<path d="M360.219,362.523c-4.509-5.296-8.86-10.062-12.101-13.614c-2.713-2.974-4.506-4.939-5.94-6.698
			c-18.212-22.334-24.467-59.506-15.21-90.4c4.186-13.975,10.914-24.98,16.322-33.827c1.914-3.131,3.895-6.369,5.541-9.394
			c3.891-7.16,5.11-12.912,5.49-15.704c0.257-1.881-0.028-3.798-0.822-5.524c-9.652-21-7.555-46.406,5.904-71.538
			c2.607-4.868,0.774-10.929-4.095-13.536c-4.867-2.605-10.929-0.774-13.536,4.095c-15.851,29.599-18.578,60.067-7.804,86.214
			c-0.455,1.578-1.269,3.79-2.708,6.438c-1.403,2.578-3.166,5.461-5.037,8.521c-6.008,9.828-13.485,22.059-18.414,38.516
			c-11.05,36.874-3.291,81.605,18.866,108.775c1.784,2.19,3.726,4.319,6.734,7.616c3.25,3.56,7.295,7.993,11.582,13.027
			c1.977,2.324,4.789,3.517,7.618,3.517c2.292,0,4.597-0.784,6.48-2.387C363.294,373.04,363.8,366.728,360.219,362.523z"/>
	</g>
</g>
<g>
	<g>
		<path d="M381.989,395.21c-0.131-0.641-0.32-1.27-0.57-1.87c-0.25-0.61-0.561-1.19-0.92-1.73c-0.36-0.55-0.78-1.06-1.24-1.52
			c-2.32-2.32-5.78-3.389-9.03-2.73c-0.63,0.12-1.26,0.32-1.87,0.57c-0.6,0.25-1.18,0.561-1.72,0.92c-0.55,0.36-1.06,0.78-1.52,1.24
			c-0.46,0.46-0.88,0.97-1.25,1.52c-0.36,0.54-0.67,1.12-0.92,1.73c-0.25,0.599-0.44,1.229-0.57,1.87
			c-0.129,0.639-0.19,1.3-0.19,1.95c0,0.649,0.06,1.309,0.19,1.949c0.13,0.641,0.32,1.271,0.57,1.881c0.25,0.6,0.56,1.18,0.92,1.72
			c0.37,0.55,0.79,1.06,1.25,1.52c0.46,0.46,0.97,0.88,1.52,1.25c0.54,0.36,1.12,0.67,1.72,0.92c0.61,0.25,1.24,0.44,1.87,0.57
			c0.65,0.129,1.311,0.19,1.96,0.19c2.63,0,5.21-1.07,7.07-2.93c0.46-0.46,0.88-0.97,1.24-1.52c0.359-0.54,0.67-1.12,0.92-1.72
			c0.25-0.61,0.439-1.24,0.57-1.881c0.13-0.639,0.199-1.3,0.199-1.949C382.188,396.51,382.119,395.85,381.989,395.21z"/>
	</g>
</g>
<g>
	<g>
		<path d="M492.679,72.301h0.002c7.623-7.675,12.335-18.212,12.335-29.823C505.016,19.056,485.84,0,462.27,0
			s-42.746,19.056-42.746,42.479c0,5.627,1.107,11.002,3.116,15.921H88.888c1.997-4.919,3.098-10.294,3.098-15.921
			C91.986,19.056,72.92,0,49.485,0S6.984,19.056,6.984,42.479c0,11.591,4.669,22.111,12.226,29.783v367.476
			c-7.556,7.672-12.226,18.193-12.226,29.783C6.984,492.944,26.05,512,49.485,512s42.5-19.056,42.5-42.479
			c0-5.627-1.101-11.002-3.098-15.921h333.751c-2.008,4.919-3.116,10.294-3.116,15.921c0,23.423,19.176,42.479,42.746,42.479
			s42.746-19.056,42.746-42.479c0-11.61-4.712-22.147-12.335-29.823V72.301z M49.485,492c-12.407,0-22.501-10.084-22.501-22.479
			s10.094-22.479,22.501-22.479c12.407,0,22.5,10.084,22.5,22.479S61.892,492,49.485,492z M39.21,428.298V83.701
			c3.292,0.82,6.733,1.256,10.275,1.256s6.983-0.436,10.275-1.256v344.597c-3.291-0.82-6.733-1.256-10.275-1.256
			S42.501,427.478,39.21,428.298z M49.485,64.958c-12.407,0-22.501-10.084-22.501-22.479S37.078,20,49.485,20
			c12.407,0,22.5,10.084,22.5,22.479S61.891,64.958,49.485,64.958z M79.761,78.399h168.674c-0.042,0.039-0.082,0.077-0.122,0.114
			C241.42,85,235.469,90.602,237.548,98.478c0.538,2.039,2.521,6.96,9.282,8.607c8.278,2.024,16.788,4.45,21.884,9.813
			c2.175,2.3,3.519,5.775,3.424,8.855c-0.054,1.735-0.545,3.048-1.459,3.902c-1.849,1.726-6.474,3.02-18.012-0.624
			c-9.725-3.063-24.42-7.689-36.795,0.493c-5.414,3.577-8.558,8.473-11.332,12.792c-1.098,1.709-2.135,3.324-3.188,4.642
			c-5.752,7.208-17.25,9.934-25.64,6.066c-4.676-2.146-8.934-6.144-13.442-10.375c-2.196-2.063-4.468-4.194-6.919-6.241
			c-8.71-7.263-18.038-11.055-26.717-11.055c-3.407,0-6.715,0.585-9.845,1.772c-1.361,0.517-2.593,1.324-3.61,2.366
			c-6.273,6.432-14.685,8.37-22.502,5.188c-8.087-3.291-12.916-10.882-12.916-20.304V78.399z M123.74,433.602v-0.001
			c10.936-30.52,23.591-52.077,33.411-56.297c3.375-1.457,5.514-1.481,7.077-1.499c10.641-0.119,12.198,2.922,15.271,8.989
			c2.587,5.107,6.497,12.826,16.461,15.188c14.455,3.436,27.706-3.611,38.354-9.275l1.861-0.987
			c7.451-3.945,17.573-7.871,23.481-4.175c4.899,3.067,5.729,11.376,3.43,17.213c-1.375,3.483-1.252,7.29,0.348,10.721
			c3.85,8.255,14.931,12.441,32.722,18.355c1.588,0.527,3.423,1.138,5.26,1.768H123.74z M431.857,431.029
			c-2.14,1.86-4.274,2.655-5.698,2.556c-0.485-0.029-1.96-0.12-3.627-2.86c-2.387-3.93-1.566-11.352-0.697-19.21
			c0.804-7.261,1.713-15.489,0.272-23.45c-4.159-22.982-30.977-52.366-43.864-66.487c-2.032-2.228-3.788-4.151-4.513-5.041
			c-9.55-11.71-13.042-35.514-7.783-53.063c2.676-8.937,7.236-16.396,12.064-24.292c2.186-3.574,4.444-7.271,6.569-11.177
			c4.501-8.277,14.4-29.833,9.122-51.184c-0.277-1.122-0.748-2.188-1.39-3.15c-8.876-13.302-0.896-31.447,2.947-38.631
			c8.737-16.334,24.175-30.526,36.598-34.532V431.029z M431.859,79.945c-21.56,3.671-43.064,24.785-54.233,45.664
			c-11.303,21.13-12.361,41.948-3.012,57.489c2.772,14.145-4.33,29.338-7.603,35.355c-1.882,3.461-3.913,6.782-6.063,10.299
			c-5.28,8.636-10.74,17.566-14.16,28.985c-7.172,23.936-2.252,54.649,11.44,71.44c1.076,1.321,2.824,3.235,5.242,5.886
			c9.798,10.734,35.823,39.251,38.957,56.566c0.922,5.095,0.245,11.212-0.471,17.688c-0.861,7.789-1.809,16.36,0.313,24.285h-73.966
			c0.225-1.19,0.257-2.421,0.082-3.664c-1.251-8.883-10.537-11.97-25.922-17.084c-5.451-1.812-14.751-4.903-19.315-7.345
			c3.173-12.841,0.004-28.851-12.881-36.918c-11.232-7.028-25.852-5.865-43.444,3.448l-1.901,1.009
			c-8.472,4.506-17.231,9.17-24.343,7.475c-0.762-0.181-1.367-1.071-3.238-4.766c-3.79-7.483-10.106-19.955-32.63-19.955
			c-0.234,0-0.471,0.002-0.709,0.005c-2.309,0.025-7.714,0.087-14.76,3.129c-20.537,8.824-36.41,44.057-46.677,74.665H79.76V150.552
			c1.702,1,3.496,1.888,5.376,2.654c14.53,5.915,30.497,2.915,42.313-7.776c4.68-0.67,10.712,2.688,15.087,6.337
			c2,1.67,3.965,3.515,6.045,5.467c5.224,4.903,11.145,10.461,18.774,13.964c5.292,2.438,11.037,3.603,16.786,3.603
			c12.471-0.001,24.956-5.485,32.839-15.36c1.695-2.122,3.063-4.253,4.387-6.313c1.87-2.912,3.637-5.662,5.532-6.914
			c4.091-2.707,11.681-0.646,19.753,1.896c6.205,1.959,25.089,7.921,37.677-3.833c4.811-4.493,7.58-10.851,7.799-17.9
			c0.26-8.384-3.062-17.063-8.9-23.235c-5.527-5.815-12.336-9.389-19.273-11.889c4.135-3.941,8.251-8.183,10.323-12.85h157.581
			V79.945z M462.27,492c-12.542,0-22.746-10.084-22.746-22.479s10.204-22.479,22.746-22.479s22.746,10.084,22.746,22.479
			S474.812,492,462.27,492z M451.859,428.318V83.682c3.334,0.832,6.821,1.275,10.411,1.275c3.59,0,7.077-0.443,10.411-1.275v344.636
			c-3.334-0.832-6.822-1.275-10.411-1.275C458.68,427.043,455.193,427.486,451.859,428.318z M462.27,64.958
			c-12.542,0-22.746-10.084-22.746-22.479S449.728,20,462.27,20s22.746,10.084,22.746,22.479S474.812,64.958,462.27,64.958z"/>
	</g>
</g>
<g>
	<g>
		<path d="M229.244,260.079l15.924-15.913c1.876-1.875,2.931-4.42,2.931-7.073c0-2.653-1.055-5.198-2.932-7.073l-23.025-23.009
			c-3.905-3.902-10.233-3.902-14.137,0l-15.934,15.922l-15.934-15.922c-3.905-3.902-10.233-3.902-14.137,0l-23.025,23.009
			c-1.877,1.875-2.932,4.42-2.932,7.073s1.055,5.198,2.931,7.073l15.924,15.913l-15.923,15.912c-1.877,1.875-2.932,4.42-2.932,7.073
			c0,2.653,1.055,5.198,2.931,7.073l23.025,23.01c1.953,1.951,4.511,2.927,7.069,2.927c2.558,0,5.117-0.975,7.072-2.927
			l15.933-15.923l15.934,15.922c3.904,3.902,10.232,3.902,14.137,0l23.024-23.009c1.876-1.875,2.931-4.42,2.931-7.073
			c0-2.653-1.055-5.198-2.932-7.073L229.244,260.079z M215.072,291.936l-15.934-15.922c-3.904-3.902-10.232-3.902-14.137,0
			l-15.933,15.922l-8.878-8.872l15.921-15.912c1.877-1.875,2.932-4.42,2.932-7.073c0-2.653-1.055-5.198-2.931-7.073l-15.924-15.913
			l8.878-8.872L185,244.143c3.905,3.902,10.233,3.902,14.137,0l15.934-15.922l8.878,8.872l-15.924,15.913
			c-1.876,1.875-2.931,4.42-2.931,7.073c0,2.653,1.055,5.198,2.932,7.073l15.923,15.912L215.072,291.936z"/>
	</g>
</g>
<g>
</g>
<g>
</g>
<g>
</g>
<g>
</g>
<g>
</g>
<g>
</g>
<g>
</g>
<g>
</g>
<g>
</g>
<g>
</g>
<g>
</g>
<g>
</g>
<g>
</g>
<g>
</g>
<g>
</g>
</svg>
