<?xml version="1.0" encoding="iso-8859-1"?>
<!-- Generator: Adobe Illustrator 19.0.0, SVG Export Plug-In . SVG Version: 6.00 Build 0)  -->
<svg version="1.1" id="Capa_1" xmlns="http://www.w3.org/2000/svg" xmlns:xlink="http://www.w3.org/1999/xlink" x="0px" y="0px"
	 viewBox="0 0 512.001 512.001" style="enable-background:new 0 0 512.001 512.001;" xml:space="preserve">
<g>
	<g>
		<path d="M162.474,22.093c-1.68-5.26-7.306-8.163-12.567-6.485L149.4,15.77c-4.249,1.357-6.96,5.288-6.961,9.521
			c-0.001,1.009,0.153,2.034,0.476,3.047c1.357,4.25,5.289,6.962,9.524,6.962c1.007,0,2.033-0.154,3.043-0.477l0.507-0.162
			c4.249-1.357,6.96-5.288,6.961-9.521C162.951,24.131,162.797,23.106,162.474,22.093z"/>
	</g>
</g>
<g>
	<g>
		<path d="M406.862,34.523C366.401,12.261,312.825,0,256.001,0c-21.468,0-42.662,1.761-62.993,5.233
			c-5.444,0.93-9.104,6.097-8.174,11.541c0.93,5.443,6.092,9.102,11.541,8.174C215.598,21.665,235.658,20,256.001,20
			c53.51,0,103.663,11.381,141.22,32.046c35.669,19.627,55.313,45.053,55.313,71.596c0,26.543-19.644,51.969-55.313,71.596
			c-37.557,20.665-87.71,32.046-141.22,32.046s-103.663-11.381-141.22-32.046c-35.669-19.627-55.313-45.053-55.313-71.596
			c0-22.724,14.976-45.313,42.168-63.604c4.694-3.158,9.78-6.207,15.117-9.063c4.87-2.605,6.705-8.666,4.099-13.535
			c-2.605-4.87-8.666-6.706-13.535-4.1c-5.928,3.172-11.595,6.57-16.845,10.102c-32.889,22.125-51.003,50.608-51.003,80.2
			c0,34.167,23.322,65.816,65.671,89.118c22,12.105,47.879,21.253,76.048,27.081l-57.203,57.145
			c-1.877,1.875-2.933,4.42-2.933,7.074v131.164c0,2.654,1.056,5.2,2.934,7.076l0.706,0.704c0.006,0.006,0.013,0.012,0.019,0.019
			l66.119,66.052c1.875,1.874,4.417,2.926,7.067,2.926h116.207c2.65,0,5.192-1.052,7.067-2.926l66.845-66.776
			c1.877-1.875,2.933-4.42,2.933-7.074V304.06c0-2.654-1.055-5.199-2.933-7.074l-57.203-57.145
			c28.169-5.828,54.048-14.975,76.048-27.081c42.349-23.302,65.671-54.951,65.671-89.118S449.211,57.825,406.862,34.523z
			 M141.053,321.96l22.781,13.467v69.923l-22.781,13.466V321.96z M309.965,492H202.037l-54.084-54.029l20.235-11.961l40.368,40.328
			c1.875,1.873,4.417,2.925,7.067,2.925h80.756c2.65,0,5.192-1.052,7.067-2.926l41.79-41.747c0.488-0.488,0.92-1.021,1.293-1.589
			l20.422,12.073L309.965,492z M183.832,413.37v-87.458l35.929-35.893h72.478l35.929,35.893v87.458l-35.929,35.893h-72.478
			L183.832,413.37z M370.949,414.203l-22.781-13.467V340.04l22.781-13.466V414.203z M367.89,305.148L347.164,317.4
			c-0.483-0.995-1.131-1.913-1.928-2.709l-41.79-41.746c-1.875-1.874-4.417-2.926-7.067-2.926h-80.756
			c-2.65,0-5.192,1.052-7.067,2.926l-41.308,41.266l-20.234-11.961l55.023-54.967h107.928L367.89,305.148z"/>
	</g>
</g>
<g>
	<g>
		<path d="M307.959,363.025l-44.459-50.39c-1.899-2.152-4.629-3.384-7.499-3.384c-2.87,0-5.601,1.233-7.499,3.384l-44.459,50.39
			c-3.335,3.78-3.335,9.452,0,13.232l44.459,50.39c1.899,2.152,4.63,3.384,7.499,3.384c2.869,0,5.6-1.232,7.499-3.384l44.459-50.39
			C311.294,372.477,311.294,366.805,307.959,363.025z M256.001,404.916l-31.123-35.274l31.123-35.275l31.123,35.275L256.001,404.916
			z"/>
	</g>
</g>
<g>
</g>
<g>
</g>
<g>
</g>
<g>
</g>
<g>
</g>
<g>
</g>
<g>
</g>
<g>
</g>
<g>
</g>
<g>
</g>
<g>
</g>
<g>
</g>
<g>
</g>
<g>
</g>
<g>
</g>
</svg>
