<?xml version="1.0" encoding="iso-8859-1"?>
<!-- Generator: Adobe Illustrator 19.0.0, SVG Export Plug-In . SVG Version: 6.00 Build 0)  -->
<svg version="1.1" id="Capa_1" xmlns="http://www.w3.org/2000/svg" xmlns:xlink="http://www.w3.org/1999/xlink" x="0px" y="0px"
	 viewBox="0 0 512 512" style="enable-background:new 0 0 512 512;" xml:space="preserve">
<g>
	<g>
		<path d="M443.464,398.926c-0.13-0.64-0.32-1.269-0.57-1.87c-0.25-0.609-0.56-1.189-0.92-1.729c-0.36-0.55-0.78-1.061-1.24-1.521
			c-0.46-0.46-0.98-0.88-1.52-1.239c-0.549-0.36-1.129-0.671-1.73-0.921c-0.599-0.25-1.229-0.449-1.87-0.569
			c-1.289-0.271-2.62-0.271-3.91,0c-0.641,0.12-1.261,0.319-1.87,0.569c-0.6,0.25-1.18,0.561-1.73,0.921
			c-0.541,0.359-1.05,0.779-1.52,1.239c-0.46,0.46-0.87,0.971-1.24,1.521c-0.36,0.54-0.67,1.12-0.92,1.729
			c-0.25,0.6-0.44,1.23-0.57,1.87c-0.13,0.64-0.2,1.3-0.2,1.95c0,2.631,1.071,5.211,2.932,7.072c0.47,0.46,0.98,0.88,1.52,1.25
			c0.549,0.359,1.129,0.67,1.73,0.909c0.599,0.25,1.229,0.45,1.87,0.58c0.649,0.12,1.3,0.19,1.961,0.19
			c0.649,0,1.309-0.07,1.947-0.19c0.641-0.13,1.27-0.33,1.87-0.58c0.6-0.239,1.18-0.55,1.73-0.909c0.541-0.37,1.06-0.79,1.52-1.25
			c1.86-1.86,2.921-4.441,2.921-7.072C443.653,400.227,443.594,399.567,443.464,398.926z"/>
	</g>
</g>
<g>
	<g>
		<path d="M500.802,205.052c15.717-43.541,14.876-91.168-2.435-137.732c-1.532-4.123-5.564-6.748-9.974-6.491
			c-4.391,0.263-8.098,3.372-9.129,7.649c-0.047,0.195-4.885,19.84-19.33,43.704c-17.962,29.674-42.042,52.41-71.643,67.665
			c-22.792-20.273-50.561-34.266-80.467-40.405v-4.547c0-2.65-1.051-5.19-2.924-7.066l-41.823-41.9
			c-1.875-1.88-4.423-2.937-7.079-2.937c-2.656,0-5.203,1.056-7.08,2.937l-41.823,41.9c-1.871,1.875-2.923,4.416-2.923,7.066v4.547
			c-29.905,6.138-57.675,20.131-80.466,40.405c-29.601-15.255-53.681-37.99-71.642-67.665C37.62,88.318,32.784,68.674,32.741,68.497
			c-1.017-4.287-4.72-7.404-9.118-7.675c-4.393-0.281-8.455,2.369-9.99,6.499c-17.309,46.564-18.15,94.191-2.435,137.732
			c11.457,31.739,31.646,60.811,55.87,80.676c-1.103,7.914-1.664,15.934-1.664,24.006v40.823H41.284
			c-5.524,0-10.002,4.479-10.002,10.002v80.638c0,5.523,4.478,10.002,10.002,10.002h429.433c5.523,0,10.002-4.479,10.002-10.002
			v-80.638c0-5.523-4.479-10.002-10.002-10.002h-24.119v-40.823c0-8.072-0.562-16.092-1.665-24.007
			C469.156,265.863,489.344,236.792,500.802,205.052z M307.825,159.925c68.476,16.045,118.767,78.475,118.767,149.809v40.823
			H307.825V159.925z M256,107.154l31.82,31.879v211.524h-21.817v-152.51c0-5.523-4.479-10.002-10.002-10.002
			c-5.523,0-10.002,4.479-10.002,10.002v152.51h-21.817V139.033h-0.001L256,107.154z M204.175,159.925v190.632H85.408v-40.823
			C85.408,238.4,135.7,175.97,204.175,159.925z M24.104,102.261c2.805,5.994,6.249,12.621,10.436,19.598
			c13.247,22.069,36.581,51.635,74.43,72.771c-0.406,0.459-0.81,0.92-1.211,1.384c-16.939,19.567-29.157,42.531-35.996,67.12
			C41.095,233.71,7.717,176.828,24.104,102.261z M460.714,370.56v60.634H51.286V410.88h340.669c5.523,0,10.002-4.479,10.002-10.002
			c0-5.523-4.479-10.002-10.002-10.002H51.286V370.56H460.714z M440.238,263.132c-6.84-24.588-19.059-47.553-35.997-67.119
			c-0.401-0.464-0.805-0.925-1.211-1.384c37.85-21.136,61.183-50.701,74.43-72.771c4.188-6.977,7.631-13.603,10.437-19.598
			C504.284,176.828,470.906,233.709,440.238,263.132z"/>
	</g>
</g>
<g>
</g>
<g>
</g>
<g>
</g>
<g>
</g>
<g>
</g>
<g>
</g>
<g>
</g>
<g>
</g>
<g>
</g>
<g>
</g>
<g>
</g>
<g>
</g>
<g>
</g>
<g>
</g>
<g>
</g>
</svg>
