<?xml version="1.0" encoding="iso-8859-1"?>
<!-- Generator: Adobe Illustrator 19.0.0, SVG Export Plug-In . SVG Version: 6.00 Build 0)  -->
<svg version="1.1" id="Capa_1" xmlns="http://www.w3.org/2000/svg" xmlns:xlink="http://www.w3.org/1999/xlink" x="0px" y="0px"
	 viewBox="0 0 512 512" style="enable-background:new 0 0 512 512;" xml:space="preserve">
<g>
	<g>
		<path d="M287.229,41.831c-0.13-0.641-0.319-1.271-0.569-1.88c-0.25-0.601-0.561-1.181-0.92-1.721c-0.36-0.55-0.78-1.06-1.24-1.52
			c-0.46-0.46-0.981-0.88-1.521-1.24c-0.549-0.36-1.129-0.67-1.729-0.92c-0.6-0.25-1.23-0.45-1.87-0.58c-1.29-0.26-2.62-0.26-3.91,0
			c-0.64,0.13-1.269,0.33-1.87,0.58c-0.599,0.25-1.179,0.56-1.729,0.92c-0.541,0.36-1.061,0.78-1.521,1.24
			c-0.46,0.46-0.87,0.97-1.24,1.52c-0.359,0.54-0.67,1.12-0.92,1.721c-0.25,0.609-0.439,1.239-0.569,1.88
			c-0.129,0.639-0.19,1.3-0.19,1.95c0,0.649,0.06,1.309,0.19,1.949c0.13,0.641,0.319,1.27,0.569,1.87
			c0.25,0.61,0.561,1.19,0.92,1.73c0.37,0.55,0.78,1.06,1.24,1.52c0.46,0.46,0.981,0.88,1.521,1.25
			c0.549,0.36,1.129,0.66,1.729,0.91c0.6,0.25,1.23,0.45,1.87,0.57c0.65,0.13,1.3,0.2,1.96,0.2c0.65,0,1.299-0.07,1.95-0.2
			c0.64-0.12,1.269-0.32,1.87-0.57c0.599-0.25,1.179-0.55,1.729-0.91c0.541-0.37,1.061-0.79,1.521-1.25
			c0.46-0.46,0.88-0.97,1.24-1.52c0.359-0.54,0.67-1.12,0.92-1.73c0.25-0.6,0.44-1.23,0.569-1.87c0.13-0.639,0.2-1.3,0.2-1.949
			C287.429,43.131,287.359,42.471,287.229,41.831z"/>
	</g>
</g>
<g>
	<g>
		<path d="M423.02,26.928L387.956,1.864C386.259,0.652,384.226,0,382.141,0H129.86c-2.085,0-4.119,0.652-5.815,1.864L88.981,26.928
			c-2.626,1.878-4.185,4.907-4.185,8.136v153.299c0,3.229,1.559,6.258,4.185,8.136l35.064,25.063
			c1.696,1.212,3.729,1.864,5.815,1.864h0.226c0.091,0.002,0.182,0.004,0.274,0.004h64.143v42.991c0,5.522,4.477,10,10,10h8.941
			v112.578h-8.941c-5.523,0-10,4.478-10,10V502c0,5.522,4.477,10,10,10h102.995c5.522,0,10-4.478,10-10V398.999
			c0-5.522-4.478-10-10-10h-8.94V276.421h8.94c5.522,0,10-4.478,10-10V223.43h64.143c0.092,0,0.183-0.001,0.274-0.004h0.227
			c2.085,0,4.118-0.652,5.815-1.864l35.063-25.063c2.626-1.878,4.185-4.907,4.185-8.136v-153.3
			C427.204,31.835,425.646,28.806,423.02,26.928z M120.36,194.343l-15.564-11.125V40.208l15.564-11.125V194.343z M140.361,20h84.417
			l-84.417,84.417V20z M140.361,203.43v-8.441L256.213,79.136c3.905-3.905,3.905-10.237,0-14.143
			c-3.904-3.904-10.237-3.904-14.142,0l-101.71,101.71v-34.001L253.062,20h94.755L164.388,203.43H140.361z M297.497,492h-82.995
			v-83.001h82.995V492z M233.444,388.999V276.421h45.113v112.578H233.444z M297.497,256.421h-82.995V223.43h82.995V256.421z
			 M371.64,203.43H192.673L371.64,24.463V203.43z M407.204,183.218l-15.564,11.126V29.082l15.564,11.126V183.218z"/>
	</g>
</g>
<g>
</g>
<g>
</g>
<g>
</g>
<g>
</g>
<g>
</g>
<g>
</g>
<g>
</g>
<g>
</g>
<g>
</g>
<g>
</g>
<g>
</g>
<g>
</g>
<g>
</g>
<g>
</g>
<g>
</g>
</svg>
