<?xml version="1.0" encoding="iso-8859-1"?>
<!-- Generator: Adobe Illustrator 19.0.0, SVG Export Plug-In . SVG Version: 6.00 Build 0)  -->
<svg version="1.1" id="Capa_1" xmlns="http://www.w3.org/2000/svg" xmlns:xlink="http://www.w3.org/1999/xlink" x="0px" y="0px"
	 viewBox="0 0 512 512" style="enable-background:new 0 0 512 512;" xml:space="preserve">
<g>
	<g>
		<path d="M224.18,494.93c-0.46-0.46-0.97-0.88-1.52-1.24c-0.54-0.36-1.129-0.67-1.73-0.92c-0.599-0.25-1.229-0.44-1.87-0.57
			c-1.29-0.26-2.62-0.26-3.91,0c-0.63,0.13-1.26,0.32-1.869,0.57c-0.601,0.25-1.181,0.56-1.721,0.92c-0.55,0.36-1.06,0.78-1.52,1.24
			c-1.87,1.86-2.931,4.44-2.931,7.07s1.061,5.21,2.931,7.07c1.859,1.86,4.429,2.93,7.069,2.93c0.651,0,1.311-0.06,1.951-0.19
			c0.641-0.13,1.27-0.33,1.87-0.58s1.19-0.55,1.73-0.92c0.55-0.36,1.06-0.78,1.52-1.24c1.861-1.86,2.93-4.44,2.93-7.07
			S226.04,496.79,224.18,494.93z"/>
	</g>
</g>
<g>
	<g>
		<path d="M304.701,500.05c-0.131-0.64-0.32-1.27-0.57-1.87c-0.25-0.61-0.561-1.19-0.92-1.73c-0.37-0.55-0.79-1.06-1.25-1.52
			c-0.46-0.46-0.97-0.88-1.521-1.24c-0.54-0.36-1.12-0.67-1.72-0.92c-0.61-0.25-1.24-0.45-1.87-0.57c-1.29-0.26-2.62-0.26-3.91,0
			c-0.64,0.12-1.269,0.32-1.87,0.57c-0.609,0.25-1.189,0.56-1.729,0.92c-0.55,0.36-1.06,0.78-1.521,1.24
			c-0.46,0.46-0.88,0.97-1.239,1.52c-0.36,0.54-0.67,1.12-0.92,1.73c-0.25,0.6-0.44,1.23-0.57,1.87s-0.2,1.3-0.2,1.95
			s0.07,1.31,0.2,1.95c0.13,0.64,0.32,1.27,0.57,1.87c0.25,0.61,0.56,1.19,0.92,1.73c0.359,0.55,0.779,1.06,1.239,1.52
			c1.86,1.86,4.44,2.93,7.07,2.93s5.21-1.07,7.071-2.93c0.46-0.46,0.88-0.97,1.25-1.52c0.359-0.54,0.67-1.12,0.92-1.73
			c0.25-0.6,0.439-1.23,0.57-1.87c0.129-0.64,0.189-1.3,0.189-1.95C304.89,501.35,304.831,500.69,304.701,500.05z"/>
	</g>
</g>
<g>
	<g>
		<path d="M424.146,156.921c-2.725-2.198-6.407-2.81-9.698-1.612l-17.034,6.201c-1.307-1.655-2.785-3.515-4.271-5.368
			c-2.617-3.264-4.763-5.88-6.374-7.775c-3.304-3.886-5.914-6.956-10.902-6.956c-4.987,0-7.597,3.07-10.902,6.956
			c-1.612,1.895-3.757,4.511-6.375,7.775c-1.486,1.853-2.963,3.714-4.271,5.369l-17.034-6.202c-3.292-1.2-6.971-0.588-9.698,1.612
			c-2.728,2.199-4.105,5.666-3.631,9.137l6.738,49.354c0.677,4.954,4.908,8.647,9.908,8.647h70.528c5,0,9.231-3.693,9.909-8.648
			l6.738-49.353C428.25,162.587,426.874,159.121,424.146,156.921z M402.402,204.059h-53.073l-3.316-24.288l8.275,3.013
			c4.079,1.487,8.648,0.17,11.313-3.256c3.363-4.322,7.135-9.085,10.265-12.952c3.13,3.867,6.902,8.63,10.264,12.951
			c2.665,3.425,7.234,4.743,11.313,3.256l8.275-3.012L402.402,204.059z"/>
	</g>
</g>
<g>
	<g>
		<path d="M184.414,156.922c-2.725-2.198-6.403-2.81-9.698-1.612l-17.034,6.202c-1.308-1.655-2.786-3.516-4.271-5.369
			c-2.618-3.264-4.763-5.879-6.375-7.775c-3.304-3.887-5.915-6.956-10.902-6.956c-4.988,0-7.597,3.07-10.902,6.956
			c-1.611,1.895-3.757,4.511-6.374,7.775c-1.487,1.852-2.964,3.713-4.271,5.368l-17.034-6.201c-3.292-1.199-6.971-0.587-9.698,1.612
			c-2.728,2.2-4.105,5.666-3.631,9.137l6.738,49.353c0.677,4.954,4.908,8.647,9.908,8.647h70.528c5,0,9.232-3.693,9.909-8.646
			l6.738-49.354C188.518,162.588,187.142,159.121,184.414,156.922z M162.671,204.059h-53.073l-3.316-24.288l8.275,3.012
			c4.079,1.487,8.648,0.17,11.313-3.256c3.362-4.321,7.134-9.084,10.264-12.951c3.13,3.868,6.903,8.631,10.265,12.952
			c2.665,3.425,7.234,4.743,11.313,3.256l8.275-3.013L162.671,204.059z"/>
	</g>
</g>
<g>
	<g>
		<path d="M511.48,158.019l-17.751-52.924l17.751-52.924c1.023-3.051,0.517-6.408-1.362-9.02c-1.879-2.612-4.9-4.161-8.118-4.161
			H322.82c1.016-2.981,1.568-6.175,1.568-9.496C324.388,13.231,311.156,0,294.893,0c-16.265,0-29.496,13.231-29.496,29.496
			c0,12.756,8.139,23.645,19.496,27.75V462c0,5.523,4.478,10,10,10c5.522,0,10-4.477,10-10V253.84h149.946c5.522,0,10-4.477,10-10
			V171.2H502c3.218,0,6.239-1.548,8.118-4.161C511.997,164.427,512.504,161.07,511.48,158.019z M294.893,38.992
			c-5.236,0-9.496-4.26-9.496-9.496c0-5.236,4.259-9.496,9.496-9.496c5.235,0,9.495,4.26,9.495,9.496
			C304.388,34.732,300.128,38.992,294.893,38.992z M304.893,80.062l22.668,31.568h-22.668V80.062z M444.839,233.84H304.893V131.63
			c0.024,0,0,0,0.024,0h139.922V233.84z M473.701,108.275l14.397,42.924h-23.26v-29.57c0-5.523-4.478-10-10-10H352.184
			L314.385,58.99h173.714l-14.397,42.924C473.009,103.979,473.009,106.212,473.701,108.275z"/>
	</g>
</g>
<g>
	<g>
		<path d="M217.107,0c-16.264,0-29.495,13.231-29.495,29.496c0,3.321,0.552,6.515,1.568,9.496H10c-3.218,0-6.239,1.548-8.118,4.161
			c-1.879,2.612-2.386,5.969-1.362,9.02l17.751,52.924L0.52,158.02c-1.023,3.051-0.517,6.408,1.362,9.02
			c1.879,2.612,4.9,4.161,8.118,4.161h37.161v72.64c0,5.523,4.478,10,10,10h149.946V462c0,5.523,4.478,10,10,10
			c5.522,0,10-4.477,10-10V57.246c11.357-4.105,19.496-14.995,19.496-27.75C246.604,13.231,233.372,0,217.107,0z M47.161,121.63
			v29.57h-23.26l14.397-42.924c0.692-2.063,0.692-4.297,0-6.36L23.901,58.991h173.714l-37.799,52.639H57.161
			C51.639,111.63,47.161,116.107,47.161,121.63z M207.107,233.84H67.161V131.63h139.89c0.056,0.001,0,0,0.056,0V233.84z
			 M207.108,111.63h-0.001H184.44l22.668-31.568V111.63z M217.107,38.992c-5.235-0.001-9.495-4.261-9.495-9.496
			c0-5.236,4.26-9.496,9.495-9.496c5.236,0,9.496,4.26,9.496,9.496C226.603,34.732,222.343,38.992,217.107,38.992z"/>
	</g>
</g>
<g>
</g>
<g>
</g>
<g>
</g>
<g>
</g>
<g>
</g>
<g>
</g>
<g>
</g>
<g>
</g>
<g>
</g>
<g>
</g>
<g>
</g>
<g>
</g>
<g>
</g>
<g>
</g>
<g>
</g>
</svg>
