<?xml version="1.0" encoding="iso-8859-1"?>
<!-- Generator: Adobe Illustrator 19.0.0, SVG Export Plug-In . SVG Version: 6.00 Build 0)  -->
<svg version="1.1" id="Capa_1" xmlns="http://www.w3.org/2000/svg" xmlns:xlink="http://www.w3.org/1999/xlink" x="0px" y="0px"
	 viewBox="0 0 512 512" style="enable-background:new 0 0 512 512;" xml:space="preserve">
<g>
	<g>
		<path d="M324.881,370.509c-2.332-5.006-8.281-7.176-13.287-4.843L256,391.556l-87.577-40.785
			c-5.01-2.334-10.956-0.164-13.287,4.843c-2.331,5.007-0.163,10.955,4.844,13.287l91.798,42.751
			c1.338,0.623,2.781,0.935,4.222,0.935c1.441,0,2.884-0.312,4.222-0.935l59.815-27.856
			C325.044,381.464,327.212,375.515,324.881,370.509z"/>
	</g>
</g>
<g>
	<g>
		<path d="M357.599,357.88c-0.13-0.64-0.319-1.27-0.569-1.87c-0.25-0.6-0.561-1.18-0.921-1.73c-0.359-0.54-0.779-1.05-1.239-1.52
			c-0.46-0.46-0.971-0.87-1.521-1.24c-0.54-0.36-1.12-0.67-1.729-0.92c-0.6-0.25-1.23-0.44-1.87-0.57c-1.29-0.26-2.62-0.26-3.91,0
			c-0.63,0.13-1.26,0.32-1.87,0.57c-0.6,0.25-1.18,0.56-1.72,0.92c-0.55,0.37-1.061,0.78-1.521,1.24c-0.46,0.47-0.88,0.98-1.25,1.52
			c-0.359,0.55-0.67,1.13-0.92,1.73c-0.25,0.6-0.439,1.23-0.569,1.87c-0.13,0.65-0.19,1.3-0.19,1.96c0,0.65,0.059,1.3,0.19,1.95
			c0.13,0.64,0.319,1.27,0.569,1.87c0.25,0.6,0.561,1.18,0.92,1.73c0.37,0.54,0.79,1.06,1.25,1.52c0.46,0.46,0.971,0.88,1.521,1.24
			c0.54,0.36,1.12,0.67,1.72,0.92c0.61,0.25,1.24,0.44,1.87,0.57c0.65,0.13,1.31,0.2,1.96,0.2c0.65,0,1.309-0.07,1.95-0.2
			c0.64-0.13,1.269-0.32,1.87-0.57c0.609-0.25,1.189-0.56,1.729-0.92c0.55-0.36,1.061-0.78,1.521-1.24
			c0.46-0.46,0.88-0.98,1.239-1.52c0.36-0.55,0.671-1.13,0.921-1.73c0.25-0.6,0.439-1.23,0.569-1.87c0.13-0.65,0.2-1.3,0.2-1.95
			C357.799,359.18,357.729,358.53,357.599,357.88z"/>
	</g>
</g>
<g>
	<g>
		<path d="M466.806,11.163c-13.638,0-25.884,6.072-34.178,15.655H79.372c-8.294-9.583-20.54-15.655-34.178-15.655
			C20.274,11.163,0,31.437,0,56.357s20.274,45.194,45.194,45.194c11.032,0,21.153-3.974,29.008-10.564v319.842
			c0,3.888,2.254,7.424,5.778,9.065l171.798,80.008c1.338,0.624,2.78,0.935,4.222,0.935s2.884-0.312,4.222-0.935l171.798-80.008
			c3.524-1.641,5.778-5.177,5.778-9.065V90.988c7.855,6.591,17.976,10.564,29.008,10.564c24.92,0,45.194-20.274,45.194-45.194
			C512,31.438,491.726,11.163,466.806,11.163z M45.194,81.552C31.302,81.552,20,70.25,20,56.357s11.302-25.194,25.194-25.194
			c13.892,0,25.194,11.302,25.194,25.194S59.087,81.552,45.194,81.552z M256,479.806L94.202,404.455V85.897h20v299.436
			c0,3.888,2.254,7.424,5.778,9.065l131.798,61.379c1.338,0.624,2.78,0.935,4.222,0.935c1.442,0,2.884-0.312,4.222-0.935
			l131.798-61.379c3.524-1.641,5.778-5.177,5.778-9.065V85.897h20v318.558h0L256,479.806z M377.798,110.712H134.202V85.897h243.596
			V110.712z M377.798,130.712v248.247L256,435.681l-121.798-56.722V130.712H377.798z M422.625,65.898H89.375
			c0.664-3.076,1.014-6.268,1.014-9.54c0-3.272-0.35-6.463-1.014-9.54h333.25c-0.664,3.076-1.014,6.268-1.014,9.54
			C421.611,59.63,421.961,62.821,422.625,65.898z M466.806,81.552c-13.893,0-25.194-11.302-25.194-25.194
			c0-13.892,11.302-25.194,25.194-25.194c13.892,0,25.194,11.301,25.194,25.193S480.698,81.552,466.806,81.552z"/>
	</g>
</g>
<g>
	<g>
		<path d="M348.72,245.415l-13.932-31.344c-1.242-2.795-3.714-4.854-6.677-5.612c-2.962-0.758-6.129-0.104-8.562,1.75
			c-0.167,0.128-14.924,11.181-38.252,13.97c2.789-23.328,13.838-38.08,13.941-38.216c1.887-2.428,2.552-5.589,1.804-8.571
			c-0.749-2.982-2.828-5.454-5.638-6.703l-31.344-13.933c-2.586-1.149-5.537-1.149-8.123,0l-31.344,13.933
			c-2.81,1.248-4.889,3.721-5.638,6.703c-0.748,2.983-0.083,6.143,1.804,8.571c0.127,0.164,11.191,14.665,13.955,38.218
			c-23.336-2.786-38.093-13.84-38.229-13.944c-2.428-1.886-5.592-2.551-8.571-1.803c-2.982,0.749-5.454,2.828-6.703,5.638
			l-13.932,31.344c-1.149,2.586-1.149,5.538,0,8.123l13.932,31.343c1.249,2.81,3.721,4.889,6.703,5.638
			c2.98,0.747,6.142,0.085,8.57-1.803c0.164-0.127,14.666-11.191,38.219-13.955c-2.786,23.336-13.84,38.093-13.943,38.229
			c-1.887,2.428-2.552,5.589-1.804,8.571c0.749,2.982,2.828,5.454,5.638,6.703l31.344,13.933c1.293,0.574,2.677,0.862,4.062,0.862
			s2.769-0.288,4.062-0.862l31.344-13.933c2.81-1.248,4.889-3.721,5.638-6.703c0.748-2.983,0.083-6.143-1.804-8.571
			c-0.127-0.164-11.191-14.665-13.955-38.218c23.336,2.786,38.093,13.839,38.23,13.943c2.426,1.886,5.591,2.551,8.57,1.803
			c2.982-0.749,5.454-2.828,6.703-5.638l13.932-31.343C349.869,250.953,349.869,248.001,348.72,245.415z M321.129,266.374
			c-10.436-5.424-28.007-12.232-50.465-12.232c-5.522,0-10,4.477-10,10c0,22.457,6.808,40.028,12.232,50.464L256,322.117
			l-16.896-7.511c5.423-10.436,12.232-28.007,12.232-50.465c0-5.523-4.478-10-10-10c-22.458,0-40.029,6.808-50.465,12.232
			l-7.51-16.896l7.51-16.896c10.436,5.424,28.007,12.232,50.465,12.232c5.522,0,10-4.477,10-10c0-22.457-6.808-40.028-12.232-50.464
			L256,176.838l16.896,7.512c-5.423,10.435-12.232,28.006-12.232,50.464c0,5.523,4.478,10,10,10
			c22.458,0,40.029-6.808,50.465-12.232l7.51,16.896L321.129,266.374z"/>
	</g>
</g>
<g>
</g>
<g>
</g>
<g>
</g>
<g>
</g>
<g>
</g>
<g>
</g>
<g>
</g>
<g>
</g>
<g>
</g>
<g>
</g>
<g>
</g>
<g>
</g>
<g>
</g>
<g>
</g>
<g>
</g>
</svg>
