<?xml version="1.0" encoding="iso-8859-1"?>
<!-- Generator: Adobe Illustrator 19.0.0, SVG Export Plug-In . SVG Version: 6.00 Build 0)  -->
<svg version="1.1" id="Capa_1" xmlns="http://www.w3.org/2000/svg" xmlns:xlink="http://www.w3.org/1999/xlink" x="0px" y="0px"
	 viewBox="0 0 512 512" style="enable-background:new 0 0 512 512;" xml:space="preserve">
<g>
	<g>
		<path d="M317.124,213.471c-2.882-2.207-6.73-2.678-10.059-1.236l-19.376,8.399c-25.913-26.264-27.177-26.266-31.689-26.266
			c-4.512,0-5.776,0.002-31.69,26.266l-19.376-8.399c-3.33-1.444-7.178-0.971-10.059,1.236c-2.88,2.206-4.339,5.799-3.813,9.389
			l10.901,74.364c0.72,4.91,4.932,8.55,9.894,8.55h88.284c4.962,0,9.174-3.639,9.895-8.55l10.901-74.364
			C321.463,219.27,320.004,215.677,317.124,213.471z M291.5,285.774h-71.002l-7.044-48.047l9.194,3.985
			c3.798,1.644,8.214,0.785,11.113-2.169c7.715-7.857,16.625-16.712,22.238-22.046c5.612,5.334,14.523,14.19,22.237,22.046
			c2.899,2.953,7.316,3.815,11.113,2.169l9.194-3.985L291.5,285.774z"/>
	</g>
</g>
<g>
	<g>
		<path d="M334.92,163.601c-0.13-0.64-0.32-1.269-0.57-1.87c-0.25-0.599-0.56-1.179-0.92-1.729c-0.36-0.541-0.78-1.061-1.24-1.521
			c-0.46-0.46-0.97-0.88-1.52-1.239c-0.54-0.36-1.12-0.671-1.73-0.921c-0.6-0.25-1.23-0.439-1.87-0.569c-1.29-0.26-2.61-0.26-3.9,0
			c-0.64,0.13-1.27,0.319-1.88,0.569c-0.6,0.25-1.18,0.561-1.72,0.921c-0.55,0.359-1.06,0.779-1.52,1.239
			c-0.46,0.46-0.88,0.981-1.25,1.521c-0.36,0.549-0.67,1.129-0.92,1.729c-0.24,0.6-0.44,1.23-0.57,1.87
			c-0.12,0.65-0.19,1.3-0.19,1.96c0,0.65,0.07,1.31,0.19,1.95c0.13,0.64,0.33,1.271,0.58,1.87s0.56,1.179,0.92,1.729
			c0.36,0.541,0.78,1.061,1.24,1.521c0.46,0.46,0.97,0.88,1.52,1.24c0.54,0.359,1.12,0.67,1.72,0.92
			c0.61,0.25,1.24,0.439,1.88,0.569c0.64,0.131,1.3,0.2,1.95,0.2c0.65,0,1.31-0.07,1.95-0.2s1.27-0.319,1.87-0.569
			c0.61-0.25,1.19-0.561,1.73-0.92c0.55-0.36,1.06-0.78,1.52-1.24c0.46-0.46,0.88-0.981,1.24-1.521c0.36-0.549,0.67-1.13,0.92-1.729
			s0.44-1.231,0.57-1.87s0.2-1.3,0.2-1.95C335.12,164.901,335.05,164.251,334.92,163.601z"/>
	</g>
</g>
<g>
	<g>
		<path d="M412.569,43.68c0-5.522-4.477-10-10-10H289.835V10c0-5.522-4.477-10-10-10h-47.671c-5.523,0-10,4.478-10,10v23.68H109.431
			c-5.523,0-10,4.478-10,10l-0.004,382.185c0,3.17,1.503,6.152,4.052,8.039c2.549,1.886,5.841,2.452,8.872,1.524l109.814-33.575V502
			c0,5.522,4.477,10,10,10h47.671c5.523,0,10-4.478,10-10V401.853l109.814,33.575c0.959,0.293,1.944,0.437,2.923,0.437
			c2.116,0,4.207-0.672,5.949-1.961c2.548-1.887,4.052-4.869,4.052-8.039L412.569,43.68z M366.618,53.68h25.951v30.383h-25.951
			V53.68z M330.421,53.68h16.197v30.384h-16.197V53.68z M289.03,84.063V53.68h21.391v30.384H289.03V84.063z M242.164,20h27.671
			v13.68h-27.671V20z M269.03,53.68v30.383h-26.06V53.68H269.03z M201.578,53.68h21.391v30.383h-21.391V53.68z M165.382,53.68
			h16.197v30.384h-16.197V53.68z M119.431,53.68h25.951v30.384h-25.951V53.68z M242.163,492v-96.262l13.835-4.23l13.835,4.23V492
			H242.163z M392.572,412.35l-133.649-40.863c-0.953-0.291-1.938-0.437-2.924-0.437s-1.971,0.146-2.924,0.437l-133.65,40.862
			V104.065h273.147V412.35z"/>
	</g>
</g>
<g>
	<g>
		<path d="M363.087,123.582H148.911c-5.523,0-10,4.478-10,10V366.82c0,3.106,1.443,6.036,3.906,7.929
			c2.463,1.894,5.665,2.536,8.667,1.734l104.515-27.831l104.515,27.831c0.849,0.227,1.713,0.337,2.573,0.337
			c2.181,0,4.328-0.714,6.094-2.071c2.463-1.893,3.906-4.822,3.906-7.929V133.582C373.087,128.06,368.611,123.582,363.087,123.582z
			 M353.088,353.809L353.088,353.809l-94.516-25.168c-0.843-0.225-1.708-0.337-2.573-0.337s-1.73,0.112-2.573,0.337l-94.515,25.168
			V175.557h126.722c5.523,0,10-4.478,10-10c0-5.522-4.477-10-10-10H158.911v-11.975h194.177V353.809z"/>
	</g>
</g>
<g>
</g>
<g>
</g>
<g>
</g>
<g>
</g>
<g>
</g>
<g>
</g>
<g>
</g>
<g>
</g>
<g>
</g>
<g>
</g>
<g>
</g>
<g>
</g>
<g>
</g>
<g>
</g>
<g>
</g>
</svg>
