<?xml version="1.0" encoding="iso-8859-1"?>
<!-- Generator: Adobe Illustrator 19.0.0, SVG Export Plug-In . SVG Version: 6.00 Build 0)  -->
<svg version="1.1" id="Capa_1" xmlns="http://www.w3.org/2000/svg" xmlns:xlink="http://www.w3.org/1999/xlink" x="0px" y="0px"
	 viewBox="0 0 511.999 511.999" style="enable-background:new 0 0 511.999 511.999;" xml:space="preserve">
<g>
	<g>
		<path d="M460.425,294.016c-2.042-2.256-4.998-3.459-8.039-3.271c-32.071,2.002-58.897,10.781-75.538,24.719
			c-4.233,3.546-4.79,9.853-1.244,14.087c3.547,4.234,9.853,4.79,14.088,1.245c11.126-9.319,29.437-15.986,51.352-18.876
			l-10.113,61.755H81.064l-10.122-61.817c21.891,2.875,40.199,9.556,51.343,18.915c4.231,3.551,10.537,3.003,14.089-1.227
			c3.552-4.229,3.003-10.537-1.226-14.089c-16.672-14.002-43.505-22.796-75.557-24.765c-3.043-0.184-5.992,1.019-8.032,3.276
			c-2.04,2.257-2.941,5.319-2.449,8.321L62.7,385.29c0.791,4.835,4.969,8.384,9.868,8.384h366.859c4.9,0,9.078-3.549,9.867-8.383
			l13.583-82.95C463.369,299.336,462.467,296.272,460.425,294.016z"/>
	</g>
</g>
<g>
	<g>
		<path d="M304.524,282.974L264.19,225.34c-1.871-2.675-4.93-4.267-8.193-4.267c-3.263,0-6.322,1.593-8.193,4.267l-40.333,57.635
			c-2.409,3.443-2.409,8.024,0,11.467l40.333,57.636c1.871,2.674,4.929,4.267,8.193,4.267c3.263,0,6.322-1.593,8.193-4.267
			l40.334-57.636C306.933,290.998,306.933,286.417,304.524,282.974z M255.997,328.903l-28.128-40.194l28.128-40.194l28.129,40.194
			L255.997,328.903z"/>
	</g>
</g>
<g>
	<g>
		<path d="M410.73,458.169c-0.13-0.64-0.319-1.27-0.569-1.87c-0.25-0.61-0.561-1.19-0.92-1.73c-0.37-0.55-0.79-1.06-1.25-1.52
			c-2.321-2.32-5.771-3.39-9.021-2.73c-0.64,0.12-1.269,0.32-1.87,0.57c-0.609,0.25-1.189,0.56-1.729,0.92
			c-0.551,0.36-1.061,0.78-1.521,1.24c-0.46,0.46-0.88,0.97-1.24,1.52c-0.359,0.54-0.67,1.12-0.92,1.73
			c-0.25,0.6-0.439,1.23-0.569,1.87s-0.2,1.3-0.2,1.95c0,0.65,0.07,1.31,0.2,1.95c0.13,0.64,0.319,1.27,0.569,1.87
			c0.25,0.61,0.561,1.19,0.92,1.73c0.36,0.55,0.78,1.06,1.24,1.52c0.46,0.46,0.97,0.88,1.521,1.25c0.54,0.36,1.12,0.66,1.729,0.91
			c0.6,0.25,1.23,0.45,1.87,0.58c0.639,0.13,1.3,0.19,1.95,0.19c2.639,0,5.21-1.069,7.071-2.93c0.46-0.46,0.88-0.97,1.25-1.52
			c0.359-0.54,0.67-1.12,0.92-1.73c0.25-0.6,0.44-1.23,0.569-1.87c0.129-0.64,0.19-1.3,0.19-1.95S410.86,458.81,410.73,458.169z"/>
	</g>
</g>
<g>
	<g>
		<path d="M509.611,252.114c-1.9-2.23-4.683-3.514-7.611-3.514h-0.029l-32.344,0.094c-10.615-52.651-56.702-90.554-110.71-90.554
			c-18.701,0-36.47,4.409-52.813,13.104l-7.127,3.792c-4.276-5.346-8.748-10.674-13.42-15.944v-47.913h46.367
			c5.522,0,10-4.477,10-10V62.002c0-5.523-4.478-10-10-10h-46.367V17.036c0-5.523-4.478-10-10-10H236.44c-5.522,0-10,4.477-10,10
			v34.965h-46.367c-5.522,0-10,4.477-10,10v39.177c0,5.523,4.478,10,10,10h46.367v47.91c-4.665,5.264-9.133,10.593-13.407,15.946
			l-7.146-3.8c-16.339-8.689-34.106-13.096-52.81-13.096c-53.999,0-100.078,37.887-110.705,90.524l-32.359-0.045H10
			c-2.932,0-5.716,1.287-7.616,3.52c-1.903,2.237-2.727,5.197-2.252,8.096l27.156,165.855v68.876c0,5.523,4.478,10,10,10h437.418
			c5.522,0,10-4.477,10-10v-68.876l27.162-165.874C512.343,257.314,511.518,254.351,509.611,252.114z M315.497,188.9
			c13.42-7.14,28.028-10.761,43.419-10.761c43.281,0,80.38,29.577,90.362,71.137c-25.59,1.693-60.356,7.783-88.597,26.471
			c-10.081-21.853-26.326-52.833-49.418-84.594L315.497,188.9z M190.073,91.178V72.002h46.367c5.522,0,10-4.477,10-10V27.036h19.114
			v34.965c0,5.523,4.478,10,10,10h46.367v19.177h-46.367c-5.522,0-10,4.477-10,10v35.92l-2.169-2.379
			c-1.895-2.078-4.577-3.263-7.39-3.263c-2.813,0-5.495,1.184-7.39,3.263l-2.166,2.376v-35.917c0-5.523-4.478-10-10-10H190.073z
			 M153.078,178.139c15.394,0,30.001,3.618,43.418,10.754l4.266,2.269c-22.957,31.644-39.244,62.677-49.391,84.6
			c-28.272-18.771-63.04-24.862-88.642-26.536C72.728,207.692,109.814,178.139,153.078,178.139z M464.706,484.965H47.288v-14.844
			h312.099c5.522,0,10-4.477,10-10s-4.478-10-10-10H47.288v-14.843h417.418V484.965z M466.21,415.278H45.784L21.773,268.635
			l24.273,0.034c25.042,0.036,71.712,4.01,102.927,30.224c2.42,2.034,5.662,2.801,8.734,2.073c3.076-0.729,5.627-2.868,6.879-5.77
			c9.66-22.397,28.902-61.842,58.746-100.866c0.237-0.276,0.461-0.567,0.67-0.873c6.458-8.399,13.408-16.772,20.86-24.945
			l11.134-12.211l11.133,12.211c7.474,8.197,14.435,16.573,20.896,24.959c0.206,0.301,0.427,0.587,0.66,0.859
			c30.056,39.221,49.191,78.549,58.748,100.828c1.247,2.906,3.795,5.051,6.87,5.785c3.077,0.734,6.317-0.03,8.741-2.061
			c31.147-26.09,77.818-30.106,102.867-30.177l24.312-0.07L466.21,415.278z"/>
	</g>
</g>
<g>
</g>
<g>
</g>
<g>
</g>
<g>
</g>
<g>
</g>
<g>
</g>
<g>
</g>
<g>
</g>
<g>
</g>
<g>
</g>
<g>
</g>
<g>
</g>
<g>
</g>
<g>
</g>
<g>
</g>
</svg>
