<?xml version="1.0" encoding="iso-8859-1"?>
<!-- Generator: Adobe Illustrator 19.0.0, SVG Export Plug-In . SVG Version: 6.00 Build 0)  -->
<svg version="1.1" id="Capa_1" xmlns="http://www.w3.org/2000/svg" xmlns:xlink="http://www.w3.org/1999/xlink" x="0px" y="0px"
	 viewBox="0 0 512 512" style="enable-background:new 0 0 512 512;" xml:space="preserve">
<g>
	<g>
		<path d="M385.989,156.54c-34.668-34.669-80.833-53.762-129.989-53.762s-95.321,19.093-129.989,53.762
			c-71.676,71.676-71.676,188.302,0,259.98c34.668,34.669,80.833,53.762,129.989,53.762s95.321-19.093,129.989-53.762
			C457.666,344.843,457.665,228.217,385.989,156.54z M371.847,402.378c-30.891,30.891-72.033,47.904-115.847,47.904
			c-43.814,0-84.956-17.012-115.847-47.904c-63.879-63.879-63.879-167.817,0-231.695c30.891-30.891,72.033-47.904,115.847-47.904
			s84.956,17.012,115.847,47.904C435.725,234.561,435.725,338.499,371.847,402.378z"/>
	</g>
</g>
<g>
	<g>
		<path d="M359.28,191.1c-0.13-0.64-0.32-1.269-0.57-1.87c-0.25-0.609-0.56-1.189-0.92-1.729c-0.36-0.55-0.78-1.061-1.24-1.521
			c-0.46-0.46-0.97-0.88-1.52-1.239c-0.54-0.36-1.12-0.671-1.73-0.921c-0.6-0.25-1.23-0.439-1.87-0.569c-1.29-0.26-2.62-0.26-3.91,0
			c-0.63,0.13-1.26,0.319-1.87,0.569c-0.6,0.25-1.18,0.561-1.72,0.921c-0.55,0.359-1.06,0.779-1.53,1.239
			c-0.46,0.46-0.87,0.971-1.24,1.521c-0.36,0.54-0.67,1.12-0.92,1.729c-0.25,0.6-0.44,1.23-0.57,1.87c-0.13,0.65-0.19,1.3-0.19,1.95
			c0,0.66,0.06,1.31,0.19,1.96c0.13,0.64,0.32,1.269,0.57,1.87c0.25,0.6,0.56,1.18,0.92,1.72c0.37,0.55,0.78,1.061,1.24,1.521
			c0.47,0.46,0.98,0.88,1.53,1.25c0.54,0.359,1.12,0.67,1.72,0.92c0.61,0.25,1.24,0.439,1.87,0.569c0.65,0.13,1.31,0.19,1.96,0.19
			c0.65,0,1.31-0.06,1.95-0.19c0.64-0.13,1.27-0.319,1.87-0.569c0.61-0.25,1.19-0.561,1.73-0.92c0.55-0.37,1.06-0.79,1.52-1.25
			c0.46-0.46,0.88-0.971,1.24-1.521c0.36-0.54,0.67-1.12,0.92-1.72s0.44-1.23,0.57-1.87c0.13-0.65,0.2-1.3,0.2-1.96
			C359.48,192.4,359.41,191.75,359.28,191.1z"/>
	</g>
</g>
<g>
	<g>
		<path d="M415.431,127.099c-29.383-29.382-65.447-49.657-104.767-59.404C311.573,63.882,312,60.063,312,56
			c0-30.879-25.122-56-56-56s-56,25.121-56,56c0,4.063,0.427,7.882,1.336,11.695c-39.32,9.747-75.384,30.021-104.767,59.404
			C53.983,169.685,30.53,226.305,30.53,286.53c0,60.225,23.453,116.846,66.039,159.432C139.154,488.547,195.775,512,256,512
			c55.131,0,108.199-20.109,149.429-56.624c40.871-36.197,67.212-85.807,74.172-139.691c1.24-9.598,1.869-19.406,1.869-29.154
			C481.47,226.305,458.017,169.685,415.431,127.099z M256,20c19.851,0,36,16.149,36,36c0,2.739-0.296,5.214-0.963,7.75
			c-11.487-1.781-23.192-2.689-35.037-2.689s-23.55,0.907-35.037,2.689C220.296,61.214,220,58.739,220,56
			C220,36.149,236.149,20,256,20z M459.766,313.122C446.594,415.1,358.994,492,256,492c-113.296,0-205.47-92.174-205.47-205.47
			S142.704,81.061,256,81.061s205.47,92.174,205.47,205.47C461.47,295.425,460.896,304.371,459.766,313.122z"/>
	</g>
</g>
<g>
	<g>
		<path d="M356.548,372.937c-3.905-3.906-10.237-3.906-14.142-0.001c-23.04,23.04-53.726,35.729-86.406,35.729
			s-63.366-12.689-86.406-35.729c-23.04-23.039-35.729-53.726-35.729-86.405c0-32.679,12.689-63.366,35.729-86.406
			c38.214-38.213,97.987-46.704,145.359-20.646c4.839,2.661,10.92,0.896,13.582-3.941c2.662-4.84,0.897-10.92-3.942-13.582
			c-26.437-14.543-57.571-20.328-87.664-16.285c-31.108,4.178-59.282,18.117-81.477,40.312
			c-26.817,26.818-41.586,62.526-41.586,100.549c0,38.021,14.769,73.73,41.586,100.548c26.818,26.817,62.526,41.587,100.548,41.587
			c38.022,0,73.73-14.77,100.548-41.587C360.453,383.175,360.453,376.843,356.548,372.937z"/>
	</g>
</g>
<g>
	<g>
		<path d="M310.99,296.529h29.787c5.523,0,10-4.478,10-10c0-5.522-4.477-10-10-10h-25.98l12.347-46.285l0.969-3.634
			c0.929-3.482-0.088-7.195-2.662-9.719c-2.574-2.522-6.304-3.465-9.77-2.468l-47.063,13.564v-23.616c0-5.522-4.477-10-10-10
			s-10,4.478-10,10v29.38l-22.229,6.406l-34.803-34.803c-3.906-3.903-10.237-3.904-14.142,0c-3.905,3.905-3.906,10.237,0,14.143
			l35.954,35.955l-5.652,21.189c-0.489-0.073-0.989-0.112-1.499-0.112H176.46c-5.523,0-10,4.478-10,10c0,5.522,4.477,10,10,10h25.98
			l-12.339,46.256c-0.003,0.01-0.005,0.019-0.008,0.029l-0.969,3.633c-0.929,3.482,0.088,7.196,2.662,9.719
			c1.896,1.858,4.419,2.859,7.001,2.859c0.924,0,1.855-0.128,2.769-0.391l47.063-13.564v23.617c0,5.522,4.477,10,10,10
			s10-4.478,10-10v-29.381l22.229-6.406l34.804,34.804c1.953,1.952,4.512,2.929,7.071,2.929c2.559,0,5.119-0.977,7.071-2.929
			c3.905-3.905,3.906-10.237,0-14.143l-35.954-35.955l5.652-21.189C309.981,296.49,310.481,296.529,310.99,296.529z
			 M233.144,259.026l54.561-15.725L255.9,275.106l-36.885,36.885L233.144,259.026z M284.094,314.033l-54.56,15.724l68.688-68.688
			L284.094,314.033z"/>
	</g>
</g>
<g>
</g>
<g>
</g>
<g>
</g>
<g>
</g>
<g>
</g>
<g>
</g>
<g>
</g>
<g>
</g>
<g>
</g>
<g>
</g>
<g>
</g>
<g>
</g>
<g>
</g>
<g>
</g>
<g>
</g>
</svg>
