<?xml version="1.0" encoding="iso-8859-1"?>
<!-- Generator: Adobe Illustrator 19.0.0, SVG Export Plug-In . SVG Version: 6.00 Build 0)  -->
<svg version="1.1" id="Capa_1" xmlns="http://www.w3.org/2000/svg" xmlns:xlink="http://www.w3.org/1999/xlink" x="0px" y="0px"
	 viewBox="0 0 512 512" style="enable-background:new 0 0 512 512;" xml:space="preserve">
<g>
	<g>
		<path d="M355.609,268.85c-0.13-0.64-0.319-1.27-0.569-1.87c-0.25-0.6-0.561-1.18-0.92-1.73c-0.37-0.54-0.78-1.06-1.24-1.52
			c-0.47-0.46-0.981-0.88-1.521-1.24c-0.549-0.36-1.13-0.67-1.729-0.92s-1.23-0.44-1.87-0.57c-1.29-0.26-2.62-0.26-3.91,0
			c-0.64,0.13-1.269,0.32-1.87,0.57c-0.599,0.25-1.179,0.56-1.729,0.92s-1.061,0.78-1.521,1.24c-0.46,0.46-0.88,0.98-1.239,1.52
			c-0.36,0.55-0.671,1.13-0.921,1.73c-0.25,0.6-0.439,1.23-0.569,1.87c-0.13,0.65-0.2,1.3-0.2,1.96c0,0.65,0.07,1.3,0.2,1.95
			c0.13,0.64,0.319,1.27,0.569,1.87c0.25,0.6,0.561,1.18,0.921,1.72c0.359,0.55,0.779,1.06,1.239,1.52
			c0.46,0.46,0.971,0.88,1.521,1.25c0.549,0.36,1.129,0.67,1.729,0.92c0.6,0.25,1.23,0.44,1.87,0.57c0.65,0.13,1.3,0.19,1.95,0.19
			c0.66,0,1.309-0.06,1.96-0.19c0.64-0.13,1.271-0.32,1.87-0.57s1.179-0.56,1.729-0.92c0.541-0.37,1.051-0.79,1.521-1.25
			c0.46-0.46,0.87-0.97,1.24-1.52c0.359-0.54,0.67-1.12,0.92-1.72c0.25-0.6,0.439-1.23,0.569-1.87c0.13-0.65,0.19-1.3,0.19-1.95
			C355.799,270.15,355.74,269.5,355.609,268.85z"/>
	</g>
</g>
<g>
	<g>
		<path d="M456.883,324.27h-42.999c-5.522,0-10,4.477-10,10v96.507c0,5.523,4.478,10,10,10h42.999c5.522,0,10-4.477,10-10V334.27
			C466.883,328.747,462.405,324.27,456.883,324.27z M446.883,420.777h-22.999V344.27h22.999V420.777z"/>
	</g>
</g>
<g>
	<g>
		<path d="M98.116,324.27H55.117c-5.522,0-10,4.477-10,10v96.507c0,5.523,4.478,10,10,10h42.999c5.523,0,10-4.477,10-10V334.27
			C108.116,328.747,103.638,324.27,98.116,324.27z M88.116,420.777H65.117V344.27h22.999V420.777z"/>
	</g>
</g>
<g>
	<g>
		<path d="M501.449,285.691c0-0.016-0.001-0.032-0.001-0.048c-0.002-0.06-0.004-0.12-0.007-0.18
			c-0.001-0.022-0.002-0.044-0.003-0.066c-0.003-0.063-0.007-0.125-0.012-0.188c-0.003-0.041-0.006-0.082-0.01-0.122
			c-0.002-0.02-0.004-0.04-0.005-0.061c-0.152-1.696-0.728-3.27-1.621-4.616l-56.008-86.699c-1.842-2.852-5.005-4.574-8.399-4.574
			s-6.558,1.722-8.399,4.574l-37.669,58.312v-56.031h2.342c5.522,0,10-4.477,10-10v-71.108c0-5.523-4.478-10-10-10H347.84
			c-5.522,0-10,4.477-10,10v16.154h-12.016v-16.154c0-5.523-4.478-10-10-10h-33.818V81.611h86.488c3.74,0,7.167-2.087,8.884-5.409
			c1.717-3.323,1.437-7.325-0.727-10.376l-17.745-25.02l17.745-25.021c2.163-3.051,2.443-7.054,0.727-10.376S372.234,0,368.494,0
			h-96.488c-5.522,0-10,4.477-10,10v121.039h-12.014v-16.154c0-5.523-4.478-10-10-10h-43.816c-5.522,0-10,4.477-10,10v16.154
			h-12.015v-16.154c0-5.523-4.478-10-10-10h-43.817c-5.522,0-10,4.477-10,10v71.108c0,5.523,4.478,10,10,10h2.342v56.031
			l-37.669-58.312c-1.842-2.852-5.005-4.574-8.399-4.574c-3.394,0-6.558,1.722-8.399,4.574L12.21,280.411
			c-0.893,1.346-1.468,2.92-1.621,4.616c-0.002,0.02-0.004,0.04-0.005,0.061c-0.003,0.041-0.007,0.081-0.01,0.122
			c-0.005,0.063-0.009,0.125-0.012,0.188c-0.001,0.022-0.002,0.044-0.003,0.066c-0.003,0.06-0.005,0.12-0.007,0.18
			c0,0.016-0.001,0.032-0.001,0.048c-0.002,0.077-0.003,0.154-0.003,0.231c0,0.003,0,0.007,0,0.01V502c0,5.523,4.478,10,10,10
			h470.904c5.522,0,10-4.477,10-10V285.933c0-0.003,0-0.007,0-0.01C501.452,285.845,501.451,285.768,501.449,285.691z M282.006,20
			h67.137L338.49,35.021c-2.457,3.465-2.457,8.105,0,11.57l10.653,15.02h-67.137V20z M435.383,217.568l37.704,58.365H397.68
			L435.383,217.568z M76.617,217.568l37.703,58.365H38.913L76.617,217.568z M122.686,492H30.548V295.933h92.138V492z M246,492
			h-45.545v-95.687c0-27.213,19.674-49.918,45.545-54.638V492z M311.534,492H266V341.677c25.866,4.724,45.534,27.427,45.534,54.636
			V492z M369.315,492h-37.78v-95.687c0-41.649-33.884-75.536-75.533-75.539c-0.001,0-0.001,0-0.001,0h-0.006
			c-41.652,0-75.539,33.887-75.539,75.539V492h-37.77V280.804h163.119c5.522,0,10-4.477,10-10s-4.478-10-10-10H142.686v-15.55
			h226.629V492z M142.686,225.253v-29.26h63.492v29.26H142.686z M226.178,225.253v-29.26h59.645v29.26H226.178z M305.822,225.253
			v-29.26h63.492v29.26H305.822z M381.656,175.993H130.344v-51.108h23.817v16.154c0,5.523,4.478,10,10,10h32.015
			c5.522,0,10-4.477,10-10v-16.154h23.816v16.154c0,5.523,4.478,10,10,10h32.016c5.522,0,10-4.477,10-10v-16.154h23.816v16.154
			c0,5.523,4.478,10,10,10h32.016c5.522,0,10-4.477,10-10v-16.154h23.816V175.993z M481.452,492h-92.138V295.933h92.138V492z"/>
	</g>
</g>
<g>
</g>
<g>
</g>
<g>
</g>
<g>
</g>
<g>
</g>
<g>
</g>
<g>
</g>
<g>
</g>
<g>
</g>
<g>
</g>
<g>
</g>
<g>
</g>
<g>
</g>
<g>
</g>
<g>
</g>
</svg>
