<?xml version="1.0" encoding="iso-8859-1"?>
<!-- Generator: Adobe Illustrator 19.0.0, SVG Export Plug-In . SVG Version: 6.00 Build 0)  -->
<svg version="1.1" id="Capa_1" xmlns="http://www.w3.org/2000/svg" xmlns:xlink="http://www.w3.org/1999/xlink" x="0px" y="0px"
	 viewBox="0 0 512 512" style="enable-background:new 0 0 512 512;" xml:space="preserve">
<g>
	<g>
		<path d="M245.436,299.596c-5.523,0-10,4.478-10,10v39.633c0,6.414-5.218,11.632-11.632,11.632
			c-6.415,0-11.633-5.218-11.633-11.632v-39.633c0-5.522-4.477-10-10-10s-10,4.478-10,10v39.633
			c0,17.442,14.191,31.632,31.633,31.632s31.633-14.19,31.632-31.632v-39.633C255.436,304.074,250.959,299.596,245.436,299.596z"/>
	</g>
</g>
<g>
	<g>
		<path d="M349.58,440.37c-0.13-0.641-0.32-1.27-0.57-1.87c-0.25-0.61-0.56-1.19-0.92-1.73c-0.36-0.55-0.78-1.06-1.24-1.52
			c-0.47-0.46-0.98-0.88-1.52-1.24c-0.55-0.36-1.13-0.67-1.73-0.92c-0.6-0.25-1.23-0.44-1.87-0.57c-1.29-0.26-2.62-0.26-3.91,0
			c-0.64,0.13-1.27,0.32-1.87,0.57c-0.6,0.25-1.18,0.56-1.73,0.92c-0.54,0.36-1.06,0.78-1.52,1.24c-0.46,0.46-0.88,0.97-1.24,1.52
			c-0.36,0.54-0.67,1.12-0.92,1.73c-0.25,0.599-0.44,1.229-0.57,1.87c-0.13,0.639-0.2,1.3-0.2,1.949c0,0.66,0.07,1.311,0.2,1.961
			c0.13,0.63,0.32,1.26,0.57,1.869c0.25,0.601,0.56,1.181,0.92,1.721c0.36,0.55,0.78,1.06,1.24,1.52c0.46,0.47,0.98,0.88,1.52,1.25
			c0.55,0.36,1.13,0.67,1.73,0.92c0.6,0.25,1.23,0.44,1.87,0.57c0.65,0.129,1.3,0.189,1.96,0.189c0.65,0,1.3-0.059,1.95-0.189
			c0.64-0.13,1.27-0.32,1.87-0.57c0.6-0.25,1.18-0.56,1.73-0.92c0.54-0.37,1.06-0.78,1.52-1.25c0.46-0.46,0.87-0.97,1.24-1.52
			c0.36-0.54,0.67-1.12,0.92-1.721c0.25-0.609,0.44-1.239,0.57-1.869c0.13-0.65,0.19-1.301,0.19-1.961
			C349.77,441.67,349.71,441.01,349.58,440.37z"/>
	</g>
</g>
<g>
	<g>
		<path d="M424.253,401.112c-7.901,0-15.284,2.259-21.538,6.164c-1.505-3.619-5.073-6.164-9.237-6.164h-106.84V128.857
			c0-5.522-4.477-10-10-10h-6.124c10.1-11.771,15.132-27.279,13.832-42.763c-0.002-0.026-0.004-0.054-0.007-0.08l-4.073-44.208
			c-0.366-3.969-3.052-7.341-6.838-8.584c-7.817-2.563-14.17,2.819-18.208,7.613c-0.916-1.717-1.891-3.482-2.912-5.253
			C242.101,7.891,233.31,0,223.804,0s-18.297,7.891-28.505,25.583c-1.021,1.771-1.996,3.536-2.912,5.252
			c-4.037-4.793-10.388-10.179-18.208-7.612c-3.786,1.243-6.472,4.615-6.838,8.584l-4.079,44.288
			c-1.3,15.483,3.732,30.992,13.832,42.763h-6.124c-5.523,0-10,4.478-10,10v272.255H56.972c-5.523,0-10,4.478-10,10v33.322
			c0,37.256,30.31,67.565,67.565,67.565h221.375c27.001,0,50.354-15.921,61.164-38.868c7.218,6.466,16.746,10.403,27.177,10.403
			c22.483,0,40.775-18.292,40.775-40.775v-0.873C465.028,419.403,446.736,401.112,424.253,401.112z M183.185,77.849l1.976-21.453
			c1.88,3.063,5.294,4.911,8.909,4.758c3.877-0.15,7.316-2.529,8.825-6.104c6.501-15.407,16.009-31.019,20.908-34.607
			c4.888,3.587,14.395,19.198,20.91,34.607c1.508,3.571,4.946,5.947,8.82,6.101c3.625,0.135,7.031-1.692,8.914-4.756l1.973,21.412
			c0.865,10.429-2.647,20.874-9.639,28.661l-2.569,2.86c-4.333,4.826-10.191,7.694-18.407,8.883V90.333c0-5.522-4.477-10-10-10
			s-10,4.478-10,10v27.878c-8.217-1.19-14.075-4.057-18.408-8.883l-2.568-2.86C185.828,98.671,182.315,88.211,183.185,77.849z
			 M180.97,138.857h85.667v87.063c0,9.052-7.365,16.416-16.417,16.416c-9.052,0-16.417-7.364-16.417-16.416V168.5
			c0.001-5.522-4.476-10-9.999-10H180.97V138.857z M180.97,178.5h32.834v47.421c0,20.08,16.336,36.416,36.417,36.416
			c5.903,0,11.481-1.412,16.417-3.915v142.691H180.97V178.5z M383.478,444.435c0,26.228-21.338,47.565-47.565,47.565H114.538
			c-23.541,0-43.142-17.19-46.911-39.677h232.148c5.523,0,10-4.478,10-10c0-5.522-4.477-10-10-10H66.972v-11.211h316.506V444.435z
			 M445.028,442.76c0,11.456-9.319,20.775-20.775,20.775s-20.775-9.319-20.775-20.775v-0.873c0-11.455,9.319-20.774,20.775-20.774
			s20.775,9.319,20.775,20.774V442.76z"/>
	</g>
</g>
<g>
</g>
<g>
</g>
<g>
</g>
<g>
</g>
<g>
</g>
<g>
</g>
<g>
</g>
<g>
</g>
<g>
</g>
<g>
</g>
<g>
</g>
<g>
</g>
<g>
</g>
<g>
</g>
<g>
</g>
</svg>
