<?xml version="1.0" encoding="iso-8859-1"?>
<!-- Generator: Adobe Illustrator 19.0.0, SVG Export Plug-In . SVG Version: 6.00 Build 0)  -->
<svg version="1.1" id="Capa_1" xmlns="http://www.w3.org/2000/svg" xmlns:xlink="http://www.w3.org/1999/xlink" x="0px" y="0px"
	 viewBox="0 0 512 512" style="enable-background:new 0 0 512 512;" xml:space="preserve">
<g>
	<g>
		<path d="M333.184,452H122.291c-10.35,0-19.567-6.95-22.414-16.9l-11.613-40.593c-1.518-5.31-7.056-8.383-12.364-6.864
			c-5.31,1.518-8.384,7.054-6.864,12.364l11.612,40.594C85.937,459.088,103.062,472,122.291,472h210.892
			c5.523,0,10.001-4.478,10.001-10C343.184,456.478,338.706,452,333.184,452z"/>
	</g>
</g>
<g>
	<g>
		<path d="M379.124,460.051c-0.13-0.64-0.319-1.27-0.569-1.88c-0.25-0.601-0.561-1.18-0.92-1.72c-0.36-0.551-0.78-1.061-1.24-1.521
			c-0.46-0.46-0.97-0.88-1.521-1.24c-0.54-0.359-1.12-0.67-1.729-0.92c-0.6-0.25-1.23-0.439-1.87-0.569
			c-1.29-0.261-2.61-0.261-3.9,0c-0.64,0.13-1.27,0.319-1.88,0.569c-0.6,0.25-1.18,0.561-1.72,0.92c-0.55,0.36-1.06,0.78-1.521,1.24
			c-0.46,0.46-0.88,0.97-1.25,1.521c-0.359,0.54-0.67,1.119-0.92,1.72c-0.25,0.61-0.44,1.24-0.56,1.88c-0.13,0.639-0.2,1.3-0.2,1.95
			c0,0.649,0.07,1.309,0.2,1.95c0.12,0.64,0.32,1.269,0.57,1.869c0.25,0.61,0.56,1.19,0.92,1.73c0.359,0.55,0.779,1.06,1.239,1.52
			c0.461,0.461,0.971,0.881,1.521,1.24c0.54,0.37,1.12,0.67,1.72,0.92c0.61,0.25,1.24,0.45,1.88,0.58
			c0.64,0.129,1.301,0.19,1.95,0.19c0.65,0,1.311-0.06,1.951-0.19c0.64-0.13,1.269-0.33,1.87-0.58c0.609-0.25,1.189-0.55,1.729-0.92
			c0.551-0.359,1.061-0.779,1.521-1.24c0.46-0.46,0.88-0.97,1.24-1.52c0.359-0.54,0.67-1.12,0.92-1.73
			c0.25-0.599,0.439-1.229,0.569-1.869s0.2-1.301,0.2-1.95C379.324,461.351,379.254,460.691,379.124,460.051z"/>
	</g>
</g>
<g>
	<g>
		<path d="M505.135,304.714c-1.874-2.694-4.949-4.294-8.216-4.294h-40.488c-23.379,0-45.007,12.666-56.444,33.055l-8.386,14.948
			c-9.491-17.256-27.85-28.976-48.896-28.976c-18.923,0-35.675,9.476-45.761,23.931c-8.267-11.849-21.012-20.351-35.762-23.033
			v-20.581h15.058c0.023,0,0.047,0.001,0.07,0.001c0.032,0,0.065-0.001,0.097-0.001h76.614c2.208,0,4.354-0.731,6.104-2.079
			c33.439-25.768,51.646-63.186,49.954-102.659c-1.719-40.074-23.577-76.461-59.97-99.831l-16.192-10.397
			c-1.612-1.035-3.487-1.585-5.403-1.585h-66.331c0-0.319-0.016-72.901-0.045-73.213c0-5.522-4.478-10-10-10h-75.404
			c-3.884,0-7.416,2.248-9.06,5.767c-1.645,3.519-1.103,7.671,1.39,10.649l14.635,17.496l-14.635,17.495
			c-2.492,2.979-3.034,7.131-1.39,10.649c1.644,3.519,5.176,5.767,9.06,5.767h65.449v15.39H103.181c-4.28,0-8.086,2.724-9.466,6.775
			s-0.028,8.533,3.361,11.146l11.003,8.479c26.861,20.699,42.268,50.542,42.268,81.877c0,31.334-15.406,61.177-42.269,81.876
			l-11.002,8.479c-3.39,2.612-4.741,7.094-3.361,11.146s5.186,6.775,9.466,6.775h138.002v20.581
			c-14.749,2.682-27.494,11.184-35.761,23.033c-10.085-14.455-26.837-23.931-45.761-23.931c-23.908,0-44.351,15.125-52.261,36.309
			l-87.834-44.265c-3.548-1.79-7.816-1.306-10.875,1.226c-3.061,2.532-4.332,6.636-3.239,10.454l36.739,128.431
			C52.365,487.163,85.302,512,122.291,512h247.034c33.811,0,64.021-20.181,76.962-51.412c10.873-26.237,26.445-63.869,38.879-94.144
			c6.549-15.944,11.644-28.428,15.143-37.103c1.954-4.844,3.449-8.596,4.442-11.149
			C506.783,312.969,508.252,309.194,505.135,304.714z M241.138,47.823h-44.002l6.27-7.495c3.106-3.713,3.106-9.118,0-12.832
			L197.136,20h44.002V47.823z M342.706,339.447c19.719,0,35.761,16.042,35.761,35.761c0,19.719-16.042,35.761-35.761,35.761
			s-35.761-16.042-35.761-35.761S322.987,339.447,342.706,339.447z M324.58,103.213l13.723,8.811
			c30.845,19.807,49.358,50.372,50.794,83.858c1.366,31.853-13.014,62.246-39.557,83.882h-45.11
			c24.971-23.784,39.041-55.271,39.041-88.275c0-33.006-14.07-64.492-39.041-88.276H324.58z M193.414,273.365l-8.306,6.399h-53.801
			c24.971-23.784,39.04-55.27,39.04-88.275c0-33.006-14.069-64.492-39.04-88.276h53.801l8.306,6.399
			c26.861,20.699,42.268,50.542,42.268,81.877C235.682,222.823,220.276,252.666,193.414,273.365z M216.64,279.764
			c24.971-23.784,39.042-55.271,39.042-88.275c0-33.006-14.07-64.492-39.042-88.276h56.259v0l8.305,6.399
			c26.861,20.699,42.267,50.542,42.267,81.877c0,31.334-15.405,61.177-42.267,81.876l-8.305,6.399H216.64z M251.183,339.447
			c19.719,0,35.762,16.042,35.762,35.761c0,19.719-16.043,35.761-35.762,35.761s-35.761-16.042-35.761-35.761
			S231.464,339.447,251.183,339.447z M124.086,371.56c0.011-0.091,0.021-0.182,0.029-0.273c1.959-17.881,17.153-31.84,35.547-31.84
			c19.719,0,35.761,16.042,35.761,35.761c0,19.719-16.042,35.761-35.761,35.761c-19.719,0-35.761-16.042-35.761-35.761
			C123.901,373.977,123.964,372.76,124.086,371.56z M427.81,452.932C417.976,476.665,395.019,492,369.325,492H122.291
			c-28.108,0-53.14-18.874-60.87-45.898L30.963,339.63l72.95,36.765c0.634,30.201,25.398,54.574,55.748,54.574
			c18.923,0,35.675-9.476,45.761-23.931c10.085,14.455,26.837,23.931,45.761,23.931c18.924,0,35.676-9.476,45.762-23.931
			c10.085,14.456,26.837,23.931,45.761,23.931c30.106,0,54.716-23.983,55.728-53.847l18.997-33.862
			c7.902-14.088,22.847-22.84,39.001-22.84h25.912C475.799,336.671,460.977,372.899,427.81,452.932z"/>
	</g>
</g>
<g>
</g>
<g>
</g>
<g>
</g>
<g>
</g>
<g>
</g>
<g>
</g>
<g>
</g>
<g>
</g>
<g>
</g>
<g>
</g>
<g>
</g>
<g>
</g>
<g>
</g>
<g>
</g>
<g>
</g>
</svg>
