<?xml version="1.0" encoding="iso-8859-1"?>
<!-- Generator: Adobe Illustrator 19.0.0, SVG Export Plug-In . SVG Version: 6.00 Build 0)  -->
<svg version="1.1" id="Capa_1" xmlns="http://www.w3.org/2000/svg" xmlns:xlink="http://www.w3.org/1999/xlink" x="0px" y="0px"
	 viewBox="0 0 512.002 512.002" style="enable-background:new 0 0 512.002 512.002;" xml:space="preserve">
<g>
	<g>
		<path d="M392.821,111.53c-0.13-0.63-0.319-1.26-0.569-1.87c-0.25-0.6-0.561-1.18-0.92-1.72c-0.36-0.55-0.78-1.06-1.24-1.52
			c-0.46-0.46-0.97-0.88-1.521-1.25c-0.539-0.36-1.119-0.67-1.729-0.92c-0.599-0.25-1.23-0.44-1.87-0.56
			c-1.29-0.27-2.62-0.26-3.91,0c-0.63,0.12-1.26,0.31-1.87,0.56c-0.6,0.25-1.18,0.56-1.72,0.92c-0.55,0.37-1.06,0.79-1.52,1.25
			c-0.46,0.46-0.881,0.97-1.25,1.52c-0.36,0.54-0.67,1.12-0.92,1.72c-0.25,0.61-0.44,1.24-0.57,1.87
			c-0.129,0.65-0.19,1.31-0.19,1.96c0,0.65,0.06,1.31,0.19,1.95s0.32,1.27,0.57,1.87c0.25,0.61,0.56,1.19,0.92,1.73
			c0.369,0.55,0.79,1.06,1.25,1.52c0.46,0.46,0.97,0.88,1.52,1.24c0.54,0.36,1.12,0.67,1.72,0.92c0.61,0.25,1.24,0.44,1.87,0.57
			c0.65,0.13,1.311,0.2,1.96,0.2c0.65,0,1.31-0.07,1.949-0.2c0.64-0.13,1.27-0.32,1.87-0.57c0.61-0.25,1.19-0.56,1.729-0.92
			c0.551-0.36,1.061-0.78,1.521-1.24c1.861-1.86,2.93-4.44,2.93-7.07C393.021,112.84,392.952,112.18,392.821,111.53z"/>
	</g>
</g>
<g>
	<g>
		<path d="M136.053,391.44c-0.46-0.46-0.97-0.88-1.52-1.24c-0.54-0.36-1.12-0.67-1.721-0.92c-0.609-0.25-1.24-0.44-1.87-0.57
			c-1.29-0.26-2.62-0.26-3.909,0c-0.641,0.13-1.27,0.32-1.87,0.57c-0.61,0.25-1.19,0.56-1.73,0.92c-0.55,0.36-1.06,0.78-1.52,1.24
			c-1.861,1.86-2.931,4.44-2.931,7.07c0,0.65,0.07,1.31,0.2,1.96c0.13,0.63,0.32,1.26,0.57,1.87c0.25,0.6,0.56,1.18,0.92,1.72
			c0.36,0.55,0.78,1.06,1.24,1.52c0.46,0.46,0.97,0.88,1.52,1.25c0.54,0.36,1.12,0.67,1.73,0.92c0.599,0.25,1.229,0.44,1.87,0.57
			c0.639,0.13,1.3,0.19,1.949,0.19c0.651,0,1.311-0.06,1.962-0.19c0.63-0.13,1.261-0.32,1.87-0.57c0.601-0.25,1.181-0.56,1.721-0.92
			c0.55-0.37,1.06-0.79,1.52-1.25c0.46-0.46,0.88-0.97,1.25-1.52c0.36-0.54,0.67-1.12,0.92-1.72c0.25-0.61,0.44-1.24,0.57-1.87
			c0.129-0.65,0.189-1.31,0.189-1.96C138.982,395.88,137.912,393.3,136.053,391.44z"/>
	</g>
</g>
<g>
	<g>
		<path d="M459.022,355.273c9.202-65.934,9.202-132.612,0-198.546c2.611-0.231,5.041-1.481,6.75-3.5
			c1.9-2.245,2.716-5.212,2.229-8.113l-10.932-65.252c-0.807-4.818-4.978-8.348-9.862-8.348h-5.302L425.9,7.572
			C424.785,3.122,420.787,0,416.199,0H95.804c-4.588,0-8.587,3.122-9.701,7.572L70.097,71.515h-5.302
			c-4.885,0-9.056,3.53-9.862,8.348l-10.932,65.252c-0.486,2.901,0.329,5.868,2.229,8.113c1.709,2.019,4.139,3.269,6.75,3.5
			c-9.202,65.934-9.202,132.612,0,198.546c-2.611,0.231-5.041,1.481-6.75,3.5c-1.9,2.245-2.716,5.212-2.229,8.113l10.932,65.252
			c0.807,4.818,4.978,8.348,9.862,8.348h5.302l16.006,63.943c1.114,4.45,5.113,7.572,9.701,7.572h320.395
			c4.588,0,8.587-3.122,9.701-7.572l16.006-63.943h5.302c4.885,0,9.056-3.53,9.862-8.348l10.932-65.252
			c0.486-2.901-0.329-5.868-2.229-8.113C464.064,356.754,461.634,355.504,459.022,355.273z M408.394,20l12.895,51.515h-72.306
			L336.087,20H408.394z M266.001,20h49.468l12.895,51.515h-62.363V20z M196.535,20h49.467v51.515h-62.363L196.535,20z M103.61,20
			h72.308l-12.896,51.515H90.715L103.61,20z M67.902,123.488H343.02c5.522,0,10-4.477,10-10s-4.478-10-10-10H71.252l2.006-11.973
			h365.486l7.581,45.252H65.678L67.902,123.488z M366.105,156.767h72.726c9.46,65.894,9.46,132.573,0,198.467h-72.726
			C375.298,289.325,375.298,222.675,366.105,156.767z M345.905,355.234h-79.903V156.767h79.903
			C355.366,222.661,355.366,289.34,345.905,355.234z M246.001,156.767v198.467h-79.903c-9.461-65.895-9.461-132.573,0-198.467
			H246.001z M145.899,355.234H73.173c-9.461-65.895-9.461-132.573,0-198.467h72.726
			C136.704,222.675,136.704,289.326,145.899,355.234z M103.61,492l-12.895-51.515h72.308L175.917,492H103.61z M246.001,492h-49.467
			l-12.896-51.515h62.363V492z M315.47,492h-49.468v-51.515h62.363L315.47,492z M408.394,492h-72.306l12.895-51.515h72.306
			L408.394,492z M444.1,388.512H168.983c-5.522,0-10,4.477-10,10s4.478,10,10,10h271.767l-2.006,11.973H73.259l-7.581-45.252
			h380.648L444.1,388.512z"/>
	</g>
</g>
<g>
	<g>
		<path d="M309.779,217.461c-21.251,0-38.539,17.288-38.539,38.539c0,21.251,17.288,38.539,38.539,38.539
			c21.251,0,38.539-17.289,38.539-38.539S331.03,217.461,309.779,217.461z M309.779,274.539c-10.223,0-18.539-8.316-18.539-18.539
			s8.316-18.539,18.539-18.539c10.223,0,18.539,8.316,18.539,18.539C328.318,266.223,320.001,274.539,309.779,274.539z"/>
	</g>
</g>
<g>
</g>
<g>
</g>
<g>
</g>
<g>
</g>
<g>
</g>
<g>
</g>
<g>
</g>
<g>
</g>
<g>
</g>
<g>
</g>
<g>
</g>
<g>
</g>
<g>
</g>
<g>
</g>
<g>
</g>
</svg>
