<?xml version="1.0" encoding="iso-8859-1"?>
<!-- Generator: Adobe Illustrator 19.0.0, SVG Export Plug-In . SVG Version: 6.00 Build 0)  -->
<svg version="1.1" id="Capa_1" xmlns="http://www.w3.org/2000/svg" xmlns:xlink="http://www.w3.org/1999/xlink" x="0px" y="0px"
	 viewBox="0 0 512 512" style="enable-background:new 0 0 512 512;" xml:space="preserve">
<g>
	<g>
		<path d="M263.069,437.299c-0.46-0.46-0.97-0.88-1.52-1.24c-0.54-0.36-1.12-0.67-1.72-0.92c-0.61-0.25-1.24-0.44-1.88-0.57
			c-1.29-0.26-2.61-0.26-3.9,0c-0.64,0.13-1.269,0.32-1.87,0.57c-0.61,0.25-1.189,0.56-1.729,0.92
			c-0.551,0.36-1.061,0.78-1.521,1.24c-1.861,1.86-2.93,4.44-2.93,7.07c0,2.64,1.07,5.22,2.93,7.07c0.46,0.47,0.97,0.88,1.521,1.25
			c0.54,0.36,1.119,0.67,1.729,0.92c0.6,0.25,1.23,0.44,1.87,0.57c0.639,0.13,1.3,0.19,1.95,0.19c0.649,0,1.309-0.059,1.95-0.19
			c0.64-0.13,1.27-0.32,1.88-0.57c0.6-0.25,1.18-0.56,1.72-0.92c0.55-0.37,1.06-0.78,1.52-1.25c1.861-1.86,2.931-4.43,2.931-7.07
			C266,441.739,264.929,439.159,263.069,437.299z"/>
	</g>
</g>
<g>
	<g>
		<path d="M357.852,1.897c-2.417-1.748-5.489-2.325-8.374-1.576c-2.887,0.75-5.288,2.748-6.549,5.451
			c-5.12,10.975-11.214,20.126-18.113,27.201c-0.006,0.006-0.011,0.012-0.017,0.018c-15.395,15.784-23.186,19.168-35.925,19.439
			c-0.758-4.772-4.891-8.419-9.875-8.419h-13V20c0-5.523-4.478-10-10-10c-5.522,0-10,4.477-10,10v24.011h-13
			c-4.985,0-9.117,3.648-9.875,8.419c-12.726-0.272-20.517-3.662-35.939-19.466c-0.01-0.01-0.019-0.019-0.029-0.029
			c-6.895-7.073-12.98-16.212-18.087-27.162c-1.26-2.703-3.661-4.702-6.548-5.452c-2.889-0.749-5.958-0.172-8.375,1.576
			c-2.311,1.671-56.589,41.747-56.584,112.996c-0.005,71.251,54.273,111.326,56.584,112.997c1.723,1.246,3.777,1.897,5.86,1.897
			c0.84,0,1.685-0.106,2.515-0.321c2.887-0.75,5.288-2.75,6.549-5.453c5.086-10.908,11.182-20.029,18.119-27.112
			c0.005-0.005,0.01-0.01,0.015-0.015c15.484-15.801,23.259-19.234,35.796-19.527v2.807c0,5.523,4.478,10,10,10h13v64.69h-30.001
			c-5.522,0-10,4.477-10,10V462c0,27.57,22.431,50,50.001,50s50.001-22.43,50.001-50V264.856c0-5.523-4.478-10-10-10h-30.002v-64.69
			h13c5.522,0,10-4.477,10-10v-2.807c12.646,0.289,20.435,3.709,35.813,19.467c0.01,0.011,0.021,0.021,0.031,0.031
			c6.895,7.073,12.98,16.21,18.087,27.158c1.261,2.703,3.662,4.702,6.549,5.451c0.829,0.216,1.674,0.321,2.514,0.321
			c2.083,0,4.138-0.651,5.86-1.897c2.311-1.671,56.584-41.741,56.584-112.996C414.436,43.638,360.163,3.567,357.852,1.897z
			 M157.04,203.921c-13.949-13.616-39.481-44.609-39.479-89.029c-0.003-44.418,25.53-75.413,39.472-89.023
			c3.2,5.46,6.67,10.462,10.389,14.979c-14.437,22.936-21.748,47.808-21.745,74.044c-0.003,26.252,7.315,51.136,21.767,74.082
			C163.713,193.487,160.238,198.48,157.04,203.921z M222.999,157.356c-15.98,0.323-27.249,4.776-41.07,16.926
			c-10.793-18.583-16.254-38.512-16.252-59.39c-0.002-20.853,5.444-40.756,16.214-59.321c13.745,12.099,25.033,16.536,41.108,16.859
			V157.356z M225.998,274.856h20.001v28.809h-20.001V274.856z M286,461.999c0,16.542-13.458,30-30.001,30
			c-16.543,0-30.001-13.458-30.001-30V323.664h20.001v60.707c0,5.523,4.478,10,10,10c5.522,0,10-4.477,10-10v-60.707H286V461.999z
			 M286,274.856v28.809h-20.001v-28.809H286z M268.999,170.165h-26V64.011h26V170.165z M330.104,174.218
			c-13.749-12.105-25.036-16.542-41.105-16.862V72.43c16.091-0.322,27.38-4.755,41.113-16.849
			c10.764,18.563,16.21,38.465,16.208,59.313C346.323,135.746,340.875,155.651,330.104,174.218z M354.963,203.918
			c-3.199-5.459-6.67-10.461-10.389-14.977c14.438-22.938,21.75-47.811,21.747-74.047c0.003-26.234-7.307-51.105-21.742-74.041
			c3.725-4.527,7.202-9.544,10.408-15.021c13.945,13.538,39.45,44.404,39.45,89.061
			C394.436,159.316,368.904,190.309,354.963,203.918z"/>
	</g>
</g>
<g>
</g>
<g>
</g>
<g>
</g>
<g>
</g>
<g>
</g>
<g>
</g>
<g>
</g>
<g>
</g>
<g>
</g>
<g>
</g>
<g>
</g>
<g>
</g>
<g>
</g>
<g>
</g>
<g>
</g>
</svg>
