<?xml version="1.0" encoding="iso-8859-1"?>
<!-- Generator: Adobe Illustrator 19.0.0, SVG Export Plug-In . SVG Version: 6.00 Build 0)  -->
<svg version="1.1" id="Capa_1" xmlns="http://www.w3.org/2000/svg" xmlns:xlink="http://www.w3.org/1999/xlink" x="0px" y="0px"
	 viewBox="0 0 511.999 511.999" style="enable-background:new 0 0 511.999 511.999;" xml:space="preserve">
<g>
	<g>
		<path d="M400.469,65.69c-0.13-0.64-0.32-1.26-0.57-1.87c-0.25-0.599-0.56-1.179-0.92-1.729c-0.359-0.541-0.779-1.061-1.239-1.521
			c-0.46-0.46-0.971-0.88-1.521-1.239c-0.54-0.36-1.12-0.67-1.729-0.92c-0.6-0.25-1.23-0.44-1.87-0.57c-1.29-0.26-2.62-0.26-3.91,0
			c-0.63,0.13-1.26,0.32-1.87,0.57c-0.6,0.25-1.18,0.56-1.72,0.92c-0.551,0.359-1.061,0.779-1.521,1.239
			c-0.46,0.46-0.88,0.981-1.25,1.521c-0.359,0.549-0.67,1.129-0.92,1.729s-0.439,1.23-0.57,1.87c-0.129,0.65-0.189,1.301-0.189,1.96
			c0,0.65,0.059,1.31,0.189,1.95c0.131,0.641,0.32,1.271,0.57,1.87c0.25,0.599,0.561,1.179,0.92,1.73
			c0.37,0.541,0.79,1.06,1.25,1.52c0.46,0.46,0.97,0.88,1.521,1.24c0.54,0.359,1.12,0.67,1.72,0.92c0.61,0.25,1.24,0.439,1.87,0.57
			c0.649,0.13,1.31,0.199,1.96,0.199c0.649,0,1.309-0.069,1.95-0.199c0.64-0.131,1.269-0.32,1.87-0.57
			c0.609-0.25,1.189-0.561,1.729-0.92c0.55-0.36,1.061-0.78,1.521-1.24c0.46-0.46,0.88-0.98,1.239-1.52
			c0.36-0.55,0.67-1.131,0.92-1.73s0.44-1.229,0.57-1.87c0.13-0.639,0.2-1.3,0.2-1.95C400.669,66.991,400.599,66.34,400.469,65.69z"
			/>
	</g>
</g>
<g>
	<g>
		<path d="M364.766,336.519l-24.758-28.192l-2.424-37.328c-0.052-1.013-0.259-2.028-0.628-3.009
			c-0.612-1.625-1.621-3.025-2.894-4.103v-0.001c-0.089-0.075-0.179-0.149-0.27-0.221c-0.006-0.004-0.011-0.009-0.017-0.013
			c-0.04-0.031-0.08-0.062-0.12-0.093c-0.01-0.007-0.02-0.015-0.03-0.022c-0.037-0.028-0.073-0.055-0.11-0.082
			c-0.012-0.009-0.025-0.018-0.038-0.027c-0.035-0.026-0.071-0.051-0.106-0.076c-0.012-0.009-0.025-0.017-0.037-0.026
			c-0.037-0.026-0.075-0.052-0.113-0.078c-0.01-0.007-0.021-0.014-0.032-0.022c-0.038-0.026-0.076-0.051-0.114-0.076
			c-0.012-0.008-0.025-0.016-0.038-0.024c-0.037-0.024-0.075-0.048-0.112-0.072c-0.013-0.008-0.026-0.016-0.038-0.024
			c-0.039-0.025-0.079-0.049-0.119-0.073c-0.009-0.005-0.018-0.011-0.028-0.017c-0.042-0.025-0.083-0.05-0.125-0.074
			c-0.01-0.006-0.02-0.011-0.03-0.017c-0.044-0.025-0.088-0.05-0.132-0.075c-0.006-0.003-0.012-0.007-0.018-0.01
			c-0.048-0.027-0.097-0.053-0.146-0.079c-0.002-0.001-0.005-0.002-0.007-0.004c-1.227-0.651-2.597-1.051-4.037-1.144l-37.459-2.433
			l-28.191-24.757c-3.772-3.314-9.418-3.314-13.194,0.001l-28.191,24.758l-37.459,2.431c-5.013,0.326-9.006,4.319-9.331,9.332
			l-2.433,37.459l-24.758,28.192c-3.315,3.774-3.315,9.423,0,13.197l24.758,28.192l2.424,37.33c0.039,0.759,0.166,1.519,0.382,2.264
			c0,0.002,0.001,0.004,0.001,0.004c0.017,0.057,0.033,0.113,0.05,0.168c0.001,0.002,0.001,0.004,0.002,0.005
			c0.016,0.051,0.032,0.101,0.048,0.152c0.003,0.008,0.005,0.017,0.008,0.025c0.015,0.046,0.031,0.092,0.047,0.137
			c0.004,0.012,0.008,0.024,0.012,0.036c0.016,0.044,0.032,0.089,0.048,0.133c0.004,0.011,0.008,0.023,0.013,0.034
			c0.006,0.016,0.011,0.032,0.017,0.047c0.011,0.029,0.022,0.058,0.033,0.086c0.005,0.011,0.009,0.023,0.014,0.035
			c0.017,0.044,0.035,0.088,0.053,0.132c0.004,0.011,0.009,0.022,0.013,0.032c0.02,0.048,0.04,0.096,0.06,0.143
			c0.002,0.005,0.004,0.01,0.006,0.014c0.022,0.05,0.044,0.1,0.066,0.15c0.002,0.004,0.004,0.008,0.005,0.012
			c0.024,0.052,0.047,0.104,0.072,0.155c0,0.001,0.001,0.001,0.001,0.001c0.41,0.865,0.936,1.654,1.555,2.351
			c0.002,0.002,0.003,0.004,0.005,0.006c0.037,0.042,0.074,0.083,0.112,0.124c0.003,0.004,0.007,0.008,0.01,0.011
			c0.035,0.038,0.071,0.076,0.107,0.114c0.009,0.01,0.019,0.019,0.028,0.029c0.029,0.03,0.057,0.06,0.086,0.089
			c0.019,0.019,0.037,0.038,0.056,0.056c0.022,0.022,0.044,0.044,0.067,0.066c0.025,0.024,0.05,0.049,0.075,0.073
			c0.015,0.014,0.029,0.028,0.044,0.042c0.032,0.031,0.065,0.061,0.097,0.091c0.01,0.009,0.019,0.018,0.029,0.027
			c0.036,0.033,0.073,0.067,0.11,0.1c0.006,0.005,0.011,0.01,0.017,0.015c0.042,0.037,0.085,0.074,0.128,0.111l0.001,0.001
			c0.576,0.493,1.211,0.924,1.897,1.28c0.003,0.002,0.006,0.003,0.009,0.005c0.048,0.025,0.097,0.05,0.145,0.074
			c0.006,0.003,0.011,0.006,0.017,0.008c0.046,0.023,0.092,0.045,0.138,0.067c0.01,0.005,0.019,0.009,0.029,0.014
			c0.042,0.02,0.084,0.039,0.126,0.059c0.014,0.006,0.028,0.013,0.042,0.019c0.041,0.018,0.081,0.036,0.122,0.054
			c0.014,0.006,0.028,0.012,0.042,0.018c0.039,0.017,0.077,0.033,0.116,0.049c0.021,0.009,0.042,0.017,0.063,0.026
			c0.033,0.013,0.066,0.027,0.099,0.04c0.023,0.009,0.046,0.018,0.07,0.027c0.022,0.008,0.043,0.017,0.065,0.025
			c0.01,0.004,0.02,0.007,0.029,0.011c0.054,0.02,0.109,0.04,0.163,0.059c0.009,0.003,0.018,0.007,0.027,0.01
			c0.066,0.023,0.132,0.045,0.198,0.067c0.017,0.006,0.035,0.011,0.052,0.017c0.05,0.016,0.1,0.031,0.15,0.047
			c0.02,0.006,0.04,0.012,0.059,0.018c0.05,0.015,0.1,0.029,0.151,0.043c0.018,0.005,0.037,0.01,0.055,0.015
			c0.065,0.018,0.13,0.035,0.195,0.051c0.014,0.003,0.028,0.007,0.042,0.01c0.053,0.013,0.106,0.026,0.159,0.038
			c0.029,0.007,0.058,0.013,0.088,0.02c0.036,0.008,0.071,0.016,0.107,0.023c0.034,0.007,0.069,0.014,0.103,0.021
			c0.03,0.006,0.061,0.012,0.091,0.018c0.038,0.007,0.075,0.014,0.113,0.021c0.019,0.003,0.038,0.006,0.057,0.01
			c0.1,0.017,0.199,0.033,0.299,0.047c0.004,0,0.008,0.001,0.011,0.002c0.051,0.007,0.101,0.013,0.152,0.02
			c0.014,0.002,0.028,0.004,0.042,0.005c0.05,0.006,0.101,0.011,0.151,0.017c0.012,0.001,0.024,0.002,0.036,0.004
			c0.127,0.013,0.255,0.023,0.383,0.031l37.422,2.431l28.192,24.757c1.888,1.657,4.243,2.486,6.599,2.486
			c2.356,0,4.712-0.829,6.599-2.486l28.191-24.758l37.459-2.433c5.013-0.325,9.006-4.318,9.331-9.331l2.433-37.458l24.758-28.192
			C368.081,345.942,368.081,340.293,364.766,336.519z M191.725,373.218c-0.144-2.201-1.01-4.294-2.466-5.951l-21.208-24.149
			l21.208-24.149c1.456-1.657,2.322-3.75,2.466-5.951l2.083-32.092l32.091-2.083c2.201-0.143,4.294-1.009,5.951-2.465l24.15-21.208
			l24.149,21.207c1.657,1.456,3.75,2.322,5.951,2.466l18.812,1.221L192.945,392.029L191.725,373.218z M322.739,367.267
			c-1.456,1.657-2.322,3.75-2.466,5.951l-2.083,32.091l-32.092,2.084c-2.201,0.143-4.294,1.009-5.951,2.465l-24.148,21.208
			l-24.149-21.207c-1.657-1.456-3.749-2.322-5.95-2.465l-18.812-1.223l111.965-111.965l1.221,18.811
			c0.144,2.201,1.01,4.294,2.466,5.951l21.207,24.15L322.739,367.267z"/>
	</g>
</g>
<g>
	<g>
		<path d="M380.217,151.479c32.454,0,58.857-26.403,58.857-58.857V10c0-5.522-4.477-10-10-10H82.924c-5.522,0-10,4.478-10,10v82.621
			c0,16.07,6.357,31.082,17.9,42.269c0.001,0,0.001,0.001,0.002,0.002c11.038,10.697,25.582,16.587,40.955,16.587h114.218v28.231
			l-42.294,37.142l-60.699,3.94c-5.013,0.326-9.006,4.319-9.331,9.331l-3.942,60.701l-40.13,45.696
			c-3.315,3.774-3.315,9.423,0,13.197l40.129,45.695l3.94,60.699c0.326,5.013,4.319,9.006,9.332,9.331l60.7,3.941l45.695,40.13
			c1.888,1.657,4.243,2.486,6.599,2.486c2.356,0,4.711-0.829,6.599-2.486l45.695-40.13l60.699-3.939
			c5.013-0.326,9.006-4.319,9.331-9.331l3.942-60.701l40.129-45.695c3.315-3.774,3.315-9.423,0-13.197l-40.129-45.695l-3.94-60.7
			c-0.326-5.013-4.319-9.006-9.332-9.332l-60.7-3.94l-42.293-37.143v-28.231H380.217z M92.924,92.621V20h292.114L274.806,57.281
			l-173.981,58.842C95.696,109.404,92.924,101.243,92.924,92.621z M297.651,234.124c1.658,1.456,3.75,2.322,5.952,2.465
			l55.333,3.593l3.593,55.333c0.143,2.201,1.009,4.294,2.465,5.951l36.579,41.652l-36.579,41.652
			c-1.456,1.657-2.322,3.749-2.465,5.95l-3.594,55.334l-55.332,3.591c-2.201,0.144-4.294,1.01-5.951,2.466l-41.653,36.58
			l-41.652-36.58c-1.657-1.456-3.75-2.322-5.951-2.466l-55.333-3.592l-3.593-55.332c-0.143-2.201-1.009-4.294-2.465-5.951
			l-36.579-41.652l36.579-41.652c1.456-1.657,2.322-3.749,2.465-5.95l3.594-55.334l55.332-3.593
			c2.201-0.143,4.294-1.009,5.951-2.465l41.652-36.579L297.651,234.124z M237.944,131.478l118.269-41.131
			c5.216-1.814,7.974-7.514,6.16-12.73c-1.814-5.216-7.514-7.976-12.73-6.16l-171.221,59.546c-0.394,0.137-0.773,0.296-1.137,0.476
			h-45.503c-3.438,0-6.813-0.446-10.058-1.311l297.35-100.566v63.019c0,21.426-17.432,38.857-38.857,38.857H237.944z"/>
	</g>
</g>
<g>
</g>
<g>
</g>
<g>
</g>
<g>
</g>
<g>
</g>
<g>
</g>
<g>
</g>
<g>
</g>
<g>
</g>
<g>
</g>
<g>
</g>
<g>
</g>
<g>
</g>
<g>
</g>
<g>
</g>
</svg>
