<?xml version="1.0" encoding="iso-8859-1"?>
<!-- Generator: Adobe Illustrator 19.0.0, SVG Export Plug-In . SVG Version: 6.00 Build 0)  -->
<svg version="1.1" id="Capa_1" xmlns="http://www.w3.org/2000/svg" xmlns:xlink="http://www.w3.org/1999/xlink" x="0px" y="0px"
	 viewBox="0 0 512.001 512.001" style="enable-background:new 0 0 512.001 512.001;" xml:space="preserve">
<g>
	<g>
		<path d="M349.899,169.871c-0.13-0.641-0.32-1.271-0.57-1.88c-0.25-0.601-0.56-1.181-0.92-1.721c-0.37-0.55-0.78-1.06-1.24-1.52
			c-0.47-0.46-0.98-0.88-1.53-1.25c-0.54-0.35-1.12-0.66-1.72-0.91c-0.61-0.25-1.24-0.45-1.87-0.57c-3.25-0.661-6.7,0.41-9.03,2.73
			c-0.46,0.46-0.88,0.97-1.24,1.52c-0.36,0.54-0.67,1.12-0.92,1.721c-0.25,0.609-0.44,1.239-0.57,1.88
			c-0.13,0.639-0.2,1.3-0.2,1.949c0,0.65,0.07,1.31,0.2,1.95c0.13,0.641,0.32,1.271,0.57,1.88c0.25,0.601,0.56,1.181,0.92,1.721
			c0.36,0.55,0.78,1.06,1.24,1.52c1.86,1.861,4.44,2.93,7.07,2.93c0.65,0,1.311-0.06,1.96-0.19c0.63-0.13,1.26-0.32,1.87-0.58
			c0.6-0.25,1.18-0.56,1.72-0.92c0.55-0.36,1.06-0.78,1.53-1.24c0.46-0.46,0.87-0.97,1.24-1.52c0.36-0.54,0.67-1.12,0.92-1.721
			c0.25-0.609,0.44-1.239,0.57-1.88c0.13-0.639,0.19-1.3,0.19-1.95C350.089,171.171,350.029,170.511,349.899,169.871z"/>
	</g>
</g>
<g>
	<g>
		<path d="M181.709,169.872c-0.13-0.641-0.32-1.271-0.57-1.88c-0.25-0.601-0.56-1.181-0.92-1.721c-0.36-0.55-0.78-1.06-1.24-1.52
			c-0.46-0.46-0.97-0.88-1.52-1.25c-0.54-0.35-1.12-0.66-1.73-0.91c-0.6-0.25-1.23-0.45-1.87-0.57c-1.29-0.26-2.62-0.26-3.91,0
			c-0.63,0.12-1.26,0.32-1.87,0.57c-0.6,0.25-1.18,0.559-1.72,0.91c-0.55,0.37-1.06,0.79-1.53,1.25c-0.46,0.46-0.87,0.97-1.24,1.52
			c-0.36,0.54-0.67,1.12-0.92,1.721c-0.25,0.609-0.44,1.239-0.57,1.88c-0.13,0.639-0.19,1.3-0.19,1.949c0,0.65,0.06,1.31,0.19,1.95
			c0.13,0.641,0.32,1.271,0.57,1.88c0.25,0.601,0.56,1.181,0.92,1.721c0.37,0.55,0.78,1.06,1.24,1.52c0.47,0.46,0.98,0.88,1.53,1.24
			c0.54,0.36,1.12,0.67,1.72,0.92c0.61,0.26,1.23,0.45,1.87,0.58c0.65,0.129,1.31,0.189,1.96,0.189c2.631,0,5.21-1.07,7.07-2.929
			c0.46-0.46,0.88-0.97,1.24-1.52c0.36-0.54,0.67-1.12,0.92-1.721c0.25-0.609,0.44-1.239,0.57-1.88c0.13-0.639,0.2-1.3,0.2-1.95
			C181.909,171.172,181.839,170.512,181.709,169.872z"/>
	</g>
</g>
<g>
	<g>
		<path d="M508.814,2.928c-2.874-2.872-7.199-3.718-10.944-2.146L365.281,56.527c-3.069,1.291-5.295,4.024-5.937,7.291
			c-0.642,3.268,0.385,6.64,2.738,8.995l25.211,25.237l-53.892,10.627c-3.622,0.715-6.556,3.366-7.632,6.898
			c-1.075,3.531-0.118,7.368,2.492,9.98l58.035,58.096c1.904,1.906,4.46,2.933,7.076,2.933c0.972,0,1.952-0.142,2.909-0.433
			c3.535-1.075,6.188-4.012,6.902-7.637l10.613-53.934l25.188,25.214c1.894,1.896,4.447,2.933,7.075,2.933
			c0.64,0,1.285-0.062,1.926-0.188c3.271-0.642,6.006-2.87,7.295-5.943L510.967,13.87C512.539,10.124,511.688,5.799,508.814,2.928z
			 M387.183,156.24l-31.532-31.564l39.267-7.744L387.183,156.24z M442.602,125.117L386.742,69.2l96.31-40.492L442.602,125.117z"/>
	</g>
</g>
<g>
	<g>
		<path d="M508.82,422.828l-88.851-88.943c-1.815-1.816-4.26-2.865-6.828-2.929l-69.856-1.72l-73.151-73.22l55.061-55.114
			c3.904-3.907,3.9-10.238-0.006-14.142c-3.908-3.904-10.239-3.901-14.142,0.007l-55.048,55.1l-55.048-55.1
			c-3.903-3.907-10.235-3.909-14.142-0.007c-3.907,3.903-3.91,10.234-0.006,14.142l55.061,55.114l-73.151,73.22l-69.856,1.72
			c-2.568,0.063-5.013,1.112-6.828,2.929l-88.85,88.943c-2.753,2.757-3.656,6.861-2.311,10.519c1.344,3.656,4.69,6.199,8.574,6.516
			l58.143,4.736l4.733,58.213c0.316,3.886,2.861,7.233,6.521,8.577c1.124,0.412,2.289,0.612,3.445,0.612
			c2.609,0,5.167-1.021,7.077-2.934l88.849-88.94c1.813-1.815,2.86-4.258,2.923-6.822l1.718-69.921l73.15-73.219l73.15,73.219
			l1.718,69.921c0.063,2.564,1.109,5.007,2.923,6.822l88.849,88.94c1.909,1.912,4.468,2.934,7.077,2.934
			c1.156,0,2.321-0.2,3.445-0.612c3.66-1.344,6.205-4.691,6.521-8.577l4.733-58.213l58.143-4.736
			c3.883-0.316,7.229-2.859,8.574-6.516C512.476,429.69,511.574,425.585,508.82,422.828z M73.061,424.979l-40.467-3.297
			l20.243-20.264l44.86-1.104L73.061,424.979z M110.715,459.385l-20.216,20.241l-3.293-40.508l24.612-24.635L110.715,459.385z
			 M97.833,380.305l-24.512,0.604l30.029-30.057l44.862-1.104l-30.029,30.056L97.833,380.305z M161.236,408.818l-30.011,30.038
			l0.089-3.627l1.014-41.276l30.011-30.039L161.236,408.818z M350.763,408.818l-1.103-44.904l30.011,30.039l1.014,41.276
			l0.089,3.627L350.763,408.818z M363.787,349.747l44.862,1.104l30.029,30.057l-24.512-0.604l-20.35-0.501L363.787,349.747z
			 M421.501,479.626l-20.216-20.241l-1.103-44.902l24.612,24.635L421.501,479.626z M438.939,424.979l-24.636-24.665l44.86,1.104
			l20.243,20.264L438.939,424.979z"/>
	</g>
</g>
<g>
	<g>
		<path d="M186.23,115.576c-1.076-3.532-4.01-6.184-7.632-6.898L124.706,98.05l25.211-25.237c2.353-2.355,3.379-5.728,2.738-8.995
			c-0.642-3.267-2.868-6-5.937-7.291L14.129,0.783C10.384-0.794,6.058,0.056,3.185,2.928C0.311,5.799-0.539,10.124,1.032,13.87
			l55.687,132.726c1.29,3.073,4.025,5.302,7.295,5.943c0.641,0.126,1.286,0.188,1.926,0.188c2.628,0,5.181-1.037,7.075-2.933
			l25.188-25.214l10.613,53.934c0.713,3.625,3.367,6.562,6.902,7.637c0.958,0.291,1.938,0.433,2.909,0.433
			c2.615,0,5.172-1.027,7.076-2.933l58.035-58.095C186.347,122.944,187.305,119.107,186.23,115.576z M69.397,125.118l-40.45-96.409
			l96.31,40.491L69.397,125.118z M124.817,156.24l-7.735-39.308l39.267,7.743L124.817,156.24z"/>
	</g>
</g>
<g>
</g>
<g>
</g>
<g>
</g>
<g>
</g>
<g>
</g>
<g>
</g>
<g>
</g>
<g>
</g>
<g>
</g>
<g>
</g>
<g>
</g>
<g>
</g>
<g>
</g>
<g>
</g>
<g>
</g>
</svg>
