<?xml version="1.0" encoding="iso-8859-1"?>
<!-- Generator: Adobe Illustrator 19.0.0, SVG Export Plug-In . SVG Version: 6.00 Build 0)  -->
<svg version="1.1" id="Capa_1" xmlns="http://www.w3.org/2000/svg" xmlns:xlink="http://www.w3.org/1999/xlink" x="0px" y="0px"
	 viewBox="0 0 511.999 511.999" style="enable-background:new 0 0 511.999 511.999;" xml:space="preserve">
<g>
	<g>
		<path d="M235.848,347.582c-0.12-0.63-0.319-1.261-0.569-1.87c-0.25-0.601-0.561-1.18-0.921-1.72
			c-0.359-0.551-0.779-1.061-1.239-1.521c-0.46-0.46-0.971-0.88-1.521-1.25c-0.54-0.36-1.12-0.67-1.729-0.92
			c-0.6-0.25-1.23-0.44-1.87-0.57c-1.29-0.26-2.61-0.26-3.9,0c-0.64,0.13-1.269,0.32-1.87,0.57c-0.609,0.25-1.189,0.56-1.729,0.92
			c-0.55,0.37-1.061,0.79-1.521,1.25c-0.46,0.46-0.88,0.97-1.25,1.521c-0.359,0.54-0.67,1.119-0.92,1.72
			c-0.25,0.609-0.439,1.24-0.569,1.87c-0.13,0.649-0.19,1.31-0.19,1.96c0,0.649,0.059,1.309,0.19,1.95
			c0.13,0.64,0.319,1.269,0.569,1.869c0.25,0.61,0.561,1.19,0.92,1.73c0.37,0.55,0.79,1.06,1.25,1.52
			c0.46,0.46,0.971,0.881,1.521,1.24c0.54,0.36,1.12,0.67,1.729,0.92c0.6,0.25,1.23,0.44,1.87,0.57c0.64,0.13,1.3,0.2,1.95,0.2
			c0.651,0,1.31-0.07,1.95-0.2c0.64-0.13,1.269-0.32,1.87-0.57c0.609-0.25,1.189-0.56,1.729-0.92c0.55-0.359,1.061-0.78,1.521-1.24
			c0.46-0.46,0.88-0.97,1.239-1.52c0.36-0.54,0.671-1.12,0.921-1.73c0.25-0.599,0.449-1.229,0.569-1.869
			c0.13-0.64,0.2-1.301,0.2-1.95C236.048,348.892,235.978,348.231,235.848,347.582z"/>
	</g>
</g>
<g>
	<g>
		<path d="M384.961,17.537c-3.473-2.161-7.91-1.987-11.205,0.435l-45.013,33.095L297.901,4.481
			c-2.256-3.409-6.362-5.104-10.367-4.271c-4.005,0.83-7.101,4.015-7.816,8.041l-14.499,81.522
			c-0.449,2.527,0.091,5.131,1.508,7.271l34.432,52.01l-2.655,14.927l-15.078-21.602c-3.16-4.529-9.395-5.638-13.924-2.477
			c-4.528,3.161-5.638,9.396-2.477,13.924l26.526,38.002l-4.496,25.278h-47.197l-3.671-11.897l21.651-40.976
			c2.58-4.884,0.713-10.934-4.17-13.514c-4.886-2.581-10.934-0.713-13.514,4.17l-12.307,23.293l-4.471-14.487l27.775-55.851
			c1.143-2.299,1.358-4.949,0.602-7.402l-24.416-79.119c-1.206-3.908-4.67-6.688-8.746-7.019c-4.065-0.341-7.942,1.853-9.764,5.514
			l-24.878,50.027l-48.742-27.308c-3.567-2-7.993-1.625-11.174,0.946c-3.18,2.57-4.475,6.818-3.27,10.726l24.416,79.121
			c0.757,2.453,2.429,4.521,4.668,5.776l54.418,30.487l4.47,14.486l-23.293-12.307c-4.885-2.579-10.934-0.713-13.514,4.17
			c-2.58,4.884-0.713,10.934,4.17,13.514l40.977,21.65l1.851,5.999h-49.927c-5.522,0-10,4.478-10,10v48.896c0,5.522,4.478,10,10,10
			h10.002v175.691c0,27.739,22.567,50.307,50.307,50.307h64.612c27.739,0,50.307-22.567,50.307-50.307V286.003h10.002
			c5.522,0,10-4.478,10-10v-48.896c0-5.522-4.478-10-10-10h-46.86l3.873-21.775l38.003-26.526c4.528-3.161,5.638-9.396,2.477-13.924
			c-3.161-4.529-9.396-5.639-13.924-2.477l-21.603,15.079l2.655-14.926l50.255-36.949c2.068-1.521,3.473-3.778,3.922-6.306
			l14.499-81.523C390.242,23.753,388.434,19.697,384.961,17.537z M165.112,123.611l-15.863-51.403l32.6,18.264l15.863,51.403
			L165.112,123.611z M216.823,135.979L200.96,84.575l16.639-33.459l15.863,51.404L216.823,135.979z M326.228,461.695
			c0,16.711-13.596,30.307-30.307,30.307h-59.872V389.539c0-5.522-4.478-10-10-10c-5.522,0-10,4.478-10,10v98.332
			c-8.993-5.263-15.047-15.026-15.047-26.177v-132.67h125.226V461.695z M326.228,309.024H201.002v-23.021h125.226V309.024z
			 M346.23,237.107v28.896H181.001v-28.896H346.23z M306.238,120.496L285.61,89.338l9.42-52.965l20.628,31.158L306.238,120.496z
			 M356.036,101.864L325.93,124l9.42-52.965l30.106-22.136L356.036,101.864z"/>
	</g>
</g>
<g>
</g>
<g>
</g>
<g>
</g>
<g>
</g>
<g>
</g>
<g>
</g>
<g>
</g>
<g>
</g>
<g>
</g>
<g>
</g>
<g>
</g>
<g>
</g>
<g>
</g>
<g>
</g>
<g>
</g>
</svg>
