<?xml version="1.0" encoding="iso-8859-1"?>
<!-- Generator: Adobe Illustrator 19.0.0, SVG Export Plug-In . SVG Version: 6.00 Build 0)  -->
<svg version="1.1" id="Capa_1" xmlns="http://www.w3.org/2000/svg" xmlns:xlink="http://www.w3.org/1999/xlink" x="0px" y="0px"
	 viewBox="0 0 512 512" style="enable-background:new 0 0 512 512;" xml:space="preserve">
<g>
	<g>
		<path d="M282.33,350.24c-0.13-0.64-0.32-1.26-0.57-1.87c-0.25-0.6-0.56-1.18-0.92-1.72c-0.36-0.55-0.78-1.06-1.24-1.52
			c-0.46-0.46-0.98-0.88-1.52-1.25c-0.55-0.36-1.13-0.67-1.73-0.92c-0.6-0.25-1.23-0.44-1.87-0.57c-1.29-0.26-2.62-0.26-3.91,0
			c-0.64,0.13-1.27,0.32-1.87,0.57c-0.6,0.25-1.18,0.56-1.73,0.92c-0.54,0.37-1.06,0.79-1.52,1.25c-0.46,0.46-0.88,0.97-1.24,1.52
			c-0.36,0.54-0.67,1.12-0.92,1.72c-0.25,0.61-0.44,1.23-0.57,1.87c-0.13,0.65-0.2,1.31-0.2,1.96c0,2.63,1.07,5.21,2.93,7.07
			c0.46,0.46,0.98,0.88,1.52,1.24c0.55,0.36,1.13,0.67,1.73,0.92c0.6,0.25,1.23,0.44,1.87,0.57c0.65,0.13,1.3,0.2,1.95,0.2
			c0.66,0,1.31-0.07,1.96-0.2c0.64-0.13,1.27-0.32,1.87-0.57c0.6-0.25,1.18-0.56,1.73-0.92c0.54-0.36,1.06-0.78,1.52-1.24
			c1.86-1.86,2.92-4.44,2.92-7.07C282.52,351.55,282.46,350.89,282.33,350.24z"/>
	</g>
</g>
<g>
	<g>
		<path d="M283.043,395.684c-10.697-12.723-25.165-20.452-40.739-21.764c-36.858-3.105-71.16-21.694-96.589-52.346l-0.481-0.583
			c-14.514-17.66-22.507-40.741-22.507-64.99c0-24.249,7.993-47.33,22.507-64.991h0.001l0.484-0.586
			c25.436-30.66,59.736-49.249,96.584-52.342c7.052-0.594,13.871-2.516,20.222-5.608v182.069c0,5.523,4.477,10,10,10s10-4.477,10-10
			V116.905c0.171-0.199,0.349-0.387,0.518-0.588c12.119-14.415,18.075-33.866,16.342-53.368
			c-1.498-16.836-8.665-32.404-20.179-43.834C267.54,7.533,252.447,1.154,236.713,1.154h-12.984
			c-15.61,0-28.434,13.478-28.585,30.045c-0.073,7.991,2.702,15.565,7.826,21.343c5.347,6.006,12.552,9.313,20.288,9.313h13.882
			c3.168,0,5.921,3.042,6.268,6.925c0.226,2.526-0.468,4.972-1.901,6.71c-0.712,0.863-1.914,1.921-3.591,2.063
			c-51.714,4.35-99.572,30.325-134.755,73.141C79.445,179.552,66.385,216.95,66.385,256s13.06,76.448,36.772,105.306
			c35.184,42.816,83.041,68.791,134.765,73.142c3.046,0.253,5.525,3.767,5.525,7.833c0,2.287-0.771,4.461-2.129,5.981
			c-0.764,0.858-2.039,1.882-3.772,1.882h-14.291c-15.503,0-28.115,13.615-28.115,30.351c0,7.875,2.775,15.34,7.828,21.037
			c5.347,6.006,12.552,9.314,20.288,9.314h13.456c15.736,0,30.827-6.378,42.494-17.959c11.514-11.431,18.681-26.998,20.179-43.835
			C301.118,429.55,295.161,410.098,283.043,395.684z M118.611,163.392c31.727-38.608,74.691-62.015,120.986-65.909
			c6.719-0.569,12.875-3.859,17.336-9.265c4.753-5.763,7.083-13.496,6.394-21.216c-1.28-14.335-12.539-25.146-26.189-25.146h-13.882
			c-2.631,0-4.481-1.637-5.337-2.598c-1.792-2.021-2.805-4.891-2.777-7.875c0.051-5.544,3.983-10.229,8.586-10.229h12.984
			c21.799,0,40.577,19.137,42.751,43.565c1.266,14.24-3.009,28.355-11.729,38.727c-7.248,8.621-16.875,13.843-27.106,14.704
			c-42.238,3.545-81.41,24.677-110.299,59.499l-0.547,0.662l0.001-0.001c-15.421,18.764-24.718,42.497-26.67,67.689H86.71
			C88.7,215.242,99.851,186.22,118.611,163.392z M279.464,447.279c-2.174,24.43-20.953,43.566-42.751,43.566h-13.456
			c-2.631,0-4.481-1.637-5.337-2.599c-1.766-1.991-2.778-4.816-2.778-7.752c0-5.611,3.716-10.351,8.115-10.351h14.291
			c7.035,0,13.855-3.129,18.698-8.57c4.646-5.197,7.204-12.049,7.204-19.294c0-14.456-10.484-26.651-23.858-27.763
			c-46.289-3.894-89.253-27.3-120.98-65.909C99.851,325.78,88.7,296.758,86.71,266h16.404c1.952,25.192,11.248,48.924,26.661,67.679
			l0.552,0.669c28.879,34.811,68.05,55.942,110.298,59.502c10.234,0.861,19.861,6.083,27.109,14.704
			C276.454,418.925,280.729,433.041,279.464,447.279z"/>
	</g>
</g>
<g>
	<g>
		<path d="M442.857,405.059l-47.012-49.383v-18.95l21.751,21.751c1.953,1.953,4.512,2.929,7.071,2.929s5.119-0.976,7.071-2.929
			c3.905-3.905,3.905-10.237,0-14.143l-35.894-35.894V172.081c14.378-4.309,24.885-17.663,24.885-33.424
			c0-5.321-1.198-10.368-3.338-14.885h10.84c3.331,0,6.443-1.659,8.301-4.424c1.858-2.765,2.216-6.273,0.957-9.357L395.102,6.219
			C393.566,2.458,389.907,0,385.844,0c-4.063,0-7.721,2.458-9.257,6.219l-42.386,103.772c-1.26,3.084-0.901,6.592,0.957,9.357
			c1.857,2.765,4.97,4.424,8.301,4.424h10.84c-2.14,4.517-3.338,9.564-3.338,14.885c0,15.761,10.507,29.115,24.885,33.424V308.44
			l-35.894,35.894c-3.905,3.905-3.906,10.237,0,14.142c1.953,1.953,4.512,2.929,7.071,2.929c2.559,0,5.119-0.977,7.071-2.929
			l21.752-21.752v18.95l-47.012,49.383c-1.77,1.859-2.757,4.328-2.757,6.895V502c0,4.089,2.49,7.767,6.287,9.285
			c1.205,0.481,2.463,0.715,3.71,0.715c2.686,0,5.32-1.083,7.245-3.105l42.527-44.672l42.527,44.672
			c1.925,2.022,4.559,3.105,7.245,3.105c1.247,0,2.506-0.234,3.71-0.715c3.797-1.519,6.287-5.196,6.287-9.285v-90.046
			C445.614,409.387,444.627,406.918,442.857,405.059z M375.845,445.722l-29.77,31.271v-61.041l29.77-31.271V445.722z
			 M358.345,103.772l27.499-67.326l27.5,67.326H358.345z M385.845,153.542c-8.208,0-14.885-6.677-14.885-14.885
			s6.677-14.885,14.885-14.885s14.885,6.677,14.885,14.885S394.053,153.542,385.845,153.542z M425.614,476.993l-29.77-31.271
			v-61.041l29.77,31.271V476.993z"/>
	</g>
</g>
<g>
</g>
<g>
</g>
<g>
</g>
<g>
</g>
<g>
</g>
<g>
</g>
<g>
</g>
<g>
</g>
<g>
</g>
<g>
</g>
<g>
</g>
<g>
</g>
<g>
</g>
<g>
</g>
<g>
</g>
</svg>
