<?xml version="1.0" encoding="iso-8859-1"?>
<!-- Generator: Adobe Illustrator 19.0.0, SVG Export Plug-In . SVG Version: 6.00 Build 0)  -->
<svg version="1.1" id="Capa_1" xmlns="http://www.w3.org/2000/svg" xmlns:xlink="http://www.w3.org/1999/xlink" x="0px" y="0px"
	 viewBox="0 0 512.003 512.003" style="enable-background:new 0 0 512.003 512.003;" xml:space="preserve">
<g>
	<g>
		<path d="M438.411,81.495c-0.13-0.641-0.32-1.27-0.57-1.87c-0.25-0.61-0.56-1.19-0.92-1.73c-0.37-0.55-0.79-1.06-1.25-1.52
			c-0.46-0.46-0.97-0.88-1.521-1.24c-0.54-0.36-1.119-0.67-1.72-0.92c-0.61-0.25-1.229-0.45-1.87-0.57c-1.29-0.26-2.62-0.26-3.91,0
			c-0.64,0.12-1.269,0.32-1.869,0.57c-0.6,0.25-1.19,0.56-1.73,0.92c-0.55,0.36-1.06,0.78-1.52,1.24
			c-0.461,0.46-0.881,0.97-1.24,1.52c-0.36,0.54-0.67,1.12-0.92,1.73c-0.25,0.599-0.44,1.229-0.57,1.87
			c-0.13,0.639-0.2,1.3-0.2,1.949c0,0.65,0.07,1.31,0.2,1.95c0.13,0.641,0.32,1.271,0.57,1.88c0.25,0.601,0.56,1.181,0.92,1.721
			c0.359,0.55,0.779,1.06,1.24,1.52c0.46,0.46,0.97,0.88,1.52,1.24c0.54,0.359,1.129,0.67,1.73,0.92
			c0.599,0.25,1.229,0.45,1.869,0.57c0.64,0.13,1.301,0.199,1.95,0.199c0.66,0,1.31-0.069,1.96-0.199
			c0.641-0.12,1.26-0.32,1.87-0.57c0.601-0.25,1.18-0.561,1.72-0.92c0.551-0.36,1.061-0.78,1.521-1.24
			c0.46-0.46,0.88-0.97,1.25-1.52c0.36-0.54,0.67-1.12,0.92-1.721c0.25-0.609,0.44-1.239,0.57-1.88
			c0.129-0.639,0.189-1.3,0.189-1.95C438.6,82.795,438.541,82.134,438.411,81.495z"/>
	</g>
</g>
<g>
	<g>
		<path d="M511.999,9.77c0-0.006,0-0.013,0-0.019c-0.002-0.079-0.006-0.157-0.01-0.236V9.512c-0.062-1.106-0.307-2.184-0.716-3.193
			c-0.009-0.023-0.019-0.047-0.029-0.07c-0.019-0.047-0.039-0.093-0.059-0.14c-0.484-1.128-1.159-2.128-1.973-2.974
			c-0.002-0.002-0.004-0.004-0.006-0.006c-0.049-0.051-0.098-0.101-0.148-0.151c-0.017-0.017-0.034-0.034-0.051-0.05
			c-0.036-0.035-0.072-0.07-0.108-0.105c-0.031-0.03-0.063-0.059-0.095-0.089c-0.022-0.021-0.044-0.041-0.067-0.062
			c-0.047-0.043-0.095-0.086-0.144-0.128c-0.007-0.006-0.013-0.012-0.02-0.018c-0.649-0.566-1.379-1.055-2.179-1.445
			c-0.017-0.008-0.034-0.016-0.051-0.025c-0.05-0.024-0.1-0.048-0.151-0.071c-0.053-0.025-0.106-0.048-0.16-0.072
			c-0.016-0.007-0.031-0.014-0.047-0.021c-1.074-0.467-2.233-0.747-3.423-0.814c-0.004,0-0.007,0-0.011-0.001
			c-0.073-0.004-0.146-0.007-0.219-0.01l-0.047-0.001c-0.061-0.002-0.122-0.003-0.183-0.004c-0.028,0-0.056,0-0.084,0
			c-0.048,0-0.095,0-0.143,0.001c-0.042,0-0.084,0.001-0.125,0.002c-0.034,0.001-0.068,0.002-0.102,0.003
			c-0.054,0.002-0.108,0.004-0.163,0.007c-0.023,0.001-0.046,0.002-0.069,0.004c-0.067,0.004-0.134,0.009-0.201,0.014
			c-0.009,0.001-0.018,0.001-0.026,0.002c-0.815,0.067-1.612,0.233-2.376,0.49L349.671,48.017c-2.355,0.749-4.351,2.344-5.6,4.477
			l-34.889,59.585c-3.282-0.803-6.893,0.076-9.458,2.639l-35.522,35.513c-1.876,1.876-2.93,4.42-2.93,7.072
			c0,2.652,1.054,5.196,2.93,7.072l7.144,7.142L2.93,439.863c-1.876,1.876-2.93,4.42-2.93,7.072c0,0.497,0.037,0.991,0.11,1.477
			c0.024,0.162,0.052,0.323,0.084,0.483c0.032,0.16,0.068,0.319,0.108,0.478c0.437,1.739,1.338,3.345,2.627,4.635l0.869,0.869
			c0.016,0.016,0.032,0.031,0.048,0.047l54.102,54.089c1.952,1.952,4.512,2.928,7.07,2.928s5.117-0.976,7.07-2.928l268.42-268.351
			l7.147,7.146c1.953,1.952,4.511,2.928,7.07,2.928s5.118-0.977,7.07-2.928l35.522-35.513c1.876-1.876,2.93-4.42,2.93-7.072
			c0-0.811-0.099-1.611-0.289-2.385l59.6-34.879c2.134-1.249,3.729-3.243,4.479-5.599l47.476-149.211
			c0.136-0.419,0.245-0.847,0.325-1.282c0.001-0.006,0.002-0.012,0.003-0.017c0.013-0.073,0.026-0.146,0.038-0.22
			c0.002-0.015,0.005-0.03,0.007-0.045c0.01-0.064,0.019-0.128,0.028-0.192c0.003-0.023,0.006-0.046,0.009-0.069
			c0.007-0.055,0.014-0.11,0.02-0.165c0.004-0.032,0.007-0.063,0.01-0.095c0.005-0.047,0.009-0.094,0.013-0.141
			c0.004-0.04,0.007-0.08,0.01-0.12c0.003-0.037,0.005-0.074,0.008-0.112c0.003-0.049,0.006-0.097,0.008-0.146
			c0.001-0.03,0.003-0.06,0.004-0.091c0.002-0.056,0.004-0.112,0.005-0.168c0-0.021,0.001-0.043,0.001-0.064
			c0.001-0.065,0.001-0.13,0.001-0.195c0-0.013,0-0.026,0-0.039C512.003,9.915,512.001,9.843,511.999,9.77z M65.019,487.799
			l-30.002-29.994h60.004L65.019,487.799z M115.026,437.806H33.277l28.815-28.808h11.969l69.779,0.001L115.026,437.806z
			 M185.178,367.672l-21.333,21.327h-11.968l-69.78-0.001l28.806-28.798h81.749L185.178,367.672z M212.657,340.2h-81.75
			L285.49,185.658l40.875,40.864L212.657,340.2z M354.727,226.595l-69.311-69.292l21.379-21.372l69.311,69.292L354.727,226.595z
			 M446.144,152.635l-59.513,34.829l-23.965-23.959l44.743-44.731c3.905-3.905,3.906-10.236,0.002-14.143
			c-3.904-3.904-10.236-3.904-14.143-0.002l-44.747,44.735l-23.966-23.959l34.835-59.494l127.22-40.457L446.144,152.635z"/>
	</g>
</g>
<g>
	<g>
		<path d="M288.748,223.263c-3.905-3.904-10.237-3.904-14.143-0.002l-68.861,68.843c-3.905,3.906-3.906,10.237-0.002,14.143
			c1.953,1.953,4.512,2.93,7.072,2.93c2.559,0,5.119-0.976,7.071-2.928l68.861-68.843
			C292.651,233.5,292.652,227.169,288.748,223.263z"/>
	</g>
</g>
<g>
</g>
<g>
</g>
<g>
</g>
<g>
</g>
<g>
</g>
<g>
</g>
<g>
</g>
<g>
</g>
<g>
</g>
<g>
</g>
<g>
</g>
<g>
</g>
<g>
</g>
<g>
</g>
<g>
</g>
</svg>
