<?xml version="1.0" encoding="iso-8859-1"?>
<!-- Generator: Adobe Illustrator 19.0.0, SVG Export Plug-In . SVG Version: 6.00 Build 0)  -->
<svg version="1.1" id="Capa_1" xmlns="http://www.w3.org/2000/svg" xmlns:xlink="http://www.w3.org/1999/xlink" x="0px" y="0px"
	 viewBox="0 0 512 512" style="enable-background:new 0 0 512 512;" xml:space="preserve">
<g>
	<g>
		<path d="M453.294,100.358c0.513-2.828,0.771-5.709,0.771-8.625c0-26.517-21.572-48.089-48.089-48.089
			c-12.456,0-24.236,4.795-33.075,13.175c-6.525-3.896-14-5.974-21.806-5.974c-23.515,0-42.646,19.13-42.646,42.646
			c0,15.714,8.527,29.687,21.544,37.086c-3.498,7.108-5.355,14.975-5.355,23.036c0,26.435,19.496,48.299,45.188,51.708
			c12.919,15.169,32.062,24.101,52.088,24.101c37.683,0,68.34-30.656,68.338-68.338
			C490.252,135.318,475.728,111.962,453.294,100.358z M421.916,209.422c-15.491,0-29.665-7.153-38.893-19.626
			c-1.797-2.429-4.594-3.915-7.613-4.044c-17.254-0.735-30.77-14.852-30.77-32.139c0-7.884,2.879-15.467,8.108-21.354
			c2.402-2.703,3.157-6.493,1.974-9.911c-1.183-3.417-4.118-5.929-7.678-6.571c-10.774-1.94-18.593-11.313-18.593-22.286
			c0-12.487,10.159-22.646,22.646-22.646c6.1,0,11.821,2.39,16.112,6.731c2.111,2.136,5.076,3.213,8.056,2.927
			c2.988-0.282,5.691-1.893,7.363-4.386c5.237-7.81,13.967-12.473,23.352-12.473c15.488,0,28.089,12.601,28.089,28.089
			c0,3.651-0.689,7.2-2.046,10.547c-1.027,2.533-0.972,5.376,0.151,7.868c1.123,2.491,3.218,4.415,5.796,5.322
			c19.311,6.797,32.286,25.128,32.286,45.613C470.256,187.737,448.57,209.422,421.916,209.422z"/>
	</g>
</g>
<g>
	<g>
		<path d="M433.036,129.483c-5.213-1.836-10.919,0.902-12.753,6.112c-1.834,5.21,0.903,10.92,6.112,12.753
			c5.386,1.895,9.004,7.013,9.004,12.735c0,7.435-6.049,13.484-13.485,13.484c-5.522,0-10,4.478-10,10c0,5.522,4.478,10,10,10
			c18.464,0,33.485-15.021,33.485-33.483C455.399,146.89,446.412,134.191,433.036,129.483z"/>
	</g>
</g>
<g>
	<g>
		<path d="M282.956,0c-18.365,0-33.306,14.939-33.306,33.305c0,18.366,14.941,33.306,33.306,33.306s33.306-14.939,33.306-33.305
			C316.262,14.94,301.321,0,282.956,0z M282.956,46.612c-7.337,0-13.306-5.969-13.306-13.306c0-7.337,5.969-13.306,13.306-13.306
			c7.337,0,13.306,5.969,13.306,13.306C296.262,40.643,290.293,46.612,282.956,46.612z"/>
	</g>
</g>
<g>
	<g>
		<path d="M444.752,419.836c-5.522,0-10,4.478-10,10V502c0,5.522,4.478,10,10,10c5.522,0,10-4.478,10-10v-72.164
			C454.752,424.314,450.274,419.836,444.752,419.836z"/>
	</g>
</g>
<g>
	<g>
		<path d="M454.55,393.301c-0.12-0.63-0.32-1.26-0.57-1.87c-0.25-0.6-0.56-1.18-0.92-1.72c-0.359-0.55-0.779-1.061-1.24-1.521
			c-0.46-0.46-0.97-0.88-1.52-1.239c-0.54-0.37-1.12-0.671-1.72-0.921c-0.61-0.25-1.24-0.449-1.87-0.579
			c-1.3-0.261-2.62-0.261-3.91,0c-0.64,0.13-1.269,0.329-1.87,0.579c-0.61,0.25-1.189,0.551-1.729,0.921
			c-0.551,0.359-1.061,0.779-1.521,1.239c-0.46,0.46-0.88,0.971-1.24,1.521c-0.359,0.54-0.67,1.12-0.92,1.72
			c-0.25,0.61-0.439,1.24-0.569,1.87c-0.131,0.65-0.2,1.31-0.2,1.96c0,2.63,1.07,5.21,2.93,7.07c0.46,0.46,0.97,0.88,1.521,1.239
			c0.54,0.36,1.119,0.671,1.729,0.921c0.6,0.25,1.231,0.439,1.87,0.569c0.639,0.13,1.3,0.2,1.95,0.2c0.649,0,1.31-0.071,1.958-0.2
			c0.63-0.13,1.26-0.319,1.87-0.569c0.6-0.25,1.18-0.561,1.72-0.921c0.55-0.359,1.06-0.779,1.52-1.239
			c1.861-1.86,2.931-4.44,2.931-7.07C454.75,394.611,454.68,393.951,454.55,393.301z"/>
	</g>
</g>
<g>
	<g>
		<path d="M444.752,294.991h-80.443c-15.871-27.825-40.812-50.224-71.615-62.683v-31.586h12.113c5.522,0,10-4.478,10-10v-45.556
			c0-5.522-4.478-10-10-10h-14.608V98.822c0-5.522-4.478-10-10-10h-83.896c-5.522,0-10,4.478-10,10v36.345h-14.607
			c-5.522,0-10,4.478-10,10v45.556c0,5.522,4.478,10,10,10h12.112v31.586c-30.804,12.459-55.744,34.857-71.615,62.683H31.748
			c-5.522,0-10,4.478-10,10V502c0,5.522,4.478,10,10,10c5.522,0,10-4.478,10-10V314.991h60.972
			c-6.229,16.25-9.596,33.782-9.596,51.883c0,21.28,4.604,41.505,12.868,59.731H73.485c-5.522,0-10,4.478-10,10V502
			c0,5.522,4.478,10,10,10h329.529c5.522,0,10-4.478,10-10v-65.395c0-5.522-4.478-10-10-10h-32.507
			c8.264-18.226,12.868-38.451,12.868-59.731c0-18.101-3.367-35.632-9.596-51.883h60.972v47.888c0,5.522,4.478,10,10,10
			c5.522,0,10-4.478,10-10v-57.888C454.752,299.469,450.274,294.991,444.752,294.991z M206.302,108.822h63.896v26.345h-63.896
			V108.822z M181.694,180.723v-25.556h113.112v25.556H181.694z M197.095,248.673c4.019-1.399,6.712-5.188,6.712-9.444v-38.506
			h68.887v38.506c0,4.256,2.693,8.045,6.712,9.444c25.362,8.829,46.521,25.311,61.255,46.318H135.84
			C150.574,273.984,171.733,257.502,197.095,248.673z M319.646,359.362c0.226,2.493,0.34,5.002,0.34,7.512
			c0,45.07-36.667,81.737-81.736,81.737c-45.069,0-81.736-36.667-81.736-81.737c0-2.509,0.114-5.018,0.341-7.512H319.646z
			 M161.258,339.362c3.155-8.826,7.827-17.073,13.83-24.371h126.324c6.004,7.299,10.676,15.545,13.831,24.371H161.258z M83.485,492
			v-45.395h33.554c12.228,18.527,28.586,34.099,47.753,45.395H83.485z M113.124,366.874c0-18.299,3.99-35.923,11.269-51.883h26.329
			c-5.939,10.002-10.134,20.977-12.357,32.474c-1.229,6.356-1.852,12.887-1.852,19.409c0,56.099,45.639,101.737,101.736,101.737
			s101.736-45.639,101.736-101.737c0-6.525-0.623-13.056-1.851-19.409c-2.222-11.496-6.417-22.471-12.356-32.474h26.328
			c7.28,15.96,11.27,33.584,11.27,51.883C363.376,435.869,307.245,492,238.25,492S113.124,435.869,113.124,366.874z
			 M393.015,446.605V492h-81.307c19.167-11.295,35.525-26.867,47.753-45.395H393.015z"/>
	</g>
</g>
<g>
</g>
<g>
</g>
<g>
</g>
<g>
</g>
<g>
</g>
<g>
</g>
<g>
</g>
<g>
</g>
<g>
</g>
<g>
</g>
<g>
</g>
<g>
</g>
<g>
</g>
<g>
</g>
<g>
</g>
</svg>
