<svg id="Layer_3" enable-background="new 0 0 64 64" height="512" viewBox="0 0 64 64" width="512" xmlns="http://www.w3.org/2000/svg"><path d="m62.769 16.36-.715-.858c-2.517-3.02-5.502-5.523-8.886-7.468l.279-.14c.33-.165.516-.514.525-.882.011-.369-.21-.729-.53-.911-4.726-2.7-9.858-4.411-15.316-5.093-.543-.066-1.039.31-1.116.851l-1 7c-.061.426.158.844.543 1.036l1.496.748c-1.644 1.49-3.802 2.357-6.049 2.357s-4.405-.867-6.048-2.358l1.496-.748c.385-.192.604-.61.543-1.036l-1-7c-.077-.541-.636-.911-1.176-.843-5.399.675-10.532 2.386-15.312 5.117-.319.183-.513.528-.503.896.011.368.223.701.553.866l.279.14c-3.384 1.945-6.369 4.448-8.886 7.468l-.715.858c-.214.256-.285.603-.19.923.094.32.342.572.661.672l2.709.847c-1.581 3.093-2.411 6.526-2.411 10.015v1.183c0 .364.197.698.516.875.15.083.317.125.484.125.185 0 .368-.051.53-.152l8-5c.134-.084.246-.198.327-.333l.243-.405 1.052 1.754c2.518 4.195 3.848 8.998 3.848 13.892v.244c0 .553.447 1 1 1 .17 0 .338.012.506.021-1.988 4.224-6.237 6.979-10.993 6.979h-1.513c-.404 0-.77.243-.924.617-.155.374-.069.804.217 1.09l2.335 2.335c6.422 6.422 14.959 9.958 24.041 9.958h.662c9.082 0 17.619-3.536 24.041-9.958l2.335-2.335c.286-.286.372-.716.217-1.09-.154-.374-.52-.617-.924-.617h-1.513c-4.756 0-9.005-2.755-10.993-6.979.168-.009.336-.021.506-.021.553 0 1-.447 1-1v-.244c0-4.894 1.33-9.697 3.848-13.892l1.052-1.754.243.404c.081.135.193.25.327.333l8 5c.162.102.345.153.53.153.167 0 .334-.042.484-.125.319-.177.516-.511.516-.875v-1.183c0-3.482-.828-6.909-2.414-10.015l2.712-.847c.319-.1.567-.352.661-.672.095-.321.023-.667-.19-.923zm-23.919-13.235c4.183.622 8.192 1.904 11.984 3.84l-7.834 3.917-4.908-2.454zm-13.7.001.758 5.302-4.908 2.454-7.836-3.918c3.755-1.92 7.764-3.206 11.986-3.838zm-12.137 5.999 7.395 3.698 1.322 1.322-4.169 6.671-13.833-4.324c2.604-3.05 5.727-5.521 9.285-7.367zm-9.003 19.064c.096-3.077.908-6.086 2.347-8.78l5.753 1.798-1.843 3.072zm51.602 22.785-.654.654c-2.074 2.074-4.387 3.82-6.87 5.229l-.635-.423c-2.788-1.859-4.453-4.969-4.453-8.321v-.113h-2v.113c0 3.915 1.905 7.545 5.092 9.793-4.048 1.93-8.49 2.983-13.092 3.077v-5.983h-2v5.984c-4.602-.094-9.044-1.147-13.092-3.077 3.187-2.249 5.092-5.879 5.092-9.794v-.113h-2v.113c0 3.352-1.665 6.462-4.453 8.32l-.635.423c-2.483-1.41-4.796-3.155-6.87-5.229l-.654-.654c5.372-.329 10.077-3.67 12.166-8.615 3.144.885 5.697 3.36 6.586 6.622l.896 3.282c.118.436.513.738.964.738h6c.451 0 .846-.302.965-.736l.896-3.283c.889-3.262 3.442-5.736 6.586-6.622 2.088 4.944 6.794 8.286 12.165 8.615zm-6.479-25.139c-2.581 4.302-4.001 9.199-4.124 14.208-4.743.412-8.809 3.755-10.078 8.411l-.695 2.546h-4.473l-.694-2.545c-1.27-4.657-5.335-8-10.078-8.412-.123-5.009-1.543-9.906-4.124-14.208l-1.601-2.668.808-1.346 3.174.992 1.824 4.559c.152.379.519.628.928.628h9c.409 0 .776-.249.929-.628l2-5-1.857-.743-1.749 4.371h-7.646l-1.56-3.901 4.731-7.569c.247-.395.188-.908-.141-1.237l-1.019-1.019 1.358-.679c2.061 2.151 4.948 3.405 7.954 3.405s5.894-1.254 7.954-3.405l1.358.679-1.019 1.019c-.329.329-.388.842-.141 1.237l4.731 7.569-1.56 3.901h-7.646l-1.748-4.372-1.857.743 2 5c.152.38.519.629.928.629h9c.409 0 .776-.249.929-.628l1.824-4.559 3.174-.992.808 1.346zm10.857 2.354-6.257-3.91-1.843-3.072 5.752-1.798c1.444 2.707 2.251 5.711 2.348 8.78zm-13.552-7.374-4.169-6.671 1.322-1.322 7.395-3.698c3.558 1.847 6.681 4.318 9.286 7.367z"/></svg>