<svg id="Layer_3" enable-background="new 0 0 64 64" height="512" viewBox="0 0 64 64" width="512" xmlns="http://www.w3.org/2000/svg"><path d="m63 38v-6c0-.552-.448-1-1-1h-1v-6.348c0-5.718-3.177-10.859-8.292-13.417l-.261-.13c-.281-.141-.612-.141-.894 0l-.262.13c-4.838 2.419-7.938 7.151-8.26 12.496-1.804-3.421-4.755-6.199-8.493-7.757l-1.538-.641v-6.333h4v3c0 .552.448 1 1 1h6c.552 0 1-.448 1-1v-6c0-.552-.448-1-1-1h-5v-3c0-.552-.448-1-1-1h-6c-.552 0-1 .448-1 1v6 7.333l-1.539.641c-3.739 1.558-6.689 4.336-8.493 7.757-.321-5.345-3.422-10.076-8.26-12.496l-.261-.13c-.281-.141-.612-.141-.894 0l-.262.13c-5.114 2.558-8.291 7.699-8.291 13.417v6.348h-1c-.552 0-1 .448-1 1v6c0 1.302.839 2.402 2 2.816v12.184h-1c-.552 0-1 .448-1 1v4c0 .552.448 1 1 1h1v2h-2v2h62v-2h-2v-2h1c.552 0 1-.448 1-1v-4c0-.552-.448-1-1-1h-1v-12.184c1.161-.414 2-1.514 2-2.816zm-2 0c0 .551-.449 1-1 1h-16c-.551 0-1-.449-1-1v-5h2v3c0 .552.448 1 1 1h4c.552 0 1-.448 1-1v-3h2v3c0 .552.448 1 1 1h4c.552 0 1-.448 1-1v-3h2zm-19 15c-.552 0-1 .448-1 1v4c0 .552.448 1 1 1h1v2h-4v-3c0-3.86-3.14-7-7-7s-7 3.14-7 7v3h-4v-2h1c.552 0 1-.448 1-1v-4c0-.552-.448-1-1-1h-1v-4h22v4zm-11 8h-4v-3c0-2.414 1.721-4.434 4-4.899zm2-7.899c2.279.465 4 2.484 4 4.899v3h-4zm-10-15.101v-3h18v3c0 1.302.839 2.402 2 2.816v2.184h-22v-2.184c1.161-.414 2-1.514 2-2.816zm9-20.366c2.577 3.447 4 7.651 4 11.969v3.397h-8v-3.397c0-4.319 1.423-8.523 4-11.969zm11 29.366h-22v-2h22zm9-31.933c.662 2.315 1 4.703 1 7.133v8.8h-2v-8.8c0-2.43.338-4.819 1-7.133zm7 9.585v6.348h-1c-.552 0-1 .448-1 1v3h-2v-3-9.8c0-2.69-.381-5.335-1.135-7.894 3.212 2.428 5.135 6.21 5.135 10.346zm-8.865-10.346c-.754 2.558-1.135 5.203-1.135 7.894v9.8 3h-2v-3c0-.552-.448-1-1-1h-1v-6.348c0-4.136 1.924-7.918 5.135-10.346zm-7.16 16.694h-.975c-.552 0-1 .448-1 1v1h-3v-3.397c0-3.98-1.099-7.872-3.117-11.261 4.771 2.459 7.855 7.265 8.092 12.658zm.025-24v4h-4v-3-1zm-10-4h4v3 1h-4zm-3.882 15.342c-2.019 3.389-3.118 7.281-3.118 11.261v3.397h-3v-1c0-.552-.448-1-1-1h-.975c.237-5.393 3.321-10.2 8.093-12.658zm-10.118 6.31v6.348h-1c-.552 0-1 .448-1 1v3h-2v-3-9.8c0-2.69-.381-5.335-1.135-7.894 3.212 2.428 5.135 6.21 5.135 10.346zm-7-9.585c.662 2.315 1 4.703 1 7.133v8.8h-2v-8.8c0-2.43.338-4.819 1-7.133zm-7 9.585c0-4.136 1.924-7.919 5.135-10.347-.754 2.559-1.135 5.204-1.135 7.895v9.8 3h-2v-3c0-.552-.448-1-1-1h-1zm-2 8.348h2v3c0 .552.448 1 1 1h4c.552 0 1-.448 1-1v-3h2v3c0 .552.448 1 1 1h4c.552 0 1-.448 1-1v-3h2v5c0 .551-.449 1-1 1h-16c-.551 0-1-.449-1-1zm2 8h14v12h-14zm-2 14h18v2h-18zm2 4h14v2h-14zm54 2h-14v-2h14zm2-4h-18v-2h18zm-16-4v-12h14v12z"/></svg>