<svg id="Layer_3" enable-background="new 0 0 64 64" height="512" viewBox="0 0 64 64" width="512" xmlns="http://www.w3.org/2000/svg"><path d="m62.447 31.105-10-5c-.397-.199-.879-.11-1.181.215-.302.326-.353.812-.124 1.194l2.092 3.486h-14.108c.158-.691.463-1.345.922-1.896l1.759-2.11c1.414-1.697 2.193-3.848 2.193-6.057 0-4.5-3.21-8.368-7.634-9.197l-6.233-1.169c-1.236-.233-2.133-1.313-2.133-2.571 0-.552.449-1 1-1 1.654 0 3-1.346 3-3s-1.346-3-3-3h-1.896c-3.917 0-7.104 3.187-7.104 7.104 0 3.354 2.288 6.207 5.563 6.936l.437.096v15.864h-13.586l-3.707-3.707c-.187-.188-.442-.293-.707-.293h-6c-.404 0-.769.243-.924.617s-.069.804.217 1.09l3.293 3.293-3.293 3.293c-.286.286-.372.716-.217 1.09s.52.617.924.617h6c.265 0 .52-.105.707-.293l3.707-3.707h13.586v15.864l-.438.097c-3.274.728-5.562 3.581-5.562 6.935 0 3.917 3.187 7.104 7.104 7.104h1.896c1.654 0 3-1.346 3-3s-1.346-3-3-3c-.551 0-1-.448-1-1 0-1.258.897-2.338 2.133-2.57l6.233-1.169c4.424-.829 7.634-4.698 7.634-9.198 0-2.209-.779-4.36-2.193-6.058l-1.759-2.11c-.459-.55-.764-1.204-.922-1.896h14.107l-2.091 3.485c-.229.382-.178.868.124 1.194.194.211.462.322.734.322.151 0 .305-.034.447-.105l10-5c.339-.17.553-.516.553-.895s-.214-.725-.553-.895zm-54.861 3.895h-3.172l2.293-2.293c.391-.391.391-1.023 0-1.414l-2.293-2.293h3.172l3 3zm27.469-4c.133-1.324.531-2.607 1.161-3.774l2.012 1.006c-.587.827-.985 1.769-1.14 2.768zm-13.055-22.896c0-2.815 2.29-5.104 5.104-5.104h1.896c.551 0 1 .448 1 1s-.449 1-1 1c-1.654 0-3 1.346-3 3 0 2.22 1.583 4.127 3.765 4.535l6.233 1.169c3.478.652 6.002 3.694 6.002 7.233 0 1.742-.614 3.438-1.729 4.776l-.767.921-2.162-1.081 1.423-1.707c.796-.956 1.235-2.169 1.235-3.414 0-2.493-1.7-4.611-4.133-5.152l-9.87-2.193c-2.353-.524-3.997-2.573-3.997-4.983zm6 7.477 7.434 1.652c1.511.334 2.566 1.651 2.566 3.199 0 .778-.274 1.535-.772 2.133l-1.436 1.723c-1.586 1.904-2.542 4.257-2.748 6.713h-5.044zm0 17.419h5.044c.206 2.456 1.162 4.809 2.748 6.713v.001l1.435 1.722c.499.597.773 1.354.773 2.132 0 1.548-1.055 2.864-2.566 3.199l-7.434 1.652zm14 10.063c0 3.538-2.524 6.58-6.002 7.232l-6.233 1.169c-2.182.409-3.765 2.316-3.765 4.536 0 1.654 1.346 3 3 3 .551 0 1 .448 1 1s-.449 1-1 1h-1.896c-2.814 0-5.104-2.289-5.104-5.104 0-2.41 1.644-4.46 3.997-4.982l9.871-2.193c2.432-.541 4.132-2.659 4.132-5.153 0-1.245-.439-2.458-1.236-3.414l-1.423-1.707 2.162-1.081.767.921c1.116 1.338 1.73 3.034 1.73 4.776zm-3.772-7.295-2.012 1.006c-.63-1.167-1.028-2.45-1.161-3.774h2.033c.155.999.553 1.941 1.14 2.768zm16.397-1.199 1.233-2.055c.19-.316.19-.713 0-1.029l-1.233-2.055 5.139 2.57z"/></svg>