<svg id="Layer_3" enable-background="new 0 0 64 64" height="512" viewBox="0 0 64 64" width="512" xmlns="http://www.w3.org/2000/svg"><path d="m22 11c-7.775 0-13 4.822-13 12 0 9.157 6.863 16 13 16s13-6.843 13-16c0-7.178-5.225-12-13-12zm0 2c6.534 0 10.795 3.758 10.982 9.604l-2.396 2.396h-6.172l-1.707-1.707c-.391-.391-1.023-.391-1.414 0l-1.707 1.707h-6.172l-2.396-2.396c.187-5.846 4.448-9.604 10.982-9.604zm0 24c-5.352 0-9.659-5.617-10.734-11.32l1.027 1.027c.187.188.441.293.707.293h7c.266 0 .52-.105.707-.293l1.293-1.293 1.293 1.293c.187.188.441.293.707.293h7c.266 0 .52-.105.707-.293l1.027-1.027c-1.075 5.703-5.382 11.32-10.734 11.32z"/><path d="m39 38.54v-20.54c0-9.374-7.626-17-17-17s-17 7.626-17 17v20.54c-2.474 1.662-4 4.458-4 7.46v16c0 .553.447 1 1 1h40c.553 0 1-.447 1-1v-16c0-3.002-1.526-5.798-4-7.46zm-32-20.54c0-8.271 6.729-15 15-15s15 6.729 15 15v25h-30zm-4 39h5v4h-5zm33 4v-4h5v4zm5-6h-5v-5h-2v7h-4v2h4v2h-24v-8h4v-2h-4v-2h-2v6h-5v-9c0-1.847.74-3.598 2-4.891v2.891c0 .553.447 1 1 1h32c.553 0 1-.447 1-1v-2.891c1.26 1.293 2 3.044 2 4.891z"/><path d="m17 24c2.243 0 4-1.317 4-3s-1.757-3-4-3-4 1.317-4 3 1.757 3 4 3zm0-4c1.221 0 2 .592 2 1s-.779 1-2 1-2-.592-2-1 .779-1 2-1z"/><path d="m27 24c2.243 0 4-1.317 4-3s-1.757-3-4-3-4 1.317-4 3 1.757 3 4 3zm0-4c1.221 0 2 .592 2 1s-.779 1-2 1-2-.592-2-1 .779-1 2-1z"/><path d="m21 49h2v4h-2z"/><path d="m21 55h2v4h-2z"/><path d="m56 18c-.553 0-1 .447-1 1 0 1.654-1.346 3-3 3h-1v-1c0-.553-.447-1-1-1h-1v-2h-2v2h-1c-.553 0-1 .447-1 1v8c0 .553.447 1 1 1h1v2h-1c-.553 0-1 .447-1 1v29c0 .553.447 1 1 1h4c.553 0 1-.447 1-1v-29c0-.553-.447-1-1-1h-1v-2h1c.553 0 1-.447 1-1v-1h1c1.654 0 3 1.346 3 3 0 .553.447 1 1 1 3.859 0 7-3.141 7-7s-3.141-7-7-7zm-7 43h-2v-27h2zm0-33h-2v-6h2zm7.883 1.922c-.494-2.24-2.496-3.922-4.883-3.922h-1v-2h1c2.387 0 4.389-1.682 4.883-3.922 2.338.418 4.117 2.466 4.117 4.922s-1.779 4.504-4.117 4.922z"/></svg>