<svg id="Layer_3" enable-background="new 0 0 64 64" height="512" viewBox="0 0 64 64" width="512" xmlns="http://www.w3.org/2000/svg"><path d="m62.351 40.063-7.916-2.969c-.32-1.1-.774-2.141-1.34-3.112l2.824-6.589c.161-.375.077-.812-.212-1.101-.29-.289-.727-.374-1.101-.212l-6.589 2.824c-.642-.374-1.316-.696-2.017-.966v-1.938c0-2.414-1.721-4.434-4-4.899v-2.202c2.279-.465 4-2.484 4-4.899v-4c0-2.414-1.721-4.434-4-4.899v-1.101c0-1.654-1.346-3-3-3h-4c-.265 0-.52.105-.707.293l-2.793 2.793-1.793-1.793c-.391-.391-1.023-.391-1.414 0l-27 27 1.414 1.414 20.293-20.293 3.586 3.586-25.293 25.293 1.414 1.414 32-32c.391-.391.391-1.023 0-1.414l-1.793-1.793 2.5-2.5h3.586c.551 0 1 .448 1 1v1.101c-2.279.465-4 2.485-4 4.899v4c0 2.414 1.721 4.434 4 4.899v2.202c-2.279.465-4 2.484-4 4.899v1.939c-.702.27-1.375.592-2.017.966l-6.589-2.824c-.375-.162-.812-.077-1.101.212s-.373.726-.212 1.101l2.824 6.589c-.566.971-1.019 2.012-1.34 3.112l-7.916 2.969c-.39.146-.649.519-.649.936s.259.79.649.937l7.916 2.969c.32 1.1.774 2.141 1.34 3.112l-2.824 6.589c-.161.375-.077.812.212 1.101.191.19.447.292.707.292.133 0 .267-.026.394-.081l6.589-2.824c.971.565 2.012 1.019 3.112 1.34l2.969 7.917c.146.389.519.648.936.648s.79-.259.937-.648l2.969-7.917c1.1-.32 2.141-.774 3.112-1.34l6.589 2.824c.126.055.26.081.393.081.26 0 .516-.102.707-.293.289-.289.373-.726.212-1.101l-2.824-6.589c.566-.971 1.019-2.012 1.34-3.112l7.916-2.969c.39-.146.649-.519.649-.936s-.259-.79-.649-.937zm-37.937-31.063 1.586-1.586 3.586 3.586-1.586 1.586zm6.586.586-3.586-3.586 1.586-1.586 3.586 3.586zm10 43.414c-6.617 0-12-5.383-12-12s5.383-12 12-12 12 5.383 12 12-5.383 12-12 12zm12.096-24.096-1.346 3.141c-.543-.651-1.144-1.252-1.795-1.795zm-15.096-14.904v-4c0-1.302.839-2.402 2-2.816v1.816h2v-1.816c1.161.414 2 1.514 2 2.816v4c0 1.302-.839 2.402-2 2.816v-1.816h-2v1.816c-1.161-.414-2-1.514-2-2.816zm0 12c0-1.302.839-2.402 2-2.816v1.816h2v-1.816c1.161.414 2 1.514 2 2.816v1.332c-.968-.212-1.97-.332-3-.332s-2.032.12-3 .332zm-9.096 2.904 3.142 1.346c-.651.543-1.252 1.144-1.795 1.795zm-6.056 12.096 4.249-1.593c-.059.523-.097 1.054-.097 1.593s.038 1.07.097 1.593zm6.056 12.096 1.346-3.141c.543.651 1.144 1.252 1.795 1.795zm12.096 6.056-1.593-4.25c.523.06 1.054.098 1.593.098s1.07-.038 1.593-.097zm12.096-6.056-3.142-1.346c.651-.543 1.252-1.144 1.795-1.795zm1.807-10.503c.059-.523.097-1.054.097-1.593s-.038-1.07-.097-1.593l4.249 1.593z"/><path d="m49 41c0 4.411-3.589 8-8 8v2c5.514 0 10-4.486 10-10z"/><path d="m50.752 38.778c-.175-.771-.441-1.52-.792-2.224l-1.791.891c.28.562.493 1.16.633 1.776z"/></svg>