<svg id="Layer_3" enable-background="new 0 0 64 64" height="512" viewBox="0 0 64 64" width="512" xmlns="http://www.w3.org/2000/svg"><path d="m25.542 38.921c-2.112 1.207-3.542 3.477-3.542 6.079v4c0 .552.447 1 1 1h18c.553 0 1-.448 1-1v-4c0-2.602-1.43-4.872-3.542-6.079 2.176-.3 4.136-1.508 5.374-3.367.205-.307.224-.702.05-1.026-.174-.325-.513-.528-.882-.528-1.654 0-3-1.346-3-3v-1c0-1.93-.679-3.748-1.921-5.195l1.891-7.562c.104-.411-.063-.842-.417-1.076-.354-.235-.815-.221-1.152.033l-3.113 2.334-2.43-4.049c-.361-.603-1.354-.603-1.715 0l-2.43 4.049-3.113-2.334c-.337-.254-.799-.268-1.152-.033-.354.234-.521.665-.417 1.076l1.891 7.562c-1.243 1.447-1.922 3.265-1.922 5.195v1c0 1.654-1.346 3-3 3-.369 0-.708.203-.882.528s-.155.719.05 1.026c1.238 1.859 3.198 3.067 5.374 3.367zm6.044 9.079h-3.172l7.826-7.826c.781.201 1.482.584 2.067 1.105zm4.414-1.586v1.586h-1.586zm0-12.414c0 2.206-1.794 4-4 4s-4-1.794-4-4v-2c1.634 0 3.087-.788 4-2.003.913 1.215 2.366 2.003 4 2.003zm-12 11c0-2.757 2.243-5 5-5h4.586l-5.586 5.586v-1.586h-2v3.586l-.414.414h-1.586zm16 3h-2v-3.586l1.519-1.519c.301.642.481 1.351.481 2.105zm-11.6-27.2c.226.17.512.234.792.182.277-.055.52-.224.665-.467l2.143-3.571 2.143 3.571c.146.243.388.412.665.467.279.053.566-.012.792-.182l1.747-1.31-1.128 4.51h-8.438l-1.128-4.51zm-2.4 10.2v-1c0-1.495.546-2.898 1.537-4h4.463 4.463c.991 1.102 1.537 2.505 1.537 4v1c0 2.091 1.29 3.886 3.115 4.631-1.024.874-2.337 1.369-3.72 1.369h-.206c.512-.884.811-1.907.811-3v-3c0-.552-.447-1-1-1h-1c-1.654 0-3-1.346-3-3 0-.552-.447-1-1-1s-1 .448-1 1c0 1.654-1.346 3-3 3h-1c-.553 0-1 .448-1 1v3c0 1.093.299 2.116.812 3h-.206c-1.384 0-2.696-.495-3.721-1.369 1.825-.745 3.115-2.54 3.115-4.631z"/><path d="m62 1h-60c-.553 0-1 .448-1 1v60c0 .552.447 1 1 1h60c.553 0 1-.448 1-1v-60c0-.552-.447-1-1-1zm-9.414 9h-41.172l-7-7h55.172zm-.586 2v40h-40v-40zm-42-.586v41.172l-7 7v-55.172zm1.414 42.586h41.172l7 7h-55.172zm42.586-1.414v-41.172l7-7v55.172z"/></svg>