<svg id="Layer_3" enable-background="new 0 0 64 64" height="512" viewBox="0 0 64 64" width="512" xmlns="http://www.w3.org/2000/svg"><path d="m54 56c-2.202 0-4.271.857-5.828 2.414l-.758.758c-1.179 1.179-2.747 1.828-4.414 1.828s-3.235-.649-4.414-1.828l-.758-.758c-1.557-1.557-3.626-2.414-5.828-2.414s-4.271.857-5.828 2.414l-.758.758c-1.179 1.179-2.747 1.828-4.414 1.828s-3.235-.649-4.414-1.828l-.758-.758c-1.557-1.557-3.626-2.414-5.828-2.414s-4.271.857-5.828 2.414l-2.879 2.879 1.414 1.414 2.879-2.879c1.179-1.179 2.747-1.828 4.414-1.828s3.235.649 4.414 1.828l.758.758c1.557 1.557 3.626 2.414 5.828 2.414s4.271-.857 5.828-2.414l.758-.758c1.179-1.179 2.747-1.828 4.414-1.828s3.235.649 4.414 1.828l.758.758c1.557 1.557 3.626 2.414 5.828 2.414s4.271-.857 5.828-2.414l.758-.758c1.179-1.179 2.747-1.828 4.414-1.828s3.235.649 4.414 1.828l2.879 2.879 1.414-1.414-2.879-2.879c-1.557-1.557-3.626-2.414-5.828-2.414z"/><path d="m54 48c-2.202 0-4.271.857-5.828 2.414l-.758.758c-1.179 1.179-2.747 1.828-4.414 1.828s-3.235-.649-4.414-1.828l-.758-.758c-1.557-1.557-3.626-2.414-5.828-2.414s-4.271.857-5.828 2.414l-.758.758c-1.179 1.179-2.747 1.828-4.414 1.828s-3.235-.649-4.414-1.828l-.758-.758c-1.557-1.557-3.626-2.414-5.828-2.414s-4.271.857-5.828 2.414l-2.879 2.879 1.414 1.414 2.879-2.879c1.179-1.179 2.747-1.828 4.414-1.828s3.235.649 4.414 1.828l.758.758c1.557 1.557 3.626 2.414 5.828 2.414s4.271-.857 5.828-2.414l.758-.758c1.179-1.179 2.747-1.828 4.414-1.828s3.235.649 4.414 1.828l.758.758c1.557 1.557 3.626 2.414 5.828 2.414s4.271-.857 5.828-2.414l.758-.758c1.179-1.179 2.747-1.828 4.414-1.828s3.235.649 4.414 1.828l2.879 2.879 1.414-1.414-2.879-2.879c-1.557-1.557-3.626-2.414-5.828-2.414z"/><path d="m55 3h8v-2h-8c-.771 0-1.468.301-2 .78-.532-.479-1.229-.78-2-.78h-10c-.771 0-1.468.301-2 .78-.532-.479-1.229-.78-2-.78h-10c-.771 0-1.468.301-2 .78-.532-.479-1.229-.78-2-.78h-10c-.771 0-1.468.301-2 .78-.532-.479-1.229-.78-2-.78h-8v2h8c.552 0 1 .448 1 1v4c0 .552-.448 1-1 1h-8v2h2v33h-2v2h62v-2h-2v-33h2v-2h-8c-.552 0-1-.448-1-1v-4c0-.552.448-1 1-1zm-14 0h10c.552 0 1 .448 1 1v4c0 .552-.448 1-1 1h-10c-.552 0-1-.448-1-1v-4c0-.552.448-1 1-1zm-14 0h10c.552 0 1 .448 1 1v4c0 .552-.448 1-1 1h-10c-.552 0-1-.448-1-1v-4c0-.552.448-1 1-1zm-14 0h10c.552 0 1 .448 1 1v4c0 .552-.448 1-1 1h-10c-.552 0-1-.448-1-1v-4c0-.552.448-1 1-1zm14 41h-4v-17c0-2.757-2.243-5-5-5s-5 2.243-5 5v17h-4v-17c0-4.963 4.037-9 9-9s9 4.037 9 9zm-6 0h-6v-17c0-1.654 1.346-3 3-3s3 1.346 3 3zm34 0h-4v-17c0-2.757-2.243-5-5-5s-5 2.243-5 5v17h-4v-17c0-4.963 4.037-9 9-9s9 4.037 9 9zm-6 0h-6v-17c0-1.654 1.346-3 3-3s3 1.346 3 3zm6-33h4v33h-2v-17c0-6.065-4.935-11-11-11s-11 4.935-11 11v17h-6v-17c0-6.065-4.935-11-11-11s-11 4.935-11 11v17h-2v-33h4c.771 0 1.468-.301 2-.78.532.48 1.229.78 2 .78h10c.771 0 1.468-.301 2-.78.532.48 1.229.78 2 .78h10c.771 0 1.468-.301 2-.78.532.48 1.229.78 2 .78h10c.771 0 1.468-.301 2-.78.532.479 1.229.78 2 .78z"/></svg>