<svg id="Layer_3" enable-background="new 0 0 64 64" height="512" viewBox="0 0 64 64" width="512" xmlns="http://www.w3.org/2000/svg"><path d="m62 1h-4c-.552 0-1 .447-1 1v1h-7v-1c0-.553-.448-1-1-1h-34c-.552 0-1 .447-1 1v1h-7v-1c0-.553-.448-1-1-1h-4c-.552 0-1 .447-1 1v12c0 .553.448 1 1 1h4c.552 0 1-.447 1-1v-1h7v49c0 .343.175.661.464.845.289.182.652.206.961.061l16.575-7.801 16.574 7.8c.135.064.281.095.426.095.187 0 .373-.053.536-.155.289-.184.464-.502.464-.845v-49h7v1c0 .553.448 1 1 1h4c.552 0 1-.447 1-1v-12c0-.553-.448-1-1-1zm-57 12h-2v-10h2zm2-2v-6h7v6zm41 49.424-15.574-7.329c-.135-.064-.28-.095-.426-.095s-.291.031-.426.095l-15.574 7.329v-57.424h2v9h2v-9h2v15h2v-15h4v4h2v-4h4v9h2v-9h2v15h2v-15h4v4h2v-4h2zm2-49.424v-6h7v6zm11 2h-2v-10h2z"/><path d="m45.335 28.253-7.843 6.971-4.224-13.515c1.02-.481 1.732-1.51 1.732-2.709 0-1.654-1.346-3-3-3s-3 1.346-3 3c0 1.199.712 2.228 1.731 2.708l-4.224 13.515-7.843-6.971c-.324-.289-.795-.335-1.168-.117-.374.218-.565.651-.475 1.074l2.742 12.791h-.763c-.552 0-1 .447-1 1v4c0 .553.448 1 1 1h26c.552 0 1-.447 1-1v-4c0-.553-.448-1-1-1h-.763l2.741-12.79c.09-.423-.101-.856-.475-1.074-.373-.217-.844-.171-1.168.117zm-13.335-10.253c.551 0 1 .448 1 1s-.449 1-1 1-1-.448-1-1 .449-1 1-1zm12 28h-24v-2h24zm-1.809-4h-10.191-10.191l-2.191-10.225 6.718 5.972c.254.226.604.307.932.217.327-.091.585-.342.687-.666l4.045-12.945 4.045 12.945c.102.324.36.575.687.666s.678.009.932-.217l6.718-5.972z"/><path d="m35 38c0-2.243-1.318-4-3-4s-3 1.757-3 4 1.318 4 3 4 3-1.757 3-4zm-3 2c-.408 0-1-.779-1-2s.592-2 1-2 1 .779 1 2-.592 2-1 2z"/></svg>