<svg id="Layer_3" enable-background="new 0 0 64 64" height="512" viewBox="0 0 64 64" width="512" xmlns="http://www.w3.org/2000/svg"><path d="m39.414 15 6.293-6.293c.391-.391.391-1.023 0-1.414l-6-6c-.391-.391-1.023-.391-1.414 0l-6.293 6.293-6.293-6.293c-.391-.391-1.023-.391-1.414 0l-6 6c-.391.391-.391 1.023 0 1.414l6.293 6.293-6.293 6.293c-.391.391-.391 1.023 0 1.414l6 6c.391.391 1.023.391 1.414 0l3.293-3.293v15.586h-1c-.553 0-1 .448-1 1v20c0 .552.447 1 1 1h8c.553 0 1-.448 1-1v-3h7c.553 0 1-.448 1-1v-4c0-.552-.447-1-1-1h-7v-2h7c.553 0 1-.448 1-1v-4c0-.552-.447-1-1-1h-7v-3c0-.552-.447-1-1-1h-1v-15.586l3.293 3.293c.391.391 1.023.391 1.414 0l6-6c.391-.391.391-1.023 0-1.414zm3.586 40v2h-6v-2zm0-8v2h-6v-2zm-8 14h-6v-18h6zm4-34.414-4.293-4.293c-.286-.286-.715-.37-1.09-.217-.374.155-.617.52-.617.924v18h-2v-18c0-.404-.243-.769-.617-.924-.373-.154-.803-.069-1.09.217l-4.293 4.293-4.586-4.586 6.293-6.293c.195-.195.293-.451.293-.707s-.098-.512-.293-.707l-6.293-6.293 4.586-4.586 6.293 6.293c.195.195.451.293.707.293s.512-.098.707-.293l6.293-6.293 4.586 4.586-6.293 6.293c-.195.195-.293.451-.293.707s.098.512.293.707l6.293 6.293z"/><path d="m32 20c2.757 0 5-2.243 5-5s-2.243-5-5-5-5 2.243-5 5 2.243 5 5 5zm0-8c1.654 0 3 1.346 3 3s-1.346 3-3 3-3-1.346-3-3 1.346-3 3-3z"/></svg>