<svg id="Layer_3" enable-background="new 0 0 64 64" height="512" viewBox="0 0 64 64" width="512" xmlns="http://www.w3.org/2000/svg"><path d="m53 15h-15v-9c0-.552-.448-1-1-1h-21v-1c0-1.654-1.346-3-3-3s-3 1.346-3 3v58c0 .552.448 1 1 1h4c.552 0 1-.448 1-1v-39h10v9c0 .552.448 1 1 1h26c.552 0 1-.448 1-1v-16c0-.552-.448-1-1-1zm-39 46h-2v-57c0-.551.449-1 1-1s1 .449 1 1zm2-54h20v14h-20zm18.586 16-6.586 6.586v-6.586zm17.414 8h-22.586l8.293-8.293c.181-.181.293-.431.293-.707v-5h14z"/><path d="m31.707 14.707-1.414-1.414-1.293 1.293-1.586-1.586 3.293-3.293-1.414-1.414-3.293 3.293-3.293-3.293-1.414 1.414 3.293 3.293-1.586 1.586-1.293-1.293-1.414 1.414 1.293 1.293-2.293 2.293 1.414 1.414 2.293-2.293 1.293 1.293 1.414-1.414-1.293-1.293 1.586-1.586 1.586 1.586-1.293 1.293 1.414 1.414 1.293-1.293 2.293 2.293 1.414-1.414-2.293-2.293z"/></svg>