<svg id="Layer_3" enable-background="new 0 0 64 64" height="512" viewBox="0 0 64 64" width="512" xmlns="http://www.w3.org/2000/svg"><path d="m34 20h7v2h-7z"/><path d="m23 20h7v2h-7z"/><path d="m31 25h2v4h-2z"/><path d="m27.5 23c-.827 0-1.5.673-1.5 1.5s.673 1.5 1.5 1.5 1.5-.673 1.5-1.5-.673-1.5-1.5-1.5z"/><path d="m36.5 23c-.827 0-1.5.673-1.5 1.5s.673 1.5 1.5 1.5 1.5-.673 1.5-1.5-.673-1.5-1.5-1.5z"/><path d="m49.508 38.899c-.56-1.502-1.577-2.814-2.953-3.731-.417-.279-.977-.204-1.307.173l-1.452 1.659h-2.017c2.398-2.345 3.946-5.542 4.175-9.096 2.302-.448 4.046-2.474 4.046-4.904 0-2.414-1.721-4.434-4-4.899v-1.101h1c.552 0 1-.448 1-1v-4c0-.552-.448-1-1-1h-.895l.89-8.9c.039-.385-.148-.757-.48-.957s-.749-.189-1.07.025l-2.068 1.378c-1.239-.995-2.777-1.546-4.377-1.546h-14c-1.6 0-3.137.551-4.378 1.546l-2.068-1.378c-.322-.213-.738-.224-1.07-.025s-.519.572-.48.957l.89 8.9h-.894c-.552 0-1 .448-1 1v4c0 .552.448 1 1 1h1v1.101c-2.279.465-4 2.484-4 4.899 0 2.43 1.744 4.456 4.046 4.904.229 3.554 1.777 6.751 4.175 9.096h-2.017l-1.451-1.659c-.33-.376-.89-.452-1.307-.173-1.375.917-2.392 2.229-2.953 3.731-2.187 1.699-3.493 4.323-3.493 7.101v16c0 .552.448 1 1 1h40c.552 0 1-.448 1-1v-16c0-2.778-1.306-5.401-3.492-7.101zm-1.508-15.899c0 1.302-.839 2.402-2 2.816v-5.631c1.161.413 2 1.513 2 2.815zm-2-8h-28v-2h28zm-4.398-11.27-4.409 2.939-3.058-3.669h4.865c.926 0 1.824.255 2.602.73zm-16.602-.73h4.865l-3.058 3.669-4.409-2.939c.779-.475 1.676-.73 2.602-.73zm-5.794 1.005 7.24 4.827c.425.284.996.202 1.323-.192l4.231-5.078 4.232 5.078c.327.394.898.476 1.323.192l7.24-4.827-.7 6.995h-24.19zm24.794 12.995v9h-.362c-2.003 0-3.807 1.189-4.596 3.03l-1.494 3.486c-3.359-1.987-7.736-1.987-11.096 0l-1.494-3.486c-.789-1.841-2.593-3.03-4.596-3.03h-.362v-9zm-28 6c0-1.302.839-2.402 2-2.816v5.631c-1.161-.413-2-1.513-2-2.815zm4.051 5h.312c1.202 0 2.284.714 2.758 1.818l1.961 4.576c.117.273.349.48.634.564.287.086.593.039.84-.126l.504-.336c2.937-1.957 6.946-1.957 9.883 0l.504.336c.164.111.358.168.553.168.096 0 .191-.014.285-.042.285-.084.517-.292.634-.564l1.961-4.576c.474-1.104 1.556-1.818 2.758-1.818h.312c-.512 6.149-5.671 11-11.95 11s-11.438-4.851-11.949-11zm15.656 12.486c-.592 1.47-2.027 2.514-3.707 2.514s-3.115-1.044-3.707-2.514c1.183.326 2.422.514 3.707.514s2.524-.188 3.707-.514zm-10.881-1.486c.392.235.795.451 1.21.648.325 3.005 2.874 5.352 5.964 5.352s5.639-2.347 5.964-5.352c.415-.197.818-.412 1.21-.648h2.872l-1.987 2.271c-1.328 1.517-2.059 3.463-2.059 5.48 0 2.263-1.22 4.366-3.185 5.489l-2.815 1.608-2.815-1.608c-1.965-1.123-3.185-3.226-3.185-5.489 0-2.017-.731-3.963-2.059-5.48l-1.987-2.271zm-8.826 2.605c0-1.629.686-3.159 1.869-4.237l4.567 5.22c1.008 1.153 1.564 2.631 1.564 4.163 0 2.979 1.606 5.748 4.193 7.225l3.311 1.892c.308.176.685.176.992 0l3.311-1.892c2.587-1.477 4.193-4.246 4.193-7.225 0-1.532.556-3.01 1.564-4.163l4.567-5.22c1.183 1.078 1.869 2.609 1.869 4.237v1.945l-1.034.918c-5.001 4.447-8.681 10.158-10.691 16.532h-8.55c-2.01-6.375-5.691-12.085-10.692-16.531l-1.033-.918zm-3 4.395c0-1.276.362-2.507 1-3.578v1.578c0 .286.122.558.336.748l1.369 1.217c4.572 4.064 7.97 9.249 9.911 15.036h-12.616zm38 15h-12.615c1.94-5.786 5.338-10.972 9.91-15.036l1.369-1.217c.214-.189.336-.461.336-.747v-1.577c.638 1.071 1 2.302 1 3.577z"/><path d="m31 7h2v2h-2z"/><path d="m30 35h4v2h-4z"/><path d="m29 49c0 2.243 1.318 4 3 4s3-1.757 3-4-1.318-4-3-4-3 1.757-3 4zm3-2c.408 0 1 .779 1 2s-.592 2-1 2-1-.779-1-2 .592-2 1-2z"/><path d="m31 57h2v2h-2z"/><path d="m18 41h2v2h-2z"/><path d="m44 41h2v2h-2z"/></svg>