<svg id="Layer_3" enable-background="new 0 0 64 64" height="512" viewBox="0 0 64 64" width="512" xmlns="http://www.w3.org/2000/svg"><path d="m62 41h-3.695c2.834-1.992 4.695-5.28 4.695-9 0-6.065-4.935-11-11-11-1.743 0-3.449.434-4.989 1.22-.649-.334-1.334-.602-2.049-.803-.381-5.638-4.113-10.521-9.534-12.328l-2.428-.81v-3.279h2v-2h-2v-2h-2v2h-2v2h2v3.279l-2.428.809c-5.422 1.807-9.153 6.691-9.534 12.328-.715.201-1.4.469-2.049.803-1.54-.785-3.246-1.219-4.989-1.219-6.065 0-11 4.935-11 11 0 3.72 1.861 7.008 4.695 9h-3.695c-.553 0-1 .448-1 1v4c0 .552.447 1 1 1h1v15c0 .552.447 1 1 1h56c.553 0 1-.448 1-1v-15h1c.553 0 1-.448 1-1v-4c0-.552-.447-1-1-1zm-10-18c4.963 0 9 4.038 9 9s-4.037 9-9 9h-3.695c2.834-1.992 4.695-5.28 4.695-9 0-3.404-1.555-6.451-3.991-8.471.957-.337 1.965-.529 2.991-.529zm-31 .059v8.941c0 3.72 1.861 7.008 4.695 9h-3.695c-4.963 0-9-4.038-9-9 0-4.624 3.507-8.442 8-8.941zm11-12.617c3.071 3.21 4.814 7.356 4.969 11.787-2.186 1.13-3.942 2.97-4.969 5.215-1.027-2.245-2.783-4.085-4.969-5.215.155-4.431 1.898-8.577 4.969-11.787zm9 12.617v8.941c0 4.624-3.507 8.442-8 8.941v-8.941c0-4.624 3.507-8.442 8-8.941zm-10 8.941v8.941c-4.493-.5-8-4.317-8-8.941v-8.941c4.493.499 8 4.317 8 8.941zm12 0v-8.941c4.493.5 8 4.317 8 8.941 0 4.962-4.037 9-9 9h-3.695c2.834-1.992 4.695-5.28 4.695-9zm-.081-10.953c-.304-.026-.609-.047-.919-.047-1.066 0-2.094.16-3.069.444-.264-3.758-1.565-7.304-3.766-10.319 4.284 1.586 7.259 5.435 7.754 9.922zm-14.084-9.921c-2.2 3.015-3.502 6.561-3.766 10.319-.975-.285-2.003-.445-3.069-.445-.31 0-.615.021-.919.047.495-4.487 3.47-8.336 7.754-9.921zm-25.835 20.874c0-4.962 4.037-9 9-9 1.026 0 2.034.192 2.991.529-2.436 2.02-3.991 5.067-3.991 8.471 0 3.72 1.861 7.008 4.695 9h-3.695c-4.963 0-9-4.038-9-9zm14 29h-8v-6c0-2.206 1.794-4 4-4s4 1.794 4 4zm19 0h-8v-6c0-2.206 1.794-4 4-4s4 1.794 4 4zm19 0h-8v-6c0-2.206 1.794-4 4-4s4 1.794 4 4zm4 0h-2v-6c0-3.309-2.691-6-6-6s-6 2.691-6 6v6h-2v-8h-2v8h-3v-6c0-3.309-2.691-6-6-6s-6 2.691-6 6v6h-3v-8h-2v8h-2v-6c0-3.309-2.691-6-6-6s-6 2.691-6 6v6h-2v-14h54zm2-16h-58v-2h9 10 10 10 10 9z"/><path d="m41 49h2v2h-2z"/><path d="m21 49h2v2h-2z"/></svg>