<svg id="Layer_3" enable-background="new 0 0 64 64" height="512" viewBox="0 0 64 64" width="512" xmlns="http://www.w3.org/2000/svg"><path d="m61.672 55.258-23.156-23.156c1.568-2.667 2.484-5.761 2.484-9.073 0-4.8-1.869-9.312-5.264-12.707l-4.059-4.059c-3.394-3.394-7.906-5.263-12.706-5.263-9.909 0-17.971 8.062-17.971 17.971 0 4.8 1.869 9.312 5.264 12.707l4.059 4.059c3.394 3.394 7.906 5.263 12.706 5.263 3.311 0 6.406-.916 9.072-2.484l23.156 23.156c.857.856 1.996 1.328 3.208 1.328 2.501 0 4.535-2.034 4.535-4.535 0-1.212-.472-2.351-1.328-3.207zm-25.314-41.03-22.13 22.13c-.789-.523-1.53-1.129-2.228-1.797v-7.561h9c.553 0 1-.447 1-1v-9h9c.553 0 1-.447 1-1v-6.586l2.322 2.322c.77.77 1.448 1.605 2.036 2.492zm-17.387-11.228c2.466 0 4.839.572 6.992 1.623l-21.34 21.34c-1.051-2.153-1.623-4.526-1.623-6.992 0-8.807 7.164-15.971 15.971-15.971zm-13.329 24.772 22.065-22.065-.261-.261c.908.571 1.763 1.235 2.554 1.993v7.561h-9c-.553 0-1 .447-1 1v9h-9c-.553 0-1 .447-1 1v6.586l-2.322-2.322c-.77-.77-1.448-1.605-2.036-2.492zm10.395 9.605 21.34-21.34c1.051 2.153 1.623 4.526 1.623 6.992 0 8.807-7.164 15.971-15.971 15.971-2.466 0-4.839-.572-6.992-1.623zm42.428 23.623c-.678 0-1.314-.264-1.793-.742l-22.875-22.875c1.358-1.022 2.564-2.228 3.586-3.586l22.875 22.875c.478.478.742 1.115.742 1.793 0 1.397-1.138 2.535-2.535 2.535z"/><path d="m45 15c2.206 0 4-1.794 4-4v-8h4v-2h-5c-.553 0-1 .447-1 1v5.556c-.591-.344-1.268-.556-2-.556-2.206 0-4 1.794-4 4s1.794 4 4 4zm0-6c1.103 0 2 .897 2 2s-.897 2-2 2-2-.897-2-2 .897-2 2-2z"/><path d="m18 43h-10c-.553 0-1 .447-1 1v7.556c-.591-.344-1.268-.556-2-.556-2.206 0-4 1.794-4 4s1.794 4 4 4 4-1.794 4-4v-10h8v4.556c-.591-.344-1.268-.556-2-.556-2.206 0-4 1.794-4 4s1.794 4 4 4 4-1.794 4-4v-9c0-.553-.447-1-1-1zm-13 14c-1.103 0-2-.897-2-2s.897-2 2-2 2 .897 2 2-.897 2-2 2zm10-2c-1.103 0-2-.897-2-2s.897-2 2-2 2 .897 2 2-.897 2-2 2z"/></svg>