<svg id="Layer_3" enable-background="new 0 0 64 64" height="512" viewBox="0 0 64 64" width="512" xmlns="http://www.w3.org/2000/svg"><path d="m23 33c0-1.654-1.346-3-3-3s-3 1.346-3 3 1.346 3 3 3 3-1.346 3-3zm-3 1c-.552 0-1-.449-1-1s.448-1 1-1 1 .449 1 1-.448 1-1 1z"/><path d="m18 27c0-1.654-1.346-3-3-3s-3 1.346-3 3 1.346 3 3 3 3-1.346 3-3zm-3 1c-.552 0-1-.449-1-1s.448-1 1-1 1 .449 1 1-.448 1-1 1z"/><path d="m15 20c0-1.654-1.346-3-3-3s-3 1.346-3 3 1.346 3 3 3 3-1.346 3-3zm-4 0c0-.551.448-1 1-1s1 .449 1 1-.448 1-1 1-1-.449-1-1z"/><path d="m15 16c1.654 0 3-1.346 3-3s-1.346-3-3-3-3 1.346-3 3 1.346 3 3 3zm0-4c.552 0 1 .449 1 1s-.448 1-1 1-1-.449-1-1 .448-1 1-1z"/><path d="m20 10c1.654 0 3-1.346 3-3s-1.346-3-3-3-3 1.346-3 3 1.346 3 3 3zm0-4c.552 0 1 .449 1 1s-.448 1-1 1-1-.449-1-1 .448-1 1-1z"/><path d="m27 7c1.654 0 3-1.346 3-3s-1.346-3-3-3-3 1.346-3 3 1.346 3 3 3zm0-4c.552 0 1 .449 1 1s-.448 1-1 1-1-.449-1-1 .448-1 1-1z"/><path d="m39 36c-1.427 0-2.62 1.004-2.922 2.341-1.79.86-3.205 2.246-4.078 3.945-.873-1.699-2.288-3.085-4.078-3.945-.302-1.337-1.495-2.341-2.922-2.341-1.654 0-3 1.346-3 3s1.346 3 3 3c1.136 0 2.115-.642 2.624-1.576 2.079 1.242 3.376 3.478 3.376 5.961v.615h-2c-.266 0-.52.105-.707.293l-3 3c-.188.187-.293.442-.293.707v8c0 .265.105.52.293.707l3 3c.187.188.441.293.707.293h6c.266 0 .52-.105.707-.293l3-3c.188-.187.293-.442.293-.707v-8c0-.265-.105-.52-.293-.707l-3-3c-.187-.188-.441-.293-.707-.293h-2v-.615c0-2.484 1.297-4.719 3.376-5.961.509.934 1.488 1.576 2.624 1.576 1.654 0 3-1.346 3-3s-1.346-3-3-3zm-14 4c-.552 0-1-.449-1-1s.448-1 1-1 1 .449 1 1-.448 1-1 1zm4.756 12.302-2.186-1.458 1.093-1.093zm.441 2.698-3.197 2.132v-4.263zm-.441 2.698-1.093 2.551-1.093-1.093zm2.244-.16 1.484 3.462h-2.967zm2.244.16 2.186 1.458-1.093 1.093zm-.441-2.698 3.197-2.132v4.263zm.441-2.698 1.093-2.551 1.093 1.093zm-2.244.16-1.484-3.462h2.967zm7-12.462c-.552 0-1-.449-1-1s.448-1 1-1 1 .449 1 1-.448 1-1 1z"/><path d="m44 30c-1.654 0-3 1.346-3 3s1.346 3 3 3 3-1.346 3-3-1.346-3-3-3zm0 4c-.552 0-1-.449-1-1s.448-1 1-1 1 .449 1 1-.448 1-1 1z"/><path d="m49 24c-1.654 0-3 1.346-3 3s1.346 3 3 3 3-1.346 3-3-1.346-3-3-3zm0 4c-.552 0-1-.449-1-1s.448-1 1-1 1 .449 1 1-.448 1-1 1z"/><path d="m52 17c-1.654 0-3 1.346-3 3s1.346 3 3 3 3-1.346 3-3-1.346-3-3-3zm0 4c-.552 0-1-.449-1-1s.448-1 1-1 1 .449 1 1-.448 1-1 1z"/><path d="m46 13c0 1.654 1.346 3 3 3s3-1.346 3-3-1.346-3-3-3-3 1.346-3 3zm3-1c.552 0 1 .449 1 1s-.448 1-1 1-1-.449-1-1 .448-1 1-1z"/><path d="m44 10c1.654 0 3-1.346 3-3s-1.346-3-3-3-3 1.346-3 3 1.346 3 3 3zm0-4c.552 0 1 .449 1 1s-.448 1-1 1-1-.449-1-1 .448-1 1-1z"/><path d="m37 7c1.654 0 3-1.346 3-3s-1.346-3-3-3-3 1.346-3 3 1.346 3 3 3zm0-4c.552 0 1 .449 1 1s-.448 1-1 1-1-.449-1-1 .448-1 1-1z"/></svg>