<svg id="Layer_3" enable-background="new 0 0 64 64" height="512" viewBox="0 0 64 64" width="512" xmlns="http://www.w3.org/2000/svg"><path d="m34 20h7v2h-7z"/><path d="m23 20h7v2h-7z"/><path d="m31 25h2v4h-2z"/><path d="m29 24.5c0-.827-.673-1.5-1.5-1.5s-1.5.673-1.5 1.5.673 1.5 1.5 1.5 1.5-.673 1.5-1.5z"/><path d="m38 24.5c0-.827-.673-1.5-1.5-1.5s-1.5.673-1.5 1.5.673 1.5 1.5 1.5 1.5-.673 1.5-1.5z"/><path d="m32 35c-2.757 0-5-2.243-5-5h-2c0 3.86 3.14 7 7 7s7-3.14 7-7h-2c0 2.757-2.243 5-5 5z"/><path d="m53.994 40.752-.1-.199c-.133-.266-.378-.459-.668-.527-.291-.068-.595-.002-.832.179l-.971.74c-.412-.603-.888-1.146-1.423-1.624v-20.321c0-4.983-2.037-9.497-5.319-12.759l.314-3.141c.041-.407-.17-.797-.533-.986-.362-.19-.803-.139-1.113.127l-1.79 1.535c-2.774-1.749-6.045-2.776-9.559-2.776s-6.785 1.027-9.559 2.775l-1.79-1.535c-.311-.266-.752-.316-1.113-.127-.362.189-.573.58-.533.986l.314 3.141c-3.282 3.263-5.319 7.777-5.319 12.76v20.32c-.535.479-1.011 1.022-1.423 1.624l-.971-.74c-.236-.181-.543-.247-.832-.179-.29.067-.535.261-.668.527l-.1.199c-1.312 2.625-2.006 5.563-2.006 8.498v.751c0 .373.207.714.538.887l1.462.763v11.35h2v-10.307l19.538 10.194c.144.075.303.113.462.113s.318-.038.462-.113l19.538-10.194v10.307h2v-11.35l1.462-.763c.331-.173.538-.514.538-.887v-.751c0-2.935-.694-5.873-2.006-8.497zm-29.168-1.752c2.101 1.261 4.55 2 7.174 2s5.073-.739 7.174-2h.371c-1.239 2.76-3.587 4.928-6.469 5.915l-.181-.362c-.339-.678-1.45-.678-1.789 0l-.181.362c-2.883-.988-5.231-3.155-6.469-5.915zm6.174 10.236 1-2 1 2v2.461l-1 1.5-1-1.5zm3.832 3.319c.109-.164.168-.358.168-.555v-3c0-.155-.036-.309-.105-.447l-.923-1.846c3.567-1.307 6.409-4.144 7.724-7.707h2.304c2.352 0 4.543 1.205 5.833 3.156l-16.397 12.492zm9.168-15.555h-2.221c1.431-1.4 2.555-3.105 3.284-5.006 1.105-.014 2.115-.397 2.937-1.019v6.989c-1.228-.612-2.589-.964-4-.964zm2-10v-2.816c1.161.414 2 1.514 2 2.816 0 1.416-.988 2.598-2.309 2.912.2-.94.309-1.913.309-2.912zm-26-13h24v2h-24zm1.905-2-.496-4.96c.292-.258.592-.505.902-.742l4.039 3.462c.204.174.471.261.734.237.267-.022.513-.151.685-.356l4.231-5.079 4.232 5.078c.171.206.418.334.685.356.268.023.531-.063.734-.237l4.039-3.462c.31.237.61.484.902.742l-.497 4.961zm15.214-4.419-3.76-4.512c2.39.202 4.628.933 6.605 2.074zm-6.478-4.512-3.76 4.512-2.844-2.438c1.976-1.141 4.214-1.872 6.604-2.074zm-11.054 5.854.308 3.077h-.895c-.552 0-1 .448-1 1v4c0 .552.448 1 1 1h26c.552 0 1-.448 1-1v-4c0-.552-.448-1-1-1h-.895l.308-3.077c2.239 2.754 3.587 6.26 3.587 10.077v4.026c-.584-.442-1.257-.773-2-.924v-2.102h-2v7c0 6.617-5.383 12-12 12s-12-5.383-12-12v-7h-2v2.101c-.743.152-1.416.482-2 .924v-4.025c0-3.817 1.348-7.323 3.587-10.077zm-1.278 20.989c-1.321-.314-2.309-1.496-2.309-2.912 0-1.302.839-2.402 2-2.816v2.816c0 .999.109 1.972.309 2.912zm-2.309 1.062c.822.622 1.832 1.005 2.937 1.019.73 1.901 1.853 3.607 3.284 5.006h-2.221c-1.411 0-2.772.352-4 .963zm4 8.026h2.304c1.315 3.563 4.157 6.4 7.724 7.707l-.923 1.846c-.069.138-.105.292-.105.447v3c0 .197.059.391.168.555l1.396 2.094-16.397-12.493c1.29-1.951 3.481-3.156 5.833-3.156zm34 10.394-22 11.478-22-11.478v-.145c0-2.295.474-4.593 1.378-6.704l20.016 15.25c.357.272.854.272 1.212 0l20.016-15.25c.904 2.111 1.378 4.409 1.378 6.704z"/><path d="m31 8h2v2h-2z"/></svg>