<svg id="Layer_3" enable-background="new 0 0 64 64" height="512" viewBox="0 0 64 64" width="512" xmlns="http://www.w3.org/2000/svg"><path d="m29.709 35.268c.182-.386.291-.813.291-1.268 0-1.654-1.346-3-3-3l1.8-2.4c.093-.124.156-.268.184-.421l2-11c.075-.414-.117-.831-.48-1.043-.363-.21-.82-.173-1.144.096l-5.03 4.192-2.435-4.871c-.339-.678-1.45-.678-1.789 0l-2.435 4.871-5.03-4.192c-.324-.27-.781-.307-1.144-.096-.363.212-.555.629-.48 1.043l2 11c.028.153.091.297.184.421l1.799 2.4c-1.654 0-3 1.346-3 3 0 .455.109.882.291 1.268-6.427 1.266-11.291 6.939-11.291 13.732 0 7.72 6.28 14 14 14h12c7.72 0 14-6.28 14-14 0-6.793-4.864-12.466-11.291-13.732zm-14.768-7.679-1.464-8.057 3.883 3.236c.234.195.548.274.845.21.299-.062.553-.258.69-.531l2.105-4.211 2.105 4.211c.137.273.391.469.69.531.299.064.61-.015.845-.21l3.883-3.236-1.464 8.057-2.559 3.411h-2.023l1.452-3.629-1.857-.742-1.072 2.678-1.071-2.678-1.857.742 1.451 3.629h-2.023zm-.941 6.411c0-.552.449-1 1-1h12c.551 0 1 .448 1 1s-.449 1-1 1h-12c-.551 0-1-.448-1-1zm13 27h-12c-6.617 0-12-5.383-12-12s5.383-12 12-12h.419c-.904 1.197-1.419 2.664-1.419 4.211v.789h2v-.789c0-1.675.833-3.23 2.227-4.16l.076-.051h1.697v5h2v-5h1.697l.076.051c1.394.929 2.227 2.485 2.227 4.16v.789h2v-.789c0-1.547-.515-3.014-1.419-4.211h.419c6.617 0 12 5.383 12 12s-5.383 12-12 12z"/><path d="m62 29h-8-8c-.552 0-1 .447-1 1v32c0 .553.448 1 1 1h16c.552 0 1-.447 1-1v-32c0-.553-.448-1-1-1zm-1 2v2h-14v-2zm-14 22v-2h14v2zm14 2v2h-14v-2zm-14-6v-2h14v2zm0-4v-2h14v2zm0-4v-2h14v2zm0-4v-2h14v2zm0 24v-2h14v2z"/><path d="m55 15h-2v2h-1c-.404 0-.769.243-.924.617s-.069.804.217 1.09l2.293 2.293h-2.586v2h2v2h2v-2h1c.404 0 .769-.243.924-.617s.069-.804-.217-1.09l-2.293-2.293h2.586v-2h-2z"/><path d="m63 20c0-4.963-4.038-9-9-9s-9 4.037-9 9 4.038 9 9 9 9-4.037 9-9zm-9 7c-3.86 0-7-3.141-7-7s3.14-7 7-7 7 3.141 7 7-3.14 7-7 7z"/><path d="m39 5h-2v2h-1c-.404 0-.769.243-.924.617s-.069.804.217 1.09l2.293 2.293h-2.586v2h2v2h2v-2h1c.404 0 .769-.243.924-.617s.069-.804-.217-1.09l-2.293-2.293h2.586v-2h-2z"/><path d="m38 1c-4.962 0-9 4.037-9 9s4.038 9 9 9 9-4.037 9-9-4.038-9-9-9zm0 16c-3.86 0-7-3.141-7-7s3.14-7 7-7 7 3.141 7 7-3.14 7-7 7z"/></svg>