<svg id="Layer_3" enable-background="new 0 0 64 64" height="512" viewBox="0 0 64 64" width="512" xmlns="http://www.w3.org/2000/svg"><path d="m62 1h-.23c-6.168 0-12.015 2.06-16.77 5.844v-.844c0-2.757-2.243-5-5-5h-34c-2.757 0-5 2.243-5 5v2c0 .552.448 1 1 1h7v49c0 2.757 2.243 5 5 5h34c2.757 0 5-2.243 5-5v-7c0-.552-.448-1-1-1h-7v-21.233c3.066-1.334 5.887-3.24 8.322-5.675l1.77-1.77c5.099-5.099 7.908-11.88 7.908-19.092v-.23c0-.552-.448-1-1-1zm-59 5c0-1.654 1.346-3 3-3h30.002c-.628.836-1.002 1.875-1.002 3v1h-32zm48 46v6c0 1.654-1.346 3-3 3s-3-1.346-3-3v-6zm-6.974 9h-30.026c-1.654 0-3-1.346-3-3v-49h25c.552 0 1-.448 1-1v-2c0-1.654 1.346-3 3-3s3 1.346 3 3v2.601c-.107.103-.217.202-.322.307l-1.77 1.77c-5.055 5.055-7.855 11.762-7.904 18.904l-8.712 8.712 1.414 1.414 8.712-8.712c2.965-.02 5.853-.517 8.581-1.451v28.455c.001 1.13.392 2.162 1.027 3zm9.652-41.092-1.77 1.77c-.114.114-.239.211-.354.322h-5.554v2h3.192c-3.687 2.77-8.031 4.447-12.648 4.869l16.162-16.162-1.414-1.414-16.161 16.162c.422-4.617 2.1-8.96 4.869-12.648v3.193h2v-5.554c.111-.115.209-.24.322-.354l1.77-1.77c.61-.61 1.249-1.177 1.908-1.715v4.393h2v-5.861c1.271-.842 2.607-1.566 4-2.158v4.019h2v-4.774c2.235-.728 4.582-1.141 6.988-1.215-.073 2.407-.487 4.754-1.214 6.989h-4.774v2h4.019c-.591 1.393-1.316 2.729-2.158 4h-5.861v2h4.393c-.538.659-1.106 1.299-1.715 1.908z"/><path d="m26 42c0-.552-.448-1-1-1h-12v2h11v3c0 .552.448 1 1 1h16v-2h-15z"/><path d="m13 31h12v2h-12z"/><path d="m13 27h12v2h-12z"/><path d="m13 23h12v2h-12z"/><path d="m13 19h12v2h-12z"/><path d="m13 49h28v2h-28z"/><path d="m13 53h28v2h-28z"/></svg>