<svg id="Layer_3" enable-background="new 0 0 64 64" height="512" viewBox="0 0 64 64" width="512" xmlns="http://www.w3.org/2000/svg"><path d="m62 11h-1v-2.669c0-2.378-.697-4.68-2.015-6.655l-.152-.229c-.371-.558-1.294-.558-1.665 0l-.152.228c-1.319 1.976-2.016 4.278-2.016 6.656v2.669h-1c-.552 0-1 .448-1 1v1h-8c-.351 0-.677.184-.857.485l-1.669 2.782-.493-2.464c-.094-.467-.504-.803-.981-.803h-30v-1c0-.552-.448-1-1-1h-1v-2.669c0-2.378-.697-4.68-2.015-6.655l-.152-.23c-.371-.558-1.294-.558-1.665 0l-.152.228c-1.319 1.977-2.016 4.279-2.016 6.657v2.669h-1c-.552 0-1 .448-1 1v40c0 .553.448 1 1 1h1v2.67c0 2.377.697 4.679 2.016 6.656l.152.229c.186.278.498.445.832.445s.646-.167.832-.445l.152-.229c1.319-1.977 2.016-4.279 2.016-6.656v-2.67h1c.552 0 1-.447 1-1v-1h8c.351 0 .677-.185.857-.485l1.669-2.782.493 2.464c.094.466.504.803.981.803h30v1c0 .553.448 1 1 1h1v2.67c0 2.377.697 4.679 2.016 6.656l.152.229c.186.278.498.445.832.445s.646-.167.832-.445l.152-.229c1.319-1.977 2.016-4.279 2.016-6.656v-2.67h1c.552 0 1-.447 1-1v-40c0-.552-.448-1-1-1zm-57-2.669c0-1.522.343-3.007 1-4.36.657 1.353 1 2.838 1 4.36v2.669h-2zm2 47.339c0 1.521-.343 3.006-1 4.36-.657-1.354-1-2.839-1-4.36v-2.67h2zm2-4.67h-6v-38h6zm14.82-2-.839-4.196c-.081-.405-.403-.719-.81-.789-.41-.07-.816.116-1.028.471l-2.709 4.514h-7.434v-34h29.18l.839 4.196c.081.405.403.719.81.789.058.01.114.015.171.015.347 0 .675-.181.857-.485l2.709-4.515h7.434v34zm33.18-40.669c0-1.522.343-3.007 1-4.36.657 1.353 1 2.838 1 4.36v2.669h-2zm2 47.339c0 1.521-.343 3.006-1 4.36-.657-1.354-1-2.839-1-4.36v-2.67h2zm2-4.67h-6v-38h6z"/><path d="m13 17h19v2h-19z"/><path d="m13 21h19v2h-19z"/><path d="m13 25h19v2h-19z"/><path d="m13 29h19v2h-19z"/><path d="m32 33h19v2h-19z"/><path d="m32 37h19v2h-19z"/><path d="m32 41h19v2h-19z"/><path d="m32 45h19v2h-19z"/></svg>