<svg id="Layer_3" enable-background="new 0 0 64 64" height="512" viewBox="0 0 64 64" width="512" xmlns="http://www.w3.org/2000/svg"><path d="m56.673 11.26-1.381-1.255c-6.387-5.807-14.659-9.005-23.292-9.005s-16.905 3.198-23.292 9.005l-1.381 1.255c-.24.218-.359.539-.32.86l.841 6.942c2.067 17.055 10.414 32.575 23.504 43.7.187.159.418.238.648.238s.461-.079.647-.238c13.09-11.125 21.437-26.645 23.504-43.7l.841-6.942c.04-.321-.079-.642-.319-.86zm-2.507 7.562c-1.972 16.271-9.833 31.102-22.166 41.859-12.333-10.757-20.194-25.588-22.166-41.859l-.779-6.429.999-.908c6.018-5.472 13.812-8.485 21.946-8.485s15.928 3.013 21.946 8.484l.999.908z"/><path d="m32.37 6h-.74c-7.098 0-13.948 2.574-19.289 7.248-.253.222-.378.556-.332.889l1.288 9.337c1.783 12.921 8.192 24.74 18.048 33.282.188.163.422.244.655.244s.467-.081.655-.244c9.856-8.542 16.266-20.361 18.048-33.282l1.288-9.337c.046-.333-.079-.667-.332-.889-5.342-4.674-12.192-7.248-19.289-7.248zm16.352 17.2c-1.677 12.152-7.604 23.292-16.722 31.467-9.118-8.175-15.045-19.315-16.722-31.467l-1.213-8.796c4.915-4.133 11.131-6.404 17.565-6.404h.739c6.434 0 12.65 2.271 17.565 6.404z"/><path d="m27.232 10.359c-.19.228-.27.528-.216.819l1.742 9.579-9.579-1.742c-.291-.052-.591.026-.819.216-.228.191-.36.473-.36.769v8c0 .296.132.578.359.768s.529.268.819.216l9.579-1.742-1.742 9.579c-.053.292.026.592.216.819s.473.36.769.36h8c.296 0 .578-.132.768-.359s.27-.527.216-.819l-1.742-9.579 9.579 1.742c.293.054.592-.026.819-.216.228-.191.36-.473.36-.769v-8c0-.296-.132-.578-.359-.768-.228-.19-.531-.271-.819-.216l-9.579 1.742 1.742-9.579c.053-.292-.026-.592-.216-.819s-.473-.36-.769-.36h-8c-.296 0-.578.132-.768.359zm7.57 1.641-1.786 9.821c-.059.323.045.654.277.886.231.232.564.334.886.277l9.821-1.786v5.604l-9.821-1.786c-.322-.057-.654.044-.886.277-.232.232-.335.563-.277.886l1.786 9.821h-5.604l1.786-9.821c.059-.323-.045-.654-.277-.886-.231-.232-.564-.334-.886-.277l-9.821 1.786v-5.604l9.821 1.786c.321.058.654-.044.886-.277.232-.232.335-.563.277-.886l-1.786-9.821z"/><path d="m32 40c-2.206 0-4 1.794-4 4s1.794 4 4 4 4-1.794 4-4-1.794-4-4-4zm0 6c-1.103 0-2-.897-2-2s.897-2 2-2 2 .897 2 2-.897 2-2 2z"/></svg>