<svg id="Layer_3" enable-background="new 0 0 64 64" height="512" viewBox="0 0 64 64" width="512" xmlns="http://www.w3.org/2000/svg"><path d="m33 38h-3v-25.229c0-4.524-2.714-8.533-6.915-10.214l-3.714-1.485c-.308-.123-.658-.084-.932.101s-.439.495-.439.827v36h-3c-2.757 0-5 2.243-5 5s2.243 5 5 5c1.13 0 2.162-.391 3-1.026v10.026h-1c-.552 0-1 .447-1 1v4c0 .553.448 1 1 1h14c.552 0 1-.447 1-1v-4c0-.553-.448-1-1-1h-1v-10.026c.838.635 1.87 1.026 3 1.026 2.757 0 5-2.243 5-5s-2.243-5-5-5zm-13-34.523 2.342.938c3.437 1.373 5.658 4.653 5.658 8.356v25.229h-3v-16h-2v16h-3zm8 49.523h-8v-2h8zm0-4h-8v-5h8zm2 12h-12v-2h12zm-10-4v-2h8v2zm13-11c-1.302 0-2.402-.839-2.816-2h1.816v-2h-16v2h1.816c-.414 1.161-1.514 2-2.816 2-1.654 0-3-1.346-3-3s1.346-3 3-3h18c1.654 0 3 1.346 3 3s-1.346 3-3 3z"/><path d="m53.819 11.427-7-10c-.374-.535-1.265-.535-1.639 0l-7 10c-.159.228-.217.511-.159.783l2.742 12.79h-1.763v2h3v30h-1c-.552 0-1 .447-1 1v4c0 .553.448 1 1 1h10c.552 0 1-.447 1-1v-4c0-.553-.448-1-1-1h-1v-30h3v-2h-1.763l2.741-12.79c.058-.272.001-.556-.159-.783zm-5.819 41.573h-4v-2h4zm0-4h-4v-14h4zm0-16h-4v-2h4zm2 28h-8v-2h8zm-6-4v-2h4v2zm4-28h-4v-2h4zm1.191-4h-2.191v-13h-2v13h-2.191l-2.739-12.783 5.93-8.473 5.931 8.473z"/></svg>