<svg id="Layer_3" enable-background="new 0 0 64 64" height="512" viewBox="0 0 64 64" width="512" xmlns="http://www.w3.org/2000/svg"><path d="m57.402 61c-5.356-5.248-12.1-8.577-19.402-9.633v-26.367h3c.553 0 1-.447 1-1v-2c0-1.654-1.346-3-3-3h-3v-12h1c.553 0 1-.447 1-1v-4c0-.553-.447-1-1-1h-10c-.553 0-1 .447-1 1v4c0 .553.447 1 1 1h1v12h-3c-1.654 0-3 1.346-3 3v2c0 .553.447 1 1 1h3v26.367c-7.284 1.054-14.018 4.376-19.4 9.633h-5.6v2h62v-2zm-26.988-42 3.586-3.586v3.586zm-.414-5.586 4-4v3.172l-4 4zm-2-10.414h8v2h-8zm5.586 4-3.586 3.586v-3.586zm-9.586 15c0-.552.448-1 1-1h14c.552 0 1 .448 1 1v1h-16zm4 3h8v26.141c-.992-.086-1.992-.136-3-.138v-22.003h-2v22.002c-1.008.002-2.008.052-3 .139zm3.083 28h1.834c7.991 0 15.542 2.829 21.529 8h-44.892c5.987-5.171 13.538-8 21.529-8z"/><path d="m40 49h10v2h-10z"/><path d="m39.352 43.5h10.296v1.999h-10.296z" transform="matrix(.874 -.486 .486 .874 -16.011 27.211)"/><path d="m14 49h10v2h-10z"/><path d="m18.5 39.352h1.999v10.296h-1.999z" transform="matrix(.486 -.874 .874 .486 -28.87 39.935)"/></svg>