<svg id="Layer_3" enable-background="new 0 0 64 64" height="512" viewBox="0 0 64 64" width="512" xmlns="http://www.w3.org/2000/svg"><path d="m56.414 61-1.403-1.403c-3.61-3.61-8.407-5.597-13.511-5.597-1.878 0-3.728.274-5.5.806v-16.238c6.932-1.492 12.453-6.778 14.31-13.568h3.155l1.703 2.555c.186.278.498.445.832.445h6c.369 0 .708-.203.882-.528s.154-.72-.05-1.026l-1.63-2.446 1.63-2.445c.204-.307.224-.701.05-1.026s-.513-.529-.882-.529h-6c-.334 0-.646.167-.832.445l-1.703 2.555h-2.725c.156-.98.26-1.977.26-3 0-10.477-8.523-19-19-19-8.744 0-16.107 5.945-18.31 14h-3.155l-1.703-2.555c-.186-.278-.498-.445-.832-.445h-6c-.369 0-.708.203-.882.528s-.154.72.05 1.026l1.63 2.446-1.63 2.445c-.204.307-.224.701-.05 1.026s.513.529.882.529h6c.334 0 .646-.167.832-.445l1.703-2.555h2.725c-.156.98-.26 1.977-.26 3 0 9.104 6.439 16.725 15 18.568v16.585c-2.059-.744-4.246-1.153-6.5-1.153-5.104 0-9.901 1.987-13.511 5.597l-1.403 1.403h-5.586v2h62v-2zm.121-39h3.597l-.964 1.445c-.224.336-.224.773 0 1.109l.964 1.446h-3.597l-1.333-2zm-49.07-4h-3.597l.964-1.445c.224-.336.224-.773 0-1.109l-.964-1.446h3.597l1.333 2zm34.035 38c4.564 0 8.855 1.776 12.085 5h-17.171l-1.403-1.403c-.541-.541-1.116-1.033-1.707-1.499.791-.433 1.613-.797 2.456-1.097h.24v-.082c1.761-.599 3.612-.919 5.5-.919zm-9.5-53c9.374 0 17 7.626 17 17 0 1.025-.107 2.024-.281 3h-2.021c.197-.97.302-1.973.302-3 0-8.271-6.729-15-15-15-6.516 0-12.059 4.184-14.125 10h-2.122c2.14-6.941 8.613-12 16.247-12zm-12.637 14h2.063c-.271.955-.426 1.959-.426 3 0 6.065 4.935 11 11 11 4.264 0 7.961-2.444 9.786-6h2.211c-1.963 4.693-6.6 8-11.997 8-7.168 0-13-5.832-13-13 0-1.034.134-2.035.363-3zm5.159-2c1.617-2.41 4.365-4 7.478-4 4.963 0 9 4.038 9 9 0 1.053-.191 2.06-.525 3h-6.475v2h5.478c-1.617 2.41-4.365 4-7.478 4-4.963 0-9-4.038-9-9 0-1.053.191-2.06.525-3h6.475v-2zm18.052 8c.271-.955.426-1.959.426-3 0-6.065-4.935-11-11-11-4.264 0-7.961 2.444-9.786 6h-2.211c1.963-4.693 6.6-8 11.997-8 7.168 0 13 5.832 13 13 0 1.034-.134 2.035-.363 3zm-27.574-3c0-1.025.107-2.024.281-3h2.021c-.197.97-.302 1.973-.302 3 0 8.271 6.729 15 15 15 6.516 0 12.059-4.184 14.125-10h2.122c-2.14 6.941-8.613 12-16.247 12-9.374 0-17-7.626-17-17zm15 18.893c.658.069 1.324.107 2 .107s1.342-.038 2-.107v16.653c-.861.368-1.696.801-2.501 1.296-.489-.302-.987-.582-1.499-.837zm-8.5 17.107c4.564 0 8.855 1.776 12.085 5h-24.17c3.23-3.224 7.521-5 12.085-5z"/></svg>