<svg id="Layer_3" enable-background="new 0 0 64 64" height="512" viewBox="0 0 64 64" width="512" xmlns="http://www.w3.org/2000/svg"><path d="m46 37v2c2.757 0 5-2.243 5-5s-2.243-5-5-5c-.974 0-1.877.291-2.646.775.56-4.926 1.797-9.737 3.724-14.36l.461-1.107c.306-.735.461-1.512.461-2.308v-1c0-3.309-2.691-6-6-6h-3.674c-2.287 0-4.344-1.271-5.367-3.318l-.065-.13c-.339-.676-1.448-.676-1.787 0l-.067.131c-1.022 2.046-3.079 3.317-5.366 3.317h-3.674c-3.309 0-6 2.691-6 6v1c0 .796.155 1.573.461 2.307l.462 1.108c1.926 4.623 3.163 9.434 3.723 14.36-.769-.484-1.672-.775-2.646-.775-2.757 0-5 2.243-5 5s2.243 5 5 5v-2c-1.654 0-3-1.346-3-3s1.346-3 3-3c1.458 0 2.673 1.046 2.942 2.427.029.646.042 1.294.047 1.943-1.241 1.543-1.989 3.5-1.989 5.63 0 .215.082.403.198.566l-.019.013c2.5 4.374 3.821 9.349 3.821 14.388v3.033c0 .592-.261 1.151-.715 1.533-.461.387-1.05.541-1.656.435-.787-.138-1.458-.81-1.596-1.596-.106-.607.048-1.195.435-1.656.381-.455.94-.716 1.532-.716v-2c-1.185 0-2.302.521-3.064 1.429s-1.08 2.106-.873 3.288c.283 1.613 1.607 2.937 3.22 3.22.237.042.475.062.71.062.94 0 1.852-.325 2.578-.935.908-.762 1.429-1.879 1.429-3.064v-3.033c0-.323-.022-.644-.032-.967h.156c2.137 0 3.876-1.739 3.876-3.875 0-1.544-.365-3.091-1.056-4.472l-.1-.199c-.552-1.106-.844-2.343-.844-3.579v-.875h10v.875c0 1.235-.292 2.473-.845 3.578l-.1.199c-.69 1.382-1.055 2.928-1.055 4.473 0 2.136 1.739 3.875 3.875 3.875h.156c-.01.322-.031.644-.031.967v3.033c0 1.185.521 2.302 1.429 3.064.726.609 1.637.935 2.578.935.236 0 .474-.021.71-.062 1.613-.283 2.937-1.607 3.22-3.22.208-1.182-.11-2.38-.873-3.288-.762-.908-1.879-1.429-3.064-1.429v2c.592 0 1.151.261 1.533.715.387.461.541 1.049.435 1.656-.138.787-.81 1.458-1.596 1.596-.606.106-1.195-.048-1.656-.435-.455-.381-.716-.94-.716-1.532v-3.033c0-5.039 1.321-10.014 3.869-14.471l-.014-.007c.084-.147.145-.308.145-.489 0-2.13-.748-4.087-1.99-5.63.005-.649.019-1.297.047-1.943.27-1.381 1.485-2.427 2.943-2.427 1.654 0 3 1.346 3 3s-1.346 3-3 3zm-18-3h8c3.521 0 6.442 2.612 6.929 6h-21.858c.487-3.388 3.408-6 6.929-6zm-9.692-20.462c-.204-.49-.308-1.007-.308-1.538v-1c0-2.206 1.794-4 4-4h3.674c2.521 0 4.831-1.158 6.326-3.099 1.496 1.942 3.806 3.099 6.326 3.099h3.674c2.206 0 4 1.794 4 4v1c0 .531-.104 1.048-.308 1.539l-.461 1.107c-2.502 6.005-3.898 12.312-4.173 18.781-.005.042-.009.083-.013.125-1.179-.801-2.559-1.328-4.045-1.493v-1.456c0-4.669 1.646-9.217 4.635-12.803l.133-.159-1.536-1.281-.133.16c-3.288 3.945-5.099 8.946-5.099 14.083v1.397h-2v-20h-2v20h-2v-1.397c0-5.137-1.811-10.138-5.099-14.084l-.133-.159-1.536 1.281.133.159c2.989 3.586 4.635 8.134 4.635 12.803v1.456c-1.487.165-2.866.691-4.045 1.493-.004-.042-.008-.084-.013-.125-.275-6.468-1.671-12.776-4.172-18.78zm7.748 33.81.1.199c.552 1.105.844 2.342.844 3.578 0 1.034-.841 1.875-1.875 1.875h-.285c-.368-3.807-1.436-7.532-3.18-11h3.34v.875c0 1.545.365 3.091 1.056 4.473zm13.103 5.652h-.284c-1.034 0-1.875-.841-1.875-1.875 0-1.235.292-2.473.845-3.578l.1-.199c.69-1.382 1.055-2.928 1.055-4.473v-.875h3.337c-1.734 3.437-2.808 7.173-3.178 11z"/></svg>