<svg id="Layer_3" enable-background="new 0 0 64 64" height="512" viewBox="0 0 64 64" width="512" xmlns="http://www.w3.org/2000/svg"><path d="m42 8h-6.594l-2.474-6.362c-.15-.385-.52-.638-.932-.638s-.782.253-.932.638l-2.474 6.362h-6.594c-.437 0-.822.283-.954.699-.131.417.023.87.381 1.12l5.078 3.554-2.436 6.264c-.154.395-.042.843.279 1.12.32.278.781.322 1.148.111l3.504-2.002v3.16c-1.207.914-2 2.348-2 3.974s.793 3.061 2 3.974v3.026h-2v2h2v2h-2v2h2v21c0 1.654 1.346 3 3 3s3-1.346 3-3v-21h2v-2h-2v-2h2v-2h-2v-3.026c1.207-.914 2-2.348 2-3.974s-.793-3.061-2-3.974v-3.16l3.504 2.002c.154.089.326.132.496.132.234 0 .467-.082.652-.243.321-.276.434-.725.279-1.12l-2.436-6.264 5.078-3.554c.357-.25.512-.704.381-1.12-.132-.416-.517-.699-.954-.699zm-10-3.241 1.26 3.241h-2.52zm0 10.02-3.063-2.144 1.025-2.635h4.077l1.025 2.635zm-6.828-4.779h2.644l-.566 1.455zm3.019 4.554 1.944 1.36-3.179 1.816zm4.809 45.446c0 .551-.448 1-1 1s-1-.449-1-1v-21h2zm0-23h-2v-2h2zm0-4h-2v-2.101c.323.066.658.101 1 .101s.677-.035 1-.101zm-1-4c-1.654 0-3-1.346-3-3s1.346-3 3-3 3 1.346 3 3-1.346 3-3 3zm1-7.899c-.323-.066-.658-.101-1-.101s-.677.035-1 .101v-3.378l1-.571 1 .571zm4.045-3.37-3.179-1.816 1.944-1.36zm-.296-6.276-.565-1.455h2.644z"/><path d="m45 8h7v2h-7z"/><path d="m47 10.146h2v6.708h-2z" transform="matrix(.447 -.894 .894 .447 14.459 50.395)"/><path d="m12 8h7v2h-7z"/><path d="m12.646 12.5h6.708v2h-6.708z" transform="matrix(.894 -.447 .447 .894 -4.348 8.581)"/><path d="m44.646 3.5h6.708v2h-6.708z" transform="matrix(.894 -.447 .447 .894 3.055 21.941)"/><path d="m15 1.146h2v6.708h-2z" transform="matrix(.447 -.894 .894 .447 4.82 16.798)"/></svg>