<svg id="Layer_3" enable-background="new 0 0 64 64" height="512" viewBox="0 0 64 64" width="512" xmlns="http://www.w3.org/2000/svg"><path d="m62 33h-30-30c-.553 0-1 .447-1 1v6 16 6c0 .553.447 1 1 1h30 30c.553 0 1-.447 1-1v-6-16-6c0-.553-.447-1-1-1zm-1 22h-2v-14h2zm-58-14h2v14h-2zm24 6h-20v-2h20zm-20 2h20v2h-20zm20-6h-20v-2h20zm-20 10h20v2h-20zm22-12h2v14h-2zm4 0h2v14h-2zm24 6h-20v-2h20zm-20 2h20v2h-20zm20-6h-20v-2h20zm-20 10h20v2h-20zm-4-14v-4h28v4zm-30-4h28v4h-28zm0 22h28v4h-28zm58 4h-28v-4h28z"/><path d="m17 31h30c.553 0 1-.447 1-1v-6-16-6c0-.553-.447-1-1-1h-30c-.553 0-1 .447-1 1v6 16 6c0 .553.447 1 1 1zm29-2h-28v-4h28zm-28-20h2v14h-2zm28 14h-2v-14h2zm-4 0h-20v-14h20zm-24-20h28v4h-28z"/><path d="m28 21h8c.553 0 1-.447 1-1v-4c0-.553-.447-1-1-1h-1v-3c0-.553-.447-1-1-1h-4c-.553 0-1 .447-1 1v3h-1c-.553 0-1 .447-1 1v4c0 .553.447 1 1 1zm3-8h2v2h-2zm-2 4h6v2h-6z"/></svg>