# Blender v3.4.1 OBJ File: 'blocks-ramps.blend'
# www.blender.org
mtllib blocks-ramp-corner-se.mtl
o Block-Ramp-Corner-Se_Cube.002
v -1.000000 -1.000000 -1.000000
v -1.000000 -1.000000 -1.000000
v -1.000000 -0.000000 1.000000
v -1.000000 1.000000 -1.000000
v 1.000000 -1.000000 -1.000000
v 1.000000 -1.000000 -1.000000
v 1.000000 1.000000 -1.000000
v 1.000000 1.000000 -1.000000
v 0.000000 -1.000000 1.000000
vt 0.000000 0.555556
vt 1.000000 0.000000
vt 1.000000 1.000000
vt 1.000000 1.000000
vt 0.375000 0.000000
vt 0.625000 0.000000
vt 0.625000 0.250000
vt 0.375000 0.250000
vt 0.000000 0.000000
vt 1.000000 0.000000
vt 1.000000 1.000000
vt 0.000000 1.000000
vt 1.000000 0.000000
vt 1.000000 1.000000
vt 0.000000 0.400000
vt 0.625000 0.500000
vt 0.375000 0.500000
vt 0.000000 0.400000
vt 1.000000 0.000000
vt 1.000000 1.000000
vt 0.000000 0.444444
vt 1.000000 0.000000
vt 0.500000 0.000000
vt 0.000000 1.000000
vt 0.000000 1.000000
vt 0.500000 0.000000
vn -0.0000 0.8944 0.4472
vn 0.0000 0.0000 1.0000
vn 0.0000 0.0000 -1.0000
vn -1.0000 0.0000 -0.0000
vn 0.0000 -1.0000 0.0000
vn 0.8944 0.0000 0.4472
vn 0.4851 0.4851 0.7276
vn -0.6667 -0.6667 0.3333
usemtl Stone-Sandstone
s off
f 4/1/1 3/2/1 7/3/1 8/4/1
f 8/5/2 7/6/2 5/7/2 6/8/2
f 6/9/3 2/10/3 4/11/3 8/12/3
f 2/10/4 1/13/4 3/14/4 4/15/4
f 6/8/2 5/7/2 1/16/2 2/17/2
f 1/18/5 5/19/5 9/20/5
f 5/21/6 7/22/6 9/20/6
f 7/23/7 3/14/7 9/24/7
f 3/25/8 1/26/8 9/20/8
